<?xml version="1.0" encoding="UTF-8"?>
<svg width="70px" height="58px" viewBox="0 0 70 58" version="1.1" xmlns="http://www.w3.org/2000/svg" xmlns:xlink="http://www.w3.org/1999/xlink">
    <!-- Generator: Sketch 42 (36781) - http://www.bohemiancoding.com/sketch -->
    <title>community-logo</title>
    <desc>Created with Sketch.</desc>
    <defs>
        <linearGradient x1="50%" y1="0%" x2="50%" y2="99.1210938%" id="linearGradient-1">
            <stop stop-color="#E659FF" offset="0%"></stop>
            <stop stop-color="#0037FF" offset="100%"></stop>
        </linearGradient>
        <path d="M31.9715836,50.9272318 C32.6961462,52.5184044 32.5225786,54.0239658 32.5225786,54.0239658 C32.5225786,54.0239658 31.7789553,54.2464336 30.3755524,54.2653626 C29.8554175,54.3866298 27.7770502,54.7654349 24.4055319,54.0549103 C20.4790798,53.2274372 18.6635485,49.0629412 18.6635485,49.0629412 C18.6635485,49.0629412 18.7015185,49.025359 18.7765499,48.9617328 C18.5548187,48.9213486 18.4264567,48.9077973 18.4022368,48.9291731 C15.8680767,49.4193884 14.5442011,49.3646835 12.6131323,49.3646835 C10.6820635,49.3646835 3.03884881,46.4809235 0.576239224,43.3889687 C0.576239224,43.3889687 4.39942153,42.4608201 4.39942153,41.676588 C4.39942153,40.8923558 0.0321373383,39.4430723 0.0321373383,39.4430723 C0.0321373383,39.4430723 -0.62955466,35.8255175 4.05200405,32.2129577 C7.12147521,29.8443774 9.68444431,28.2916397 12.1952298,27.446598 C9.76278625,27.1236111 2.8876074,24.4049565 0.576239224,21.5028945 C0.576239224,21.5028945 4.39942153,20.5747459 4.39942153,19.7905137 C4.39942153,19.0062816 0.0321373383,17.556998 0.0321373383,17.556998 C0.0321373383,17.556998 -0.62955466,13.9394433 4.05200405,10.3268835 C8.73356276,6.71432368 12.236878,4.99960695 16.1738609,4.79903054 C20.1108438,4.59845414 21.43077,4.59845414 21.43077,4.59845414 C21.43077,4.59845414 24.8580833,1.0102295e-16 26.6585755,0 C27.5586208,0 40.7462165,2.78525703 41.8884883,4.59845414 C43.0307601,6.41165125 43.5866235,6.2797422 44.1704207,6.71432368 C44.7542179,7.14890516 44.3864257,6.80137506 47.03187,7.38872746 C53.6489179,8.85787154 52.7462418,9.43464349 57.6625661,10.3268835 C59.6523381,10.6879976 68.7706096,6.23500385 69.630738,6.66749283 C70.0312282,6.86886688 70.3455887,10.698757 68.7800706,13.2098946 C67.2145526,15.7210322 70.0367909,17.79542 68.7693979,20.9399635 C67.502005,24.0845071 70.220841,26.41411 69.630738,27.4786092 C69.0406351,28.5431084 59.3583985,23.994778 57.6625661,24.3236432 C56.1447343,24.6179896 51.8333798,26.6318747 43.4139707,28.1724362 C43.6905963,28.33723 43.9281022,28.4200149 44.1704207,28.6003979 C44.7542179,29.0349794 44.3864257,28.6874493 47.03187,29.2748017 C53.6489179,30.7439458 52.7462418,31.3207178 57.6625661,32.2129577 C59.6523381,32.5740719 68.7706096,28.1210781 69.630738,28.5535671 C70.0312282,28.7549412 70.3455887,32.5848313 68.7800706,35.0959689 C67.2145526,37.6071065 70.0367909,39.6814942 68.7693979,42.8260378 C67.502005,45.9705814 70.220841,48.3001843 69.630738,49.3646835 C69.0406351,50.4291827 59.3583985,45.8808522 57.6625661,46.2097175 C55.9667337,46.5385827 50.7837499,49.0139463 40.2802497,50.5774436 C37.4824653,50.9939075 34.6404453,51.0560586 31.9715836,50.9272318 Z" id="path-2"></path>
        <linearGradient x1="37.1226037%" y1="32.1098617%" x2="39.6108828%" y2="100%" id="linearGradient-4">
            <stop stop-color="#F1A5FF" offset="0%"></stop>
            <stop stop-color="#FF686C" offset="100%"></stop>
        </linearGradient>
        <linearGradient x1="39.8556061%" y1="8.32073005%" x2="43.0041068%" y2="72.3261431%" id="linearGradient-5">
            <stop stop-color="#F1A5FF" offset="0%"></stop>
            <stop stop-color="#FF686C" offset="100%"></stop>
        </linearGradient>
        <path d="M33.2843137,39.7256963 L70.3431373,39.7256963 L70.3431373,55.2271072 L0,55.2271072 L0,41.7805472 L33.2843137,41.7805472 L33.2843137,39.7256963 Z" id="path-6"></path>
        <linearGradient x1="26.3844255%" y1="17.5301761%" x2="73.1482182%" y2="74.1711318%" id="linearGradient-7">
            <stop stop-color="#F1A5FF" offset="0%"></stop>
            <stop stop-color="#FF686C" offset="100%"></stop>
        </linearGradient>
        <path d="M23.3591841,19.6624332 C23.4113205,19.525029 23.4626366,19.3836964 23.5127341,19.23879 C23.935957,18.0146234 24.1911765,16.782683 24.1911765,15.6064836 C24.1911765,15.1444258 24.1342138,14.6554104 24.027001,14.142154 C23.8559004,13.3230493 23.5624739,12.4639157 23.1814682,11.5910827 C22.9660192,11.097518 22.7356663,10.6297565 22.5050432,10.2014571 C22.3655746,9.94244432 22.2556724,9.75195982 22.1899781,9.64420296 C21.9808306,9.30114315 21.5550418,9.20705225 21.2389521,9.43404505 C20.9228624,9.66103786 20.8361686,10.1231568 21.045316,10.4662166 C21.0569652,10.4853245 21.0815086,10.526647 21.1170917,10.5883204 C21.1779757,10.6938455 21.2462367,10.8160609 21.3200181,10.9530833 C21.5317203,11.346244 21.7436928,11.7766818 21.9410808,12.2288712 C22.2823271,13.0106205 22.5421962,13.7715004 22.688421,14.4715176 C22.7742997,14.8826421 22.8186275,15.263189 22.8186275,15.6064836 C22.8186275,16.5789802 22.597822,17.6448047 22.2276702,18.7154638 C22.110162,19.0553545 21.9850999,19.373439 21.8595834,19.6624332 L23.3591841,19.6624332 Z" id="path-8"></path>
        <path d="M23.3591841,41.8048128 C23.4113205,41.6674087 23.4626366,41.5260761 23.5127341,41.3811696 C23.935957,40.1570031 24.1911765,38.9250626 24.1911765,37.7488633 C24.1911765,37.2868055 24.1342138,36.7977901 24.027001,36.2845337 C23.8559004,35.465429 23.5624739,34.6062954 23.1814682,33.7334624 C22.9660192,33.2398977 22.7356663,32.7721362 22.5050432,32.3438368 C22.3655746,32.084824 22.2556724,31.8943395 22.1899781,31.7865826 C21.9808306,31.4435228 21.5550418,31.3494319 21.2389521,31.5764247 C20.9228624,31.8034175 20.8361686,32.2655365 21.045316,32.6085963 C21.0569652,32.6277041 21.0815086,32.6690267 21.1170917,32.7307001 C21.1779757,32.8362252 21.2462367,32.9584406 21.3200181,33.095463 C21.5317203,33.4886237 21.7436928,33.9190615 21.9410808,34.3712509 C22.2823271,35.1530002 22.5421962,35.9138801 22.688421,36.6138973 C22.7742997,37.0250218 22.8186275,37.4055687 22.8186275,37.7488633 C22.8186275,38.7213598 22.597822,39.7871844 22.2276702,40.8578435 C22.110162,41.1977342 21.9850999,41.5158187 21.8595834,41.8048128 L23.3591841,41.8048128 Z" id="path-9"></path>
    </defs>
    <g id="ðŸŽ-logos" stroke="none" stroke-width="1" fill="none" fill-rule="evenodd">
        <g id="community-logo">
            <g id="fish-copy-8" transform="translate(0.000000, 2.000000)">
                <g id="body">
                    <mask id="mask-3" fill="white">
                        <use xlink:href="#path-2"></use>
                    </mask>
                    <use id="Combined-Shape" fill="url(#linearGradient-1)" xlink:href="#path-2"></use>
                    <path d="M42.7205882,17.6171725 L70.3431373,17.6171725 L70.3431373,28.1407549 C70.3431373,28.1407549 52.3770566,28.2511122 43.4926471,28.1407549 C40.2106208,28.0999874 29.3364721,27.3959246 29.3364721,27.3959246 L10.379902,27.3959246 L0,28.1407549 L0,19.7314357 L42.7205882,19.7314357 L42.7205882,17.6171725 Z" id="Combined-Shape" fill="url(#linearGradient-4)" mask="url(#mask-3)"></path>
                    <polygon id="Rectangle-4" fill="#6F47FF" mask="url(#mask-3)" points="27.622549 25.5080214 52.5 25.5080214 52.5 28.519385 27.622549 27.5155971"></polygon>
                    <g id="Combined-Shape-Copy" mask="url(#mask-3)">
                        <use fill="#F78EC6" xlink:href="#path-6"></use>
                        <use fill="url(#linearGradient-5)" xlink:href="#path-6"></use>
                    </g>
                    <path d="M27.1338075,10.1930253 C28.3296576,10.254172 29.5254765,10.3173249 30.6413665,10.379067 C31.0308698,10.4006182 31.4044649,10.4216633 31.7601018,10.4421144 C32.7686812,10.5001135 33.6149046,10.5522897 34.2646573,10.5971603 C36.7090736,10.7659665 40.4768698,11.3286018 43.3553389,11.8997013 C47.7672441,12.7750405 51.3688178,14.0700645 57.0876198,16.5892423 C57.5237216,16.7813486 59.0212785,17.4445372 59.0561016,17.4599289 C59.4392837,17.6292941 59.8732993,17.4209351 60.0255023,16.994546 C60.1777054,16.5681569 59.9904598,16.0852026 59.6072777,15.9158374 C59.5735666,15.9009372 58.0747916,15.2372091 57.6371915,15.0444428 C51.8329734,12.4876385 48.1499471,11.1633265 43.6174213,10.2640557 C40.6875244,9.68275273 36.8668906,9.11222731 34.3571403,8.93890927 C33.7013671,8.89362296 32.8504418,8.84115679 31.8371593,8.78288732 C31.4805117,8.76237807 31.1059534,8.74127871 30.7155158,8.71967583 C29.5975369,8.65781812 28.3999249,8.59457051 27.202344,8.53333529 C26.7832152,8.51190422 26.3940169,8.49225489 26.0447169,8.47481325 C25.9224433,8.46870774 25.8138842,8.46331398 25.7202856,8.45868521 C25.6253992,8.45400113 25.6253992,8.45400113 25.6053196,8.45301655 C25.0309489,8.42485304 24.6447394,9.09937519 24.9103744,9.66675121 C24.9205954,9.68858239 24.9418462,9.73511577 24.9725434,9.80422101 C25.0249295,9.9221525 25.0836286,10.0584597 25.1470558,10.2109953 C25.3290221,10.648605 25.5112214,11.1259798 25.6809795,11.62555 C25.9500259,12.4173088 26.1611573,13.1871596 26.2923856,13.9006505 C26.341496,14.1676644 26.3787684,14.4237589 26.4035259,14.6674325 C26.4752897,15.373761 26.3149292,16.5933402 25.9664391,18.1350531 C25.8433024,18.6798072 25.6994642,19.2533971 25.5390958,19.8460997 C25.3426867,20.5720042 25.1319608,21.2887851 24.9212769,21.9640739 C24.8476005,22.200223 24.7792576,22.4141184 24.718038,22.6017585 C24.6967167,22.6671091 24.6778433,22.7244094 24.6616413,22.7731604 C24.6520857,22.801913 24.6454302,22.8217704 24.6425472,22.8302987 C24.4974579,23.2597476 24.6926994,23.7387653 25.0786314,23.9002146 C25.4645633,24.0616639 25.8950411,23.8444073 26.0401304,23.4149584 C26.044377,23.4023836 26.0515354,23.3810257 26.062032,23.3494417 C26.0792505,23.297632 26.0991448,23.2372322 26.1214929,23.1687345 C26.1850431,22.9739511 26.2557293,22.7527219 26.3317766,22.5089734 C26.5488747,21.8131258 26.7659308,21.0748126 26.9687848,20.3250884 C27.1354233,19.7092126 27.2853348,19.1114038 27.4144208,18.5403298 C27.8042943,16.8155381 27.9848535,15.4423425 27.887158,14.4807833 C27.8572076,14.1859988 27.8128652,13.8813274 27.7551483,13.5675198 C27.6063066,12.7582642 27.3727242,11.9065504 27.0775577,11.037924 C26.9767932,10.7413908 26.8721658,10.4526229 26.7657612,10.1742715 C26.8855776,10.1803552 27.0083492,10.1866103 27.1338075,10.1930253 Z" id="bottom-fin" fill="#974DFF" fill-rule="nonzero" mask="url(#mask-3)"></path>
                    <path d="M27.1433237,19.6624332 C27.2414396,19.279037 27.3321589,18.9042549 27.4144208,18.5403298 C27.8042943,16.8155381 27.9848535,15.4423425 27.887158,14.4807833 C27.8572076,14.1859988 27.8128652,13.8813274 27.7551483,13.5675198 C27.6063066,12.7582642 27.3727242,11.9065504 27.0775577,11.037924 C26.9767932,10.7413908 26.8721658,10.4526229 26.7657612,10.1742715 C26.8855776,10.1803552 27.0083492,10.1866103 27.1338075,10.1930253 C28.3296576,10.254172 29.5254765,10.3173249 30.6413665,10.379067 C31.0308698,10.4006182 31.4044649,10.4216633 31.7601018,10.4421144 C32.7686812,10.5001135 33.6149046,10.5522897 34.2646573,10.5971603 C36.7090736,10.7659665 40.4768698,11.3286018 43.3553389,11.8997013 C47.7672441,12.7750405 51.3688178,14.0700645 57.0876198,16.5892423 C57.5237216,16.7813486 59.0212785,17.4445372 59.0561016,17.4599289 C59.4392837,17.6292941 59.8732993,17.4209351 60.0255023,16.994546 C60.1777054,16.5681569 59.9904598,16.0852026 59.6072777,15.9158374 C59.5735666,15.9009372 58.0747916,15.2372091 57.6371915,15.0444428 C51.8329734,12.4876385 48.1499471,11.1633265 43.6174213,10.2640557 C40.6875244,9.68275273 36.8668906,9.11222731 34.3571403,8.93890927 C33.7013671,8.89362296 32.8504418,8.84115679 31.8371593,8.78288732 C31.4805117,8.76237807 31.1059534,8.74127871 30.7155158,8.71967583 C29.5975369,8.65781812 28.3999249,8.59457051 27.202344,8.53333529 C26.7832152,8.51190422 26.3940169,8.49225489 26.0447169,8.47481325 C25.9224433,8.46870774 25.8138842,8.46331398 25.7202856,8.45868521 C25.6253992,8.45400113 25.6253992,8.45400113 25.6053196,8.45301655 C25.0309489,8.42485304 24.6447394,9.09937519 24.9103744,9.66675121 C24.9205954,9.68858239 24.9418462,9.73511577 24.9725434,9.80422101 C25.0249295,9.9221525 25.0836286,10.0584597 25.1470558,10.2109953 C25.3290221,10.648605 25.5112214,11.1259798 25.6809795,11.62555 C25.9500259,12.4173088 26.1611573,13.1871596 26.2923856,13.9006505 C26.341496,14.1676644 26.3787684,14.4237589 26.4035259,14.6674325 C26.4752897,15.373761 26.3149292,16.5933402 25.9664391,18.1350531 C25.856065,18.6233458 25.7290583,19.1348065 25.5884229,19.6624331 L27.1433236,19.6624332 Z" id="top-fin" fill="#F1A5FF" fill-rule="nonzero" mask="url(#mask-3)"></path>
                    <path d="M21.045316,10.4662166 C21.0569652,10.4853245 21.0815086,10.526647 21.1170917,10.5883204 C21.1779757,10.6938455 21.2462367,10.8160609 21.3200181,10.9530833 C21.5317203,11.346244 21.7436928,11.7766818 21.9410808,12.2288712 C22.2823271,13.0106205 22.5421962,13.7715004 22.688421,14.4715176 C22.7742997,14.8826421 22.8186275,15.263189 22.8186275,15.6064836 C22.8186275,16.5789802 22.597822,17.6448047 22.2276702,18.7154638 C22.0965158,19.0948262 21.9559509,19.4470235 21.8158473,19.7619278 C21.7672773,19.8710963 21.7224699,19.9673629 21.6826671,20.0494925 C21.6597988,20.0966792 21.6443879,20.1273426 21.6376781,20.1402605 C21.45155,20.4986012 21.5683184,20.9528546 21.8984876,21.1548639 C22.2286568,21.3568732 22.6471985,21.2301417 22.8333265,20.871801 C22.879858,20.782217 22.9559936,20.6251176 23.0518447,20.4096775 C23.2092567,20.0558701 23.3662074,19.6626166 23.5127341,19.23879 C23.935957,18.0146234 24.1911765,16.782683 24.1911765,15.6064836 C24.1911765,15.1444258 24.1342138,14.6554104 24.027001,14.142154 C23.8559004,13.3230493 23.5624739,12.4639157 23.1814682,11.5910827 C22.9660192,11.097518 22.7356663,10.6297565 22.5050432,10.2014571 C22.3655746,9.94244432 22.2556724,9.75195982 22.1899781,9.64420296 C21.9808306,9.30114315 21.5550418,9.20705225 21.2389521,9.43404505 C20.9228624,9.66103786 20.8361686,10.1231568 21.045316,10.4662166 Z" id="bottom-fin-1" fill="#974DFF" fill-rule="nonzero" mask="url(#mask-3)"></path>
                    <g id="top-fin-1" mask="url(#mask-3)" fill-rule="nonzero">
                        <use fill="url(#linearGradient-7)" fill-rule="evenodd" xlink:href="#path-8"></use>
                        <use fill="#F1A5FF" fill-rule="evenodd" xlink:href="#path-8"></use>
                    </g>
                    <path d="M27.1338075,32.3354049 C28.3296576,32.3965517 29.5254765,32.4597046 30.6413665,32.5214467 C31.0308698,32.5429979 31.4044649,32.564043 31.7601018,32.5844941 C32.7686812,32.6424931 33.6149046,32.6946694 34.2646573,32.7395399 C36.7090736,32.9083461 40.4768698,33.4709815 43.3553389,34.042081 C47.7672441,34.9174201 51.3688178,36.2124442 57.0876198,38.7316219 C57.5237216,38.9237282 59.0212785,39.5869169 59.0561016,39.6023086 C59.4392837,39.7716738 59.8732993,39.5633147 60.0255023,39.1369256 C60.1777054,38.7105365 59.9904598,38.2275822 59.6072777,38.058217 C59.5735666,38.0433169 58.0747916,37.3795888 57.6371915,37.1868224 C51.8329734,34.6300182 48.1499471,33.3057062 43.6174213,32.4064354 C40.6875244,31.8251324 36.8668906,31.254607 34.3571403,31.0812889 C33.7013671,31.0360026 32.8504418,30.9835365 31.8371593,30.925267 C31.4805117,30.9047577 31.1059534,30.8836584 30.7155158,30.8620555 C29.5975369,30.8001978 28.3999249,30.7369502 27.202344,30.675715 C26.7832152,30.6542839 26.3940169,30.6346346 26.0447169,30.6171929 C25.9224433,30.6110874 25.8138842,30.6056937 25.7202856,30.6010649 C25.6253992,30.5963808 25.6253992,30.5963808 25.6053196,30.5953962 C25.0309489,30.5672327 24.6447394,31.2417549 24.9103744,31.8091309 C24.9205954,31.8309621 24.9418462,31.8774954 24.9725434,31.9466007 C25.0249295,32.0645322 25.0836286,32.2008393 25.1470558,32.353375 C25.3290221,32.7909847 25.5112214,33.2683595 25.6809795,33.7679296 C25.9500259,34.5596885 26.1611573,35.3295392 26.2923856,36.0430302 C26.341496,36.3100441 26.3787684,36.5661385 26.4035259,36.8098122 C26.4752897,37.5161407 26.3149292,38.7357199 25.9664391,40.2774328 C25.8433024,40.8221869 25.6994642,41.3957767 25.5390958,41.9884793 C25.3426867,42.7143839 25.1319608,43.4311648 24.9212769,44.1064535 C24.8476005,44.3426027 24.7792576,44.5564981 24.718038,44.7441382 C24.6967167,44.8094888 24.6778433,44.866789 24.6616413,44.9155401 C24.6520857,44.9442926 24.6454302,44.9641501 24.6425472,44.9726784 C24.4974579,45.4021273 24.6926994,45.8811449 25.0786314,46.0425943 C25.4645633,46.2040436 25.8950411,45.986787 26.0401304,45.5573381 C26.044377,45.5447632 26.0515354,45.5234054 26.062032,45.4918214 C26.0792505,45.4400116 26.0991448,45.3796119 26.1214929,45.3111142 C26.1850431,45.1163308 26.2557293,44.8951016 26.3317766,44.651353 C26.5488747,43.9555055 26.7659308,43.2171923 26.9687848,42.4674681 C27.1354233,41.8515923 27.2853348,41.2537835 27.4144208,40.6827095 C27.8042943,38.9579177 27.9848535,37.5847222 27.887158,36.6231629 C27.8572076,36.3283785 27.8128652,36.0237071 27.7551483,35.7098995 C27.6063066,34.9006439 27.3727242,34.04893 27.0775577,33.1803037 C26.9767932,32.8837704 26.8721658,32.5950026 26.7657612,32.3166512 C26.8855776,32.3227349 27.0083492,32.3289899 27.1338075,32.3354049 Z" id="bottom-fin" fill="#373FFF" fill-rule="nonzero" mask="url(#mask-3)"></path>
                    <path d="M27.1433237,41.8048128 C27.2414396,41.4214167 27.3321589,41.0466345 27.4144208,40.6827095 C27.8042943,38.9579177 27.9848535,37.5847222 27.887158,36.6231629 C27.8572076,36.3283785 27.8128652,36.0237071 27.7551483,35.7098995 C27.6063066,34.9006439 27.3727242,34.04893 27.0775577,33.1803037 C26.9767932,32.8837704 26.8721658,32.5950026 26.7657612,32.3166512 C26.8855776,32.3227349 27.0083492,32.3289899 27.1338075,32.3354049 C28.3296576,32.3965517 29.5254765,32.4597046 30.6413665,32.5214467 C31.0308698,32.5429979 31.4044649,32.564043 31.7601018,32.5844941 C32.7686812,32.6424931 33.6149046,32.6946694 34.2646573,32.7395399 C36.7090736,32.9083461 40.4768698,33.4709815 43.3553389,34.042081 C47.7672441,34.9174201 51.3688178,36.2124442 57.0876198,38.7316219 C57.5237216,38.9237282 59.0212785,39.5869169 59.0561016,39.6023086 C59.4392837,39.7716738 59.8732993,39.5633147 60.0255023,39.1369256 C60.1777054,38.7105365 59.9904598,38.2275822 59.6072777,38.058217 C59.5735666,38.0433169 58.0747916,37.3795888 57.6371915,37.1868224 C51.8329734,34.6300182 48.1499471,33.3057062 43.6174213,32.4064354 C40.6875244,31.8251324 36.8668906,31.254607 34.3571403,31.0812889 C33.7013671,31.0360026 32.8504418,30.9835365 31.8371593,30.925267 C31.4805117,30.9047577 31.1059534,30.8836584 30.7155158,30.8620555 C29.5975369,30.8001978 28.3999249,30.7369502 27.202344,30.675715 C26.7832152,30.6542839 26.3940169,30.6346346 26.0447169,30.6171929 C25.9224433,30.6110874 25.8138842,30.6056937 25.7202856,30.6010649 C25.6253992,30.5963808 25.6253992,30.5963808 25.6053196,30.5953962 C25.0309489,30.5672327 24.6447394,31.2417549 24.9103744,31.8091309 C24.9205954,31.8309621 24.9418462,31.8774954 24.9725434,31.9466007 C25.0249295,32.0645322 25.0836286,32.2008393 25.1470558,32.353375 C25.3290221,32.7909847 25.5112214,33.2683595 25.6809795,33.7679296 C25.9500259,34.5596885 26.1611573,35.3295392 26.2923856,36.0430302 C26.341496,36.3100441 26.3787684,36.5661385 26.4035259,36.8098122 C26.4752897,37.5161407 26.3149292,38.7357199 25.9664391,40.2774328 C25.856065,40.7657255 25.7290583,41.2771862 25.5884229,41.8048128 L27.1433236,41.8048128 Z" id="top-fin" fill="#F1A5FF" fill-rule="nonzero" mask="url(#mask-3)"></path>
                    <path d="M21.045316,32.6085963 C21.0569652,32.6277041 21.0815086,32.6690267 21.1170917,32.7307001 C21.1779757,32.8362252 21.2462367,32.9584406 21.3200181,33.095463 C21.5317203,33.4886237 21.7436928,33.9190615 21.9410808,34.3712509 C22.2823271,35.1530002 22.5421962,35.9138801 22.688421,36.6138973 C22.7742997,37.0250218 22.8186275,37.4055687 22.8186275,37.7488633 C22.8186275,38.7213598 22.597822,39.7871844 22.2276702,40.8578435 C22.0965158,41.2372059 21.9559509,41.5894032 21.8158473,41.9043075 C21.7672773,42.013476 21.7224699,42.1097425 21.6826671,42.1918722 C21.6597988,42.2390589 21.6443879,42.2697223 21.6376781,42.2826402 C21.45155,42.6409808 21.5683184,43.0952342 21.8984876,43.2972436 C22.2286568,43.4992529 22.6471985,43.3725213 22.8333265,43.0141807 C22.879858,42.9245967 22.9559936,42.7674973 23.0518447,42.5520572 C23.2092567,42.1982498 23.3662074,41.8049962 23.5127341,41.3811696 C23.935957,40.1570031 24.1911765,38.9250626 24.1911765,37.7488633 C24.1911765,37.2868055 24.1342138,36.7977901 24.027001,36.2845337 C23.8559004,35.465429 23.5624739,34.6062954 23.1814682,33.7334624 C22.9660192,33.2398977 22.7356663,32.7721362 22.5050432,32.3438368 C22.3655746,32.084824 22.2556724,31.8943395 22.1899781,31.7865826 C21.9808306,31.4435228 21.5550418,31.3494319 21.2389521,31.5764247 C20.9228624,31.8034175 20.8361686,32.2655365 21.045316,32.6085963 Z" id="bottom-fin-1" fill="#373FFF" fill-rule="nonzero" mask="url(#mask-3)"></path>
                    <g id="top-fin-1" mask="url(#mask-3)" fill-rule="nonzero">
                        <use fill="url(#linearGradient-7)" fill-rule="evenodd" xlink:href="#path-9"></use>
                        <use fill="#F1A5FF" fill-rule="evenodd" xlink:href="#path-9"></use>
                    </g>
                </g>
                <g id="eye" transform="translate(11.838034, 36.113242) scale(-1, 1) translate(-11.838034, -36.113242) translate(8.540932, 32.681869)">
                    <ellipse id="Oval-2-Copy-2" fill="#000000" cx="3.26959813" cy="3.3669543" rx="3.26959813" ry="3.3669543"></ellipse>
                    <path d="M6.53899922,3.40430677 C6.53913047,3.391872 6.53919627,3.37942106 6.53919627,3.3669543 C6.53919627,1.50743679 5.07534732,0 3.26959813,0 C1.46384895,0 3.10862447e-14,1.50743679 3.10862447e-14,3.3669543 C3.10862447e-14,5.22647181 1.46384895,6.7339086 3.26959813,6.7339086 C4.88728351,6.7339086 6.23057611,5.52411197 6.4928301,3.93518337 C6.26725166,5.13027166 5.24537855,6.03245978 4.01888104,6.03245978 C2.62694937,6.03245978 1.49856581,4.87047726 1.49856581,3.43709918 C1.49856581,2.0037211 2.62694937,0.841738575 4.01888104,0.841738575 C5.40018247,0.841738575 6.52194588,1.98604066 6.53899922,3.40430677 Z" id="Combined-Shape" fill="#FFFFFF"></path>
                    <ellipse id="Oval-6" fill="#FFFFFF" cx="4.9201918" cy="4.34147928" rx="0.83319413" ry="0.834235222"></ellipse>
                </g>
                <g id="eye-copy-4" transform="translate(11.838034, 13.929099) scale(-1, 1) translate(-11.838034, -13.929099) translate(8.540932, 10.497726)">
                    <ellipse id="Oval-2-Copy-2" fill="#000000" cx="3.26959813" cy="3.3669543" rx="3.26959813" ry="3.3669543"></ellipse>
                    <path d="M6.53899922,3.40430677 C6.53913047,3.391872 6.53919627,3.37942106 6.53919627,3.3669543 C6.53919627,1.50743679 5.07534732,0 3.26959813,0 C1.46384895,0 3.10862447e-14,1.50743679 3.10862447e-14,3.3669543 C3.10862447e-14,5.22647181 1.46384895,6.7339086 3.26959813,6.7339086 C4.88728351,6.7339086 6.23057611,5.52411197 6.4928301,3.93518337 C6.26725166,5.13027166 5.24537855,6.03245978 4.01888104,6.03245978 C2.62694937,6.03245978 1.49856581,4.87047726 1.49856581,3.43709918 C1.49856581,2.0037211 2.62694937,0.841738575 4.01888104,0.841738575 C5.40018247,0.841738575 6.52194588,1.98604066 6.53899922,3.40430677 Z" id="Combined-Shape" fill="#FFFFFF"></path>
                    <ellipse id="Oval-6" fill="#FFFFFF" cx="4.9201918" cy="4.34147928" rx="0.83319413" ry="0.834235222"></ellipse>
                </g>
            </g>
        </g>
    </g>
</svg>