<svg width="440" height="440" viewBox="0 0 440 440" xmlns="http://www.w3.org/2000/svg" style="background:#1F33D9"><title>default-cover</title><desc>Created with Sketch.</desc><g fill="none"><path fill="#CDC200" d="M0 0h16.2v16h-16.2z"/><path fill="#923B00" d="M0 31.429h16.2v16h-16.2z"/><path fill="#A35DB7" d="M15.714 62.857h16.2v16h-16.2z"/><path fill="#A35DB7" d="M31.429 62.857h16.2v16h-16.2z"/><path fill="#923B00" d="M47.143 62.857h16.2v16h-16.2z"/><path fill="#A35DB7" d="M172.857 62.857h16.2v16h-16.2z"/><path fill="#A35DB7" d="M188.571 62.857h16.2v16h-16.2z"/><path fill="#923B00" d="M204.286 62.857h16.2v16h-16.2z"/><path fill="#A35DB7" d="M330 62.857h16.2v16h-16.2z"/><path fill="#A35DB7" d="M345.714 62.857h16.2v16h-16.2z"/><path fill="#923B00" d="M361.429 62.857h16.2v16h-16.2z"/><path fill="#A35DB7" d="M31.429 78.571h16.2v16h-16.2z"/><path fill="#A35DB7" d="M47.143 78.571h16.2v16h-16.2z"/><path fill="#923B00" d="M62.857 78.571h16.2v16h-16.2z"/><path fill="#9E00F0" d="M188.571 78.571h16.2v16h-16.2z"/><path fill="#9200F6" d="M204.286 78.571h16.2v16h-16.2z"/><path fill="#923B00" d="M220 78.571h16.2v16h-16.2z"/><path fill="#CDC200" d="M235.714 78.571h16.2v16h-16.2z"/><path fill="#923B00" d="M251.429 78.571h16.2v16h-16.2z"/><path fill="#CDC200" d="M267.143 78.571h16.2v16h-16.2z"/><path fill="#923B00" d="M282.857 78.571h16.2v16h-16.2z"/><path fill="#FCFF85" d="M377.143 78.571h16.2v16h-16.2z"/><path fill="#BD13B8" d="M392.857 78.571h16.2v16h-16.2z"/><path fill="#A68C77" d="M408.571 78.571h16.2v16h-16.2z"/><path fill="#A68C77" d="M424.286 78.571h16.2v16h-16.2z"/><path fill="#98406E" d="M0 94.286h16.2v16h-16.2z"/><path fill="#98406E" d="M15.714 94.286h16.2v16h-16.2z"/><path fill="#6E2010" d="M31.429 94.286h16.2v16h-16.2z"/><path fill="#6E2010" d="M47.143 94.286h16.2v16h-16.2z"/><path fill="#6E2010" d="M62.857 94.286h16.2v16h-16.2z"/><path fill="#3C529D" d="M78.571 94.286h16.2v16h-16.2z"/><path fill="#923B00" d="M94.286 94.286h16.2v16h-16.2z"/><path fill="#A35DB7" d="M220 94.286h16.2v16h-16.2z"/><path fill="#A35DB7" d="M235.714 94.286h16.2v16h-16.2z"/><path fill="#923B00" d="M251.429 94.286h16.2v16h-16.2z"/><path fill="#A35DB7" d="M377.143 94.286h16.2v16h-16.2z"/><path fill="#A35DB7" d="M392.857 94.286h16.2v16h-16.2z"/><path fill="#923B00" d="M408.571 94.286h16.2v16h-16.2z"/><path fill="#A35DB7" d="M78.571 110h16.2v16h-16.2z"/><path fill="#A35DB7" d="M94.286 110h16.2v16h-16.2z"/><path fill="#923B00" d="M110 110h16.2v16h-16.2z"/><path fill="#A35DB7" d="M235.714 110h16.2v16h-16.2z"/><path fill="#A35DB7" d="M251.429 110h16.2v16h-16.2z"/><path fill="#923B00" d="M267.143 110h16.2v16h-16.2z"/><path fill="#A35DB7" d="M392.857 110h16.2v16h-16.2z"/><path fill="#A35DB7" d="M408.571 110h16.2v16h-16.2z"/><path fill="#923B00" d="M424.286 110h16.2v16h-16.2z"/><path fill="#9E00F0" d="M94.286 125.714h16.2v16h-16.2z"/><path fill="#9200F6" d="M110 125.714h16.2v16h-16.2z"/><path fill="#923B00" d="M125.714 125.714h16.2v16h-16.2z"/><path fill="#CDC200" d="M141.429 125.714h16.2v16h-16.2z"/><path fill="#923B00" d="M157.143 125.714h16.2v16h-16.2z"/><path fill="#CDC200" d="M172.857 125.714h16.2v16h-16.2z"/><path fill="#923B00" d="M188.571 125.714h16.2v16h-16.2z"/><path fill="#FCFF85" d="M282.857 125.714h16.2v16h-16.2z"/><path fill="#BD13B8" d="M298.571 125.714h16.2v16h-16.2z"/><path fill="#A68C77" d="M314.286 125.714h16.2v16h-16.2z"/><path fill="#A68C77" d="M330 125.714h16.2v16h-16.2z"/><path fill="#B1B58C" d="M345.714 125.714h16.2v16h-16.2z"/><path fill="#98406E" d="M361.429 125.714h16.2v16h-16.2z"/><path fill="#98406E" d="M377.143 125.714h16.2v16h-16.2z"/><path fill="#6E2010" d="M392.857 125.714h16.2v16h-16.2z"/><path fill="#6E2010" d="M408.571 125.714h16.2v16h-16.2z"/><path fill="#6E2010" d="M424.286 125.714h16.2v16h-16.2z"/><path fill="#923B00" d="M0 141.429h16.2v16h-16.2z"/><path fill="#A35DB7" d="M125.714 141.429h16.2v16h-16.2z"/><path fill="#A35DB7" d="M141.429 141.429h16.2v16h-16.2z"/><path fill="#923B00" d="M157.143 141.429h16.2v16h-16.2z"/><path fill="#A35DB7" d="M282.857 141.429h16.2v16h-16.2z"/><path fill="#A35DB7" d="M298.571 141.429h16.2v16h-16.2z"/><path fill="#923B00" d="M314.286 141.429h16.2v16h-16.2z"/><path fill="#A35DB7" d="M0 157.143h16.2v16h-16.2z"/><path fill="#923B00" d="M15.714 157.143h16.2v16h-16.2z"/><path fill="#A35DB7" d="M141.429 157.143h16.2v16h-16.2z"/><path fill="#A35DB7" d="M157.143 157.143h16.2v16h-16.2z"/><path fill="#923B00" d="M172.857 157.143h16.2v16h-16.2z"/><path fill="#A35DB7" d="M298.571 157.143h16.2v16h-16.2z"/><path fill="#A35DB7" d="M314.286 157.143h16.2v16h-16.2z"/><path fill="#923B00" d="M330 157.143h16.2v16h-16.2z"/><path fill="#9E00F0" d="M0 172.857h16.2v16h-16.2z"/><path fill="#9200F6" d="M15.714 172.857h16.2v16h-16.2z"/><path fill="#923B00" d="M31.429 172.857h16.2v16h-16.2z"/><path fill="#CDC200" d="M47.143 172.857h16.2v16h-16.2z"/><path fill="#923B00" d="M62.857 172.857h16.2v16h-16.2z"/><path fill="#CDC200" d="M78.571 172.857h16.2v16h-16.2z"/><path fill="#923B00" d="M94.286 172.857h16.2v16h-16.2z"/><path fill="#FCFF85" d="M188.571 172.857h16.2v16h-16.2z"/><path fill="#BD13B8" d="M204.286 172.857h16.2v16h-16.2z"/><path fill="#A68C77" d="M220 172.857h16.2v16h-16.2z"/><path fill="#A68C77" d="M235.714 172.857h16.2v16h-16.2z"/><path fill="#B1B58C" d="M251.429 172.857h16.2v16h-16.2z"/><path fill="#98406E" d="M267.143 172.857h16.2v16h-16.2z"/><path fill="#98406E" d="M282.857 172.857h16.2v16h-16.2z"/><path fill="#6E2010" d="M298.571 172.857h16.2v16h-16.2z"/><path fill="#6E2010" d="M314.286 172.857h16.2v16h-16.2z"/><path fill="#6E2010" d="M330 172.857h16.2v16h-16.2z"/><path fill="#3C529D" d="M345.714 172.857h16.2v16h-16.2z"/><path fill="#923B00" d="M361.429 172.857h16.2v16h-16.2z"/><path fill="#A35DB7" d="M31.429 188.571h16.2v16h-16.2z"/><path fill="#A35DB7" d="M47.143 188.571h16.2v16h-16.2z"/><path fill="#923B00" d="M62.857 188.571h16.2v16h-16.2z"/><path fill="#A35DB7" d="M188.571 188.571h16.2v16h-16.2z"/><path fill="#A35DB7" d="M188.571 188.571h16.2v16h-16.2z"/><path fill="#A35DB7" d="M204.286 188.571h16.2v16h-16.2z"/><path fill="#923B00" d="M220 188.571h16.2v16h-16.2z"/><path fill="#A35DB7" d="M345.714 188.571h16.2v16h-16.2z"/><path fill="#A35DB7" d="M361.429 188.571h16.2v16h-16.2z"/><path fill="#923B00" d="M377.143 188.571h16.2v16h-16.2z"/><path fill="#A35DB7" d="M47.143 204.286h16.2v16h-16.2z"/><path fill="#A35DB7" d="M62.857 204.286h16.2v16h-16.2z"/><path fill="#923B00" d="M78.571 204.286h16.2v16h-16.2z"/><path fill="#A35DB7" d="M204.286 204.286h16.2v16h-16.2z"/><path fill="#A35DB7" d="M220 204.286h16.2v16h-16.2z"/><path fill="#923B00" d="M235.714 204.286h16.2v16h-16.2z"/><path fill="#9E00F0" d="M361.429 204.286h16.2v16h-16.2z"/><path fill="#9200F6" d="M377.143 204.286h16.2v16h-16.2z"/><path fill="#923B00" d="M392.857 204.286h16.2v16h-16.2z"/><path fill="#CDC200" d="M408.571 204.286h16.2v16h-16.2z"/><path fill="#923B00" d="M424.286 204.286h16.2v16h-16.2z"/><path fill="#923B00" d="M0 220h16.2v16h-16.2z"/><path fill="#FCFF85" d="M94.286 220h16.2v16h-16.2z"/><path fill="#BD13B8" d="M110 220h16.2v16h-16.2z"/><path fill="#A68C77" d="M125.714 220h16.2v16h-16.2z"/><path fill="#A68C77" d="M141.429 220h16.2v16h-16.2z"/><path fill="#B1B58C" d="M157.143 220h16.2v16h-16.2z"/><path fill="#98406E" d="M172.857 220h16.2v16h-16.2z"/><path fill="#98406E" d="M188.571 220h16.2v16h-16.2z"/><path fill="#6E2010" d="M204.286 220h16.2v16h-16.2z"/><path fill="#6E2010" d="M220 220h16.2v16h-16.2z"/><path fill="#6E2010" d="M235.714 220h16.2v16h-16.2z"/><path fill="#3C529D" d="M251.429 220h16.2v16h-16.2z"/><path fill="#923B00" d="M267.143 220h16.2v16h-16.2z"/><path fill="#A35DB7" d="M392.857 220h16.2v16h-16.2z"/><path fill="#A35DB7" d="M408.571 220h16.2v16h-16.2z"/><path fill="#923B00" d="M424.286 220h16.2v16h-16.2z"/><path fill="#A35DB7" d="M94.286 235.714h16.2v16h-16.2z"/><path fill="#A35DB7" d="M110 235.714h16.2v16h-16.2z"/><path fill="#923B00" d="M125.714 235.714h16.2v16h-16.2z"/><path fill="#A35DB7" d="M251.429 235.714h16.2v16h-16.2z"/><path fill="#A35DB7" d="M267.143 235.714h16.2v16h-16.2z"/><path fill="#923B00" d="M282.857 235.714h16.2v16h-16.2z"/><path fill="#A35DB7" d="M408.571 235.714h16.2v16h-16.2z"/><path fill="#A35DB7" d="M424.286 235.714h16.2v16h-16.2z"/><path fill="#A35DB7" d="M110 251.429h16.2v16h-16.2z"/><path fill="#A35DB7" d="M125.714 251.429h16.2v16h-16.2z"/><path fill="#923B00" d="M141.429 251.429h16.2v16h-16.2z"/><path fill="#9E00F0" d="M267.143 251.429h16.2v16h-16.2z"/><path fill="#9200F6" d="M282.857 251.429h16.2v16h-16.2z"/><path fill="#923B00" d="M298.571 251.429h16.2v16h-16.2z"/><path fill="#CDC200" d="M314.286 251.429h16.2v16h-16.2z"/><path fill="#923B00" d="M330 251.429h16.2v16h-16.2z"/><path fill="#CDC200" d="M345.714 251.429h16.2v16h-16.2z"/><path fill="#923B00" d="M361.429 251.429h16.2v16h-16.2z"/><path fill="#FCFF85" d="M0 267.143h16.2v16h-16.2z"/><path fill="#BD13B8" d="M15.714 267.143h16.2v16h-16.2z"/><path fill="#A68C77" d="M31.429 267.143h16.2v16h-16.2z"/><path fill="#A68C77" d="M47.143 267.143h16.2v16h-16.2z"/><path fill="#B1B58C" d="M62.857 267.143h16.2v16h-16.2z"/><path fill="#98406E" d="M78.571 267.143h16.2v16h-16.2z"/><path fill="#98406E" d="M94.286 267.143h16.2v16h-16.2z"/><path fill="#6E2010" d="M110 267.143h16.2v16h-16.2z"/><path fill="#6E2010" d="M125.714 267.143h16.2v16h-16.2z"/><path fill="#6E2010" d="M141.429 267.143h16.2v16h-16.2z"/><path fill="#3C529D" d="M157.143 267.143h16.2v16h-16.2z"/><path fill="#923B00" d="M172.857 267.143h16.2v16h-16.2z"/><path fill="#A35DB7" d="M298.571 267.143h16.2v16h-16.2z"/><path fill="#A35DB7" d="M314.286 267.143h16.2v16h-16.2z"/><path fill="#923B00" d="M330 267.143h16.2v16h-16.2z"/><path fill="#A35DB7" d="M0 282.857h16.2v16h-16.2z"/><path fill="#A35DB7" d="M15.714 282.857h16.2v16h-16.2z"/><path fill="#923B00" d="M31.429 282.857h16.2v16h-16.2z"/><path fill="#A35DB7" d="M157.143 282.857h16.2v16h-16.2z"/><path fill="#A35DB7" d="M172.857 282.857h16.2v16h-16.2z"/><path fill="#923B00" d="M188.571 282.857h16.2v16h-16.2z"/><path fill="#A35DB7" d="M314.286 282.857h16.2v16h-16.2z"/><path fill="#A35DB7" d="M330 282.857h16.2v16h-16.2z"/><path fill="#923B00" d="M345.714 282.857h16.2v16h-16.2z"/><path d="M0 298.571h16.2v16h-16.2z"/><path fill="#A35DB7" d="M15.714 298.571h16.2v16h-16.2z"/><path fill="#A35DB7" d="M31.429 298.571h16.2v16h-16.2z"/><path fill="#923B00" d="M47.143 298.571h16.2v16h-16.2z"/><path fill="#9E00F0" d="M172.857 298.571h16.2v16h-16.2z"/><path fill="#9200F6" d="M188.571 298.571h16.2v16h-16.2z"/><path fill="#923B00" d="M204.286 298.571h16.2v16h-16.2z"/><path fill="#CDC200" d="M220 298.571h16.2v16h-16.2z"/><path fill="#923B00" d="M235.714 298.571h16.2v16h-16.2z"/><path fill="#CDC200" d="M251.429 298.571h16.2v16h-16.2z"/><path fill="#923B00" d="M267.143 298.571h16.2v16h-16.2z"/><path fill="#FCFF85" d="M361.429 298.571h16.2v16h-16.2z"/><path fill="#BD13B8" d="M377.143 298.571h16.2v16h-16.2z"/><path fill="#A68C77" d="M392.857 298.571h16.2v16h-16.2z"/><path fill="#A68C77" d="M408.571 298.571h16.2v16h-16.2z"/><path fill="#B1B58C" d="M424.286 298.571h16.2v16h-16.2z"/><path fill="#98406E" d="M0 314.286h16.2v16h-16.2z"/><path fill="#6E2010" d="M15.714 314.286h16.2v16h-16.2z"/><path fill="#6E2010" d="M31.429 314.286h16.2v16h-16.2z"/><path fill="#6E2010" d="M47.143 314.286h16.2v16h-16.2z"/><path fill="#3C529D" d="M62.857 314.286h16.2v16h-16.2z"/><path fill="#923B00" d="M78.571 314.286h16.2v16h-16.2z"/><path fill="#A35DB7" d="M204.286 314.286h16.2v16h-16.2z"/><path fill="#A35DB7" d="M220 314.286h16.2v16h-16.2z"/><path fill="#923B00" d="M235.714 314.286h16.2v16h-16.2z"/><path fill="#A35DB7" d="M361.429 314.286h16.2v16h-16.2z"/><path fill="#A35DB7" d="M377.143 314.286h16.2v16h-16.2z"/><path fill="#923B00" d="M392.857 314.286h16.2v16h-16.2z"/><path fill="#A35DB7" d="M62.857 330h16.2v16h-16.2z"/><path fill="#A35DB7" d="M78.571 330h16.2v16h-16.2z"/><path fill="#923B00" d="M94.286 330h16.2v16h-16.2z"/><path fill="#A35DB7" d="M220 330h16.2v16h-16.2z"/><path fill="#A35DB7" d="M235.714 330h16.2v16h-16.2z"/><path fill="#923B00" d="M251.429 330h16.2v16h-16.2z"/><path fill="#A35DB7" d="M377.143 330h16.2v16h-16.2z"/><path fill="#A35DB7" d="M392.857 330h16.2v16h-16.2z"/><path fill="#923B00" d="M408.571 330h16.2v16h-16.2z"/><path fill="#9E00F0" d="M78.571 345.714h16.2v16h-16.2z"/><path fill="#9200F6" d="M94.286 345.714h16.2v16h-16.2z"/><path fill="#923B00" d="M110 345.714h16.2v16h-16.2z"/><path fill="#CDC200" d="M125.714 345.714h16.2v16h-16.2z"/><path fill="#923B00" d="M141.429 345.714h16.2v16h-16.2z"/><path fill="#CDC200" d="M157.143 345.714h16.2v16h-16.2z"/><path fill="#923B00" d="M172.857 345.714h16.2v16h-16.2z"/><path fill="#FCFF85" d="M267.143 345.714h16.2v16h-16.2z"/><path fill="#BD13B8" d="M282.857 345.714h16.2v16h-16.2z"/><path fill="#A68C77" d="M298.571 345.714h16.2v16h-16.2z"/><path fill="#A68C77" d="M314.286 345.714h16.2v16h-16.2z"/><path fill="#B1B58C" d="M330 345.714h16.2v16h-16.2z"/><path fill="#98406E" d="M345.714 345.714h16.2v16h-16.2z"/><path fill="#98406E" d="M361.429 345.714h16.2v16h-16.2z"/><path fill="#6E2010" d="M377.143 345.714h16.2v16h-16.2z"/><path fill="#6E2010" d="M392.857 345.714h16.2v16h-16.2z"/><path fill="#6E2010" d="M408.571 345.714h16.2v16h-16.2z"/><path fill="#3C529D" d="M424.286 345.714h16.2v16h-16.2z"/><path fill="#A35DB7" d="M110 361.429h16.2v16h-16.2z"/><path fill="#A35DB7" d="M125.714 361.429h16.2v16h-16.2z"/><path fill="#923B00" d="M141.429 361.429h16.2v16h-16.2z"/><path fill="#A35DB7" d="M267.143 361.429h16.2v16h-16.2z"/><path fill="#A35DB7" d="M282.857 361.429h16.2v16h-16.2z"/><path fill="#923B00" d="M298.571 361.429h16.2v16h-16.2z"/><path fill="#A35DB7" d="M424.286 361.429h16.2v16h-16.2z"/><path fill="#923B00" d="M0 377.143h16.2v16h-16.2z"/><path fill="#A35DB7" d="M125.714 377.143h16.2v16h-16.2z"/><path fill="#A35DB7" d="M141.429 377.143h16.2v16h-16.2z"/><path fill="#923B00" d="M157.143 377.143h16.2v16h-16.2z"/><path fill="#A35DB7" d="M282.857 377.143h16.2v16h-16.2z"/><path fill="#A35DB7" d="M298.571 377.143h16.2v16h-16.2z"/><path fill="#923B00" d="M314.286 377.143h16.2v16h-16.2z"/><path fill="#9200F6" d="M0 392.857h16.2v16h-16.2z"/><path fill="#923B00" d="M15.714 392.857h16.2v16h-16.2z"/><path fill="#CDC200" d="M31.429 392.857h16.2v16h-16.2z"/><path fill="#923B00" d="M47.143 392.857h16.2v16h-16.2z"/><path fill="#CDC200" d="M62.857 392.857h16.2v16h-16.2z"/><path fill="#923B00" d="M78.571 392.857h16.2v16h-16.2z"/><path fill="#FCFF85" d="M172.857 392.857h16.2v16h-16.2z"/><path fill="#BD13B8" d="M188.571 392.857h16.2v16h-16.2z"/><path fill="#A68C77" d="M204.286 392.857h16.2v16h-16.2z"/><path fill="#A68C77" d="M220 392.857h16.2v16h-16.2z"/><path fill="#B1B58C" d="M235.714 392.857h16.2v16h-16.2z"/><path fill="#98406E" d="M251.429 392.857h16.2v16h-16.2z"/><path fill="#98406E" d="M267.143 392.857h16.2v16h-16.2z"/><path fill="#6E2010" d="M282.857 392.857h16.2v16h-16.2z"/><path fill="#6E2010" d="M298.571 392.857h16.2v16h-16.2z"/><path fill="#6E2010" d="M314.286 392.857h16.2v16h-16.2z"/><path fill="#3C529D" d="M330 392.857h16.2v16h-16.2z"/><path fill="#923B00" d="M345.714 392.857h16.2v16h-16.2z"/><path fill="#A35DB7" d="M15.714 408.571h16.2v16h-16.2z"/><path fill="#A35DB7" d="M31.429 408.571h16.2v16h-16.2z"/><path fill="#923B00" d="M47.143 408.571h16.2v16h-16.2z"/><path fill="#A35DB7" d="M172.857 408.571h16.2v16h-16.2z"/><path fill="#A35DB7" d="M188.571 408.571h16.2v16h-16.2z"/><path fill="#923B00" d="M204.286 408.571h16.2v16h-16.2z"/><path fill="#A35DB7" d="M330 408.571h16.2v16h-16.2z"/><path fill="#A35DB7" d="M345.714 408.571h16.2v16h-16.2z"/><path fill="#923B00" d="M361.429 408.571h16.2v16h-16.2z"/><path fill="#A35DB7" d="M31.429 424.286h16.2v16h-16.2z"/><path fill="#A35DB7" d="M47.143 424.286h16.2v16h-16.2z"/><path fill="#923B00" d="M62.857 424.286h16.2v16h-16.2z"/><path fill="#A35DB7" d="M188.571 424.286h16.2v16h-16.2z"/><path fill="#A35DB7" d="M204.286 424.286h16.2v16h-16.2z"/><path fill="#923B00" d="M220 424.286h16.2v16h-16.2z"/><path fill="#9E00F0" d="M345.714 424.286h16.2v16h-16.2z"/><path fill="#9200F6" d="M361.429 424.286h16.2v16h-16.2z"/><path fill="#923B00" d="M377.143 424.286h16.2v16h-16.2z"/><path fill="#CDC200" d="M392.857 424.286h16.2v16h-16.2z"/><path fill="#923B00" d="M408.571 424.286h16.2v16h-16.2z"/><path fill="#CDC200" d="M424.286 424.286h16.2v16h-16.2z"/><path fill="#FCFF85" d="M15.714 47.143h16.2v16h-16.2z"/><path fill="#BD13B8" d="M31.429 47.143h16.2v16h-16.2z"/><path fill="#A68C77" d="M47.143 47.143h16.2v16h-16.2z"/><path fill="#A68C77" d="M62.857 47.143h16.2v16h-16.2z"/><path fill="#B1B58C" d="M78.571 47.143h16.2v16h-16.2z"/><path fill="#98406E" d="M94.286 47.143h16.2v16h-16.2z"/><path fill="#98406E" d="M110 47.143h16.2v16h-16.2z"/><path fill="#6E2010" d="M125.714 47.143h16.2v16h-16.2z"/><path fill="#6E2010" d="M141.429 47.143h16.2v16h-16.2z"/><path fill="#6E2010" d="M157.143 47.143h16.2v16h-16.2z"/><path fill="#3C529D" d="M172.857 47.143h16.2v16h-16.2z"/><path fill="#923B00" d="M188.571 47.143h16.2v16h-16.2z"/><path fill="#A35DB7" d="M314.286 47.143h16.2v16h-16.2z"/><path fill="#A35DB7" d="M330 47.143h16.2v16h-16.2z"/><path fill="#923B00" d="M345.714 47.143h16.2v16h-16.2z"/><path fill="#A35DB7" d="M125.714 31.429h16.2v16h-16.2z"/><path fill="#A35DB7" d="M141.429 31.429h16.2v16h-16.2z"/><path fill="#923B00" d="M157.143 31.429h16.2v16h-16.2z"/><path fill="#9E00F0" d="M282.857 31.429h16.2v16h-16.2z"/><path fill="#9200F6" d="M298.571 31.429h16.2v16h-16.2z"/><path fill="#923B00" d="M314.286 31.429h16.2v16h-16.2z"/><path fill="#CDC200" d="M330 31.429h16.2v16h-16.2z"/><path fill="#923B00" d="M345.714 31.429h16.2v16h-16.2z"/><path fill="#CDC200" d="M361.429 31.429h16.2v16h-16.2z"/><path fill="#923B00" d="M377.143 31.429h16.2v16h-16.2z"/><path fill="#A35DB7" d="M110 15.714h16.2v16h-16.2z"/><path fill="#A35DB7" d="M125.714 15.714h16.2v16h-16.2z"/><path fill="#923B00" d="M141.429 15.714h16.2v16h-16.2z"/><path fill="#A35DB7" d="M267.143 15.714h16.2v16h-16.2z"/><path fill="#A35DB7" d="M282.857 15.714h16.2v16h-16.2z"/><path fill="#923B00" d="M298.571 15.714h16.2v16h-16.2z"/><path fill="#A35DB7" d="M424.286 15.714h16.2v16h-16.2z"/><path fill="#923B00" d="M15.714 0h16.2v16h-16.2z"/><path fill="#FCFF85" d="M110 0h16.2v16h-16.2z"/><path fill="#BD13B8" d="M125.714 0h16.2v16h-16.2z"/><path fill="#A68C77" d="M141.429 0h16.2v16h-16.2z"/><path fill="#A68C77" d="M157.143 0h16.2v16h-16.2z"/><path fill="#B1B58C" d="M172.857 0h16.2v16h-16.2z"/><path fill="#98406E" d="M188.571 0h16.2v16h-16.2z"/><path fill="#98406E" d="M204.286 0h16.2v16h-16.2z"/><path fill="#6E2010" d="M220 0h16.2v16h-16.2z"/><path fill="#6E2010" d="M235.714 0h16.2v16h-16.2z"/><path fill="#6E2010" d="M251.429 0h16.2v16h-16.2z"/><path fill="#3C529D" d="M267.143 0h16.2v16h-16.2z"/><path fill="#923B00" d="M282.857 0h16.2v16h-16.2z"/><path fill="#A35DB7" d="M408.571 0h16.2v16h-16.2z"/><path fill="#A35DB7" d="M424.286 0h16.2v16h-16.2z"/></g></svg>