<svg id="Layer_1" data-name="Layer 1" xmlns="http://www.w3.org/2000/svg" xmlns:xlink="http://www.w3.org/1999/xlink" viewBox="0 0 48 48"><defs><style>.cls-1,.cls-2{fill:none;}.cls-1{clip-rule:evenodd;}.cls-3{fill:#f1a5ff;}.cls-4{fill:#76ecff;}.cls-5{clip-path:url(#clip-path);}.cls-6{isolation:isolate;}.cls-7{fill:url(#New_Gradient_Swatch_1);}.cls-8{fill:url(#New_Gradient_Swatch_2);}.cls-22,.cls-9{fill-rule:evenodd;}.cls-9{fill:url(#linear-gradient);}.cls-10{clip-path:url(#clip-path-2);}.cls-11{clip-path:url(#clip-path-3);}.cls-12{fill:#974dff;}.cls-13{clip-path:url(#clip-path-4);}.cls-14{clip-path:url(#clip-path-5);}.cls-15{clip-path:url(#clip-path-6);}.cls-16{clip-path:url(#clip-path-8);}.cls-17{fill:url(#New_Gradient_Swatch_2-2);}.cls-18{clip-path:url(#clip-path-9);}.cls-19{fill:#373fff;}.cls-20{clip-path:url(#clip-path-11);}.cls-21{clip-path:url(#clip-path-13);}.cls-22,.cls-23{fill:#fff;}</style><clipPath id="clip-path"><path class="cls-1" d="M22.2807,37.63a3.74,3.74,0,0,1,.315,1.7818,4.9266,4.9266,0,0,1-1.2276.1389,8.1423,8.1423,0,0,1-3.4135-.1211,5.256,5.256,0,0,1-3.2832-2.8723s.0217-.0216.0646-.0582a.5107.5107,0,0,0-.214-.0187,14.3426,14.3426,0,0,1-3.31.2506c-1.1041,0-5.4744-1.6592-6.8825-3.4383,0,0,2.186-.534,2.186-.9853s-2.4971-1.2851-2.4971-1.2851-.3783-2.0815,2.2985-4.16A16.3577,16.3577,0,0,1,10.973,24.12c-1.3908-.1858-5.3219-1.75-6.6435-3.42,0,0,2.186-.534,2.186-.9853S4.0184,18.43,4.0184,18.43,3.64,16.3486,6.3169,14.27s4.68-3.0652,6.931-3.1806,3.0058-.1154,3.0058-.1154,1.96-2.6458,2.9891-2.6458c.5146,0,8.055,1.6026,8.7082,2.6458a2.7042,2.7042,0,0,0,1.3048,1.2174c.3338.25.1235.05,1.6361.388,3.7835.8453,3.2674,1.1772,6.0784,1.6905,1.1377.2078,6.3514-2.3544,6.8432-2.1055a4.8679,4.8679,0,0,1-.4864,3.7643c-.8951,1.4448.7186,2.6384-.0061,4.4477s.83,3.15.4925,3.7622S37.94,22.1342,36.97,22.3234a60.5984,60.5984,0,0,1-8.1471,2.2145,4.7184,4.7184,0,0,1,.4325.2462c.3338.25.1235.05,1.6361.388,3.7835.8453,3.2674,1.1772,6.0784,1.6905,1.1377.2078,6.3514-2.3544,6.8432-2.1055a4.8679,4.8679,0,0,1-.4864,3.7643c-.8951,1.4448.7186,2.6384-.0061,4.4477s.83,3.15.4925,3.7622S37.94,34.7269,36.97,34.9161a55.5331,55.5331,0,0,1-9.9389,2.5131A24.3382,24.3382,0,0,1,22.2807,37.63Z"/></clipPath><linearGradient id="New_Gradient_Swatch_1" x1="23.4546" y1="8.3282" x2="23.4546" y2="19.7505" gradientUnits="userSpaceOnUse"><stop offset="0" stop-color="#e559ff"/><stop offset="1" stop-color="#924dff"/></linearGradient><linearGradient id="New_Gradient_Swatch_2" x1="13.6866" y1="13.9836" x2="30.3968" y2="25.1376" gradientUnits="userSpaceOnUse"><stop offset="0" stop-color="#f1a5ff"/><stop offset="1" stop-color="#ff686c"/></linearGradient><linearGradient id="linear-gradient" x1="24.127" y1="22.8569" x2="24.127" y2="32.6177" gradientUnits="userSpaceOnUse"><stop offset="0" stop-color="#6f3cff"/><stop offset="1" stop-color="#3633ff"/></linearGradient><clipPath id="clip-path-2"><path class="cls-2" d="M19.5146,14.193c.6838.0352,1.3675.0715,2.0056.107.2227.0124.4363.0245.64.0363.5767.0334,1.0605.0634,1.4321.0892a47.4252,47.4252,0,0,1,5.1979.7495,35.09,35.09,0,0,1,7.8518,2.6982c.2494.1105,1.1056.4921,1.1255.501a.4133.4133,0,0,0,.5543-.2678.4984.4984,0,0,0-.2391-.6207c-.0193-.0086-.8762-.39-1.1265-.5014A35.791,35.791,0,0,0,28.94,14.2339a48.1187,48.1187,0,0,0-5.2948-.7624c-.375-.0261-.8615-.0562-1.4409-.09-.2039-.0118-.4181-.0239-.6413-.0364-.6392-.0356-1.324-.072-2.0088-.1072-.24-.0123-.4622-.0236-.6619-.0337l-.1855-.0093-.0657-.0033a.4761.4761,0,0,0-.3974.6984c.0058.0126.018.0393.0356.0791.03.0679.0635.1463.1.234.104.2518.2082.5265.3053.8139a9.484,9.484,0,0,1,.35,1.309c.0281.1536.0494.301.0636.4412a7.3088,7.3088,0,0,1-.25,1.9952c-.07.3134-.1526.6435-.2443.9845-.1123.4177-.2328.83-.3533,1.2186-.0421.1359-.0812.2589-.1162.3669l-.0323.0986-.0109.0329a.4967.4967,0,0,0,.2494.6156.4149.4149,0,0,0,.55-.2792l.0125-.0377.034-.104c.0363-.1121.0768-.2394.12-.38.1241-.4.2482-.8252.3642-1.2566.0953-.3544.181-.6983.2548-1.0269a8.0014,8.0014,0,0,0,.27-2.3358q-.0257-.2544-.0755-.5255a10.4992,10.4992,0,0,0-.3874-1.4555c-.0576-.1706-.1174-.3368-.1783-.4969Z"/></clipPath><clipPath id="clip-path-3"><rect class="cls-2" x="4.0166" y="8.3282" width="40.0246" height="31.3918"/></clipPath><clipPath id="clip-path-4"><path class="cls-2" d="M19.52,19.6928q.0842-.3352.155-.654a8.2043,8.2043,0,0,0,.27-2.3659q-.0257-.2577-.0755-.5322a10.7445,10.7445,0,0,0-.3874-1.4742c-.0576-.1728-.1174-.3411-.1783-.5033l.21.0109c.6838.0356,1.3675.0724,2.0056.1084.2227.0126.4363.0248.64.0367.5767.0338,1.0605.0642,1.4321.09a46.8591,46.8591,0,0,1,5.1979.7591,34.785,34.785,0,0,1,7.8518,2.733c.2494.112,1.1056.4985,1.1255.5074a.4121.4121,0,0,0,.5543-.2712.5076.5076,0,0,0-.2391-.6287c-.0193-.0087-.8762-.3955-1.1265-.5078a35.48,35.48,0,0,0-8.0162-2.786,47.5443,47.5443,0,0,0-5.2948-.7723c-.375-.0264-.8615-.057-1.4409-.0909-.2039-.0119-.4181-.0242-.6413-.0368-.6392-.0361-1.324-.0729-2.0088-.1086-.24-.0125-.4622-.0239-.6619-.0341l-.1855-.0094-.0657-.0033a.4823.4823,0,0,0-.3974.7074c.0058.0127.018.04.0356.08.03.0687.0635.1482.1.2371.104.255.2082.5332.3053.8244a9.7054,9.7054,0,0,1,.35,1.3259c.0281.1556.0494.3049.0636.4469a7.4938,7.4938,0,0,1-.25,2.0209c-.0631.2846-.1357.5827-.2161.89Z"/></clipPath><clipPath id="clip-path-5"><rect class="cls-2" x="4.0166" y="8.2659" width="40.0246" height="31.7966"/></clipPath><clipPath id="clip-path-6"><path class="cls-2" d="M16.0333,14.35c.0067.011.0207.0348.041.07.0348.0607.0738.131.116.21.1211.2262.2423.4739.3551.7341a6.7674,6.7674,0,0,1,.4273,1.29,3.246,3.246,0,0,1,.0744.653,5.6227,5.6227,0,0,1-.3379,1.7888c-.075.2183-.1554.4209-.2355.6021-.0278.0628-.0534.1182-.0761.1655l-.0257.0522a.45.45,0,0,0,.1491.5838.3753.3753,0,0,0,.5345-.1629c.0266-.0515.07-.1419.1249-.2659.09-.2036.18-.43.2635-.6737a6.5069,6.5069,0,0,0,.3879-2.09,4.161,4.161,0,0,0-.0939-.8425,7.6418,7.6418,0,0,0-.4835-1.4678c-.1232-.284-.2549-.5531-.3868-.8-.08-.149-.1426-.2586-.18-.3206a.3727.3727,0,0,0-.5438-.1209A.4533.4533,0,0,0,16.0333,14.35Z"/></clipPath><clipPath id="clip-path-8"><path class="cls-3" d="M17.3563,19.6928q.0447-.12.0878-.2472a6.68,6.68,0,0,0,.3879-2.1191,4.2756,4.2756,0,0,0-.0939-.8543,7.8249,7.8249,0,0,0-.4835-1.4883c-.1232-.288-.2549-.5608-.3868-.8107-.08-.1511-.1426-.2622-.18-.3251a.37.37,0,0,0-.5438-.1226.4638.4638,0,0,0-.1107.6022c.0067.0111.0207.0353.041.0712.0348.0616.0738.1329.116.2128.1211.2294.2423.48.3551.7443a6.9294,6.9294,0,0,1,.4273,1.3084,3.3354,3.3354,0,0,1,.0744.6621,5.7718,5.7718,0,0,1-.3379,1.8138c-.0672.1983-.1387.3839-.21.5525Z"/></clipPath><linearGradient id="New_Gradient_Swatch_2-2" x1="20.4256" y1="31.1566" x2="27.2995" y2="39.3993" xlink:href="#New_Gradient_Swatch_2"/><clipPath id="clip-path-9"><path class="cls-2" d="M19.5146,26.9332c.6838.0352,1.3675.0715,2.0056.107.2227.0124.4363.0245.64.0363.5767.0334,1.0605.0634,1.4321.0892a47.4274,47.4274,0,0,1,5.1979.7494,35.09,35.09,0,0,1,7.8518,2.6982c.2494.1105,1.1056.4921,1.1255.501a.4133.4133,0,0,0,.5543-.2678.4984.4984,0,0,0-.2391-.6207c-.0193-.0086-.8762-.39-1.1265-.5014A35.79,35.79,0,0,0,28.94,26.9741a48.116,48.116,0,0,0-5.2948-.7625c-.375-.0261-.8615-.0563-1.4409-.09-.2039-.0118-.4181-.0239-.6413-.0364-.6392-.0356-1.324-.072-2.0088-.1072-.24-.0123-.4622-.0236-.6619-.0337l-.1855-.0093-.0657-.0033a.4761.4761,0,0,0-.3974.6983c.0058.0126.018.0393.0356.0791.03.0679.0635.1463.1.2341.104.2518.2082.5265.3053.8139a9.4839,9.4839,0,0,1,.35,1.309c.0281.1536.0494.301.0636.4412a7.3088,7.3088,0,0,1-.25,1.9952c-.07.3134-.1526.6435-.2443.9845-.1123.4177-.2328.83-.3533,1.2186-.0421.1359-.0812.2589-.1162.3669l-.0323.0986-.0109.0329a.4967.4967,0,0,0,.2494.6156.4149.4149,0,0,0,.55-.2792l.0125-.0377.034-.104c.0363-.1121.0768-.2394.12-.38.1241-.4.2482-.8252.3642-1.2566.0953-.3544.181-.6983.2548-1.0269a8.0014,8.0014,0,0,0,.27-2.3358q-.0257-.2544-.0755-.5255a10.5,10.5,0,0,0-.3874-1.4555c-.0576-.1706-.1174-.3368-.1783-.4969Z"/></clipPath><clipPath id="clip-path-11"><path class="cls-2" d="M19.52,32.3625q.0842-.3309.155-.6456a8.0014,8.0014,0,0,0,.27-2.3358q-.0257-.2544-.0755-.5255A10.5,10.5,0,0,0,19.4824,27.4c-.0576-.1706-.1174-.3368-.1783-.4969l.21.0108c.6838.0352,1.3675.0715,2.0056.107.2227.0124.4363.0245.64.0363.5767.0334,1.0605.0634,1.4321.0892a47.4274,47.4274,0,0,1,5.1979.7494,35.09,35.09,0,0,1,7.8518,2.6982c.2494.1105,1.1056.4921,1.1255.501a.4133.4133,0,0,0,.5543-.2678.4984.4984,0,0,0-.2391-.6207c-.0193-.0086-.8762-.39-1.1265-.5014A35.79,35.79,0,0,0,28.94,26.9549a48.116,48.116,0,0,0-5.2948-.7625c-.375-.0261-.8615-.0563-1.4409-.09-.2039-.0118-.4181-.0239-.6413-.0364-.6392-.0356-1.324-.072-2.0088-.1072-.24-.0123-.4622-.0236-.6619-.0337l-.1855-.0093-.0657-.0033a.4761.4761,0,0,0-.3974.6983c.0058.0126.018.0393.0356.0791.03.0679.0635.1463.1.2341.104.2518.2082.5265.3053.8139a9.4839,9.4839,0,0,1,.35,1.309c.0281.1536.0494.301.0636.4412a7.3088,7.3088,0,0,1-.25,1.9952c-.0631.281-.1357.5752-.2161.8788Z"/></clipPath><clipPath id="clip-path-13"><path class="cls-3" d="M17.3563,32.3625q.0447-.1186.0878-.2438a6.5069,6.5069,0,0,0,.3879-2.09,4.1612,4.1612,0,0,0-.0939-.8425,7.6422,7.6422,0,0,0-.4835-1.4678c-.1232-.284-.2549-.5531-.3868-.8-.08-.149-.1426-.2586-.18-.3206a.3727.3727,0,0,0-.5438-.1209.4533.4533,0,0,0-.1107.5939c.0067.011.0207.0348.041.07.0348.0607.0738.131.116.21.1211.2262.2423.4739.3551.7341a6.7671,6.7671,0,0,1,.4273,1.29,3.246,3.246,0,0,1,.0744.653,5.6226,5.6226,0,0,1-.3379,1.7888c-.0672.1956-.1387.3786-.21.5449Z"/></clipPath></defs><title>default-avatar</title><rect class="cls-4" width="48" height="48"/><g class="cls-5"><g class="cls-6"><rect class="cls-7" x="2.9461" y="8.3282" width="41.017" height="11.4924"/><polyline class="cls-8" points="39.309 25.193 44 24.549 44.106 23.043 44.106 19.705 43.741 18.531 28.443 18.531 28.444 19.705 4.017 19.705 4.017 23.043 7.315 24.131 19.811 25.193 22.533 25.193"/><polygon class="cls-9" points="19.811 23.043 34.035 23.043 34.035 24.576 44.237 24.548 44.237 31.185 23.048 31.185 23.048 32.363 4.017 32.363 4.017 24.548 9.952 24.122 19.811 24.198 19.811 23.043"/><g class="cls-10"><g class="cls-11"><rect class="cls-12" x="17.5544" y="12.7426" width="21.2876" height="9.908"/></g></g><g class="cls-13"><g class="cls-14"><rect class="cls-3" x="17.7506" y="12.6379" width="21.0914" height="7.5517"/></g></g><g class="cls-15"><g class="cls-11"><rect class="cls-12" x="15.4943" y="13.2331" width="2.8449" height="7.848"/></g></g><path class="cls-3" d="M17.3563,19.6928q.0447-.12.0878-.2472a6.68,6.68,0,0,0,.3879-2.1191,4.2756,4.2756,0,0,0-.0939-.8543,7.8249,7.8249,0,0,0-.4835-1.4883c-.1232-.288-.2549-.5608-.3868-.8107-.08-.1511-.1426-.2622-.18-.3251a.37.37,0,0,0-.5438-.1226.4638.4638,0,0,0-.1107.6022c.0067.0111.0207.0353.041.0712.0348.0616.0738.1329.116.2128.1211.2294.2423.48.3551.7443a6.9294,6.9294,0,0,1,.4273,1.3084,3.3354,3.3354,0,0,1,.0744.6621,5.7718,5.7718,0,0,1-.3379,1.8138c-.0672.1983-.1387.3839-.21.5525Z"/><g class="cls-16"><rect class="cls-3" x="4.0166" y="8.2538" width="40.0246" height="31.8302"/></g><polygon class="cls-17" points="44.012 39.72 3.988 39.72 3.988 32.363 23.019 32.363 23.018 31.165 44.012 31.165 44.012 39.72"/><g class="cls-18"><g class="cls-11"><rect class="cls-19" x="17.5544" y="25.3975" width="21.2876" height="9.908"/></g></g><g class="cls-20"><g class="cls-11"><rect class="cls-3" x="17.7506" y="25.3975" width="21.0914" height="7.4556"/></g></g><path class="cls-19" d="M16.0333,27.09c.0067.011.0207.0348.041.07.0348.0607.0738.131.116.21.1211.2262.2423.4739.3551.7341a6.7671,6.7671,0,0,1,.4273,1.29,3.246,3.246,0,0,1,.0744.653,5.6226,5.6226,0,0,1-.3379,1.7888c-.075.2183-.1554.4209-.2355.6021-.0278.0628-.0534.1182-.0761.1655l-.0257.0522a.45.45,0,0,0,.1491.5838.3753.3753,0,0,0,.5345-.1629c.0266-.0515.07-.1419.1249-.2659.09-.2036.18-.43.2635-.6737a6.5069,6.5069,0,0,0,.3879-2.09,4.1612,4.1612,0,0,0-.0939-.8425,7.6422,7.6422,0,0,0-.4835-1.4678c-.1232-.284-.2549-.5531-.3868-.8-.08-.149-.1426-.2586-.18-.3206a.3727.3727,0,0,0-.5438-.1209A.4533.4533,0,0,0,16.0333,27.09Z"/><path class="cls-3" d="M17.3563,32.3625q.0447-.1186.0878-.2438a6.5069,6.5069,0,0,0,.3879-2.09,4.1612,4.1612,0,0,0-.0939-.8425,7.6422,7.6422,0,0,0-.4835-1.4678c-.1232-.284-.2549-.5531-.3868-.8-.08-.149-.1426-.2586-.18-.3206a.3727.3727,0,0,0-.5438-.1209.4533.4533,0,0,0-.1107.5939c.0067.011.0207.0348.041.07.0348.0607.0738.131.116.21.1211.2262.2423.4739.3551.7341a6.7671,6.7671,0,0,1,.4273,1.29,3.246,3.246,0,0,1,.0744.653,5.6226,5.6226,0,0,1-.3379,1.7888c-.0672.1956-.1387.3786-.21.5449Z"/><g class="cls-21"><rect class="cls-3" x="4.0166" y="8.3282" width="40.0246" height="31.3918"/></g></g></g><circle cx="10.8281" cy="16.5135" r="1.7351"/><path class="cls-22" d="M9.0929,16.3752v-.0214a1.87,1.87,0,1,1,1.8695,1.9252,1.7267,1.7267,0,0,1-1.843-1.6,1.3642,1.3642,0,0,0,1.4146,1.1992,1.4846,1.4846,0,1,0-1.441-1.5027Z"/><circle class="cls-23" cx="9.8407" cy="16.911" r="0.4767"/><circle cx="10.8281" cy="29.1979" r="1.7351"/><path class="cls-22" d="M9.0929,29.06v-.0214a1.87,1.87,0,1,1,1.8695,1.9252,1.7267,1.7267,0,0,1-1.843-1.6,1.3642,1.3642,0,0,0,1.4146,1.1992A1.4846,1.4846,0,1,0,9.0929,29.06Z"/><circle class="cls-23" cx="9.8407" cy="29.5955" r="0.4767"/></svg>