<?xml version="1.0" encoding="UTF-8"?>
<svg width="280px" height="280px" viewBox="0 0 280 280" version="1.1" xmlns="http://www.w3.org/2000/svg" xmlns:xlink="http://www.w3.org/1999/xlink" style="background: #1F33D9;">
    <!-- Generator: Sketch 42 (36781) - http://www.bohemiancoding.com/sketch -->
    <title>default-cover</title>
    <desc>Created with Sketch.</desc>
    <defs></defs>
    <g id="Page-1" stroke="none" stroke-width="1" fill="none" fill-rule="evenodd">
        <g id="default-cover">
            <g id="Group">
                <rect id="Rectangle-19" fill="#CDC200" x="0" y="0" width="10" height="10"></rect>
                <rect id="Rectangle-19-Copy-56" fill="#923B00" x="0" y="20" width="10" height="10"></rect>
                <rect id="Rectangle-19-Copy-144" fill="#A35DB7" x="10" y="40" width="10" height="10"></rect>
                <rect id="Rectangle-19-Copy-145" fill="#A35DB7" x="20" y="40" width="10" height="10"></rect>
                <rect id="Rectangle-19-Copy-146" fill="#923B00" x="30" y="40" width="10" height="10"></rect>
                <rect id="Rectangle-19-Copy-154" fill="#A35DB7" x="110" y="40" width="10" height="10"></rect>
                <rect id="Rectangle-19-Copy-155" fill="#A35DB7" x="120" y="40" width="10" height="10"></rect>
                <rect id="Rectangle-19-Copy-156" fill="#923B00" x="130" y="40" width="10" height="10"></rect>
                <rect id="Rectangle-19-Copy-164" fill="#A35DB7" x="210" y="40" width="10" height="10"></rect>
                <rect id="Rectangle-19-Copy-165" fill="#A35DB7" x="220" y="40" width="10" height="10"></rect>
                <rect id="Rectangle-19-Copy-166" fill="#923B00" x="230" y="40" width="10" height="10"></rect>
                <rect id="Rectangle-19-Copy-172" fill="#A35DB7" x="20" y="50" width="10" height="10"></rect>
                <rect id="Rectangle-19-Copy-173" fill="#A35DB7" x="30" y="50" width="10" height="10"></rect>
                <rect id="Rectangle-19-Copy-174" fill="#923B00" x="40" y="50" width="10" height="10"></rect>
                <rect id="Rectangle-19-Copy-182" fill="#9E00F0" x="120" y="50" width="10" height="10"></rect>
                <rect id="Rectangle-19-Copy-183" fill="#9200F6" x="130" y="50" width="10" height="10"></rect>
                <rect id="Rectangle-19-Copy-184" fill="#923B00" x="140" y="50" width="10" height="10"></rect>
                <rect id="Rectangle-19-Copy-185" fill="#CDC200" x="150" y="50" width="10" height="10"></rect>
                <rect id="Rectangle-19-Copy-186" fill="#923B00" x="160" y="50" width="10" height="10"></rect>
                <rect id="Rectangle-19-Copy-187" fill="#CDC200" x="170" y="50" width="10" height="10"></rect>
                <rect id="Rectangle-19-Copy-188" fill="#923B00" x="180" y="50" width="10" height="10"></rect>
                <rect id="Rectangle-19-Copy-194" fill="#FCFF85" x="240" y="50" width="10" height="10"></rect>
                <rect id="Rectangle-19-Copy-195" fill="#BD13B8" x="250" y="50" width="10" height="10"></rect>
                <rect id="Rectangle-19-Copy-196" fill="#A68C77" x="260" y="50" width="10" height="10"></rect>
                <rect id="Rectangle-19-Copy-197" fill="#A68C77" x="270" y="50" width="10" height="10"></rect>
                <rect id="Rectangle-19-Copy-114" fill="#98406E" x="0" y="60" width="10" height="10"></rect>
                <rect id="Rectangle-19-Copy-143" fill="#98406E" x="10" y="60" width="10" height="10"></rect>
                <rect id="Rectangle-19-Copy-198" fill="#6E2010" x="20" y="60" width="10" height="10"></rect>
                <rect id="Rectangle-19-Copy-199" fill="#6E2010" x="30" y="60" width="10" height="10"></rect>
                <rect id="Rectangle-19-Copy-200" fill="#6E2010" x="40" y="60" width="10" height="10"></rect>
                <rect id="Rectangle-19-Copy-201" fill="#3C529D" x="50" y="60" width="10" height="10"></rect>
                <rect id="Rectangle-19-Copy-202" fill="#923B00" x="60" y="60" width="10" height="10"></rect>
                <rect id="Rectangle-19-Copy-210" fill="#A35DB7" x="140" y="60" width="10" height="10"></rect>
                <rect id="Rectangle-19-Copy-211" fill="#A35DB7" x="150" y="60" width="10" height="10"></rect>
                <rect id="Rectangle-19-Copy-212" fill="#923B00" x="160" y="60" width="10" height="10"></rect>
                <rect id="Rectangle-19-Copy-220" fill="#A35DB7" x="240" y="60" width="10" height="10"></rect>
                <rect id="Rectangle-19-Copy-221" fill="#A35DB7" x="250" y="60" width="10" height="10"></rect>
                <rect id="Rectangle-19-Copy-222" fill="#923B00" x="260" y="60" width="10" height="10"></rect>
                <rect id="Rectangle-19-Copy-140" fill="#A35DB7" x="50" y="70" width="10" height="10"></rect>
                <rect id="Rectangle-19-Copy-141" fill="#A35DB7" x="60" y="70" width="10" height="10"></rect>
                <rect id="Rectangle-19-Copy-142" fill="#923B00" x="70" y="70" width="10" height="10"></rect>
                <rect id="Rectangle-19-Copy-231" fill="#A35DB7" x="150" y="70" width="10" height="10"></rect>
                <rect id="Rectangle-19-Copy-232" fill="#A35DB7" x="160" y="70" width="10" height="10"></rect>
                <rect id="Rectangle-19-Copy-233" fill="#923B00" x="170" y="70" width="10" height="10"></rect>
                <rect id="Rectangle-19-Copy-241" fill="#A35DB7" x="250" y="70" width="10" height="10"></rect>
                <rect id="Rectangle-19-Copy-242" fill="#A35DB7" x="260" y="70" width="10" height="10"></rect>
                <rect id="Rectangle-19-Copy-243" fill="#923B00" x="270" y="70" width="10" height="10"></rect>
                <rect id="Rectangle-19-Copy-249" fill="#9E00F0" x="60" y="80" width="10" height="10"></rect>
                <rect id="Rectangle-19-Copy-250" fill="#9200F6" x="70" y="80" width="10" height="10"></rect>
                <rect id="Rectangle-19-Copy-251" fill="#923B00" x="80" y="80" width="10" height="10"></rect>
                <rect id="Rectangle-19-Copy-252" fill="#CDC200" x="90" y="80" width="10" height="10"></rect>
                <rect id="Rectangle-19-Copy-253" fill="#923B00" x="100" y="80" width="10" height="10"></rect>
                <rect id="Rectangle-19-Copy-254" fill="#CDC200" x="110" y="80" width="10" height="10"></rect>
                <rect id="Rectangle-19-Copy-255" fill="#923B00" x="120" y="80" width="10" height="10"></rect>
                <rect id="Rectangle-19-Copy-261" fill="#FCFF85" x="180" y="80" width="10" height="10"></rect>
                <rect id="Rectangle-19-Copy-262" fill="#BD13B8" x="190" y="80" width="10" height="10"></rect>
                <rect id="Rectangle-19-Copy-263" fill="#A68C77" x="200" y="80" width="10" height="10"></rect>
                <rect id="Rectangle-19-Copy-264" fill="#A68C77" x="210" y="80" width="10" height="10"></rect>
                <rect id="Rectangle-19-Copy-265" fill="#B1B58C" x="220" y="80" width="10" height="10"></rect>
                <rect id="Rectangle-19-Copy-266" fill="#98406E" x="230" y="80" width="10" height="10"></rect>
                <rect id="Rectangle-19-Copy-267" fill="#98406E" x="240" y="80" width="10" height="10"></rect>
                <rect id="Rectangle-19-Copy-268" fill="#6E2010" x="250" y="80" width="10" height="10"></rect>
                <rect id="Rectangle-19-Copy-269" fill="#6E2010" x="260" y="80" width="10" height="10"></rect>
                <rect id="Rectangle-19-Copy-270" fill="#6E2010" x="270" y="80" width="10" height="10"></rect>
                <rect id="Rectangle-19-Copy-117" fill="#923B00" x="0" y="90" width="10" height="10"></rect>
                <rect id="Rectangle-19-Copy-278" fill="#A35DB7" x="80" y="90" width="10" height="10"></rect>
                <rect id="Rectangle-19-Copy-279" fill="#A35DB7" x="90" y="90" width="10" height="10"></rect>
                <rect id="Rectangle-19-Copy-280" fill="#923B00" x="100" y="90" width="10" height="10"></rect>
                <rect id="Rectangle-19-Copy-288" fill="#A35DB7" x="180" y="90" width="10" height="10"></rect>
                <rect id="Rectangle-19-Copy-289" fill="#A35DB7" x="190" y="90" width="10" height="10"></rect>
                <rect id="Rectangle-19-Copy-290" fill="#923B00" x="200" y="90" width="10" height="10"></rect>
                <rect id="Rectangle-19-Copy-118" fill="#A35DB7" x="0" y="100" width="10" height="10"></rect>
                <rect id="Rectangle-19-Copy-298" fill="#923B00" x="10" y="100" width="10" height="10"></rect>
                <rect id="Rectangle-19-Copy-306" fill="#A35DB7" x="90" y="100" width="10" height="10"></rect>
                <rect id="Rectangle-19-Copy-307" fill="#A35DB7" x="100" y="100" width="10" height="10"></rect>
                <rect id="Rectangle-19-Copy-308" fill="#923B00" x="110" y="100" width="10" height="10"></rect>
                <rect id="Rectangle-19-Copy-316" fill="#A35DB7" x="190" y="100" width="10" height="10"></rect>
                <rect id="Rectangle-19-Copy-317" fill="#A35DB7" x="200" y="100" width="10" height="10"></rect>
                <rect id="Rectangle-19-Copy-318" fill="#923B00" x="210" y="100" width="10" height="10"></rect>
                <rect id="Rectangle-19-Copy-119" fill="#9E00F0" x="0" y="110" width="10" height="10"></rect>
                <rect id="Rectangle-19-Copy-325" fill="#9200F6" x="10" y="110" width="10" height="10"></rect>
                <rect id="Rectangle-19-Copy-326" fill="#923B00" x="20" y="110" width="10" height="10"></rect>
                <rect id="Rectangle-19-Copy-327" fill="#CDC200" x="30" y="110" width="10" height="10"></rect>
                <rect id="Rectangle-19-Copy-328" fill="#923B00" x="40" y="110" width="10" height="10"></rect>
                <rect id="Rectangle-19-Copy-329" fill="#CDC200" x="50" y="110" width="10" height="10"></rect>
                <rect id="Rectangle-19-Copy-330" fill="#923B00" x="60" y="110" width="10" height="10"></rect>
                <rect id="Rectangle-19-Copy-336" fill="#FCFF85" x="120" y="110" width="10" height="10"></rect>
                <rect id="Rectangle-19-Copy-337" fill="#BD13B8" x="130" y="110" width="10" height="10"></rect>
                <rect id="Rectangle-19-Copy-338" fill="#A68C77" x="140" y="110" width="10" height="10"></rect>
                <rect id="Rectangle-19-Copy-339" fill="#A68C77" x="150" y="110" width="10" height="10"></rect>
                <rect id="Rectangle-19-Copy-340" fill="#B1B58C" x="160" y="110" width="10" height="10"></rect>
                <rect id="Rectangle-19-Copy-341" fill="#98406E" x="170" y="110" width="10" height="10"></rect>
                <rect id="Rectangle-19-Copy-342" fill="#98406E" x="180" y="110" width="10" height="10"></rect>
                <rect id="Rectangle-19-Copy-343" fill="#6E2010" x="190" y="110" width="10" height="10"></rect>
                <rect id="Rectangle-19-Copy-344" fill="#6E2010" x="200" y="110" width="10" height="10"></rect>
                <rect id="Rectangle-19-Copy-345" fill="#6E2010" x="210" y="110" width="10" height="10"></rect>
                <rect id="Rectangle-19-Copy-346" fill="#3C529D" x="220" y="110" width="10" height="10"></rect>
                <rect id="Rectangle-19-Copy-347" fill="#923B00" x="230" y="110" width="10" height="10"></rect>
                <rect id="Rectangle-19-Copy-353" fill="#A35DB7" x="20" y="120" width="10" height="10"></rect>
                <rect id="Rectangle-19-Copy-354" fill="#A35DB7" x="30" y="120" width="10" height="10"></rect>
                <rect id="Rectangle-19-Copy-355" fill="#923B00" x="40" y="120" width="10" height="10"></rect>
                <rect id="Rectangle-19-Copy-363" fill="#A35DB7" x="120" y="120" width="10" height="10"></rect>
                <rect id="Rectangle-19-Copy-364" fill="#A35DB7" x="120" y="120" width="10" height="10"></rect>
                <rect id="Rectangle-19-Copy-365" fill="#A35DB7" x="130" y="120" width="10" height="10"></rect>
                <rect id="Rectangle-19-Copy-366" fill="#923B00" x="140" y="120" width="10" height="10"></rect>
                <rect id="Rectangle-19-Copy-374" fill="#A35DB7" x="220" y="120" width="10" height="10"></rect>
                <rect id="Rectangle-19-Copy-375" fill="#A35DB7" x="230" y="120" width="10" height="10"></rect>
                <rect id="Rectangle-19-Copy-376" fill="#923B00" x="240" y="120" width="10" height="10"></rect>
                <rect id="Rectangle-19-Copy-382" fill="#A35DB7" x="30" y="130" width="10" height="10"></rect>
                <rect id="Rectangle-19-Copy-383" fill="#A35DB7" x="40" y="130" width="10" height="10"></rect>
                <rect id="Rectangle-19-Copy-384" fill="#923B00" x="50" y="130" width="10" height="10"></rect>
                <rect id="Rectangle-19-Copy-392" fill="#A35DB7" x="130" y="130" width="10" height="10"></rect>
                <rect id="Rectangle-19-Copy-393" fill="#A35DB7" x="140" y="130" width="10" height="10"></rect>
                <rect id="Rectangle-19-Copy-394" fill="#923B00" x="150" y="130" width="10" height="10"></rect>
                <rect id="Rectangle-19-Copy-402" fill="#9E00F0" x="230" y="130" width="10" height="10"></rect>
                <rect id="Rectangle-19-Copy-403" fill="#9200F6" x="240" y="130" width="10" height="10"></rect>
                <rect id="Rectangle-19-Copy-404" fill="#923B00" x="250" y="130" width="10" height="10"></rect>
                <rect id="Rectangle-19-Copy-405" fill="#CDC200" x="260" y="130" width="10" height="10"></rect>
                <rect id="Rectangle-19-Copy-406" fill="#923B00" x="270" y="130" width="10" height="10"></rect>
                <rect id="Rectangle-19-Copy-122" fill="#923B00" x="0" y="140" width="10" height="10"></rect>
                <rect id="Rectangle-19-Copy-412" fill="#FCFF85" x="60" y="140" width="10" height="10"></rect>
                <rect id="Rectangle-19-Copy-413" fill="#BD13B8" x="70" y="140" width="10" height="10"></rect>
                <rect id="Rectangle-19-Copy-414" fill="#A68C77" x="80" y="140" width="10" height="10"></rect>
                <rect id="Rectangle-19-Copy-415" fill="#A68C77" x="90" y="140" width="10" height="10"></rect>
                <rect id="Rectangle-19-Copy-416" fill="#B1B58C" x="100" y="140" width="10" height="10"></rect>
                <rect id="Rectangle-19-Copy-417" fill="#98406E" x="110" y="140" width="10" height="10"></rect>
                <rect id="Rectangle-19-Copy-418" fill="#98406E" x="120" y="140" width="10" height="10"></rect>
                <rect id="Rectangle-19-Copy-419" fill="#6E2010" x="130" y="140" width="10" height="10"></rect>
                <rect id="Rectangle-19-Copy-420" fill="#6E2010" x="140" y="140" width="10" height="10"></rect>
                <rect id="Rectangle-19-Copy-421" fill="#6E2010" x="150" y="140" width="10" height="10"></rect>
                <rect id="Rectangle-19-Copy-422" fill="#3C529D" x="160" y="140" width="10" height="10"></rect>
                <rect id="Rectangle-19-Copy-423" fill="#923B00" x="170" y="140" width="10" height="10"></rect>
                <rect id="Rectangle-19-Copy-431" fill="#A35DB7" x="250" y="140" width="10" height="10"></rect>
                <rect id="Rectangle-19-Copy-432" fill="#A35DB7" x="260" y="140" width="10" height="10"></rect>
                <rect id="Rectangle-19-Copy-433" fill="#923B00" x="270" y="140" width="10" height="10"></rect>
                <rect id="Rectangle-19-Copy-439" fill="#A35DB7" x="60" y="150" width="10" height="10"></rect>
                <rect id="Rectangle-19-Copy-440" fill="#A35DB7" x="70" y="150" width="10" height="10"></rect>
                <rect id="Rectangle-19-Copy-441" fill="#923B00" x="80" y="150" width="10" height="10"></rect>
                <rect id="Rectangle-19-Copy-449" fill="#A35DB7" x="160" y="150" width="10" height="10"></rect>
                <rect id="Rectangle-19-Copy-450" fill="#A35DB7" x="170" y="150" width="10" height="10"></rect>
                <rect id="Rectangle-19-Copy-451" fill="#923B00" x="180" y="150" width="10" height="10"></rect>
                <rect id="Rectangle-19-Copy-459" fill="#A35DB7" x="260" y="150" width="10" height="10"></rect>
                <rect id="Rectangle-19-Copy-460" fill="#A35DB7" x="270" y="150" width="10" height="10"></rect>
                <rect id="Rectangle-19-Copy-467" fill="#A35DB7" x="70" y="160" width="10" height="10"></rect>
                <rect id="Rectangle-19-Copy-468" fill="#A35DB7" x="80" y="160" width="10" height="10"></rect>
                <rect id="Rectangle-19-Copy-469" fill="#923B00" x="90" y="160" width="10" height="10"></rect>
                <rect id="Rectangle-19-Copy-477" fill="#9E00F0" x="170" y="160" width="10" height="10"></rect>
                <rect id="Rectangle-19-Copy-478" fill="#9200F6" x="180" y="160" width="10" height="10"></rect>
                <rect id="Rectangle-19-Copy-479" fill="#923B00" x="190" y="160" width="10" height="10"></rect>
                <rect id="Rectangle-19-Copy-480" fill="#CDC200" x="200" y="160" width="10" height="10"></rect>
                <rect id="Rectangle-19-Copy-481" fill="#923B00" x="210" y="160" width="10" height="10"></rect>
                <rect id="Rectangle-19-Copy-482" fill="#CDC200" x="220" y="160" width="10" height="10"></rect>
                <rect id="Rectangle-19-Copy-483" fill="#923B00" x="230" y="160" width="10" height="10"></rect>
                <rect id="Rectangle-19-Copy-125" fill="#FCFF85" x="0" y="170" width="10" height="10"></rect>
                <rect id="Rectangle-19-Copy-488" fill="#BD13B8" x="10" y="170" width="10" height="10"></rect>
                <rect id="Rectangle-19-Copy-489" fill="#A68C77" x="20" y="170" width="10" height="10"></rect>
                <rect id="Rectangle-19-Copy-490" fill="#A68C77" x="30" y="170" width="10" height="10"></rect>
                <rect id="Rectangle-19-Copy-491" fill="#B1B58C" x="40" y="170" width="10" height="10"></rect>
                <rect id="Rectangle-19-Copy-492" fill="#98406E" x="50" y="170" width="10" height="10"></rect>
                <rect id="Rectangle-19-Copy-493" fill="#98406E" x="60" y="170" width="10" height="10"></rect>
                <rect id="Rectangle-19-Copy-494" fill="#6E2010" x="70" y="170" width="10" height="10"></rect>
                <rect id="Rectangle-19-Copy-495" fill="#6E2010" x="80" y="170" width="10" height="10"></rect>
                <rect id="Rectangle-19-Copy-496" fill="#6E2010" x="90" y="170" width="10" height="10"></rect>
                <rect id="Rectangle-19-Copy-497" fill="#3C529D" x="100" y="170" width="10" height="10"></rect>
                <rect id="Rectangle-19-Copy-498" fill="#923B00" x="110" y="170" width="10" height="10"></rect>
                <rect id="Rectangle-19-Copy-506" fill="#A35DB7" x="190" y="170" width="10" height="10"></rect>
                <rect id="Rectangle-19-Copy-507" fill="#A35DB7" x="200" y="170" width="10" height="10"></rect>
                <rect id="Rectangle-19-Copy-508" fill="#923B00" x="210" y="170" width="10" height="10"></rect>
                <rect id="Rectangle-19-Copy-126" fill="#A35DB7" x="0" y="180" width="10" height="10"></rect>
                <rect id="Rectangle-19-Copy-515" fill="#A35DB7" x="10" y="180" width="10" height="10"></rect>
                <rect id="Rectangle-19-Copy-516" fill="#923B00" x="20" y="180" width="10" height="10"></rect>
                <rect id="Rectangle-19-Copy-524" fill="#A35DB7" x="100" y="180" width="10" height="10"></rect>
                <rect id="Rectangle-19-Copy-525" fill="#A35DB7" x="110" y="180" width="10" height="10"></rect>
                <rect id="Rectangle-19-Copy-526" fill="#923B00" x="120" y="180" width="10" height="10"></rect>
                <rect id="Rectangle-19-Copy-534" fill="#A35DB7" x="200" y="180" width="10" height="10"></rect>
                <rect id="Rectangle-19-Copy-535" fill="#A35DB7" x="210" y="180" width="10" height="10"></rect>
                <rect id="Rectangle-19-Copy-536" fill="#923B00" x="220" y="180" width="10" height="10"></rect>
                <rect id="Rectangle-19-Copy-127" x="0" y="190" width="10" height="10"></rect>
                <rect id="Rectangle-19-Copy-542" fill="#A35DB7" x="10" y="190" width="10" height="10"></rect>
                <rect id="Rectangle-19-Copy-543" fill="#A35DB7" x="20" y="190" width="10" height="10"></rect>
                <rect id="Rectangle-19-Copy-544" fill="#923B00" x="30" y="190" width="10" height="10"></rect>
                <rect id="Rectangle-19-Copy-552" fill="#9E00F0" x="110" y="190" width="10" height="10"></rect>
                <rect id="Rectangle-19-Copy-553" fill="#9200F6" x="120" y="190" width="10" height="10"></rect>
                <rect id="Rectangle-19-Copy-554" fill="#923B00" x="130" y="190" width="10" height="10"></rect>
                <rect id="Rectangle-19-Copy-555" fill="#CDC200" x="140" y="190" width="10" height="10"></rect>
                <rect id="Rectangle-19-Copy-556" fill="#923B00" x="150" y="190" width="10" height="10"></rect>
                <rect id="Rectangle-19-Copy-557" fill="#CDC200" x="160" y="190" width="10" height="10"></rect>
                <rect id="Rectangle-19-Copy-558" fill="#923B00" x="170" y="190" width="10" height="10"></rect>
                <rect id="Rectangle-19-Copy-564" fill="#FCFF85" x="230" y="190" width="10" height="10"></rect>
                <rect id="Rectangle-19-Copy-565" fill="#BD13B8" x="240" y="190" width="10" height="10"></rect>
                <rect id="Rectangle-19-Copy-566" fill="#A68C77" x="250" y="190" width="10" height="10"></rect>
                <rect id="Rectangle-19-Copy-567" fill="#A68C77" x="260" y="190" width="10" height="10"></rect>
                <rect id="Rectangle-19-Copy-568" fill="#B1B58C" x="270" y="190" width="10" height="10"></rect>
                <rect id="Rectangle-19-Copy-128" fill="#98406E" x="0" y="200" width="10" height="10"></rect>
                <rect id="Rectangle-19-Copy-569" fill="#6E2010" x="10" y="200" width="10" height="10"></rect>
                <rect id="Rectangle-19-Copy-570" fill="#6E2010" x="20" y="200" width="10" height="10"></rect>
                <rect id="Rectangle-19-Copy-571" fill="#6E2010" x="30" y="200" width="10" height="10"></rect>
                <rect id="Rectangle-19-Copy-572" fill="#3C529D" x="40" y="200" width="10" height="10"></rect>
                <rect id="Rectangle-19-Copy-573" fill="#923B00" x="50" y="200" width="10" height="10"></rect>
                <rect id="Rectangle-19-Copy-581" fill="#A35DB7" x="130" y="200" width="10" height="10"></rect>
                <rect id="Rectangle-19-Copy-582" fill="#A35DB7" x="140" y="200" width="10" height="10"></rect>
                <rect id="Rectangle-19-Copy-583" fill="#923B00" x="150" y="200" width="10" height="10"></rect>
                <rect id="Rectangle-19-Copy-591" fill="#A35DB7" x="230" y="200" width="10" height="10"></rect>
                <rect id="Rectangle-19-Copy-592" fill="#A35DB7" x="240" y="200" width="10" height="10"></rect>
                <rect id="Rectangle-19-Copy-593" fill="#923B00" x="250" y="200" width="10" height="10"></rect>
                <rect id="Rectangle-19-Copy-599" fill="#A35DB7" x="40" y="210" width="10" height="10"></rect>
                <rect id="Rectangle-19-Copy-600" fill="#A35DB7" x="50" y="210" width="10" height="10"></rect>
                <rect id="Rectangle-19-Copy-601" fill="#923B00" x="60" y="210" width="10" height="10"></rect>
                <rect id="Rectangle-19-Copy-609" fill="#A35DB7" x="140" y="210" width="10" height="10"></rect>
                <rect id="Rectangle-19-Copy-610" fill="#A35DB7" x="150" y="210" width="10" height="10"></rect>
                <rect id="Rectangle-19-Copy-611" fill="#923B00" x="160" y="210" width="10" height="10"></rect>
                <rect id="Rectangle-19-Copy-619" fill="#A35DB7" x="240" y="210" width="10" height="10"></rect>
                <rect id="Rectangle-19-Copy-620" fill="#A35DB7" x="250" y="210" width="10" height="10"></rect>
                <rect id="Rectangle-19-Copy-621" fill="#923B00" x="260" y="210" width="10" height="10"></rect>
                <rect id="Rectangle-19-Copy-627" fill="#9E00F0" x="50" y="220" width="10" height="10"></rect>
                <rect id="Rectangle-19-Copy-628" fill="#9200F6" x="60" y="220" width="10" height="10"></rect>
                <rect id="Rectangle-19-Copy-629" fill="#923B00" x="70" y="220" width="10" height="10"></rect>
                <rect id="Rectangle-19-Copy-630" fill="#CDC200" x="80" y="220" width="10" height="10"></rect>
                <rect id="Rectangle-19-Copy-631" fill="#923B00" x="90" y="220" width="10" height="10"></rect>
                <rect id="Rectangle-19-Copy-632" fill="#CDC200" x="100" y="220" width="10" height="10"></rect>
                <rect id="Rectangle-19-Copy-633" fill="#923B00" x="110" y="220" width="10" height="10"></rect>
                <rect id="Rectangle-19-Copy-639" fill="#FCFF85" x="170" y="220" width="10" height="10"></rect>
                <rect id="Rectangle-19-Copy-640" fill="#BD13B8" x="180" y="220" width="10" height="10"></rect>
                <rect id="Rectangle-19-Copy-641" fill="#A68C77" x="190" y="220" width="10" height="10"></rect>
                <rect id="Rectangle-19-Copy-642" fill="#A68C77" x="200" y="220" width="10" height="10"></rect>
                <rect id="Rectangle-19-Copy-643" fill="#B1B58C" x="210" y="220" width="10" height="10"></rect>
                <rect id="Rectangle-19-Copy-644" fill="#98406E" x="220" y="220" width="10" height="10"></rect>
                <rect id="Rectangle-19-Copy-645" fill="#98406E" x="230" y="220" width="10" height="10"></rect>
                <rect id="Rectangle-19-Copy-646" fill="#6E2010" x="240" y="220" width="10" height="10"></rect>
                <rect id="Rectangle-19-Copy-647" fill="#6E2010" x="250" y="220" width="10" height="10"></rect>
                <rect id="Rectangle-19-Copy-648" fill="#6E2010" x="260" y="220" width="10" height="10"></rect>
                <rect id="Rectangle-19-Copy-649" fill="#3C529D" x="270" y="220" width="10" height="10"></rect>
                <rect id="Rectangle-19-Copy-656" fill="#A35DB7" x="70" y="230" width="10" height="10"></rect>
                <rect id="Rectangle-19-Copy-657" fill="#A35DB7" x="80" y="230" width="10" height="10"></rect>
                <rect id="Rectangle-19-Copy-658" fill="#923B00" x="90" y="230" width="10" height="10"></rect>
                <rect id="Rectangle-19-Copy-666" fill="#A35DB7" x="170" y="230" width="10" height="10"></rect>
                <rect id="Rectangle-19-Copy-667" fill="#A35DB7" x="180" y="230" width="10" height="10"></rect>
                <rect id="Rectangle-19-Copy-668" fill="#923B00" x="190" y="230" width="10" height="10"></rect>
                <rect id="Rectangle-19-Copy-676" fill="#A35DB7" x="270" y="230" width="10" height="10"></rect>
                <rect id="Rectangle-19-Copy-132" fill="#923B00" x="0" y="240" width="10" height="10"></rect>
                <rect id="Rectangle-19-Copy-684" fill="#A35DB7" x="80" y="240" width="10" height="10"></rect>
                <rect id="Rectangle-19-Copy-685" fill="#A35DB7" x="90" y="240" width="10" height="10"></rect>
                <rect id="Rectangle-19-Copy-686" fill="#923B00" x="100" y="240" width="10" height="10"></rect>
                <rect id="Rectangle-19-Copy-694" fill="#A35DB7" x="180" y="240" width="10" height="10"></rect>
                <rect id="Rectangle-19-Copy-695" fill="#A35DB7" x="190" y="240" width="10" height="10"></rect>
                <rect id="Rectangle-19-Copy-696" fill="#923B00" x="200" y="240" width="10" height="10"></rect>
                <rect id="Rectangle-19-Copy-133" fill="#9200F6" x="0" y="250" width="10" height="10"></rect>
                <rect id="Rectangle-19-Copy-704" fill="#923B00" x="10" y="250" width="10" height="10"></rect>
                <rect id="Rectangle-19-Copy-705" fill="#CDC200" x="20" y="250" width="10" height="10"></rect>
                <rect id="Rectangle-19-Copy-706" fill="#923B00" x="30" y="250" width="10" height="10"></rect>
                <rect id="Rectangle-19-Copy-707" fill="#CDC200" x="40" y="250" width="10" height="10"></rect>
                <rect id="Rectangle-19-Copy-708" fill="#923B00" x="50" y="250" width="10" height="10"></rect>
                <rect id="Rectangle-19-Copy-714" fill="#FCFF85" x="110" y="250" width="10" height="10"></rect>
                <rect id="Rectangle-19-Copy-715" fill="#BD13B8" x="120" y="250" width="10" height="10"></rect>
                <rect id="Rectangle-19-Copy-716" fill="#A68C77" x="130" y="250" width="10" height="10"></rect>
                <rect id="Rectangle-19-Copy-717" fill="#A68C77" x="140" y="250" width="10" height="10"></rect>
                <rect id="Rectangle-19-Copy-718" fill="#B1B58C" x="150" y="250" width="10" height="10"></rect>
                <rect id="Rectangle-19-Copy-719" fill="#98406E" x="160" y="250" width="10" height="10"></rect>
                <rect id="Rectangle-19-Copy-720" fill="#98406E" x="170" y="250" width="10" height="10"></rect>
                <rect id="Rectangle-19-Copy-721" fill="#6E2010" x="180" y="250" width="10" height="10"></rect>
                <rect id="Rectangle-19-Copy-722" fill="#6E2010" x="190" y="250" width="10" height="10"></rect>
                <rect id="Rectangle-19-Copy-723" fill="#6E2010" x="200" y="250" width="10" height="10"></rect>
                <rect id="Rectangle-19-Copy-724" fill="#3C529D" x="210" y="250" width="10" height="10"></rect>
                <rect id="Rectangle-19-Copy-725" fill="#923B00" x="220" y="250" width="10" height="10"></rect>
                <rect id="Rectangle-19-Copy-731" fill="#A35DB7" x="10" y="260" width="10" height="10"></rect>
                <rect id="Rectangle-19-Copy-732" fill="#A35DB7" x="20" y="260" width="10" height="10"></rect>
                <rect id="Rectangle-19-Copy-733" fill="#923B00" x="30" y="260" width="10" height="10"></rect>
                <rect id="Rectangle-19-Copy-741" fill="#A35DB7" x="110" y="260" width="10" height="10"></rect>
                <rect id="Rectangle-19-Copy-742" fill="#A35DB7" x="120" y="260" width="10" height="10"></rect>
                <rect id="Rectangle-19-Copy-743" fill="#923B00" x="130" y="260" width="10" height="10"></rect>
                <rect id="Rectangle-19-Copy-751" fill="#A35DB7" x="210" y="260" width="10" height="10"></rect>
                <rect id="Rectangle-19-Copy-752" fill="#A35DB7" x="220" y="260" width="10" height="10"></rect>
                <rect id="Rectangle-19-Copy-753" fill="#923B00" x="230" y="260" width="10" height="10"></rect>
                <rect id="Rectangle-19-Copy-759" fill="#A35DB7" x="20" y="270" width="10" height="10"></rect>
                <rect id="Rectangle-19-Copy-760" fill="#A35DB7" x="30" y="270" width="10" height="10"></rect>
                <rect id="Rectangle-19-Copy-761" fill="#923B00" x="40" y="270" width="10" height="10"></rect>
                <rect id="Rectangle-19-Copy-769" fill="#A35DB7" x="120" y="270" width="10" height="10"></rect>
                <rect id="Rectangle-19-Copy-770" fill="#A35DB7" x="130" y="270" width="10" height="10"></rect>
                <rect id="Rectangle-19-Copy-771" fill="#923B00" x="140" y="270" width="10" height="10"></rect>
                <rect id="Rectangle-19-Copy-779" fill="#9E00F0" x="220" y="270" width="10" height="10"></rect>
                <rect id="Rectangle-19-Copy-780" fill="#9200F6" x="230" y="270" width="10" height="10"></rect>
                <rect id="Rectangle-19-Copy-781" fill="#923B00" x="240" y="270" width="10" height="10"></rect>
                <rect id="Rectangle-19-Copy-782" fill="#CDC200" x="250" y="270" width="10" height="10"></rect>
                <rect id="Rectangle-19-Copy-783" fill="#923B00" x="260" y="270" width="10" height="10"></rect>
                <rect id="Rectangle-19-Copy-784" fill="#CDC200" x="270" y="270" width="10" height="10"></rect>
                <rect id="Rectangle-19-Copy-85" fill="#FCFF85" x="10" y="30" width="10" height="10"></rect>
                <rect id="Rectangle-19-Copy-86" fill="#BD13B8" x="20" y="30" width="10" height="10"></rect>
                <rect id="Rectangle-19-Copy-87" fill="#A68C77" x="30" y="30" width="10" height="10"></rect>
                <rect id="Rectangle-19-Copy-88" fill="#A68C77" x="40" y="30" width="10" height="10"></rect>
                <rect id="Rectangle-19-Copy-89" fill="#B1B58C" x="50" y="30" width="10" height="10"></rect>
                <rect id="Rectangle-19-Copy-90" fill="#98406E" x="60" y="30" width="10" height="10"></rect>
                <rect id="Rectangle-19-Copy-91" fill="#98406E" x="70" y="30" width="10" height="10"></rect>
                <rect id="Rectangle-19-Copy-92" fill="#6E2010" x="80" y="30" width="10" height="10"></rect>
                <rect id="Rectangle-19-Copy-93" fill="#6E2010" x="90" y="30" width="10" height="10"></rect>
                <rect id="Rectangle-19-Copy-94" fill="#6E2010" x="100" y="30" width="10" height="10"></rect>
                <rect id="Rectangle-19-Copy-95" fill="#3C529D" x="110" y="30" width="10" height="10"></rect>
                <rect id="Rectangle-19-Copy-96" fill="#923B00" x="120" y="30" width="10" height="10"></rect>
                <rect id="Rectangle-19-Copy-104" fill="#A35DB7" x="200" y="30" width="10" height="10"></rect>
                <rect id="Rectangle-19-Copy-105" fill="#A35DB7" x="210" y="30" width="10" height="10"></rect>
                <rect id="Rectangle-19-Copy-106" fill="#923B00" x="220" y="30" width="10" height="10"></rect>
                <rect id="Rectangle-19-Copy-64" fill="#A35DB7" x="80" y="20" width="10" height="10"></rect>
                <rect id="Rectangle-19-Copy-65" fill="#A35DB7" x="90" y="20" width="10" height="10"></rect>
                <rect id="Rectangle-19-Copy-66" fill="#923B00" x="100" y="20" width="10" height="10"></rect>
                <rect id="Rectangle-19-Copy-74" fill="#9E00F0" x="180" y="20" width="10" height="10"></rect>
                <rect id="Rectangle-19-Copy-75" fill="#9200F6" x="190" y="20" width="10" height="10"></rect>
                <rect id="Rectangle-19-Copy-76" fill="#923B00" x="200" y="20" width="10" height="10"></rect>
                <rect id="Rectangle-19-Copy-77" fill="#CDC200" x="210" y="20" width="10" height="10"></rect>
                <rect id="Rectangle-19-Copy-78" fill="#923B00" x="220" y="20" width="10" height="10"></rect>
                <rect id="Rectangle-19-Copy-79" fill="#CDC200" x="230" y="20" width="10" height="10"></rect>
                <rect id="Rectangle-19-Copy-80" fill="#923B00" x="240" y="20" width="10" height="10"></rect>
                <rect id="Rectangle-19-Copy-35" fill="#A35DB7" x="70" y="10" width="10" height="10"></rect>
                <rect id="Rectangle-19-Copy-36" fill="#A35DB7" x="80" y="10" width="10" height="10"></rect>
                <rect id="Rectangle-19-Copy-37" fill="#923B00" x="90" y="10" width="10" height="10"></rect>
                <rect id="Rectangle-19-Copy-45" fill="#A35DB7" x="170" y="10" width="10" height="10"></rect>
                <rect id="Rectangle-19-Copy-46" fill="#A35DB7" x="180" y="10" width="10" height="10"></rect>
                <rect id="Rectangle-19-Copy-47" fill="#923B00" x="190" y="10" width="10" height="10"></rect>
                <rect id="Rectangle-19-Copy-55" fill="#A35DB7" x="270" y="10" width="10" height="10"></rect>
                <rect id="Rectangle-19-Copy" fill="#923B00" x="10" y="0" width="10" height="10"></rect>
                <rect id="Rectangle-19-Copy-7" fill="#FCFF85" x="70" y="0" width="10" height="10"></rect>
                <rect id="Rectangle-19-Copy-8" fill="#BD13B8" x="80" y="0" width="10" height="10"></rect>
                <rect id="Rectangle-19-Copy-9" fill="#A68C77" x="90" y="0" width="10" height="10"></rect>
                <rect id="Rectangle-19-Copy-10" fill="#A68C77" x="100" y="0" width="10" height="10"></rect>
                <rect id="Rectangle-19-Copy-11" fill="#B1B58C" x="110" y="0" width="10" height="10"></rect>
                <rect id="Rectangle-19-Copy-12" fill="#98406E" x="120" y="0" width="10" height="10"></rect>
                <rect id="Rectangle-19-Copy-13" fill="#98406E" x="130" y="0" width="10" height="10"></rect>
                <rect id="Rectangle-19-Copy-14" fill="#6E2010" x="140" y="0" width="10" height="10"></rect>
                <rect id="Rectangle-19-Copy-15" fill="#6E2010" x="150" y="0" width="10" height="10"></rect>
                <rect id="Rectangle-19-Copy-16" fill="#6E2010" x="160" y="0" width="10" height="10"></rect>
                <rect id="Rectangle-19-Copy-17" fill="#3C529D" x="170" y="0" width="10" height="10"></rect>
                <rect id="Rectangle-19-Copy-18" fill="#923B00" x="180" y="0" width="10" height="10"></rect>
                <rect id="Rectangle-19-Copy-26" fill="#A35DB7" x="260" y="0" width="10" height="10"></rect>
                <rect id="Rectangle-19-Copy-27" fill="#A35DB7" x="270" y="0" width="10" height="10"></rect>
            </g>
        </g>
    </g>
</svg>