<?xml version="1.0" encoding="UTF-8"?>
<svg width="440px" height="440px" viewBox="0 0 440 440" version="1.1" xmlns="http://www.w3.org/2000/svg" xmlns:xlink="http://www.w3.org/1999/xlink" style="background: #FFB3CF;">
    <!-- Generator: Sketch 42 (36781) - http://www.bohemiancoding.com/sketch -->
    <title>default-cover</title>
    <desc>Created with Sketch.</desc>
    <defs></defs>
    <g id="Page-1" stroke="none" stroke-width="1" fill="none" fill-rule="evenodd">
        <g id="default-cover">
            <g id="Group">
                <rect id="Rectangle-19" fill="#CDC200" x="0" y="0" width="15.7142857" height="15.7142857"></rect>
                <rect id="Rectangle-19-Copy-56" fill="#ED6B59" x="0" y="31.4285714" width="15.7142857" height="15.7142857"></rect>
                <rect id="Rectangle-19-Copy-144" fill="#FA81BC" x="15.7142857" y="62.8571429" width="15.7142857" height="15.7142857"></rect>
                <rect id="Rectangle-19-Copy-145" fill="#FA81BC" x="31.4285714" y="62.8571429" width="15.7142857" height="15.7142857"></rect>
                <rect id="Rectangle-19-Copy-146" fill="#ED6B59" x="47.1428571" y="62.8571429" width="15.7142857" height="15.7142857"></rect>
                <rect id="Rectangle-19-Copy-154" fill="#FA81BC" x="172.857143" y="62.8571429" width="15.7142857" height="15.7142857"></rect>
                <rect id="Rectangle-19-Copy-155" fill="#FA81BC" x="188.571429" y="62.8571429" width="15.7142857" height="15.7142857"></rect>
                <rect id="Rectangle-19-Copy-156" fill="#ED6B59" x="204.285714" y="62.8571429" width="15.7142857" height="15.7142857"></rect>
                <rect id="Rectangle-19-Copy-164" fill="#FA81BC" x="330" y="62.8571429" width="15.7142857" height="15.7142857"></rect>
                <rect id="Rectangle-19-Copy-165" fill="#FA81BC" x="345.714286" y="62.8571429" width="15.7142857" height="15.7142857"></rect>
                <rect id="Rectangle-19-Copy-166" fill="#ED6B59" x="361.428571" y="62.8571429" width="15.7142857" height="15.7142857"></rect>
                <rect id="Rectangle-19-Copy-172" fill="#FA81BC" x="31.4285714" y="78.5714286" width="15.7142857" height="15.7142857"></rect>
                <rect id="Rectangle-19-Copy-173" fill="#FA81BC" x="47.1428571" y="78.5714286" width="15.7142857" height="15.7142857"></rect>
                <rect id="Rectangle-19-Copy-174" fill="#ED6B59" x="62.8571429" y="78.5714286" width="15.7142857" height="15.7142857"></rect>
                <rect id="Rectangle-19-Copy-182" fill="#9E00F0" x="188.571429" y="78.5714286" width="15.7142857" height="15.7142857"></rect>
                <rect id="Rectangle-19-Copy-183" fill="#9200F6" x="204.285714" y="78.5714286" width="15.7142857" height="15.7142857"></rect>
                <rect id="Rectangle-19-Copy-184" fill="#ED6B59" x="220" y="78.5714286" width="15.7142857" height="15.7142857"></rect>
                <rect id="Rectangle-19-Copy-185" fill="#CDC200" x="235.714286" y="78.5714286" width="15.7142857" height="15.7142857"></rect>
                <rect id="Rectangle-19-Copy-186" fill="#ED6B59" x="251.428571" y="78.5714286" width="15.7142857" height="15.7142857"></rect>
                <rect id="Rectangle-19-Copy-187" fill="#CDC200" x="267.142857" y="78.5714286" width="15.7142857" height="15.7142857"></rect>
                <rect id="Rectangle-19-Copy-188" fill="#ED6B59" x="282.857143" y="78.5714286" width="15.7142857" height="15.7142857"></rect>
                <rect id="Rectangle-19-Copy-194" fill="#FCFF85" x="377.142857" y="78.5714286" width="15.7142857" height="15.7142857"></rect>
                <rect id="Rectangle-19-Copy-195" fill="#4A98F8" x="392.857143" y="78.5714286" width="15.7142857" height="15.7142857"></rect>
                <rect id="Rectangle-19-Copy-196" fill="#E8A07A" x="408.571429" y="78.5714286" width="15.7142857" height="15.7142857"></rect>
                <rect id="Rectangle-19-Copy-197" fill="#E8A07A" x="424.285714" y="78.5714286" width="15.7142857" height="15.7142857"></rect>
                <rect id="Rectangle-19-Copy-114" fill="#FFA29A" x="0" y="94.2857143" width="15.7142857" height="15.7142857"></rect>
                <rect id="Rectangle-19-Copy-143" fill="#FFA29A" x="15.7142857" y="94.2857143" width="15.7142857" height="15.7142857"></rect>
                <rect id="Rectangle-19-Copy-198" fill="#56B442" x="31.4285714" y="94.2857143" width="15.7142857" height="15.7142857"></rect>
                <rect id="Rectangle-19-Copy-199" fill="#56B442" x="47.1428571" y="94.2857143" width="15.7142857" height="15.7142857"></rect>
                <rect id="Rectangle-19-Copy-200" fill="#56B442" x="62.8571429" y="94.2857143" width="15.7142857" height="15.7142857"></rect>
                <rect id="Rectangle-19-Copy-201" fill="#CEC76F" x="78.5714286" y="94.2857143" width="15.7142857" height="15.7142857"></rect>
                <rect id="Rectangle-19-Copy-202" fill="#ED6B59" x="94.2857143" y="94.2857143" width="15.7142857" height="15.7142857"></rect>
                <rect id="Rectangle-19-Copy-210" fill="#FA81BC" x="220" y="94.2857143" width="15.7142857" height="15.7142857"></rect>
                <rect id="Rectangle-19-Copy-211" fill="#FA81BC" x="235.714286" y="94.2857143" width="15.7142857" height="15.7142857"></rect>
                <rect id="Rectangle-19-Copy-212" fill="#ED6B59" x="251.428571" y="94.2857143" width="15.7142857" height="15.7142857"></rect>
                <rect id="Rectangle-19-Copy-220" fill="#FA81BC" x="377.142857" y="94.2857143" width="15.7142857" height="15.7142857"></rect>
                <rect id="Rectangle-19-Copy-221" fill="#FA81BC" x="392.857143" y="94.2857143" width="15.7142857" height="15.7142857"></rect>
                <rect id="Rectangle-19-Copy-222" fill="#ED6B59" x="408.571429" y="94.2857143" width="15.7142857" height="15.7142857"></rect>
                <rect id="Rectangle-19-Copy-140" fill="#FA81BC" x="78.5714286" y="110" width="15.7142857" height="15.7142857"></rect>
                <rect id="Rectangle-19-Copy-141" fill="#FA81BC" x="94.2857143" y="110" width="15.7142857" height="15.7142857"></rect>
                <rect id="Rectangle-19-Copy-142" fill="#ED6B59" x="110" y="110" width="15.7142857" height="15.7142857"></rect>
                <rect id="Rectangle-19-Copy-231" fill="#FA81BC" x="235.714286" y="110" width="15.7142857" height="15.7142857"></rect>
                <rect id="Rectangle-19-Copy-232" fill="#FA81BC" x="251.428571" y="110" width="15.7142857" height="15.7142857"></rect>
                <rect id="Rectangle-19-Copy-233" fill="#ED6B59" x="267.142857" y="110" width="15.7142857" height="15.7142857"></rect>
                <rect id="Rectangle-19-Copy-241" fill="#FA81BC" x="392.857143" y="110" width="15.7142857" height="15.7142857"></rect>
                <rect id="Rectangle-19-Copy-242" fill="#FA81BC" x="408.571429" y="110" width="15.7142857" height="15.7142857"></rect>
                <rect id="Rectangle-19-Copy-243" fill="#ED6B59" x="424.285714" y="110" width="15.7142857" height="15.7142857"></rect>
                <rect id="Rectangle-19-Copy-249" fill="#9E00F0" x="94.2857143" y="125.714286" width="15.7142857" height="15.7142857"></rect>
                <rect id="Rectangle-19-Copy-250" fill="#9200F6" x="110" y="125.714286" width="15.7142857" height="15.7142857"></rect>
                <rect id="Rectangle-19-Copy-251" fill="#ED6B59" x="125.714286" y="125.714286" width="15.7142857" height="15.7142857"></rect>
                <rect id="Rectangle-19-Copy-252" fill="#CDC200" x="141.428571" y="125.714286" width="15.7142857" height="15.7142857"></rect>
                <rect id="Rectangle-19-Copy-253" fill="#ED6B59" x="157.142857" y="125.714286" width="15.7142857" height="15.7142857"></rect>
                <rect id="Rectangle-19-Copy-254" fill="#CDC200" x="172.857143" y="125.714286" width="15.7142857" height="15.7142857"></rect>
                <rect id="Rectangle-19-Copy-255" fill="#ED6B59" x="188.571429" y="125.714286" width="15.7142857" height="15.7142857"></rect>
                <rect id="Rectangle-19-Copy-261" fill="#FCFF85" x="282.857143" y="125.714286" width="15.7142857" height="15.7142857"></rect>
                <rect id="Rectangle-19-Copy-262" fill="#4A98F8" x="298.571429" y="125.714286" width="15.7142857" height="15.7142857"></rect>
                <rect id="Rectangle-19-Copy-263" fill="#E8A07A" x="314.285714" y="125.714286" width="15.7142857" height="15.7142857"></rect>
                <rect id="Rectangle-19-Copy-264" fill="#E8A07A" x="330" y="125.714286" width="15.7142857" height="15.7142857"></rect>
                <rect id="Rectangle-19-Copy-265" fill="#88A2F7" x="345.714286" y="125.714286" width="15.7142857" height="15.7142857"></rect>
                <rect id="Rectangle-19-Copy-266" fill="#FFA29A" x="361.428571" y="125.714286" width="15.7142857" height="15.7142857"></rect>
                <rect id="Rectangle-19-Copy-267" fill="#FFA29A" x="377.142857" y="125.714286" width="15.7142857" height="15.7142857"></rect>
                <rect id="Rectangle-19-Copy-268" fill="#56B442" x="392.857143" y="125.714286" width="15.7142857" height="15.7142857"></rect>
                <rect id="Rectangle-19-Copy-269" fill="#56B442" x="408.571429" y="125.714286" width="15.7142857" height="15.7142857"></rect>
                <rect id="Rectangle-19-Copy-270" fill="#56B442" x="424.285714" y="125.714286" width="15.7142857" height="15.7142857"></rect>
                <rect id="Rectangle-19-Copy-117" fill="#ED6B59" x="0" y="141.428571" width="15.7142857" height="15.7142857"></rect>
                <rect id="Rectangle-19-Copy-278" fill="#FA81BC" x="125.714286" y="141.428571" width="15.7142857" height="15.7142857"></rect>
                <rect id="Rectangle-19-Copy-279" fill="#FA81BC" x="141.428571" y="141.428571" width="15.7142857" height="15.7142857"></rect>
                <rect id="Rectangle-19-Copy-280" fill="#ED6B59" x="157.142857" y="141.428571" width="15.7142857" height="15.7142857"></rect>
                <rect id="Rectangle-19-Copy-288" fill="#FA81BC" x="282.857143" y="141.428571" width="15.7142857" height="15.7142857"></rect>
                <rect id="Rectangle-19-Copy-289" fill="#FA81BC" x="298.571429" y="141.428571" width="15.7142857" height="15.7142857"></rect>
                <rect id="Rectangle-19-Copy-290" fill="#ED6B59" x="314.285714" y="141.428571" width="15.7142857" height="15.7142857"></rect>
                <rect id="Rectangle-19-Copy-118" fill="#FA81BC" x="0" y="157.142857" width="15.7142857" height="15.7142857"></rect>
                <rect id="Rectangle-19-Copy-298" fill="#ED6B59" x="15.7142857" y="157.142857" width="15.7142857" height="15.7142857"></rect>
                <rect id="Rectangle-19-Copy-306" fill="#FA81BC" x="141.428571" y="157.142857" width="15.7142857" height="15.7142857"></rect>
                <rect id="Rectangle-19-Copy-307" fill="#FA81BC" x="157.142857" y="157.142857" width="15.7142857" height="15.7142857"></rect>
                <rect id="Rectangle-19-Copy-308" fill="#ED6B59" x="172.857143" y="157.142857" width="15.7142857" height="15.7142857"></rect>
                <rect id="Rectangle-19-Copy-316" fill="#FA81BC" x="298.571429" y="157.142857" width="15.7142857" height="15.7142857"></rect>
                <rect id="Rectangle-19-Copy-317" fill="#FA81BC" x="314.285714" y="157.142857" width="15.7142857" height="15.7142857"></rect>
                <rect id="Rectangle-19-Copy-318" fill="#ED6B59" x="330" y="157.142857" width="15.7142857" height="15.7142857"></rect>
                <rect id="Rectangle-19-Copy-119" fill="#9E00F0" x="0" y="172.857143" width="15.7142857" height="15.7142857"></rect>
                <rect id="Rectangle-19-Copy-325" fill="#9200F6" x="15.7142857" y="172.857143" width="15.7142857" height="15.7142857"></rect>
                <rect id="Rectangle-19-Copy-326" fill="#ED6B59" x="31.4285714" y="172.857143" width="15.7142857" height="15.7142857"></rect>
                <rect id="Rectangle-19-Copy-327" fill="#CDC200" x="47.1428571" y="172.857143" width="15.7142857" height="15.7142857"></rect>
                <rect id="Rectangle-19-Copy-328" fill="#ED6B59" x="62.8571429" y="172.857143" width="15.7142857" height="15.7142857"></rect>
                <rect id="Rectangle-19-Copy-329" fill="#CDC200" x="78.5714286" y="172.857143" width="15.7142857" height="15.7142857"></rect>
                <rect id="Rectangle-19-Copy-330" fill="#ED6B59" x="94.2857143" y="172.857143" width="15.7142857" height="15.7142857"></rect>
                <rect id="Rectangle-19-Copy-336" fill="#FCFF85" x="188.571429" y="172.857143" width="15.7142857" height="15.7142857"></rect>
                <rect id="Rectangle-19-Copy-337" fill="#4A98F8" x="204.285714" y="172.857143" width="15.7142857" height="15.7142857"></rect>
                <rect id="Rectangle-19-Copy-338" fill="#E8A07A" x="220" y="172.857143" width="15.7142857" height="15.7142857"></rect>
                <rect id="Rectangle-19-Copy-339" fill="#E8A07A" x="235.714286" y="172.857143" width="15.7142857" height="15.7142857"></rect>
                <rect id="Rectangle-19-Copy-340" fill="#88A2F7" x="251.428571" y="172.857143" width="15.7142857" height="15.7142857"></rect>
                <rect id="Rectangle-19-Copy-341" fill="#FFA29A" x="267.142857" y="172.857143" width="15.7142857" height="15.7142857"></rect>
                <rect id="Rectangle-19-Copy-342" fill="#FFA29A" x="282.857143" y="172.857143" width="15.7142857" height="15.7142857"></rect>
                <rect id="Rectangle-19-Copy-343" fill="#56B442" x="298.571429" y="172.857143" width="15.7142857" height="15.7142857"></rect>
                <rect id="Rectangle-19-Copy-344" fill="#56B442" x="314.285714" y="172.857143" width="15.7142857" height="15.7142857"></rect>
                <rect id="Rectangle-19-Copy-345" fill="#56B442" x="330" y="172.857143" width="15.7142857" height="15.7142857"></rect>
                <rect id="Rectangle-19-Copy-346" fill="#CEC76F" x="345.714286" y="172.857143" width="15.7142857" height="15.7142857"></rect>
                <rect id="Rectangle-19-Copy-347" fill="#ED6B59" x="361.428571" y="172.857143" width="15.7142857" height="15.7142857"></rect>
                <rect id="Rectangle-19-Copy-353" fill="#FA81BC" x="31.4285714" y="188.571429" width="15.7142857" height="15.7142857"></rect>
                <rect id="Rectangle-19-Copy-354" fill="#FA81BC" x="47.1428571" y="188.571429" width="15.7142857" height="15.7142857"></rect>
                <rect id="Rectangle-19-Copy-355" fill="#ED6B59" x="62.8571429" y="188.571429" width="15.7142857" height="15.7142857"></rect>
                <rect id="Rectangle-19-Copy-363" fill="#FA81BC" x="188.571429" y="188.571429" width="15.7142857" height="15.7142857"></rect>
                <rect id="Rectangle-19-Copy-364" fill="#FA81BC" x="188.571429" y="188.571429" width="15.7142857" height="15.7142857"></rect>
                <rect id="Rectangle-19-Copy-365" fill="#FA81BC" x="204.285714" y="188.571429" width="15.7142857" height="15.7142857"></rect>
                <rect id="Rectangle-19-Copy-366" fill="#ED6B59" x="220" y="188.571429" width="15.7142857" height="15.7142857"></rect>
                <rect id="Rectangle-19-Copy-374" fill="#FA81BC" x="345.714286" y="188.571429" width="15.7142857" height="15.7142857"></rect>
                <rect id="Rectangle-19-Copy-375" fill="#FA81BC" x="361.428571" y="188.571429" width="15.7142857" height="15.7142857"></rect>
                <rect id="Rectangle-19-Copy-376" fill="#ED6B59" x="377.142857" y="188.571429" width="15.7142857" height="15.7142857"></rect>
                <rect id="Rectangle-19-Copy-382" fill="#FA81BC" x="47.1428571" y="204.285714" width="15.7142857" height="15.7142857"></rect>
                <rect id="Rectangle-19-Copy-383" fill="#FA81BC" x="62.8571429" y="204.285714" width="15.7142857" height="15.7142857"></rect>
                <rect id="Rectangle-19-Copy-384" fill="#ED6B59" x="78.5714286" y="204.285714" width="15.7142857" height="15.7142857"></rect>
                <rect id="Rectangle-19-Copy-392" fill="#FA81BC" x="204.285714" y="204.285714" width="15.7142857" height="15.7142857"></rect>
                <rect id="Rectangle-19-Copy-393" fill="#FA81BC" x="220" y="204.285714" width="15.7142857" height="15.7142857"></rect>
                <rect id="Rectangle-19-Copy-394" fill="#ED6B59" x="235.714286" y="204.285714" width="15.7142857" height="15.7142857"></rect>
                <rect id="Rectangle-19-Copy-402" fill="#9E00F0" x="361.428571" y="204.285714" width="15.7142857" height="15.7142857"></rect>
                <rect id="Rectangle-19-Copy-403" fill="#9200F6" x="377.142857" y="204.285714" width="15.7142857" height="15.7142857"></rect>
                <rect id="Rectangle-19-Copy-404" fill="#ED6B59" x="392.857143" y="204.285714" width="15.7142857" height="15.7142857"></rect>
                <rect id="Rectangle-19-Copy-405" fill="#CDC200" x="408.571429" y="204.285714" width="15.7142857" height="15.7142857"></rect>
                <rect id="Rectangle-19-Copy-406" fill="#ED6B59" x="424.285714" y="204.285714" width="15.7142857" height="15.7142857"></rect>
                <rect id="Rectangle-19-Copy-122" fill="#ED6B59" x="0" y="220" width="15.7142857" height="15.7142857"></rect>
                <rect id="Rectangle-19-Copy-412" fill="#FCFF85" x="94.2857143" y="220" width="15.7142857" height="15.7142857"></rect>
                <rect id="Rectangle-19-Copy-413" fill="#4A98F8" x="110" y="220" width="15.7142857" height="15.7142857"></rect>
                <rect id="Rectangle-19-Copy-414" fill="#E8A07A" x="125.714286" y="220" width="15.7142857" height="15.7142857"></rect>
                <rect id="Rectangle-19-Copy-415" fill="#E8A07A" x="141.428571" y="220" width="15.7142857" height="15.7142857"></rect>
                <rect id="Rectangle-19-Copy-416" fill="#88A2F7" x="157.142857" y="220" width="15.7142857" height="15.7142857"></rect>
                <rect id="Rectangle-19-Copy-417" fill="#FFA29A" x="172.857143" y="220" width="15.7142857" height="15.7142857"></rect>
                <rect id="Rectangle-19-Copy-418" fill="#FFA29A" x="188.571429" y="220" width="15.7142857" height="15.7142857"></rect>
                <rect id="Rectangle-19-Copy-419" fill="#56B442" x="204.285714" y="220" width="15.7142857" height="15.7142857"></rect>
                <rect id="Rectangle-19-Copy-420" fill="#56B442" x="220" y="220" width="15.7142857" height="15.7142857"></rect>
                <rect id="Rectangle-19-Copy-421" fill="#56B442" x="235.714286" y="220" width="15.7142857" height="15.7142857"></rect>
                <rect id="Rectangle-19-Copy-422" fill="#CEC76F" x="251.428571" y="220" width="15.7142857" height="15.7142857"></rect>
                <rect id="Rectangle-19-Copy-423" fill="#ED6B59" x="267.142857" y="220" width="15.7142857" height="15.7142857"></rect>
                <rect id="Rectangle-19-Copy-431" fill="#FA81BC" x="392.857143" y="220" width="15.7142857" height="15.7142857"></rect>
                <rect id="Rectangle-19-Copy-432" fill="#FA81BC" x="408.571429" y="220" width="15.7142857" height="15.7142857"></rect>
                <rect id="Rectangle-19-Copy-433" fill="#ED6B59" x="424.285714" y="220" width="15.7142857" height="15.7142857"></rect>
                <rect id="Rectangle-19-Copy-439" fill="#FA81BC" x="94.2857143" y="235.714286" width="15.7142857" height="15.7142857"></rect>
                <rect id="Rectangle-19-Copy-440" fill="#FA81BC" x="110" y="235.714286" width="15.7142857" height="15.7142857"></rect>
                <rect id="Rectangle-19-Copy-441" fill="#ED6B59" x="125.714286" y="235.714286" width="15.7142857" height="15.7142857"></rect>
                <rect id="Rectangle-19-Copy-449" fill="#FA81BC" x="251.428571" y="235.714286" width="15.7142857" height="15.7142857"></rect>
                <rect id="Rectangle-19-Copy-450" fill="#FA81BC" x="267.142857" y="235.714286" width="15.7142857" height="15.7142857"></rect>
                <rect id="Rectangle-19-Copy-451" fill="#ED6B59" x="282.857143" y="235.714286" width="15.7142857" height="15.7142857"></rect>
                <rect id="Rectangle-19-Copy-459" fill="#FA81BC" x="408.571429" y="235.714286" width="15.7142857" height="15.7142857"></rect>
                <rect id="Rectangle-19-Copy-460" fill="#FA81BC" x="424.285714" y="235.714286" width="15.7142857" height="15.7142857"></rect>
                <rect id="Rectangle-19-Copy-467" fill="#FA81BC" x="110" y="251.428571" width="15.7142857" height="15.7142857"></rect>
                <rect id="Rectangle-19-Copy-468" fill="#FA81BC" x="125.714286" y="251.428571" width="15.7142857" height="15.7142857"></rect>
                <rect id="Rectangle-19-Copy-469" fill="#ED6B59" x="141.428571" y="251.428571" width="15.7142857" height="15.7142857"></rect>
                <rect id="Rectangle-19-Copy-477" fill="#9E00F0" x="267.142857" y="251.428571" width="15.7142857" height="15.7142857"></rect>
                <rect id="Rectangle-19-Copy-478" fill="#9200F6" x="282.857143" y="251.428571" width="15.7142857" height="15.7142857"></rect>
                <rect id="Rectangle-19-Copy-479" fill="#ED6B59" x="298.571429" y="251.428571" width="15.7142857" height="15.7142857"></rect>
                <rect id="Rectangle-19-Copy-480" fill="#CDC200" x="314.285714" y="251.428571" width="15.7142857" height="15.7142857"></rect>
                <rect id="Rectangle-19-Copy-481" fill="#ED6B59" x="330" y="251.428571" width="15.7142857" height="15.7142857"></rect>
                <rect id="Rectangle-19-Copy-482" fill="#CDC200" x="345.714286" y="251.428571" width="15.7142857" height="15.7142857"></rect>
                <rect id="Rectangle-19-Copy-483" fill="#ED6B59" x="361.428571" y="251.428571" width="15.7142857" height="15.7142857"></rect>
                <rect id="Rectangle-19-Copy-125" fill="#FCFF85" x="0" y="267.142857" width="15.7142857" height="15.7142857"></rect>
                <rect id="Rectangle-19-Copy-488" fill="#4A98F8" x="15.7142857" y="267.142857" width="15.7142857" height="15.7142857"></rect>
                <rect id="Rectangle-19-Copy-489" fill="#E8A07A" x="31.4285714" y="267.142857" width="15.7142857" height="15.7142857"></rect>
                <rect id="Rectangle-19-Copy-490" fill="#E8A07A" x="47.1428571" y="267.142857" width="15.7142857" height="15.7142857"></rect>
                <rect id="Rectangle-19-Copy-491" fill="#88A2F7" x="62.8571429" y="267.142857" width="15.7142857" height="15.7142857"></rect>
                <rect id="Rectangle-19-Copy-492" fill="#FFA29A" x="78.5714286" y="267.142857" width="15.7142857" height="15.7142857"></rect>
                <rect id="Rectangle-19-Copy-493" fill="#FFA29A" x="94.2857143" y="267.142857" width="15.7142857" height="15.7142857"></rect>
                <rect id="Rectangle-19-Copy-494" fill="#56B442" x="110" y="267.142857" width="15.7142857" height="15.7142857"></rect>
                <rect id="Rectangle-19-Copy-495" fill="#56B442" x="125.714286" y="267.142857" width="15.7142857" height="15.7142857"></rect>
                <rect id="Rectangle-19-Copy-496" fill="#56B442" x="141.428571" y="267.142857" width="15.7142857" height="15.7142857"></rect>
                <rect id="Rectangle-19-Copy-497" fill="#CEC76F" x="157.142857" y="267.142857" width="15.7142857" height="15.7142857"></rect>
                <rect id="Rectangle-19-Copy-498" fill="#ED6B59" x="172.857143" y="267.142857" width="15.7142857" height="15.7142857"></rect>
                <rect id="Rectangle-19-Copy-506" fill="#FA81BC" x="298.571429" y="267.142857" width="15.7142857" height="15.7142857"></rect>
                <rect id="Rectangle-19-Copy-507" fill="#FA81BC" x="314.285714" y="267.142857" width="15.7142857" height="15.7142857"></rect>
                <rect id="Rectangle-19-Copy-508" fill="#ED6B59" x="330" y="267.142857" width="15.7142857" height="15.7142857"></rect>
                <rect id="Rectangle-19-Copy-126" fill="#FA81BC" x="0" y="282.857143" width="15.7142857" height="15.7142857"></rect>
                <rect id="Rectangle-19-Copy-515" fill="#FA81BC" x="15.7142857" y="282.857143" width="15.7142857" height="15.7142857"></rect>
                <rect id="Rectangle-19-Copy-516" fill="#ED6B59" x="31.4285714" y="282.857143" width="15.7142857" height="15.7142857"></rect>
                <rect id="Rectangle-19-Copy-524" fill="#FA81BC" x="157.142857" y="282.857143" width="15.7142857" height="15.7142857"></rect>
                <rect id="Rectangle-19-Copy-525" fill="#FA81BC" x="172.857143" y="282.857143" width="15.7142857" height="15.7142857"></rect>
                <rect id="Rectangle-19-Copy-526" fill="#ED6B59" x="188.571429" y="282.857143" width="15.7142857" height="15.7142857"></rect>
                <rect id="Rectangle-19-Copy-534" fill="#FA81BC" x="314.285714" y="282.857143" width="15.7142857" height="15.7142857"></rect>
                <rect id="Rectangle-19-Copy-535" fill="#FA81BC" x="330" y="282.857143" width="15.7142857" height="15.7142857"></rect>
                <rect id="Rectangle-19-Copy-536" fill="#ED6B59" x="345.714286" y="282.857143" width="15.7142857" height="15.7142857"></rect>
                <rect id="Rectangle-19-Copy-127" x="0" y="298.571429" width="15.7142857" height="15.7142857"></rect>
                <rect id="Rectangle-19-Copy-542" fill="#FA81BC" x="15.7142857" y="298.571429" width="15.7142857" height="15.7142857"></rect>
                <rect id="Rectangle-19-Copy-543" fill="#FA81BC" x="31.4285714" y="298.571429" width="15.7142857" height="15.7142857"></rect>
                <rect id="Rectangle-19-Copy-544" fill="#ED6B59" x="47.1428571" y="298.571429" width="15.7142857" height="15.7142857"></rect>
                <rect id="Rectangle-19-Copy-552" fill="#9E00F0" x="172.857143" y="298.571429" width="15.7142857" height="15.7142857"></rect>
                <rect id="Rectangle-19-Copy-553" fill="#9200F6" x="188.571429" y="298.571429" width="15.7142857" height="15.7142857"></rect>
                <rect id="Rectangle-19-Copy-554" fill="#ED6B59" x="204.285714" y="298.571429" width="15.7142857" height="15.7142857"></rect>
                <rect id="Rectangle-19-Copy-555" fill="#CDC200" x="220" y="298.571429" width="15.7142857" height="15.7142857"></rect>
                <rect id="Rectangle-19-Copy-556" fill="#ED6B59" x="235.714286" y="298.571429" width="15.7142857" height="15.7142857"></rect>
                <rect id="Rectangle-19-Copy-557" fill="#CDC200" x="251.428571" y="298.571429" width="15.7142857" height="15.7142857"></rect>
                <rect id="Rectangle-19-Copy-558" fill="#ED6B59" x="267.142857" y="298.571429" width="15.7142857" height="15.7142857"></rect>
                <rect id="Rectangle-19-Copy-564" fill="#FCFF85" x="361.428571" y="298.571429" width="15.7142857" height="15.7142857"></rect>
                <rect id="Rectangle-19-Copy-565" fill="#4A98F8" x="377.142857" y="298.571429" width="15.7142857" height="15.7142857"></rect>
                <rect id="Rectangle-19-Copy-566" fill="#E8A07A" x="392.857143" y="298.571429" width="15.7142857" height="15.7142857"></rect>
                <rect id="Rectangle-19-Copy-567" fill="#E8A07A" x="408.571429" y="298.571429" width="15.7142857" height="15.7142857"></rect>
                <rect id="Rectangle-19-Copy-568" fill="#88A2F7" x="424.285714" y="298.571429" width="15.7142857" height="15.7142857"></rect>
                <rect id="Rectangle-19-Copy-128" fill="#FFA29A" x="0" y="314.285714" width="15.7142857" height="15.7142857"></rect>
                <rect id="Rectangle-19-Copy-569" fill="#56B442" x="15.7142857" y="314.285714" width="15.7142857" height="15.7142857"></rect>
                <rect id="Rectangle-19-Copy-570" fill="#56B442" x="31.4285714" y="314.285714" width="15.7142857" height="15.7142857"></rect>
                <rect id="Rectangle-19-Copy-571" fill="#56B442" x="47.1428571" y="314.285714" width="15.7142857" height="15.7142857"></rect>
                <rect id="Rectangle-19-Copy-572" fill="#CEC76F" x="62.8571429" y="314.285714" width="15.7142857" height="15.7142857"></rect>
                <rect id="Rectangle-19-Copy-573" fill="#ED6B59" x="78.5714286" y="314.285714" width="15.7142857" height="15.7142857"></rect>
                <rect id="Rectangle-19-Copy-581" fill="#FA81BC" x="204.285714" y="314.285714" width="15.7142857" height="15.7142857"></rect>
                <rect id="Rectangle-19-Copy-582" fill="#FA81BC" x="220" y="314.285714" width="15.7142857" height="15.7142857"></rect>
                <rect id="Rectangle-19-Copy-583" fill="#ED6B59" x="235.714286" y="314.285714" width="15.7142857" height="15.7142857"></rect>
                <rect id="Rectangle-19-Copy-591" fill="#FA81BC" x="361.428571" y="314.285714" width="15.7142857" height="15.7142857"></rect>
                <rect id="Rectangle-19-Copy-592" fill="#FA81BC" x="377.142857" y="314.285714" width="15.7142857" height="15.7142857"></rect>
                <rect id="Rectangle-19-Copy-593" fill="#ED6B59" x="392.857143" y="314.285714" width="15.7142857" height="15.7142857"></rect>
                <rect id="Rectangle-19-Copy-599" fill="#FA81BC" x="62.8571429" y="330" width="15.7142857" height="15.7142857"></rect>
                <rect id="Rectangle-19-Copy-600" fill="#FA81BC" x="78.5714286" y="330" width="15.7142857" height="15.7142857"></rect>
                <rect id="Rectangle-19-Copy-601" fill="#ED6B59" x="94.2857143" y="330" width="15.7142857" height="15.7142857"></rect>
                <rect id="Rectangle-19-Copy-609" fill="#FA81BC" x="220" y="330" width="15.7142857" height="15.7142857"></rect>
                <rect id="Rectangle-19-Copy-610" fill="#FA81BC" x="235.714286" y="330" width="15.7142857" height="15.7142857"></rect>
                <rect id="Rectangle-19-Copy-611" fill="#ED6B59" x="251.428571" y="330" width="15.7142857" height="15.7142857"></rect>
                <rect id="Rectangle-19-Copy-619" fill="#FA81BC" x="377.142857" y="330" width="15.7142857" height="15.7142857"></rect>
                <rect id="Rectangle-19-Copy-620" fill="#FA81BC" x="392.857143" y="330" width="15.7142857" height="15.7142857"></rect>
                <rect id="Rectangle-19-Copy-621" fill="#ED6B59" x="408.571429" y="330" width="15.7142857" height="15.7142857"></rect>
                <rect id="Rectangle-19-Copy-627" fill="#9E00F0" x="78.5714286" y="345.714286" width="15.7142857" height="15.7142857"></rect>
                <rect id="Rectangle-19-Copy-628" fill="#9200F6" x="94.2857143" y="345.714286" width="15.7142857" height="15.7142857"></rect>
                <rect id="Rectangle-19-Copy-629" fill="#ED6B59" x="110" y="345.714286" width="15.7142857" height="15.7142857"></rect>
                <rect id="Rectangle-19-Copy-630" fill="#CDC200" x="125.714286" y="345.714286" width="15.7142857" height="15.7142857"></rect>
                <rect id="Rectangle-19-Copy-631" fill="#ED6B59" x="141.428571" y="345.714286" width="15.7142857" height="15.7142857"></rect>
                <rect id="Rectangle-19-Copy-632" fill="#CDC200" x="157.142857" y="345.714286" width="15.7142857" height="15.7142857"></rect>
                <rect id="Rectangle-19-Copy-633" fill="#ED6B59" x="172.857143" y="345.714286" width="15.7142857" height="15.7142857"></rect>
                <rect id="Rectangle-19-Copy-639" fill="#FCFF85" x="267.142857" y="345.714286" width="15.7142857" height="15.7142857"></rect>
                <rect id="Rectangle-19-Copy-640" fill="#4A98F8" x="282.857143" y="345.714286" width="15.7142857" height="15.7142857"></rect>
                <rect id="Rectangle-19-Copy-641" fill="#E8A07A" x="298.571429" y="345.714286" width="15.7142857" height="15.7142857"></rect>
                <rect id="Rectangle-19-Copy-642" fill="#E8A07A" x="314.285714" y="345.714286" width="15.7142857" height="15.7142857"></rect>
                <rect id="Rectangle-19-Copy-643" fill="#88A2F7" x="330" y="345.714286" width="15.7142857" height="15.7142857"></rect>
                <rect id="Rectangle-19-Copy-644" fill="#FFA29A" x="345.714286" y="345.714286" width="15.7142857" height="15.7142857"></rect>
                <rect id="Rectangle-19-Copy-645" fill="#FFA29A" x="361.428571" y="345.714286" width="15.7142857" height="15.7142857"></rect>
                <rect id="Rectangle-19-Copy-646" fill="#56B442" x="377.142857" y="345.714286" width="15.7142857" height="15.7142857"></rect>
                <rect id="Rectangle-19-Copy-647" fill="#56B442" x="392.857143" y="345.714286" width="15.7142857" height="15.7142857"></rect>
                <rect id="Rectangle-19-Copy-648" fill="#56B442" x="408.571429" y="345.714286" width="15.7142857" height="15.7142857"></rect>
                <rect id="Rectangle-19-Copy-649" fill="#CEC76F" x="424.285714" y="345.714286" width="15.7142857" height="15.7142857"></rect>
                <rect id="Rectangle-19-Copy-656" fill="#FA81BC" x="110" y="361.428571" width="15.7142857" height="15.7142857"></rect>
                <rect id="Rectangle-19-Copy-657" fill="#FA81BC" x="125.714286" y="361.428571" width="15.7142857" height="15.7142857"></rect>
                <rect id="Rectangle-19-Copy-658" fill="#ED6B59" x="141.428571" y="361.428571" width="15.7142857" height="15.7142857"></rect>
                <rect id="Rectangle-19-Copy-666" fill="#FA81BC" x="267.142857" y="361.428571" width="15.7142857" height="15.7142857"></rect>
                <rect id="Rectangle-19-Copy-667" fill="#FA81BC" x="282.857143" y="361.428571" width="15.7142857" height="15.7142857"></rect>
                <rect id="Rectangle-19-Copy-668" fill="#ED6B59" x="298.571429" y="361.428571" width="15.7142857" height="15.7142857"></rect>
                <rect id="Rectangle-19-Copy-676" fill="#FA81BC" x="424.285714" y="361.428571" width="15.7142857" height="15.7142857"></rect>
                <rect id="Rectangle-19-Copy-132" fill="#ED6B59" x="0" y="377.142857" width="15.7142857" height="15.7142857"></rect>
                <rect id="Rectangle-19-Copy-684" fill="#FA81BC" x="125.714286" y="377.142857" width="15.7142857" height="15.7142857"></rect>
                <rect id="Rectangle-19-Copy-685" fill="#FA81BC" x="141.428571" y="377.142857" width="15.7142857" height="15.7142857"></rect>
                <rect id="Rectangle-19-Copy-686" fill="#ED6B59" x="157.142857" y="377.142857" width="15.7142857" height="15.7142857"></rect>
                <rect id="Rectangle-19-Copy-694" fill="#FA81BC" x="282.857143" y="377.142857" width="15.7142857" height="15.7142857"></rect>
                <rect id="Rectangle-19-Copy-695" fill="#FA81BC" x="298.571429" y="377.142857" width="15.7142857" height="15.7142857"></rect>
                <rect id="Rectangle-19-Copy-696" fill="#ED6B59" x="314.285714" y="377.142857" width="15.7142857" height="15.7142857"></rect>
                <rect id="Rectangle-19-Copy-133" fill="#9200F6" x="0" y="392.857143" width="15.7142857" height="15.7142857"></rect>
                <rect id="Rectangle-19-Copy-704" fill="#ED6B59" x="15.7142857" y="392.857143" width="15.7142857" height="15.7142857"></rect>
                <rect id="Rectangle-19-Copy-705" fill="#CDC200" x="31.4285714" y="392.857143" width="15.7142857" height="15.7142857"></rect>
                <rect id="Rectangle-19-Copy-706" fill="#ED6B59" x="47.1428571" y="392.857143" width="15.7142857" height="15.7142857"></rect>
                <rect id="Rectangle-19-Copy-707" fill="#CDC200" x="62.8571429" y="392.857143" width="15.7142857" height="15.7142857"></rect>
                <rect id="Rectangle-19-Copy-708" fill="#ED6B59" x="78.5714286" y="392.857143" width="15.7142857" height="15.7142857"></rect>
                <rect id="Rectangle-19-Copy-714" fill="#FCFF85" x="172.857143" y="392.857143" width="15.7142857" height="15.7142857"></rect>
                <rect id="Rectangle-19-Copy-715" fill="#4A98F8" x="188.571429" y="392.857143" width="15.7142857" height="15.7142857"></rect>
                <rect id="Rectangle-19-Copy-716" fill="#E8A07A" x="204.285714" y="392.857143" width="15.7142857" height="15.7142857"></rect>
                <rect id="Rectangle-19-Copy-717" fill="#E8A07A" x="220" y="392.857143" width="15.7142857" height="15.7142857"></rect>
                <rect id="Rectangle-19-Copy-718" fill="#88A2F7" x="235.714286" y="392.857143" width="15.7142857" height="15.7142857"></rect>
                <rect id="Rectangle-19-Copy-719" fill="#FFA29A" x="251.428571" y="392.857143" width="15.7142857" height="15.7142857"></rect>
                <rect id="Rectangle-19-Copy-720" fill="#FFA29A" x="267.142857" y="392.857143" width="15.7142857" height="15.7142857"></rect>
                <rect id="Rectangle-19-Copy-721" fill="#56B442" x="282.857143" y="392.857143" width="15.7142857" height="15.7142857"></rect>
                <rect id="Rectangle-19-Copy-722" fill="#56B442" x="298.571429" y="392.857143" width="15.7142857" height="15.7142857"></rect>
                <rect id="Rectangle-19-Copy-723" fill="#56B442" x="314.285714" y="392.857143" width="15.7142857" height="15.7142857"></rect>
                <rect id="Rectangle-19-Copy-724" fill="#CEC76F" x="330" y="392.857143" width="15.7142857" height="15.7142857"></rect>
                <rect id="Rectangle-19-Copy-725" fill="#ED6B59" x="345.714286" y="392.857143" width="15.7142857" height="15.7142857"></rect>
                <rect id="Rectangle-19-Copy-731" fill="#FA81BC" x="15.7142857" y="408.571429" width="15.7142857" height="15.7142857"></rect>
                <rect id="Rectangle-19-Copy-732" fill="#FA81BC" x="31.4285714" y="408.571429" width="15.7142857" height="15.7142857"></rect>
                <rect id="Rectangle-19-Copy-733" fill="#ED6B59" x="47.1428571" y="408.571429" width="15.7142857" height="15.7142857"></rect>
                <rect id="Rectangle-19-Copy-741" fill="#FA81BC" x="172.857143" y="408.571429" width="15.7142857" height="15.7142857"></rect>
                <rect id="Rectangle-19-Copy-742" fill="#FA81BC" x="188.571429" y="408.571429" width="15.7142857" height="15.7142857"></rect>
                <rect id="Rectangle-19-Copy-743" fill="#ED6B59" x="204.285714" y="408.571429" width="15.7142857" height="15.7142857"></rect>
                <rect id="Rectangle-19-Copy-751" fill="#FA81BC" x="330" y="408.571429" width="15.7142857" height="15.7142857"></rect>
                <rect id="Rectangle-19-Copy-752" fill="#FA81BC" x="345.714286" y="408.571429" width="15.7142857" height="15.7142857"></rect>
                <rect id="Rectangle-19-Copy-753" fill="#ED6B59" x="361.428571" y="408.571429" width="15.7142857" height="15.7142857"></rect>
                <rect id="Rectangle-19-Copy-759" fill="#FA81BC" x="31.4285714" y="424.285714" width="15.7142857" height="15.7142857"></rect>
                <rect id="Rectangle-19-Copy-760" fill="#FA81BC" x="47.1428571" y="424.285714" width="15.7142857" height="15.7142857"></rect>
                <rect id="Rectangle-19-Copy-761" fill="#ED6B59" x="62.8571429" y="424.285714" width="15.7142857" height="15.7142857"></rect>
                <rect id="Rectangle-19-Copy-769" fill="#FA81BC" x="188.571429" y="424.285714" width="15.7142857" height="15.7142857"></rect>
                <rect id="Rectangle-19-Copy-770" fill="#FA81BC" x="204.285714" y="424.285714" width="15.7142857" height="15.7142857"></rect>
                <rect id="Rectangle-19-Copy-771" fill="#ED6B59" x="220" y="424.285714" width="15.7142857" height="15.7142857"></rect>
                <rect id="Rectangle-19-Copy-779" fill="#9E00F0" x="345.714286" y="424.285714" width="15.7142857" height="15.7142857"></rect>
                <rect id="Rectangle-19-Copy-780" fill="#9200F6" x="361.428571" y="424.285714" width="15.7142857" height="15.7142857"></rect>
                <rect id="Rectangle-19-Copy-781" fill="#ED6B59" x="377.142857" y="424.285714" width="15.7142857" height="15.7142857"></rect>
                <rect id="Rectangle-19-Copy-782" fill="#CDC200" x="392.857143" y="424.285714" width="15.7142857" height="15.7142857"></rect>
                <rect id="Rectangle-19-Copy-783" fill="#ED6B59" x="408.571429" y="424.285714" width="15.7142857" height="15.7142857"></rect>
                <rect id="Rectangle-19-Copy-784" fill="#CDC200" x="424.285714" y="424.285714" width="15.7142857" height="15.7142857"></rect>
                <rect id="Rectangle-19-Copy-85" fill="#FCFF85" x="15.7142857" y="47.1428571" width="15.7142857" height="15.7142857"></rect>
                <rect id="Rectangle-19-Copy-86" fill="#4A98F8" x="31.4285714" y="47.1428571" width="15.7142857" height="15.7142857"></rect>
                <rect id="Rectangle-19-Copy-87" fill="#E8A07A" x="47.1428571" y="47.1428571" width="15.7142857" height="15.7142857"></rect>
                <rect id="Rectangle-19-Copy-88" fill="#E8A07A" x="62.8571429" y="47.1428571" width="15.7142857" height="15.7142857"></rect>
                <rect id="Rectangle-19-Copy-89" fill="#88A2F7" x="78.5714286" y="47.1428571" width="15.7142857" height="15.7142857"></rect>
                <rect id="Rectangle-19-Copy-90" fill="#FFA29A" x="94.2857143" y="47.1428571" width="15.7142857" height="15.7142857"></rect>
                <rect id="Rectangle-19-Copy-91" fill="#FFA29A" x="110" y="47.1428571" width="15.7142857" height="15.7142857"></rect>
                <rect id="Rectangle-19-Copy-92" fill="#56B442" x="125.714286" y="47.1428571" width="15.7142857" height="15.7142857"></rect>
                <rect id="Rectangle-19-Copy-93" fill="#56B442" x="141.428571" y="47.1428571" width="15.7142857" height="15.7142857"></rect>
                <rect id="Rectangle-19-Copy-94" fill="#56B442" x="157.142857" y="47.1428571" width="15.7142857" height="15.7142857"></rect>
                <rect id="Rectangle-19-Copy-95" fill="#CEC76F" x="172.857143" y="47.1428571" width="15.7142857" height="15.7142857"></rect>
                <rect id="Rectangle-19-Copy-96" fill="#ED6B59" x="188.571429" y="47.1428571" width="15.7142857" height="15.7142857"></rect>
                <rect id="Rectangle-19-Copy-104" fill="#FA81BC" x="314.285714" y="47.1428571" width="15.7142857" height="15.7142857"></rect>
                <rect id="Rectangle-19-Copy-105" fill="#FA81BC" x="330" y="47.1428571" width="15.7142857" height="15.7142857"></rect>
                <rect id="Rectangle-19-Copy-106" fill="#ED6B59" x="345.714286" y="47.1428571" width="15.7142857" height="15.7142857"></rect>
                <rect id="Rectangle-19-Copy-64" fill="#FA81BC" x="125.714286" y="31.4285714" width="15.7142857" height="15.7142857"></rect>
                <rect id="Rectangle-19-Copy-65" fill="#FA81BC" x="141.428571" y="31.4285714" width="15.7142857" height="15.7142857"></rect>
                <rect id="Rectangle-19-Copy-66" fill="#ED6B59" x="157.142857" y="31.4285714" width="15.7142857" height="15.7142857"></rect>
                <rect id="Rectangle-19-Copy-74" fill="#9E00F0" x="282.857143" y="31.4285714" width="15.7142857" height="15.7142857"></rect>
                <rect id="Rectangle-19-Copy-75" fill="#9200F6" x="298.571429" y="31.4285714" width="15.7142857" height="15.7142857"></rect>
                <rect id="Rectangle-19-Copy-76" fill="#ED6B59" x="314.285714" y="31.4285714" width="15.7142857" height="15.7142857"></rect>
                <rect id="Rectangle-19-Copy-77" fill="#CDC200" x="330" y="31.4285714" width="15.7142857" height="15.7142857"></rect>
                <rect id="Rectangle-19-Copy-78" fill="#ED6B59" x="345.714286" y="31.4285714" width="15.7142857" height="15.7142857"></rect>
                <rect id="Rectangle-19-Copy-79" fill="#CDC200" x="361.428571" y="31.4285714" width="15.7142857" height="15.7142857"></rect>
                <rect id="Rectangle-19-Copy-80" fill="#ED6B59" x="377.142857" y="31.4285714" width="15.7142857" height="15.7142857"></rect>
                <rect id="Rectangle-19-Copy-35" fill="#FA81BC" x="110" y="15.7142857" width="15.7142857" height="15.7142857"></rect>
                <rect id="Rectangle-19-Copy-36" fill="#FA81BC" x="125.714286" y="15.7142857" width="15.7142857" height="15.7142857"></rect>
                <rect id="Rectangle-19-Copy-37" fill="#ED6B59" x="141.428571" y="15.7142857" width="15.7142857" height="15.7142857"></rect>
                <rect id="Rectangle-19-Copy-45" fill="#FA81BC" x="267.142857" y="15.7142857" width="15.7142857" height="15.7142857"></rect>
                <rect id="Rectangle-19-Copy-46" fill="#FA81BC" x="282.857143" y="15.7142857" width="15.7142857" height="15.7142857"></rect>
                <rect id="Rectangle-19-Copy-47" fill="#ED6B59" x="298.571429" y="15.7142857" width="15.7142857" height="15.7142857"></rect>
                <rect id="Rectangle-19-Copy-55" fill="#FA81BC" x="424.285714" y="15.7142857" width="15.7142857" height="15.7142857"></rect>
                <rect id="Rectangle-19-Copy" fill="#ED6B59" x="15.7142857" y="0" width="15.7142857" height="15.7142857"></rect>
                <rect id="Rectangle-19-Copy-7" fill="#FCFF85" x="110" y="0" width="15.7142857" height="15.7142857"></rect>
                <rect id="Rectangle-19-Copy-8" fill="#4A98F8" x="125.714286" y="0" width="15.7142857" height="15.7142857"></rect>
                <rect id="Rectangle-19-Copy-9" fill="#E8A07A" x="141.428571" y="0" width="15.7142857" height="15.7142857"></rect>
                <rect id="Rectangle-19-Copy-10" fill="#E8A07A" x="157.142857" y="0" width="15.7142857" height="15.7142857"></rect>
                <rect id="Rectangle-19-Copy-11" fill="#88A2F7" x="172.857143" y="0" width="15.7142857" height="15.7142857"></rect>
                <rect id="Rectangle-19-Copy-12" fill="#FFA29A" x="188.571429" y="0" width="15.7142857" height="15.7142857"></rect>
                <rect id="Rectangle-19-Copy-13" fill="#FFA29A" x="204.285714" y="0" width="15.7142857" height="15.7142857"></rect>
                <rect id="Rectangle-19-Copy-14" fill="#56B442" x="220" y="0" width="15.7142857" height="15.7142857"></rect>
                <rect id="Rectangle-19-Copy-15" fill="#56B442" x="235.714286" y="0" width="15.7142857" height="15.7142857"></rect>
                <rect id="Rectangle-19-Copy-16" fill="#56B442" x="251.428571" y="0" width="15.7142857" height="15.7142857"></rect>
                <rect id="Rectangle-19-Copy-17" fill="#CEC76F" x="267.142857" y="0" width="15.7142857" height="15.7142857"></rect>
                <rect id="Rectangle-19-Copy-18" fill="#ED6B59" x="282.857143" y="0" width="15.7142857" height="15.7142857"></rect>
                <rect id="Rectangle-19-Copy-26" fill="#FA81BC" x="408.571429" y="0" width="15.7142857" height="15.7142857"></rect>
                <rect id="Rectangle-19-Copy-27" fill="#FA81BC" x="424.285714" y="0" width="15.7142857" height="15.7142857"></rect>
            </g>
        </g>
    </g>
</svg>