<?xml version="1.0" encoding="UTF-8"?>
<svg width="440px" height="440px" viewBox="0 0 440 440" version="1.1" xmlns="http://www.w3.org/2000/svg" xmlns:xlink="http://www.w3.org/1999/xlink" style="background: #4A44FD;">
    <!-- Generator: Sketch 42 (36781) - http://www.bohemiancoding.com/sketch -->
    <title>default-cover</title>
    <desc>Created with Sketch.</desc>
    <defs></defs>
    <g id="Page-1" stroke="none" stroke-width="1" fill="none" fill-rule="evenodd">
        <g id="default-cover">
            <g id="Group">
                <rect id="Rectangle-19" fill="#D7CF43" x="0" y="0" width="15.7142857" height="15.7142857"></rect>
                <rect id="Rectangle-19-Copy-56" fill="#C86E32" x="0" y="31.4285714" width="15.7142857" height="15.7142857"></rect>
                <rect id="Rectangle-19-Copy-144" fill="#B25ECA" x="15.7142857" y="62.8571429" width="15.7142857" height="15.7142857"></rect>
                <rect id="Rectangle-19-Copy-145" fill="#B25ECA" x="31.4285714" y="62.8571429" width="15.7142857" height="15.7142857"></rect>
                <rect id="Rectangle-19-Copy-146" fill="#AE5A22" x="47.1428571" y="62.8571429" width="15.7142857" height="15.7142857"></rect>
                <rect id="Rectangle-19-Copy-154" fill="#B25ECA" x="172.857143" y="62.8571429" width="15.7142857" height="15.7142857"></rect>
                <rect id="Rectangle-19-Copy-155" fill="#B25ECA" x="188.571429" y="62.8571429" width="15.7142857" height="15.7142857"></rect>
                <rect id="Rectangle-19-Copy-156" fill="#AE5A22" x="204.285714" y="62.8571429" width="15.7142857" height="15.7142857"></rect>
                <rect id="Rectangle-19-Copy-164" fill="#B25ECA" x="330" y="62.8571429" width="15.7142857" height="15.7142857"></rect>
                <rect id="Rectangle-19-Copy-165" fill="#B25ECA" x="345.714286" y="62.8571429" width="15.7142857" height="15.7142857"></rect>
                <rect id="Rectangle-19-Copy-166" fill="#AE5A22" x="361.428571" y="62.8571429" width="15.7142857" height="15.7142857"></rect>
                <rect id="Rectangle-19-Copy-172" fill="#B25ECA" x="31.4285714" y="78.5714286" width="15.7142857" height="15.7142857"></rect>
                <rect id="Rectangle-19-Copy-173" fill="#B25ECA" x="47.1428571" y="78.5714286" width="15.7142857" height="15.7142857"></rect>
                <rect id="Rectangle-19-Copy-174" fill="#AE5A22" x="62.8571429" y="78.5714286" width="15.7142857" height="15.7142857"></rect>
                <rect id="Rectangle-19-Copy-182" fill="#9E00F0" x="188.571429" y="78.5714286" width="15.7142857" height="15.7142857"></rect>
                <rect id="Rectangle-19-Copy-183" fill="#9200F6" x="204.285714" y="78.5714286" width="15.7142857" height="15.7142857"></rect>
                <rect id="Rectangle-19-Copy-184" fill="#AE5A22" x="220" y="78.5714286" width="15.7142857" height="15.7142857"></rect>
                <rect id="Rectangle-19-Copy-185" fill="#D7CF43" x="235.714286" y="78.5714286" width="15.7142857" height="15.7142857"></rect>
                <rect id="Rectangle-19-Copy-186" fill="#AE5A22" x="251.428571" y="78.5714286" width="15.7142857" height="15.7142857"></rect>
                <rect id="Rectangle-19-Copy-187" fill="#D7CF43" x="267.142857" y="78.5714286" width="15.7142857" height="15.7142857"></rect>
                <rect id="Rectangle-19-Copy-188" fill="#AE5A22" x="282.857143" y="78.5714286" width="15.7142857" height="15.7142857"></rect>
                <rect id="Rectangle-19-Copy-194" fill="#FCFF85" opacity="0.84912817" x="377.142857" y="78.5714286" width="15.7142857" height="15.7142857"></rect>
                <rect id="Rectangle-19-Copy-195" fill="#BD13B8" x="392.857143" y="78.5714286" width="15.7142857" height="15.7142857"></rect>
                <rect id="Rectangle-19-Copy-196" fill="#A68C77" x="408.571429" y="78.5714286" width="15.7142857" height="15.7142857"></rect>
                <rect id="Rectangle-19-Copy-197" fill="#A68C77" x="424.285714" y="78.5714286" width="15.7142857" height="15.7142857"></rect>
                <rect id="Rectangle-19-Copy-114" fill="#A93D75" x="0" y="94.2857143" width="15.7142857" height="15.7142857"></rect>
                <rect id="Rectangle-19-Copy-143" fill="#A93D75" x="15.7142857" y="94.2857143" width="15.7142857" height="15.7142857"></rect>
                <rect id="Rectangle-19-Copy-198" fill="#8B2E1B" x="31.4285714" y="94.2857143" width="15.7142857" height="15.7142857"></rect>
                <rect id="Rectangle-19-Copy-199" fill="#8B2E1B" x="47.1428571" y="94.2857143" width="15.7142857" height="15.7142857"></rect>
                <rect id="Rectangle-19-Copy-200" fill="#8B2E1B" x="62.8571429" y="94.2857143" width="15.7142857" height="15.7142857"></rect>
                <rect id="Rectangle-19-Copy-201" fill="#3C529D" x="78.5714286" y="94.2857143" width="15.7142857" height="15.7142857"></rect>
                <rect id="Rectangle-19-Copy-202" fill="#AE5A22" x="94.2857143" y="94.2857143" width="15.7142857" height="15.7142857"></rect>
                <rect id="Rectangle-19-Copy-210" fill="#B25ECA" x="220" y="94.2857143" width="15.7142857" height="15.7142857"></rect>
                <rect id="Rectangle-19-Copy-211" fill="#B25ECA" x="235.714286" y="94.2857143" width="15.7142857" height="15.7142857"></rect>
                <rect id="Rectangle-19-Copy-212" fill="#AE5A22" x="251.428571" y="94.2857143" width="15.7142857" height="15.7142857"></rect>
                <rect id="Rectangle-19-Copy-220" fill="#B25ECA" x="377.142857" y="94.2857143" width="15.7142857" height="15.7142857"></rect>
                <rect id="Rectangle-19-Copy-221" fill="#B25ECA" x="392.857143" y="94.2857143" width="15.7142857" height="15.7142857"></rect>
                <rect id="Rectangle-19-Copy-222" fill="#AE5A22" x="408.571429" y="94.2857143" width="15.7142857" height="15.7142857"></rect>
                <rect id="Rectangle-19-Copy-140" fill="#B25ECA" x="78.5714286" y="110" width="15.7142857" height="15.7142857"></rect>
                <rect id="Rectangle-19-Copy-141" fill="#B25ECA" x="94.2857143" y="110" width="15.7142857" height="15.7142857"></rect>
                <rect id="Rectangle-19-Copy-142" fill="#AE5A22" x="110" y="110" width="15.7142857" height="15.7142857"></rect>
                <rect id="Rectangle-19-Copy-231" fill="#B25ECA" x="235.714286" y="110" width="15.7142857" height="15.7142857"></rect>
                <rect id="Rectangle-19-Copy-232" fill="#B25ECA" x="251.428571" y="110" width="15.7142857" height="15.7142857"></rect>
                <rect id="Rectangle-19-Copy-233" fill="#AE5A22" x="267.142857" y="110" width="15.7142857" height="15.7142857"></rect>
                <rect id="Rectangle-19-Copy-241" fill="#B25ECA" x="392.857143" y="110" width="15.7142857" height="15.7142857"></rect>
                <rect id="Rectangle-19-Copy-242" fill="#B25ECA" x="408.571429" y="110" width="15.7142857" height="15.7142857"></rect>
                <rect id="Rectangle-19-Copy-243" fill="#AE5A22" x="424.285714" y="110" width="15.7142857" height="15.7142857"></rect>
                <rect id="Rectangle-19-Copy-249" fill="#9E00F0" x="94.2857143" y="125.714286" width="15.7142857" height="15.7142857"></rect>
                <rect id="Rectangle-19-Copy-250" fill="#9200F6" x="110" y="125.714286" width="15.7142857" height="15.7142857"></rect>
                <rect id="Rectangle-19-Copy-251" fill="#AE5A22" x="125.714286" y="125.714286" width="15.7142857" height="15.7142857"></rect>
                <rect id="Rectangle-19-Copy-252" fill="#D7CF43" x="141.428571" y="125.714286" width="15.7142857" height="15.7142857"></rect>
                <rect id="Rectangle-19-Copy-253" fill="#AE5A22" x="157.142857" y="125.714286" width="15.7142857" height="15.7142857"></rect>
                <rect id="Rectangle-19-Copy-254" fill="#D7CF43" x="172.857143" y="125.714286" width="15.7142857" height="15.7142857"></rect>
                <rect id="Rectangle-19-Copy-255" fill="#AE5A22" x="188.571429" y="125.714286" width="15.7142857" height="15.7142857"></rect>
                <rect id="Rectangle-19-Copy-261" fill="#FCFF85" opacity="0.84912817" x="282.857143" y="125.714286" width="15.7142857" height="15.7142857"></rect>
                <rect id="Rectangle-19-Copy-262" fill="#BD13B8" x="298.571429" y="125.714286" width="15.7142857" height="15.7142857"></rect>
                <rect id="Rectangle-19-Copy-263" fill="#A68C77" x="314.285714" y="125.714286" width="15.7142857" height="15.7142857"></rect>
                <rect id="Rectangle-19-Copy-264" fill="#A68C77" x="330" y="125.714286" width="15.7142857" height="15.7142857"></rect>
                <rect id="Rectangle-19-Copy-265" fill="#B1B58C" x="345.714286" y="125.714286" width="15.7142857" height="15.7142857"></rect>
                <rect id="Rectangle-19-Copy-266" fill="#A93D75" x="361.428571" y="125.714286" width="15.7142857" height="15.7142857"></rect>
                <rect id="Rectangle-19-Copy-267" fill="#A93D75" x="377.142857" y="125.714286" width="15.7142857" height="15.7142857"></rect>
                <rect id="Rectangle-19-Copy-268" fill="#8B2E1B" x="392.857143" y="125.714286" width="15.7142857" height="15.7142857"></rect>
                <rect id="Rectangle-19-Copy-269" fill="#8B2E1B" x="408.571429" y="125.714286" width="15.7142857" height="15.7142857"></rect>
                <rect id="Rectangle-19-Copy-270" fill="#8B2E1B" x="424.285714" y="125.714286" width="15.7142857" height="15.7142857"></rect>
                <rect id="Rectangle-19-Copy-117" fill="#AE5A22" x="0" y="141.428571" width="15.7142857" height="15.7142857"></rect>
                <rect id="Rectangle-19-Copy-278" fill="#B25ECA" x="125.714286" y="141.428571" width="15.7142857" height="15.7142857"></rect>
                <rect id="Rectangle-19-Copy-279" fill="#B25ECA" x="141.428571" y="141.428571" width="15.7142857" height="15.7142857"></rect>
                <rect id="Rectangle-19-Copy-280" fill="#AE5A22" x="157.142857" y="141.428571" width="15.7142857" height="15.7142857"></rect>
                <rect id="Rectangle-19-Copy-288" fill="#B25ECA" x="282.857143" y="141.428571" width="15.7142857" height="15.7142857"></rect>
                <rect id="Rectangle-19-Copy-289" fill="#B25ECA" x="298.571429" y="141.428571" width="15.7142857" height="15.7142857"></rect>
                <rect id="Rectangle-19-Copy-290" fill="#AE5A22" x="314.285714" y="141.428571" width="15.7142857" height="15.7142857"></rect>
                <rect id="Rectangle-19-Copy-118" fill="#B25ECA" x="0" y="157.142857" width="15.7142857" height="15.7142857"></rect>
                <rect id="Rectangle-19-Copy-298" fill="#AE5A22" x="15.7142857" y="157.142857" width="15.7142857" height="15.7142857"></rect>
                <rect id="Rectangle-19-Copy-306" fill="#B25ECA" x="141.428571" y="157.142857" width="15.7142857" height="15.7142857"></rect>
                <rect id="Rectangle-19-Copy-307" fill="#B25ECA" x="157.142857" y="157.142857" width="15.7142857" height="15.7142857"></rect>
                <rect id="Rectangle-19-Copy-308" fill="#AE5A22" x="172.857143" y="157.142857" width="15.7142857" height="15.7142857"></rect>
                <rect id="Rectangle-19-Copy-316" fill="#B25ECA" x="298.571429" y="157.142857" width="15.7142857" height="15.7142857"></rect>
                <rect id="Rectangle-19-Copy-317" fill="#B25ECA" x="314.285714" y="157.142857" width="15.7142857" height="15.7142857"></rect>
                <rect id="Rectangle-19-Copy-318" fill="#AE5A22" x="330" y="157.142857" width="15.7142857" height="15.7142857"></rect>
                <rect id="Rectangle-19-Copy-119" fill="#9E00F0" x="0" y="172.857143" width="15.7142857" height="15.7142857"></rect>
                <rect id="Rectangle-19-Copy-325" fill="#9200F6" x="15.7142857" y="172.857143" width="15.7142857" height="15.7142857"></rect>
                <rect id="Rectangle-19-Copy-326" fill="#AE5A22" x="31.4285714" y="172.857143" width="15.7142857" height="15.7142857"></rect>
                <rect id="Rectangle-19-Copy-327" fill="#D7CF43" x="47.1428571" y="172.857143" width="15.7142857" height="15.7142857"></rect>
                <rect id="Rectangle-19-Copy-328" fill="#AE5A22" x="62.8571429" y="172.857143" width="15.7142857" height="15.7142857"></rect>
                <rect id="Rectangle-19-Copy-329" fill="#D7CF43" x="78.5714286" y="172.857143" width="15.7142857" height="15.7142857"></rect>
                <rect id="Rectangle-19-Copy-330" fill="#AE5A22" x="94.2857143" y="172.857143" width="15.7142857" height="15.7142857"></rect>
                <rect id="Rectangle-19-Copy-336" fill="#FCFF85" opacity="0.84912817" x="188.571429" y="172.857143" width="15.7142857" height="15.7142857"></rect>
                <rect id="Rectangle-19-Copy-337" fill="#BD13B8" x="204.285714" y="172.857143" width="15.7142857" height="15.7142857"></rect>
                <rect id="Rectangle-19-Copy-338" fill="#A68C77" x="220" y="172.857143" width="15.7142857" height="15.7142857"></rect>
                <rect id="Rectangle-19-Copy-339" fill="#A68C77" x="235.714286" y="172.857143" width="15.7142857" height="15.7142857"></rect>
                <rect id="Rectangle-19-Copy-340" fill="#B1B58C" x="251.428571" y="172.857143" width="15.7142857" height="15.7142857"></rect>
                <rect id="Rectangle-19-Copy-341" fill="#A93D75" x="267.142857" y="172.857143" width="15.7142857" height="15.7142857"></rect>
                <rect id="Rectangle-19-Copy-342" fill="#A93D75" x="282.857143" y="172.857143" width="15.7142857" height="15.7142857"></rect>
                <rect id="Rectangle-19-Copy-343" fill="#8B2E1B" x="298.571429" y="172.857143" width="15.7142857" height="15.7142857"></rect>
                <rect id="Rectangle-19-Copy-344" fill="#8B2E1B" x="314.285714" y="172.857143" width="15.7142857" height="15.7142857"></rect>
                <rect id="Rectangle-19-Copy-345" fill="#8B2E1B" x="330" y="172.857143" width="15.7142857" height="15.7142857"></rect>
                <rect id="Rectangle-19-Copy-346" fill="#3C529D" x="345.714286" y="172.857143" width="15.7142857" height="15.7142857"></rect>
                <rect id="Rectangle-19-Copy-347" fill="#AE5A22" x="361.428571" y="172.857143" width="15.7142857" height="15.7142857"></rect>
                <rect id="Rectangle-19-Copy-353" fill="#B25ECA" x="31.4285714" y="188.571429" width="15.7142857" height="15.7142857"></rect>
                <rect id="Rectangle-19-Copy-354" fill="#B25ECA" x="47.1428571" y="188.571429" width="15.7142857" height="15.7142857"></rect>
                <rect id="Rectangle-19-Copy-355" fill="#AE5A22" x="62.8571429" y="188.571429" width="15.7142857" height="15.7142857"></rect>
                <rect id="Rectangle-19-Copy-363" fill="#B25ECA" x="188.571429" y="188.571429" width="15.7142857" height="15.7142857"></rect>
                <rect id="Rectangle-19-Copy-364" fill="#B25ECA" x="188.571429" y="188.571429" width="15.7142857" height="15.7142857"></rect>
                <rect id="Rectangle-19-Copy-365" fill="#B25ECA" x="204.285714" y="188.571429" width="15.7142857" height="15.7142857"></rect>
                <rect id="Rectangle-19-Copy-366" fill="#AE5A22" x="220" y="188.571429" width="15.7142857" height="15.7142857"></rect>
                <rect id="Rectangle-19-Copy-374" fill="#B25ECA" x="345.714286" y="188.571429" width="15.7142857" height="15.7142857"></rect>
                <rect id="Rectangle-19-Copy-375" fill="#B25ECA" x="361.428571" y="188.571429" width="15.7142857" height="15.7142857"></rect>
                <rect id="Rectangle-19-Copy-376" fill="#AE5A22" x="377.142857" y="188.571429" width="15.7142857" height="15.7142857"></rect>
                <rect id="Rectangle-19-Copy-382" fill="#B25ECA" x="47.1428571" y="204.285714" width="15.7142857" height="15.7142857"></rect>
                <rect id="Rectangle-19-Copy-383" fill="#B25ECA" x="62.8571429" y="204.285714" width="15.7142857" height="15.7142857"></rect>
                <rect id="Rectangle-19-Copy-384" fill="#AE5A22" x="78.5714286" y="204.285714" width="15.7142857" height="15.7142857"></rect>
                <rect id="Rectangle-19-Copy-392" fill="#B25ECA" x="204.285714" y="204.285714" width="15.7142857" height="15.7142857"></rect>
                <rect id="Rectangle-19-Copy-393" fill="#B25ECA" x="220" y="204.285714" width="15.7142857" height="15.7142857"></rect>
                <rect id="Rectangle-19-Copy-394" fill="#AE5A22" x="235.714286" y="204.285714" width="15.7142857" height="15.7142857"></rect>
                <rect id="Rectangle-19-Copy-402" fill="#9E00F0" x="361.428571" y="204.285714" width="15.7142857" height="15.7142857"></rect>
                <rect id="Rectangle-19-Copy-403" fill="#9200F6" x="377.142857" y="204.285714" width="15.7142857" height="15.7142857"></rect>
                <rect id="Rectangle-19-Copy-404" fill="#AE5A22" x="392.857143" y="204.285714" width="15.7142857" height="15.7142857"></rect>
                <rect id="Rectangle-19-Copy-405" fill="#D7CF43" x="408.571429" y="204.285714" width="15.7142857" height="15.7142857"></rect>
                <rect id="Rectangle-19-Copy-406" fill="#AE5A22" x="424.285714" y="204.285714" width="15.7142857" height="15.7142857"></rect>
                <rect id="Rectangle-19-Copy-122" fill="#AE5A22" x="0" y="220" width="15.7142857" height="15.7142857"></rect>
                <rect id="Rectangle-19-Copy-412" fill="#FCFF85" opacity="0.84912817" x="94.2857143" y="220" width="15.7142857" height="15.7142857"></rect>
                <rect id="Rectangle-19-Copy-413" fill="#BD13B8" x="110" y="220" width="15.7142857" height="15.7142857"></rect>
                <rect id="Rectangle-19-Copy-414" fill="#A68C77" x="125.714286" y="220" width="15.7142857" height="15.7142857"></rect>
                <rect id="Rectangle-19-Copy-415" fill="#A68C77" x="141.428571" y="220" width="15.7142857" height="15.7142857"></rect>
                <rect id="Rectangle-19-Copy-416" fill="#B1B58C" x="157.142857" y="220" width="15.7142857" height="15.7142857"></rect>
                <rect id="Rectangle-19-Copy-417" fill="#A93D75" x="172.857143" y="220" width="15.7142857" height="15.7142857"></rect>
                <rect id="Rectangle-19-Copy-418" fill="#A93D75" x="188.571429" y="220" width="15.7142857" height="15.7142857"></rect>
                <rect id="Rectangle-19-Copy-419" fill="#8B2E1B" x="204.285714" y="220" width="15.7142857" height="15.7142857"></rect>
                <rect id="Rectangle-19-Copy-420" fill="#8B2E1B" x="220" y="220" width="15.7142857" height="15.7142857"></rect>
                <rect id="Rectangle-19-Copy-421" fill="#8B2E1B" x="235.714286" y="220" width="15.7142857" height="15.7142857"></rect>
                <rect id="Rectangle-19-Copy-422" fill="#3C529D" x="251.428571" y="220" width="15.7142857" height="15.7142857"></rect>
                <rect id="Rectangle-19-Copy-423" fill="#AE5A22" x="267.142857" y="220" width="15.7142857" height="15.7142857"></rect>
                <rect id="Rectangle-19-Copy-431" fill="#B25ECA" x="392.857143" y="220" width="15.7142857" height="15.7142857"></rect>
                <rect id="Rectangle-19-Copy-432" fill="#B25ECA" x="408.571429" y="220" width="15.7142857" height="15.7142857"></rect>
                <rect id="Rectangle-19-Copy-433" fill="#AE5A22" x="424.285714" y="220" width="15.7142857" height="15.7142857"></rect>
                <rect id="Rectangle-19-Copy-439" fill="#B25ECA" x="94.2857143" y="235.714286" width="15.7142857" height="15.7142857"></rect>
                <rect id="Rectangle-19-Copy-440" fill="#B25ECA" x="110" y="235.714286" width="15.7142857" height="15.7142857"></rect>
                <rect id="Rectangle-19-Copy-441" fill="#AE5A22" x="125.714286" y="235.714286" width="15.7142857" height="15.7142857"></rect>
                <rect id="Rectangle-19-Copy-449" fill="#B25ECA" x="251.428571" y="235.714286" width="15.7142857" height="15.7142857"></rect>
                <rect id="Rectangle-19-Copy-450" fill="#B25ECA" x="267.142857" y="235.714286" width="15.7142857" height="15.7142857"></rect>
                <rect id="Rectangle-19-Copy-451" fill="#AE5A22" x="282.857143" y="235.714286" width="15.7142857" height="15.7142857"></rect>
                <rect id="Rectangle-19-Copy-459" fill="#B25ECA" x="408.571429" y="235.714286" width="15.7142857" height="15.7142857"></rect>
                <rect id="Rectangle-19-Copy-460" fill="#B25ECA" x="424.285714" y="235.714286" width="15.7142857" height="15.7142857"></rect>
                <rect id="Rectangle-19-Copy-467" fill="#B25ECA" x="110" y="251.428571" width="15.7142857" height="15.7142857"></rect>
                <rect id="Rectangle-19-Copy-468" fill="#B25ECA" x="125.714286" y="251.428571" width="15.7142857" height="15.7142857"></rect>
                <rect id="Rectangle-19-Copy-469" fill="#AE5A22" x="141.428571" y="251.428571" width="15.7142857" height="15.7142857"></rect>
                <rect id="Rectangle-19-Copy-477" fill="#9E00F0" x="267.142857" y="251.428571" width="15.7142857" height="15.7142857"></rect>
                <rect id="Rectangle-19-Copy-478" fill="#9200F6" x="282.857143" y="251.428571" width="15.7142857" height="15.7142857"></rect>
                <rect id="Rectangle-19-Copy-479" fill="#AE5A22" x="298.571429" y="251.428571" width="15.7142857" height="15.7142857"></rect>
                <rect id="Rectangle-19-Copy-480" fill="#D7CF43" x="314.285714" y="251.428571" width="15.7142857" height="15.7142857"></rect>
                <rect id="Rectangle-19-Copy-481" fill="#AE5A22" x="330" y="251.428571" width="15.7142857" height="15.7142857"></rect>
                <rect id="Rectangle-19-Copy-482" fill="#D7CF43" x="345.714286" y="251.428571" width="15.7142857" height="15.7142857"></rect>
                <rect id="Rectangle-19-Copy-483" fill="#AE5A22" x="361.428571" y="251.428571" width="15.7142857" height="15.7142857"></rect>
                <rect id="Rectangle-19-Copy-125" fill="#FCFF85" opacity="0.84912817" x="0" y="267.142857" width="15.7142857" height="15.7142857"></rect>
                <rect id="Rectangle-19-Copy-488" fill="#BD13B8" x="15.7142857" y="267.142857" width="15.7142857" height="15.7142857"></rect>
                <rect id="Rectangle-19-Copy-489" fill="#A68C77" x="31.4285714" y="267.142857" width="15.7142857" height="15.7142857"></rect>
                <rect id="Rectangle-19-Copy-490" fill="#A68C77" x="47.1428571" y="267.142857" width="15.7142857" height="15.7142857"></rect>
                <rect id="Rectangle-19-Copy-491" fill="#B1B58C" x="62.8571429" y="267.142857" width="15.7142857" height="15.7142857"></rect>
                <rect id="Rectangle-19-Copy-492" fill="#A93D75" x="78.5714286" y="267.142857" width="15.7142857" height="15.7142857"></rect>
                <rect id="Rectangle-19-Copy-493" fill="#A93D75" x="94.2857143" y="267.142857" width="15.7142857" height="15.7142857"></rect>
                <rect id="Rectangle-19-Copy-494" fill="#8B2E1B" x="110" y="267.142857" width="15.7142857" height="15.7142857"></rect>
                <rect id="Rectangle-19-Copy-495" fill="#8B2E1B" x="125.714286" y="267.142857" width="15.7142857" height="15.7142857"></rect>
                <rect id="Rectangle-19-Copy-496" fill="#8B2E1B" x="141.428571" y="267.142857" width="15.7142857" height="15.7142857"></rect>
                <rect id="Rectangle-19-Copy-497" fill="#3C529D" x="157.142857" y="267.142857" width="15.7142857" height="15.7142857"></rect>
                <rect id="Rectangle-19-Copy-498" fill="#AE5A22" x="172.857143" y="267.142857" width="15.7142857" height="15.7142857"></rect>
                <rect id="Rectangle-19-Copy-506" fill="#B25ECA" x="298.571429" y="267.142857" width="15.7142857" height="15.7142857"></rect>
                <rect id="Rectangle-19-Copy-507" fill="#B25ECA" x="314.285714" y="267.142857" width="15.7142857" height="15.7142857"></rect>
                <rect id="Rectangle-19-Copy-508" fill="#AE5A22" x="330" y="267.142857" width="15.7142857" height="15.7142857"></rect>
                <rect id="Rectangle-19-Copy-126" fill="#B25ECA" x="0" y="282.857143" width="15.7142857" height="15.7142857"></rect>
                <rect id="Rectangle-19-Copy-515" fill="#B25ECA" x="15.7142857" y="282.857143" width="15.7142857" height="15.7142857"></rect>
                <rect id="Rectangle-19-Copy-516" fill="#AE5A22" x="31.4285714" y="282.857143" width="15.7142857" height="15.7142857"></rect>
                <rect id="Rectangle-19-Copy-524" fill="#B25ECA" x="157.142857" y="282.857143" width="15.7142857" height="15.7142857"></rect>
                <rect id="Rectangle-19-Copy-525" fill="#B25ECA" x="172.857143" y="282.857143" width="15.7142857" height="15.7142857"></rect>
                <rect id="Rectangle-19-Copy-526" fill="#AE5A22" x="188.571429" y="282.857143" width="15.7142857" height="15.7142857"></rect>
                <rect id="Rectangle-19-Copy-534" fill="#B25ECA" x="314.285714" y="282.857143" width="15.7142857" height="15.7142857"></rect>
                <rect id="Rectangle-19-Copy-535" fill="#B25ECA" x="330" y="282.857143" width="15.7142857" height="15.7142857"></rect>
                <rect id="Rectangle-19-Copy-536" fill="#AE5A22" x="345.714286" y="282.857143" width="15.7142857" height="15.7142857"></rect>
                <rect id="Rectangle-19-Copy-127" x="0" y="298.571429" width="15.7142857" height="15.7142857"></rect>
                <rect id="Rectangle-19-Copy-542" fill="#B25ECA" x="15.7142857" y="298.571429" width="15.7142857" height="15.7142857"></rect>
                <rect id="Rectangle-19-Copy-543" fill="#B25ECA" x="31.4285714" y="298.571429" width="15.7142857" height="15.7142857"></rect>
                <rect id="Rectangle-19-Copy-544" fill="#AE5A22" x="47.1428571" y="298.571429" width="15.7142857" height="15.7142857"></rect>
                <rect id="Rectangle-19-Copy-552" fill="#9E00F0" x="172.857143" y="298.571429" width="15.7142857" height="15.7142857"></rect>
                <rect id="Rectangle-19-Copy-553" fill="#9200F6" x="188.571429" y="298.571429" width="15.7142857" height="15.7142857"></rect>
                <rect id="Rectangle-19-Copy-554" fill="#AE5A22" x="204.285714" y="298.571429" width="15.7142857" height="15.7142857"></rect>
                <rect id="Rectangle-19-Copy-555" fill="#D7CF43" x="220" y="298.571429" width="15.7142857" height="15.7142857"></rect>
                <rect id="Rectangle-19-Copy-556" fill="#AE5A22" x="235.714286" y="298.571429" width="15.7142857" height="15.7142857"></rect>
                <rect id="Rectangle-19-Copy-557" fill="#D7CF43" x="251.428571" y="298.571429" width="15.7142857" height="15.7142857"></rect>
                <rect id="Rectangle-19-Copy-558" fill="#AE5A22" x="267.142857" y="298.571429" width="15.7142857" height="15.7142857"></rect>
                <rect id="Rectangle-19-Copy-564" fill="#FCFF85" opacity="0.84912817" x="361.428571" y="298.571429" width="15.7142857" height="15.7142857"></rect>
                <rect id="Rectangle-19-Copy-565" fill="#BD13B8" x="377.142857" y="298.571429" width="15.7142857" height="15.7142857"></rect>
                <rect id="Rectangle-19-Copy-566" fill="#A68C77" x="392.857143" y="298.571429" width="15.7142857" height="15.7142857"></rect>
                <rect id="Rectangle-19-Copy-567" fill="#A68C77" x="408.571429" y="298.571429" width="15.7142857" height="15.7142857"></rect>
                <rect id="Rectangle-19-Copy-568" fill="#B1B58C" x="424.285714" y="298.571429" width="15.7142857" height="15.7142857"></rect>
                <rect id="Rectangle-19-Copy-128" fill="#A93D75" x="0" y="314.285714" width="15.7142857" height="15.7142857"></rect>
                <rect id="Rectangle-19-Copy-569" fill="#8B2E1B" x="15.7142857" y="314.285714" width="15.7142857" height="15.7142857"></rect>
                <rect id="Rectangle-19-Copy-570" fill="#8B2E1B" x="31.4285714" y="314.285714" width="15.7142857" height="15.7142857"></rect>
                <rect id="Rectangle-19-Copy-571" fill="#8B2E1B" x="47.1428571" y="314.285714" width="15.7142857" height="15.7142857"></rect>
                <rect id="Rectangle-19-Copy-572" fill="#3C529D" x="62.8571429" y="314.285714" width="15.7142857" height="15.7142857"></rect>
                <rect id="Rectangle-19-Copy-573" fill="#AE5A22" x="78.5714286" y="314.285714" width="15.7142857" height="15.7142857"></rect>
                <rect id="Rectangle-19-Copy-581" fill="#B25ECA" x="204.285714" y="314.285714" width="15.7142857" height="15.7142857"></rect>
                <rect id="Rectangle-19-Copy-582" fill="#B25ECA" x="220" y="314.285714" width="15.7142857" height="15.7142857"></rect>
                <rect id="Rectangle-19-Copy-583" fill="#AE5A22" x="235.714286" y="314.285714" width="15.7142857" height="15.7142857"></rect>
                <rect id="Rectangle-19-Copy-591" fill="#B25ECA" x="361.428571" y="314.285714" width="15.7142857" height="15.7142857"></rect>
                <rect id="Rectangle-19-Copy-592" fill="#B25ECA" x="377.142857" y="314.285714" width="15.7142857" height="15.7142857"></rect>
                <rect id="Rectangle-19-Copy-593" fill="#AE5A22" x="392.857143" y="314.285714" width="15.7142857" height="15.7142857"></rect>
                <rect id="Rectangle-19-Copy-599" fill="#B25ECA" x="62.8571429" y="330" width="15.7142857" height="15.7142857"></rect>
                <rect id="Rectangle-19-Copy-600" fill="#B25ECA" x="78.5714286" y="330" width="15.7142857" height="15.7142857"></rect>
                <rect id="Rectangle-19-Copy-601" fill="#AE5A22" x="94.2857143" y="330" width="15.7142857" height="15.7142857"></rect>
                <rect id="Rectangle-19-Copy-609" fill="#B25ECA" x="220" y="330" width="15.7142857" height="15.7142857"></rect>
                <rect id="Rectangle-19-Copy-610" fill="#B25ECA" x="235.714286" y="330" width="15.7142857" height="15.7142857"></rect>
                <rect id="Rectangle-19-Copy-611" fill="#AE5A22" x="251.428571" y="330" width="15.7142857" height="15.7142857"></rect>
                <rect id="Rectangle-19-Copy-619" fill="#B25ECA" x="377.142857" y="330" width="15.7142857" height="15.7142857"></rect>
                <rect id="Rectangle-19-Copy-620" fill="#B25ECA" x="392.857143" y="330" width="15.7142857" height="15.7142857"></rect>
                <rect id="Rectangle-19-Copy-621" fill="#AE5A22" x="408.571429" y="330" width="15.7142857" height="15.7142857"></rect>
                <rect id="Rectangle-19-Copy-627" fill="#9E00F0" x="78.5714286" y="345.714286" width="15.7142857" height="15.7142857"></rect>
                <rect id="Rectangle-19-Copy-628" fill="#9200F6" x="94.2857143" y="345.714286" width="15.7142857" height="15.7142857"></rect>
                <rect id="Rectangle-19-Copy-629" fill="#AE5A22" x="110" y="345.714286" width="15.7142857" height="15.7142857"></rect>
                <rect id="Rectangle-19-Copy-630" fill="#D7CF43" x="125.714286" y="345.714286" width="15.7142857" height="15.7142857"></rect>
                <rect id="Rectangle-19-Copy-631" fill="#AE5A22" x="141.428571" y="345.714286" width="15.7142857" height="15.7142857"></rect>
                <rect id="Rectangle-19-Copy-632" fill="#D7CF43" x="157.142857" y="345.714286" width="15.7142857" height="15.7142857"></rect>
                <rect id="Rectangle-19-Copy-633" fill="#AE5A22" x="172.857143" y="345.714286" width="15.7142857" height="15.7142857"></rect>
                <rect id="Rectangle-19-Copy-639" fill="#FCFF85" opacity="0.84912817" x="267.142857" y="345.714286" width="15.7142857" height="15.7142857"></rect>
                <rect id="Rectangle-19-Copy-640" fill="#BD13B8" x="282.857143" y="345.714286" width="15.7142857" height="15.7142857"></rect>
                <rect id="Rectangle-19-Copy-641" fill="#A68C77" x="298.571429" y="345.714286" width="15.7142857" height="15.7142857"></rect>
                <rect id="Rectangle-19-Copy-642" fill="#A68C77" x="314.285714" y="345.714286" width="15.7142857" height="15.7142857"></rect>
                <rect id="Rectangle-19-Copy-643" fill="#B1B58C" x="330" y="345.714286" width="15.7142857" height="15.7142857"></rect>
                <rect id="Rectangle-19-Copy-644" fill="#A93D75" x="345.714286" y="345.714286" width="15.7142857" height="15.7142857"></rect>
                <rect id="Rectangle-19-Copy-645" fill="#A93D75" x="361.428571" y="345.714286" width="15.7142857" height="15.7142857"></rect>
                <rect id="Rectangle-19-Copy-646" fill="#8B2E1B" x="377.142857" y="345.714286" width="15.7142857" height="15.7142857"></rect>
                <rect id="Rectangle-19-Copy-647" fill="#8B2E1B" x="392.857143" y="345.714286" width="15.7142857" height="15.7142857"></rect>
                <rect id="Rectangle-19-Copy-648" fill="#8B2E1B" x="408.571429" y="345.714286" width="15.7142857" height="15.7142857"></rect>
                <rect id="Rectangle-19-Copy-649" fill="#3C529D" x="424.285714" y="345.714286" width="15.7142857" height="15.7142857"></rect>
                <rect id="Rectangle-19-Copy-656" fill="#B25ECA" x="110" y="361.428571" width="15.7142857" height="15.7142857"></rect>
                <rect id="Rectangle-19-Copy-657" fill="#B25ECA" x="125.714286" y="361.428571" width="15.7142857" height="15.7142857"></rect>
                <rect id="Rectangle-19-Copy-658" fill="#AE5A22" x="141.428571" y="361.428571" width="15.7142857" height="15.7142857"></rect>
                <rect id="Rectangle-19-Copy-666" fill="#B25ECA" x="267.142857" y="361.428571" width="15.7142857" height="15.7142857"></rect>
                <rect id="Rectangle-19-Copy-667" fill="#B25ECA" x="282.857143" y="361.428571" width="15.7142857" height="15.7142857"></rect>
                <rect id="Rectangle-19-Copy-668" fill="#AE5A22" x="298.571429" y="361.428571" width="15.7142857" height="15.7142857"></rect>
                <rect id="Rectangle-19-Copy-676" fill="#B25ECA" x="424.285714" y="361.428571" width="15.7142857" height="15.7142857"></rect>
                <rect id="Rectangle-19-Copy-132" fill="#AE5A22" x="0" y="377.142857" width="15.7142857" height="15.7142857"></rect>
                <rect id="Rectangle-19-Copy-684" fill="#B25ECA" x="125.714286" y="377.142857" width="15.7142857" height="15.7142857"></rect>
                <rect id="Rectangle-19-Copy-685" fill="#B25ECA" x="141.428571" y="377.142857" width="15.7142857" height="15.7142857"></rect>
                <rect id="Rectangle-19-Copy-686" fill="#AE5A22" x="157.142857" y="377.142857" width="15.7142857" height="15.7142857"></rect>
                <rect id="Rectangle-19-Copy-694" fill="#B25ECA" x="282.857143" y="377.142857" width="15.7142857" height="15.7142857"></rect>
                <rect id="Rectangle-19-Copy-695" fill="#B25ECA" x="298.571429" y="377.142857" width="15.7142857" height="15.7142857"></rect>
                <rect id="Rectangle-19-Copy-696" fill="#AE5A22" x="314.285714" y="377.142857" width="15.7142857" height="15.7142857"></rect>
                <rect id="Rectangle-19-Copy-133" fill="#9200F6" x="0" y="392.857143" width="15.7142857" height="15.7142857"></rect>
                <rect id="Rectangle-19-Copy-704" fill="#AE5A22" x="15.7142857" y="392.857143" width="15.7142857" height="15.7142857"></rect>
                <rect id="Rectangle-19-Copy-705" fill="#D7CF43" x="31.4285714" y="392.857143" width="15.7142857" height="15.7142857"></rect>
                <rect id="Rectangle-19-Copy-706" fill="#AE5A22" x="47.1428571" y="392.857143" width="15.7142857" height="15.7142857"></rect>
                <rect id="Rectangle-19-Copy-707" fill="#D7CF43" x="62.8571429" y="392.857143" width="15.7142857" height="15.7142857"></rect>
                <rect id="Rectangle-19-Copy-708" fill="#AE5A22" x="78.5714286" y="392.857143" width="15.7142857" height="15.7142857"></rect>
                <rect id="Rectangle-19-Copy-714" fill="#FCFF85" opacity="0.84912817" x="172.857143" y="392.857143" width="15.7142857" height="15.7142857"></rect>
                <rect id="Rectangle-19-Copy-715" fill="#BD13B8" x="188.571429" y="392.857143" width="15.7142857" height="15.7142857"></rect>
                <rect id="Rectangle-19-Copy-716" fill="#A68C77" x="204.285714" y="392.857143" width="15.7142857" height="15.7142857"></rect>
                <rect id="Rectangle-19-Copy-717" fill="#A68C77" x="220" y="392.857143" width="15.7142857" height="15.7142857"></rect>
                <rect id="Rectangle-19-Copy-718" fill="#B1B58C" x="235.714286" y="392.857143" width="15.7142857" height="15.7142857"></rect>
                <rect id="Rectangle-19-Copy-719" fill="#A93D75" x="251.428571" y="392.857143" width="15.7142857" height="15.7142857"></rect>
                <rect id="Rectangle-19-Copy-720" fill="#A93D75" x="267.142857" y="392.857143" width="15.7142857" height="15.7142857"></rect>
                <rect id="Rectangle-19-Copy-721" fill="#8B2E1B" x="282.857143" y="392.857143" width="15.7142857" height="15.7142857"></rect>
                <rect id="Rectangle-19-Copy-722" fill="#8B2E1B" x="298.571429" y="392.857143" width="15.7142857" height="15.7142857"></rect>
                <rect id="Rectangle-19-Copy-723" fill="#8B2E1B" x="314.285714" y="392.857143" width="15.7142857" height="15.7142857"></rect>
                <rect id="Rectangle-19-Copy-724" fill="#3C529D" x="330" y="392.857143" width="15.7142857" height="15.7142857"></rect>
                <rect id="Rectangle-19-Copy-725" fill="#AE5A22" x="345.714286" y="392.857143" width="15.7142857" height="15.7142857"></rect>
                <rect id="Rectangle-19-Copy-731" fill="#B25ECA" x="15.7142857" y="408.571429" width="15.7142857" height="15.7142857"></rect>
                <rect id="Rectangle-19-Copy-732" fill="#B25ECA" x="31.4285714" y="408.571429" width="15.7142857" height="15.7142857"></rect>
                <rect id="Rectangle-19-Copy-733" fill="#AE5A22" x="47.1428571" y="408.571429" width="15.7142857" height="15.7142857"></rect>
                <rect id="Rectangle-19-Copy-741" fill="#B25ECA" x="172.857143" y="408.571429" width="15.7142857" height="15.7142857"></rect>
                <rect id="Rectangle-19-Copy-742" fill="#B25ECA" x="188.571429" y="408.571429" width="15.7142857" height="15.7142857"></rect>
                <rect id="Rectangle-19-Copy-743" fill="#AE5A22" x="204.285714" y="408.571429" width="15.7142857" height="15.7142857"></rect>
                <rect id="Rectangle-19-Copy-751" fill="#B25ECA" x="330" y="408.571429" width="15.7142857" height="15.7142857"></rect>
                <rect id="Rectangle-19-Copy-752" fill="#B25ECA" x="345.714286" y="408.571429" width="15.7142857" height="15.7142857"></rect>
                <rect id="Rectangle-19-Copy-753" fill="#AE5A22" x="361.428571" y="408.571429" width="15.7142857" height="15.7142857"></rect>
                <rect id="Rectangle-19-Copy-759" fill="#B25ECA" x="31.4285714" y="424.285714" width="15.7142857" height="15.7142857"></rect>
                <rect id="Rectangle-19-Copy-760" fill="#B25ECA" x="47.1428571" y="424.285714" width="15.7142857" height="15.7142857"></rect>
                <rect id="Rectangle-19-Copy-761" fill="#AE5A22" x="62.8571429" y="424.285714" width="15.7142857" height="15.7142857"></rect>
                <rect id="Rectangle-19-Copy-769" fill="#B25ECA" x="188.571429" y="424.285714" width="15.7142857" height="15.7142857"></rect>
                <rect id="Rectangle-19-Copy-770" fill="#B25ECA" x="204.285714" y="424.285714" width="15.7142857" height="15.7142857"></rect>
                <rect id="Rectangle-19-Copy-771" fill="#AE5A22" x="220" y="424.285714" width="15.7142857" height="15.7142857"></rect>
                <rect id="Rectangle-19-Copy-779" fill="#9E00F0" x="345.714286" y="424.285714" width="15.7142857" height="15.7142857"></rect>
                <rect id="Rectangle-19-Copy-780" fill="#9200F6" x="361.428571" y="424.285714" width="15.7142857" height="15.7142857"></rect>
                <rect id="Rectangle-19-Copy-781" fill="#AE5A22" x="377.142857" y="424.285714" width="15.7142857" height="15.7142857"></rect>
                <rect id="Rectangle-19-Copy-782" fill="#D7CF43" x="392.857143" y="424.285714" width="15.7142857" height="15.7142857"></rect>
                <rect id="Rectangle-19-Copy-783" fill="#AE5A22" x="408.571429" y="424.285714" width="15.7142857" height="15.7142857"></rect>
                <rect id="Rectangle-19-Copy-784" fill="#D7CF43" x="424.285714" y="424.285714" width="15.7142857" height="15.7142857"></rect>
                <rect id="Rectangle-19-Copy-85" fill="#FCFF85" opacity="0.84912817" x="15.7142857" y="47.1428571" width="15.7142857" height="15.7142857"></rect>
                <rect id="Rectangle-19-Copy-86" fill="#BD13B8" x="31.4285714" y="47.1428571" width="15.7142857" height="15.7142857"></rect>
                <rect id="Rectangle-19-Copy-87" fill="#A68C77" x="47.1428571" y="47.1428571" width="15.7142857" height="15.7142857"></rect>
                <rect id="Rectangle-19-Copy-88" fill="#A68C77" x="62.8571429" y="47.1428571" width="15.7142857" height="15.7142857"></rect>
                <rect id="Rectangle-19-Copy-89" fill="#B1B58C" x="78.5714286" y="47.1428571" width="15.7142857" height="15.7142857"></rect>
                <rect id="Rectangle-19-Copy-90" fill="#A93D75" x="94.2857143" y="47.1428571" width="15.7142857" height="15.7142857"></rect>
                <rect id="Rectangle-19-Copy-91" fill="#A93D75" x="110" y="47.1428571" width="15.7142857" height="15.7142857"></rect>
                <rect id="Rectangle-19-Copy-92" fill="#8B2E1B" x="125.714286" y="47.1428571" width="15.7142857" height="15.7142857"></rect>
                <rect id="Rectangle-19-Copy-93" fill="#8B2E1B" x="141.428571" y="47.1428571" width="15.7142857" height="15.7142857"></rect>
                <rect id="Rectangle-19-Copy-94" fill="#8B2E1B" x="157.142857" y="47.1428571" width="15.7142857" height="15.7142857"></rect>
                <rect id="Rectangle-19-Copy-95" fill="#3C529D" x="172.857143" y="47.1428571" width="15.7142857" height="15.7142857"></rect>
                <rect id="Rectangle-19-Copy-96" fill="#AE5A22" x="188.571429" y="47.1428571" width="15.7142857" height="15.7142857"></rect>
                <rect id="Rectangle-19-Copy-104" fill="#B25ECA" x="314.285714" y="47.1428571" width="15.7142857" height="15.7142857"></rect>
                <rect id="Rectangle-19-Copy-105" fill="#B25ECA" x="330" y="47.1428571" width="15.7142857" height="15.7142857"></rect>
                <rect id="Rectangle-19-Copy-106" fill="#AE5A22" x="345.714286" y="47.1428571" width="15.7142857" height="15.7142857"></rect>
                <rect id="Rectangle-19-Copy-64" fill="#B25ECA" x="125.714286" y="31.4285714" width="15.7142857" height="15.7142857"></rect>
                <rect id="Rectangle-19-Copy-65" fill="#B25ECA" x="141.428571" y="31.4285714" width="15.7142857" height="15.7142857"></rect>
                <rect id="Rectangle-19-Copy-66" fill="#AE5A22" x="157.142857" y="31.4285714" width="15.7142857" height="15.7142857"></rect>
                <rect id="Rectangle-19-Copy-74" fill="#9E00F0" x="282.857143" y="31.4285714" width="15.7142857" height="15.7142857"></rect>
                <rect id="Rectangle-19-Copy-75" fill="#9200F6" x="298.571429" y="31.4285714" width="15.7142857" height="15.7142857"></rect>
                <rect id="Rectangle-19-Copy-76" fill="#AE5A22" x="314.285714" y="31.4285714" width="15.7142857" height="15.7142857"></rect>
                <rect id="Rectangle-19-Copy-77" fill="#D7CF43" x="330" y="31.4285714" width="15.7142857" height="15.7142857"></rect>
                <rect id="Rectangle-19-Copy-78" fill="#AE5A22" x="345.714286" y="31.4285714" width="15.7142857" height="15.7142857"></rect>
                <rect id="Rectangle-19-Copy-79" fill="#D7CF43" x="361.428571" y="31.4285714" width="15.7142857" height="15.7142857"></rect>
                <rect id="Rectangle-19-Copy-80" fill="#AE5A22" x="377.142857" y="31.4285714" width="15.7142857" height="15.7142857"></rect>
                <rect id="Rectangle-19-Copy-35" fill="#B25ECA" x="110" y="15.7142857" width="15.7142857" height="15.7142857"></rect>
                <rect id="Rectangle-19-Copy-36" fill="#B25ECA" x="125.714286" y="15.7142857" width="15.7142857" height="15.7142857"></rect>
                <rect id="Rectangle-19-Copy-37" fill="#AE5A22" x="141.428571" y="15.7142857" width="15.7142857" height="15.7142857"></rect>
                <rect id="Rectangle-19-Copy-45" fill="#B25ECA" x="267.142857" y="15.7142857" width="15.7142857" height="15.7142857"></rect>
                <rect id="Rectangle-19-Copy-46" fill="#B25ECA" x="282.857143" y="15.7142857" width="15.7142857" height="15.7142857"></rect>
                <rect id="Rectangle-19-Copy-47" fill="#AE5A22" x="298.571429" y="15.7142857" width="15.7142857" height="15.7142857"></rect>
                <rect id="Rectangle-19-Copy-55" fill="#B25ECA" x="424.285714" y="15.7142857" width="15.7142857" height="15.7142857"></rect>
                <rect id="Rectangle-19-Copy" fill="#AE5A22" x="15.7142857" y="0" width="15.7142857" height="15.7142857"></rect>
                <rect id="Rectangle-19-Copy-7" fill="#FCFF85" opacity="0.84912817" x="110" y="0" width="15.7142857" height="15.7142857"></rect>
                <rect id="Rectangle-19-Copy-8" fill="#BD13B8" x="125.714286" y="0" width="15.7142857" height="15.7142857"></rect>
                <rect id="Rectangle-19-Copy-9" fill="#A68C77" x="141.428571" y="0" width="15.7142857" height="15.7142857"></rect>
                <rect id="Rectangle-19-Copy-10" fill="#A68C77" x="157.142857" y="0" width="15.7142857" height="15.7142857"></rect>
                <rect id="Rectangle-19-Copy-11" fill="#B1B58C" x="172.857143" y="0" width="15.7142857" height="15.7142857"></rect>
                <rect id="Rectangle-19-Copy-12" fill="#A93D75" x="188.571429" y="0" width="15.7142857" height="15.7142857"></rect>
                <rect id="Rectangle-19-Copy-13" fill="#A93D75" x="204.285714" y="0" width="15.7142857" height="15.7142857"></rect>
                <rect id="Rectangle-19-Copy-14" fill="#8B2E1B" x="220" y="0" width="15.7142857" height="15.7142857"></rect>
                <rect id="Rectangle-19-Copy-15" fill="#8B2E1B" x="235.714286" y="0" width="15.7142857" height="15.7142857"></rect>
                <rect id="Rectangle-19-Copy-16" fill="#8B2E1B" x="251.428571" y="0" width="15.7142857" height="15.7142857"></rect>
                <rect id="Rectangle-19-Copy-17" fill="#3C529D" x="267.142857" y="0" width="15.7142857" height="15.7142857"></rect>
                <rect id="Rectangle-19-Copy-18" fill="#AE5A22" x="282.857143" y="0" width="15.7142857" height="15.7142857"></rect>
                <rect id="Rectangle-19-Copy-26" fill="#B25ECA" x="408.571429" y="0" width="15.7142857" height="15.7142857"></rect>
                <rect id="Rectangle-19-Copy-27" fill="#B25ECA" x="424.285714" y="0" width="15.7142857" height="15.7142857"></rect>
            </g>
        </g>
    </g>
</svg>