<?xml version="1.0" encoding="UTF-8"?>
<svg width="150px" height="150px" viewBox="0 0 150 150" version="1.1" xmlns="http://www.w3.org/2000/svg" xmlns:xlink="http://www.w3.org/1999/xlink" style="background: #E955FF;">
    <!-- Generator: Sketch 46.2 (44496) - http://www.bohemiancoding.com/sketch -->
    <title>default-team-avatar</title>
    <desc>Created with Sketch.</desc>
    <defs></defs>
    <g id="Page-1" stroke="none" stroke-width="1" fill="none" fill-rule="evenodd">
        <g id="default-team-avatar">
            <g id="noun_646131_cc-copy-2" transform="translate(-116.000000, -91.000000)">
                <path d="M261.018667,111 C260.68639,111 260.354113,110.988799 260.018103,110.95893 C253.417366,110.413819 248.492948,104.608015 249.041765,98.0181463 C249.568181,91.5178854 255.403561,86.5148127 261.981897,87.0375218 C268.582634,87.5826327 273.507052,93.3921709 272.958235,99.9857727 C272.461686,106.161207 267.216191,111 261.018667,111 Z M261,93.3436336 C258.07671,93.3436336 255.601434,95.6248854 255.366226,98.5333882 C255.108619,101.643507 257.430823,104.372795 260.544519,104.630416 C263.635815,104.902972 266.387366,102.528379 266.633774,99.4630636 C266.891381,96.3529445 264.57291,93.616189 261.462948,93.3585681 C261.31361,93.3511009 261.156805,93.3436336 261,93.3436336 Z" id="Shape" fill="#5586FF"></path>
                <path d="M134.018985,187 C133.690436,187 133.358152,186.985065 133.022136,186.955194 C129.829978,186.693829 126.929035,185.200311 124.853199,182.762143 C122.777363,180.316507 121.77678,177.209989 122.04186,174.013861 C122.568286,167.513323 128.347772,162.547376 134.982233,163.032769 C141.579359,163.577903 146.503869,169.387688 145.958775,175.985304 C145.462217,182.157268 140.216625,187 134.018985,187 Z M134.004051,169.342883 C131.080707,169.342883 128.605384,171.624232 128.370173,174.536592 C128.11256,177.646843 130.434808,180.376247 133.544828,180.637613 C136.666049,180.842972 139.387784,178.535486 139.634196,175.470041 C139.891809,172.356056 137.573294,169.622918 134.467007,169.361552 C134.313933,169.35035 134.160859,169.342883 134.004051,169.342883 Z" id="Shape" fill="#FECB00"></path>
                <path d="M252.018667,246 C251.68639,246 251.354113,245.985067 251.018103,245.955201 C244.417366,245.410153 239.492948,239.608744 240.041765,233.015894 C240.568181,226.520107 246.388627,221.521338 252.981897,222.036522 C259.582634,222.58157 264.507052,228.390446 263.958235,234.987029 C263.461686,241.158026 258.212458,246 252.018667,246 Z M252,228.341914 C249.07671,228.341914 246.601434,230.622906 246.366226,233.53481 C246.108619,236.644574 248.430823,239.373551 251.544519,239.634876 C254.60968,239.866335 257.387366,237.533078 257.633774,234.468113 C257.891381,231.354615 255.57291,228.621905 252.462948,228.36058 C252.31361,228.349381 252.156805,228.341914 252,228.341914 Z" id="Shape" fill="#F7B2C2"></path>
                <path d="M192.991807,228 C189.82938,228 186.849903,226.780781 184.598494,224.559927 C179.867922,219.91564 179.793248,212.262696 184.423011,207.502115 C188.914628,202.899094 196.822563,202.824065 201.400055,207.3333 C203.685067,209.580414 204.965719,212.592823 204.999322,215.819064 C205.032926,219.045305 203.815746,222.083974 201.56807,224.383609 C199.286792,226.717006 196.243843,228 192.991807,228 Z M192.999275,210.263177 C191.468466,210.263177 190.030999,210.867159 188.955699,211.970084 C186.77523,214.209695 186.812567,217.814832 189.03784,220.005675 C191.195907,222.12524 194.918386,222.091477 197.039116,219.919392 C198.095748,218.838976 198.670735,217.405925 198.6558,215.890342 C198.637131,214.374759 198.036009,212.952962 196.956975,211.895055 C195.889143,210.840899 194.485279,210.263177 192.999275,210.263177 Z" id="Shape" fill="#5586FF"></path>
                <path d="M117.924211,108 C117.654327,108 117.380746,107.966773 117.107165,107.892934 C115.432406,107.442518 114.437902,105.725767 114.885244,104.049628 L118.752348,89.6436913 L113.140242,89.6436913 C112.164223,89.6436913 111.239963,89.1895831 110.648437,88.4142764 C110.053214,87.6389697 109.853574,86.6347629 110.108669,85.6896272 L115.036823,67.3296265 C115.484165,65.6571792 117.206985,64.6529725 118.885441,65.1107726 C120.5602,65.5611889 121.554703,67.2779394 121.107362,68.9540786 L117.240258,83.3637071 L122.859758,83.3637071 C123.835777,83.3637071 124.760037,83.8178153 125.351563,84.593122 C125.946786,85.3684287 126.146426,86.3726354 125.891331,87.3177712 L120.963177,105.677772 C120.582382,107.077016 119.314298,108 117.924211,108 Z" id="Shape" fill="#5586FF"></path>
                <path d="M220.861188,147 C219.856861,147 218.870996,146.509989 218.261753,145.597815 L209.876363,133.004534 L206.206139,137.346784 C205.567357,138.100647 204.673802,138.522811 203.651013,138.451194 C202.676225,138.394654 201.78267,137.878258 201.236198,137.052778 L190.54307,121.006804 C189.568283,119.54431 189.941213,117.550342 191.377548,116.555243 C192.810191,115.556375 194.759766,115.944614 195.738247,117.403339 L204.12733,129.99662 L207.790169,125.658139 C208.421566,124.904276 209.289274,124.470805 210.345295,124.546191 C211.320082,124.602731 212.213638,125.119127 212.763802,125.944607 L223.45693,141.99058 C224.431717,143.453075 224.058787,145.447042 222.622452,146.442141 C222.083365,146.822842 221.466738,147 220.861188,147 Z" id="Shape" fill="#F7B2C2"></path>
                <path d="M247.642188,192 C247.402131,192 247.154687,191.974116 246.918324,191.91865 L228.415478,187.514645 C226.727693,187.11529 225.686216,185.418029 226.08508,183.731861 C226.483943,182.041995 228.19758,180.999234 229.863206,181.398589 L244.388493,184.859671 L244.225993,179.235413 C244.196448,178.259211 244.624857,177.323683 245.38196,176.706161 C246.135369,176.088639 247.147301,175.85938 248.085369,176.084942 L266.584522,180.488946 C268.272307,180.888301 269.313784,182.585563 268.91492,184.27173 C268.512364,185.961596 266.798727,186.989567 265.136794,186.605002 L250.618893,183.143921 L250.7777,188.782969 C250.799859,189.759172 250.37145,190.687303 249.614347,191.301128 C249.052983,191.755949 248.351279,192 247.642188,192 Z" id="Shape" fill="#FECB00"></path>
            </g>
            <g id="happyguy" transform="translate(44.547727, 44.547727) rotate(-315.000000) translate(-44.547727, -44.547727) translate(5.547727, 20.547727)">
                <g id="logo-default-avatar-box" transform="translate(16.000000, 0.000000)" fill="#4DE802">
                    <path d="M6.1,0.9 L40.6,0.9 C43.9,0.9 46.6,3.6 46.6,6.9 L46.6,41.4 C46.6,44.7 43.9,47.4 40.6,47.4 L6.1,47.4 C2.8,47.4 0.1,44.7 0.1,41.4 L0.1,6.9 C0.1,3.6 2.8,0.9 6.1,0.9 L6.1,0.9 Z" id="Shape"></path>
                </g>
                <g id="Oval-138" transform="translate(25.000000, 17.000000)" fill="#222222">
                    <circle id="Oval" cx="3.8" cy="3.9" r="3.8"></circle>
                </g>
                <g id="Oval-138-Copy" transform="translate(47.000000, 17.000000)" fill="#222222">
                    <circle id="Oval" cx="3.8" cy="3.9" r="3.8"></circle>
                </g>
                <g id="Path-1550" transform="translate(32.000000, 25.000000)" fill="#222222">
                    <path d="M7.5,7 C4.5,7 2.1,5.8 0.9,4.7 C-0.1,3.8 -0.3,2.2 0.6,1.2 C1.5,0.2 3.1,8.32667268e-16 4.1,0.9 C4.4,1.2 7.3,3.3 11.2,0.7 C12.3,-0.1 13.9,0.2 14.7,1.4 C15.5,2.6 15.2,4.1 14,4.9 C11.7,6.4 9.5,7 7.5,7 L7.5,7 Z" id="Shape"></path>
                </g>
                <g id="Oval-138-Copy-3" transform="translate(70.000000, 13.000000)" fill="#4DE802">
                    <circle id="Oval" cx="4.2" cy="3.8" r="3.8"></circle>
                </g>
                <g id="Oval-138-Copy-4" transform="translate(0.000000, 21.000000)" fill="#4DE802">
                    <circle id="Oval" cx="4.6" cy="4.6" r="3.8"></circle>
                </g>
                <g id="Path-6-Copy" transform="translate(60.000000, 18.000000)" fill="#4DE802">
                    <path d="M0.5,16.5 L0.5,11.5 C8.4,11.5 10.9,0.9 10.9,0.8 L15.8,1.9 C15.7,2.5 12.5,16.5 0.5,16.5 L0.5,16.5 Z" id="Shape"></path>
                </g>
                <g id="Path-7-Copy" transform="translate(2.000000, 25.000000)" fill="#4DE802">
                    <path d="M14.2,11.2 C12.4,11.2 4.1,10.7 0.1,2.1 L4.6,0 C7.6,6.5 14.2,6.2 14.3,6.2 L14.6,11.2 C14.5,11.2 14.3,11.2 14.2,11.2 L14.2,11.2 Z" id="Shape"></path>
                </g>
            </g>
            <g id="happyguy-copy" transform="translate(105.547727, 105.547727) rotate(-45.000000) translate(-105.547727, -105.547727) translate(66.547727, 81.547727)">
                <g id="logo-default-avatar-box" transform="translate(16.000000, 0.000000)" fill="#4DE802">
                    <path d="M6.1,0.9 L40.6,0.9 C43.9,0.9 46.6,3.6 46.6,6.9 L46.6,41.4 C46.6,44.7 43.9,47.4 40.6,47.4 L6.1,47.4 C2.8,47.4 0.1,44.7 0.1,41.4 L0.1,6.9 C0.1,3.6 2.8,0.9 6.1,0.9 L6.1,0.9 Z" id="Shape"></path>
                </g>
                <g id="Oval-138" transform="translate(25.000000, 17.000000)" fill="#222222">
                    <circle id="Oval" cx="3.8" cy="3.9" r="3.8"></circle>
                </g>
                <g id="Oval-138-Copy" transform="translate(47.000000, 17.000000)" fill="#222222">
                    <circle id="Oval" cx="3.8" cy="3.9" r="3.8"></circle>
                </g>
                <g id="Path-1550" transform="translate(32.000000, 25.000000)" fill="#222222">
                    <path d="M7.5,7 C4.5,7 2.1,5.8 0.9,4.7 C-0.1,3.8 -0.3,2.2 0.6,1.2 C1.5,0.2 3.1,8.32667268e-16 4.1,0.9 C4.4,1.2 7.3,3.3 11.2,0.7 C12.3,-0.1 13.9,0.2 14.7,1.4 C15.5,2.6 15.2,4.1 14,4.9 C11.7,6.4 9.5,7 7.5,7 L7.5,7 Z" id="Shape"></path>
                </g>
                <g id="Oval-138-Copy-3" transform="translate(70.000000, 13.000000)" fill="#4DE802">
                    <circle id="Oval" cx="4.2" cy="3.8" r="3.8"></circle>
                </g>
                <g id="Oval-138-Copy-4" transform="translate(0.000000, 21.000000)" fill="#4DE802">
                    <circle id="Oval" cx="4.6" cy="4.6" r="3.8"></circle>
                </g>
                <g id="Path-6-Copy" transform="translate(60.000000, 18.000000)" fill="#4DE802">
                    <path d="M0.5,16.5 L0.5,11.5 C8.4,11.5 10.9,0.9 10.9,0.8 L15.8,1.9 C15.7,2.5 12.5,16.5 0.5,16.5 L0.5,16.5 Z" id="Shape"></path>
                </g>
                <g id="Path-7-Copy" transform="translate(2.000000, 25.000000)" fill="#4DE802">
                    <path d="M14.2,11.2 C12.4,11.2 4.1,10.7 0.1,2.1 L4.6,0 C7.6,6.5 14.2,6.2 14.3,6.2 L14.6,11.2 C14.5,11.2 14.3,11.2 14.2,11.2 L14.2,11.2 Z" id="Shape"></path>
                </g>
            </g>
        </g>
    </g>
</svg>