<?xml version="1.0" encoding="UTF-8"?>
<svg width="48px" height="48px" viewBox="0 0 48 48" version="1.1" xmlns="http://www.w3.org/2000/svg" xmlns:xlink="http://www.w3.org/1999/xlink" style="background: #FFD1C7;">
    <!-- Generator: Sketch 42 (36781) - http://www.bohemiancoding.com/sketch -->
    <title>defaultAvatar</title>
    <desc>Created with Sketch.</desc>
    <defs>
        <linearGradient x1="50%" y1="0%" x2="50%" y2="99.1210938%" id="linearGradient-1">
            <stop stop-color="#E659FF" offset="0%"></stop>
            <stop stop-color="#0037FF" offset="100%"></stop>
        </linearGradient>
        <path d="M17.9158736,29.8699882 C18.3218957,30.8032474 18.2246339,31.6862937 18.2246339,31.6862937 C18.2246339,31.6862937 17.8079307,31.8167761 17.0215077,31.8278784 C16.7300404,31.8990045 15.5653885,32.1211823 13.6760953,31.7044434 C11.4758346,31.2191114 10.4584677,28.7765391 10.4584677,28.7765391 C10.4584677,28.7765391 10.479745,28.7544963 10.5217902,28.7171781 C10.397539,28.6934918 10.3256089,28.6855436 10.3120368,28.698081 C8.89197293,28.9856036 8.15011454,28.9535178 7.0680041,28.9535178 C5.98589367,28.9535178 1.70287565,27.2621266 0.322906404,25.4486243 C0.322906404,25.4486243 2.46529796,24.9042438 2.46529796,24.4442737 C2.46529796,23.9843036 0.0180087573,23.1342656 0.0180087573,23.1342656 C0.0180087573,23.1342656 -0.352782704,21.0124868 2.27061609,18.8936377 C3.99065155,17.5044111 5.42685912,16.5936949 6.83382462,16.0980585 C5.47075949,15.9086194 1.6181247,14.3140661 0.322906404,12.6119403 C0.322906404,12.6119403 2.46529796,12.0675598 2.46529796,11.6075897 C2.46529796,11.1476196 0.0180087573,10.2975816 0.0180087573,10.2975816 C0.0180087573,10.2975816 -0.352782704,8.17580284 2.27061609,6.05695376 C4.89401489,3.93810467 6.85716295,2.93238402 9.06332481,2.81474137 C11.2694867,2.69709871 12.0091319,2.69709871 12.0091319,2.69709871 C12.0091319,2.69709871 13.9296909,5.92522748e-17 14.9386303,0 C15.4429875,0 22.8329029,1.63361706 23.4729962,2.69709871 C24.1130895,3.76058036 24.424578,3.68321268 24.7517196,3.93810467 C25.0788613,4.19299666 24.872762,3.9891623 26.3551862,4.33365794 C30.0631724,5.1953446 29.557341,5.53363457 32.3122951,6.05695376 C33.427301,6.26875547 38.5368946,3.65697261 39.0188836,3.9106373 C39.2433057,4.0287478 39.4194635,6.27506611 38.5421963,7.74790584 C37.664929,9.22074557 39.2464229,10.4374215 38.5362156,12.2817684 C37.8260083,14.1261152 39.3495588,15.4924807 39.0188836,16.1168339 C38.6882084,16.741187 33.2625864,14.073487 32.3122951,14.266374 C31.4617497,14.4390149 29.0458017,15.6202047 24.3278288,16.5237793 C24.4828411,16.6204346 24.6159319,16.6689899 24.7517196,16.7747887 C25.0788613,17.0296807 24.872762,16.8258463 26.3551862,17.1703419 C30.0631724,18.0320286 29.557341,18.3703186 32.3122951,18.8936377 C33.427301,19.1054395 38.5368946,16.4936566 39.0188836,16.7473213 C39.2433057,16.8654318 39.4194635,19.1117501 38.5421963,20.5845898 C37.664929,22.0574296 39.2464229,23.2741055 38.5362156,25.1184524 C37.8260083,26.9627992 39.3495588,28.3291647 39.0188836,28.9535178 C38.6882084,29.577871 33.2625864,26.910171 32.3122951,27.103058 C31.3620038,27.295945 28.457622,28.7478025 22.5717897,29.6648295 C21.003999,29.9090951 19.4114201,29.9455481 17.9158736,29.8699882 Z" id="path-2"></path>
        <linearGradient x1="1.70866321%" y1="35.7585593%" x2="73.1482182%" y2="74.1711318%" id="linearGradient-4">
            <stop stop-color="#F1A5FF" offset="0%"></stop>
            <stop stop-color="#FF686C" offset="100%"></stop>
        </linearGradient>
        <path d="M27.4003795,9.50170648 L0,9.50170648 L0,16.5051975 L5.81657179,16.0683374 C5.81657179,16.0683374 19.1715554,16.4386998 24.2862903,16.5051975 C29.4010252,16.5716952 39.4180898,16.5051975 39.4180898,16.5051975 L39.4180898,9.50170648 L39.3219481,9.50170648 L39.3219481,10.430082 L27.4003795,10.430082 L27.4003795,9.50170648 Z" id="path-5"></path>
        <linearGradient x1="26.3844255%" y1="17.5301761%" x2="73.1482182%" y2="74.1711318%" id="linearGradient-6">
            <stop stop-color="#F1A5FF" offset="0%"></stop>
            <stop stop-color="#FF686C" offset="100%"></stop>
        </linearGradient>
        <path d="M23.7469956,24.0273038 L0,24.0273038 L0,33.1192364 L39.4180898,33.1192364 L39.4180898,24.0273038 L39.3219481,24.0273038 L39.3219481,25.2325209 L23.7469956,25.2325209 L23.7469956,24.0273038 Z" id="path-7"></path>
    </defs>
    <g id="ðŸŽ-logos" stroke="none" stroke-width="1" fill="none" fill-rule="evenodd">
        <g id="defaultAvatar">
            <g id="fish-copy-9" transform="translate(4.000000, 8.000000)">
                <g id="body">
                    <mask id="mask-3" fill="white">
                        <use xlink:href="#path-2"></use>
                    </mask>
                    <use id="Combined-Shape" fill="url(#linearGradient-1)" xlink:href="#path-2"></use>
                    <g id="Combined-Shape" mask="url(#mask-3)">
                        <use fill="#FF9A7B" xlink:href="#path-5"></use>
                        <use fill="url(#linearGradient-4)" xlink:href="#path-5"></use>
                    </g>
                    <g id="Combined-Shape-Copy" mask="url(#mask-3)">
                        <use fill="#FF9A7B" xlink:href="#path-7"></use>
                        <use fill="url(#linearGradient-6)" xlink:href="#path-7"></use>
                    </g>
                    <path d="M15.2049354,18.3734413 C15.8750524,18.4093052 16.5451518,18.4463459 17.1704616,18.482559 C17.388727,18.4951993 17.598078,18.5075427 17.7973658,18.5195378 C18.3625421,18.5535555 18.8367392,18.5841581 19.2008402,18.6104757 C20.5706145,18.7094844 22.6819694,19.0394829 24.2949733,19.3744459 C26.7672667,19.8878524 28.7854758,20.6474136 31.9901132,22.1249691 C32.234491,22.2376438 33.0736749,22.6266192 33.0931887,22.6356468 C33.307912,22.7349833 33.5511207,22.612776 33.6364105,22.362689 C33.7217004,22.112602 33.6167738,21.8293383 33.4020505,21.7300017 C33.3831599,21.7212624 32.5432933,21.3319707 32.298076,21.2189088 C29.045574,19.7192845 26.9817215,18.9425452 24.4418361,18.4151023 C22.8000137,18.0741548 20.6590502,17.7395285 19.2526648,17.6378735 C18.88519,17.6113121 18.4083582,17.5805395 17.8405464,17.5463631 C17.6406923,17.5343339 17.4308015,17.5219587 17.2120126,17.5092881 C16.5855322,17.4730071 15.914428,17.435911 15.2433411,17.3999951 C15.0084745,17.3874253 14.79038,17.3759005 14.5946432,17.3656706 C14.5261249,17.3620896 14.4652918,17.358926 14.4128421,17.3562111 C14.3596707,17.3534638 14.3596707,17.3534638 14.3484187,17.3528863 C14.0265594,17.3363678 13.8101397,17.7319905 13.9589932,18.0647695 C13.9647207,18.077574 13.976629,18.1048669 13.9938307,18.1453987 C14.0231863,18.2145682 14.0560794,18.2945155 14.091622,18.3839811 C14.1935903,18.6406492 14.295689,18.9206405 14.3908162,19.2136498 C14.5415813,19.6780345 14.6598927,20.1295696 14.733429,20.5480484 C14.7609489,20.7046582 14.7818352,20.8548635 14.7957085,20.9977836 C14.8359227,21.4120615 14.7460617,22.1273726 14.5507788,23.0316226 C14.4817768,23.3511334 14.4011744,23.6875569 14.311309,24.0351906 C14.2012475,24.4609502 14.0831633,24.8813587 13.9651026,25.277431 C13.9238167,25.4159379 13.8855195,25.5413924 13.8512139,25.6514476 C13.8392661,25.6897772 13.8286901,25.7233852 13.819611,25.7519788 C13.8142563,25.7688428 13.8105268,25.7804896 13.8089112,25.7854917 C13.7276077,26.0373733 13.837015,26.3183281 14.0532791,26.4130219 C14.2695433,26.5077156 14.5107696,26.3802896 14.5920731,26.128408 C14.5944528,26.1210326 14.5984641,26.1085057 14.6043461,26.0899809 C14.6139948,26.0595934 14.6251429,26.0241675 14.6376661,25.9839921 C14.6732776,25.8697471 14.7128879,25.7399911 14.7555025,25.597027 C14.8771574,25.1888965 14.9987889,24.7558589 15.1124619,24.3161284 C15.2058409,23.9549032 15.2898466,23.6042746 15.3621824,23.2693267 C15.5806552,22.2576968 15.681835,21.4522861 15.6270895,20.8883096 C15.6103062,20.7154117 15.5854581,20.536715 15.5531154,20.3526597 C15.4697091,19.8780127 15.3388169,19.378463 15.1734148,18.8689938 C15.1169495,18.6950702 15.0583196,18.5257012 14.9986939,18.3624418 C15.0658352,18.36601 15.1346326,18.3696787 15.2049354,18.3734413 Z" id="Path-11-Copy-5" fill="#F49CB1" fill-rule="nonzero" mask="url(#mask-3)"></path>
                    <path d="M15.2049354,5.97844285 C15.8750524,6.0143068 16.5451518,6.05134743 17.1704616,6.0875606 C17.388727,6.10020087 17.598078,6.1125443 17.7973658,6.12453936 C18.3625421,6.15855711 18.8367392,6.18915968 19.2008402,6.21547728 C20.5706145,6.31448599 22.6819694,6.6444845 24.2949733,6.97944743 C26.7672667,7.49285392 28.7854758,8.25241517 31.9901132,9.72997067 C32.234491,9.84264541 33.0736749,10.2316207 33.0931887,10.2406483 C33.307912,10.3399849 33.5511207,10.2177775 33.6364105,9.96769057 C33.7217004,9.71760359 33.6167738,9.43433983 33.4020505,9.33500326 C33.3831599,9.32626396 32.5432933,8.93697223 32.298076,8.82391037 C29.045574,7.3242861 26.9817215,6.54754674 24.4418361,6.02010382 C22.8000137,5.67915632 20.6590502,5.34453009 19.2526648,5.24287509 C18.88519,5.21631363 18.4083582,5.18554102 17.8405464,5.15136464 C17.6406923,5.13933549 17.4308015,5.12696024 17.2120126,5.11428965 C16.5855322,5.07800869 15.914428,5.04091252 15.2433411,5.00499666 C15.0084745,4.99242684 14.79038,4.98090206 14.5946432,4.97067214 C14.5261249,4.96709112 14.4652918,4.96392755 14.4128421,4.96121267 C14.3596707,4.95846535 14.3596707,4.95846535 14.3484187,4.95788787 C14.0265594,4.94136933 13.8101397,5.33699202 13.9589932,5.66977106 C13.9647207,5.68257555 13.976629,5.70986844 13.9938307,5.75040025 C14.0231863,5.81956977 14.0560794,5.89951704 14.091622,5.98898268 C14.1935903,6.2456508 14.295689,6.52564207 14.3908162,6.8186514 C14.5415813,7.28303609 14.6598927,7.73457121 14.733429,8.15305 C14.7609489,8.30965978 14.7818352,8.45986503 14.7957085,8.6027852 C14.8359227,9.01706308 14.7460617,9.73237419 14.5507788,10.6366242 C14.4817768,10.9561349 14.4011744,11.2925585 14.311309,11.6401921 C14.2012475,12.0659518 14.0831633,12.4863602 13.9651026,12.8824325 C13.9238167,13.0209394 13.8855195,13.146394 13.8512139,13.2564492 C13.8392661,13.2947788 13.8286901,13.3283867 13.819611,13.3569804 C13.8142563,13.3738444 13.8105268,13.3854912 13.8089112,13.3904933 C13.7276077,13.6423749 13.837015,13.9233297 14.0532791,14.0180234 C14.2695433,14.1127171 14.5107696,13.9852912 14.5920731,13.7334096 C14.5944528,13.7260341 14.5984641,13.7135072 14.6043461,13.6949825 C14.6139948,13.6645949 14.6251429,13.6291691 14.6376661,13.5889936 C14.6732776,13.4747487 14.7128879,13.3449927 14.7555025,13.2020286 C14.8771574,12.793898 14.9987889,12.3608605 15.1124619,11.92113 C15.2058409,11.5599047 15.2898466,11.2092762 15.3621824,10.8743282 C15.5806552,9.86269833 15.681835,9.05728768 15.6270895,8.49331115 C15.6103062,8.3204133 15.5854581,8.14171657 15.5531154,7.95766123 C15.4697091,7.48301428 15.3388169,6.98346458 15.1734148,6.47399534 C15.1169495,6.30007178 15.0583196,6.13070281 14.9986939,5.96744337 C15.0658352,5.97101157 15.1346326,5.97468031 15.2049354,5.97844285 Z" id="Path-11-Copy-8" fill="#F49CB1" fill-rule="nonzero" mask="url(#mask-3)"></path>
                    <path d="M11.7931356,6.13867585 C11.7996634,6.14988302 11.8134168,6.17411965 11.8333565,6.21029249 C11.8674739,6.27218538 11.9057253,6.34386753 11.94707,6.42423429 C12.0657013,6.65483205 12.1844841,6.90729372 12.2950941,7.17251316 C12.4863178,7.631027 12.6319403,8.07730049 12.7138801,8.48787665 C12.7620039,8.7290106 12.7868438,8.95221007 12.7868438,9.15356018 C12.7868438,9.7239517 12.6631113,10.3490822 12.4556898,10.9770483 C12.382195,11.199553 12.3034269,11.4061248 12.2249172,11.5908234 C12.1977001,11.6548533 12.1725914,11.7113158 12.1502872,11.7594867 C12.1374725,11.7871628 12.1288367,11.8051476 12.1250768,11.8127242 C12.0207764,12.0228992 12.0862098,12.2893292 12.2712262,12.4078123 C12.4562427,12.5262954 12.6907803,12.4519645 12.7950807,12.2417895 C12.8211554,12.1892464 12.8638195,12.097104 12.9175314,11.9707435 C13.0057401,11.7632273 13.0936904,11.5325751 13.1757994,11.2839911 C13.4129603,10.5659894 13.5559772,9.84342807 13.5559772,9.15356018 C13.5559772,8.88255271 13.5240572,8.59573398 13.4639785,8.29469734 C13.368099,7.81427366 13.203672,7.31037214 12.9901683,6.79843558 C12.8694375,6.50894855 12.740355,6.23459575 12.611121,5.98338831 C12.5329671,5.83147138 12.4713814,5.71974786 12.4345684,5.656546 C12.3173687,5.45533355 12.07877,5.40014709 11.9016432,5.53328357 C11.7245164,5.66642005 11.6759359,5.9374634 11.7931356,6.13867585 Z" id="Path-11-Copy-4" fill="#F49CB1" fill-rule="nonzero" mask="url(#mask-3)"></path>
                    <path d="M11.7931356,18.4799728 C11.7996634,18.49118 11.8134168,18.5154166 11.8333565,18.5515894 C11.8674739,18.6134823 11.9057253,18.6851645 11.94707,18.7655312 C12.0657013,18.996129 12.1844841,19.2485906 12.2950941,19.5138101 C12.4863178,19.9723239 12.6319403,20.4185974 12.7138801,20.8291736 C12.7620039,21.0703075 12.7868438,21.293507 12.7868438,21.4948571 C12.7868438,22.0652486 12.6631113,22.6903792 12.4556898,23.3183452 C12.382195,23.54085 12.3034269,23.7474218 12.2249172,23.9321204 C12.1977001,23.9961502 12.1725914,24.0526127 12.1502872,24.1007836 C12.1374725,24.1284597 12.1288367,24.1464445 12.1250768,24.1540212 C12.0207764,24.3641962 12.0862098,24.6306262 12.2712262,24.7491093 C12.4562427,24.8675924 12.6907803,24.7932614 12.7950807,24.5830864 C12.8211554,24.5305434 12.8638195,24.4384009 12.9175314,24.3120404 C13.0057401,24.1045242 13.0936904,23.873872 13.1757994,23.625288 C13.4129603,22.9072863 13.5559772,22.184725 13.5559772,21.4948571 C13.5559772,21.2238496 13.5240572,20.9370309 13.4639785,20.6359943 C13.368099,20.1555706 13.203672,19.6516691 12.9901683,19.1397325 C12.8694375,18.8502455 12.740355,18.5758927 12.611121,18.3246852 C12.5329671,18.1727683 12.4713814,18.0610448 12.4345684,17.9978429 C12.3173687,17.7966305 12.07877,17.741444 11.9016432,17.8745805 C11.7245164,18.007717 11.6759359,18.2787603 11.7931356,18.4799728 Z" id="Path-11-Copy-6" fill="#F49CB1" fill-rule="nonzero" mask="url(#mask-3)"></path>
                </g>
                <g id="eye" transform="translate(6.416739, 21.336060) scale(-1, 1) translate(-6.416739, -21.336060) translate(4.352223, 19.271544)">
                    <ellipse id="Oval-2-Copy-2" fill="#000000" cx="1.83218034" cy="1.9131785" rx="1.83218034" ry="1.9131785"></ellipse>
                    <path d="M3.66425025,1.93440301 C3.6643238,1.9273373 3.66436067,1.9202624 3.66436067,1.9131785 C3.66436067,0.856559193 2.8440656,0 1.83218034,0 C0.820295078,0 -1.73194792e-14,0.856559193 -1.73194792e-14,1.9131785 C-1.73194792e-14,2.96979782 0.820295078,3.82635701 1.83218034,3.82635701 C2.73868053,3.82635701 3.49141961,3.13892359 3.63837853,2.23605893 C3.51197144,2.91513474 2.93934577,3.42777815 2.252055,3.42777815 C1.47206011,3.42777815 0.839749321,2.76751378 0.839749321,1.95303639 C0.839749321,1.138559 1.47206011,0.478294626 2.252055,0.478294626 C3.02609303,0.478294626 3.65469409,1.12851258 3.66425025,1.93440301 Z" id="Combined-Shape" fill="#FFFFFF"></path>
                    <ellipse id="Oval-6" fill="#FFFFFF" cx="2.7571213" cy="2.46692533" rx="0.466895881" ry="0.474031053"></ellipse>
                </g>
                <g id="eye-copy-4" transform="translate(6.416739, 8.941061) scale(-1, 1) translate(-6.416739, -8.941061) translate(4.352223, 6.876545)">
                    <ellipse id="Oval-2-Copy-2" fill="#000000" cx="1.83218034" cy="1.9131785" rx="1.83218034" ry="1.9131785"></ellipse>
                    <path d="M3.66425025,1.93440301 C3.6643238,1.9273373 3.66436067,1.9202624 3.66436067,1.9131785 C3.66436067,0.856559193 2.8440656,0 1.83218034,0 C0.820295078,0 -1.73194792e-14,0.856559193 -1.73194792e-14,1.9131785 C-1.73194792e-14,2.96979782 0.820295078,3.82635701 1.83218034,3.82635701 C2.73868053,3.82635701 3.49141961,3.13892359 3.63837853,2.23605893 C3.51197144,2.91513474 2.93934577,3.42777815 2.252055,3.42777815 C1.47206011,3.42777815 0.839749321,2.76751378 0.839749321,1.95303639 C0.839749321,1.138559 1.47206011,0.478294626 2.252055,0.478294626 C3.02609303,0.478294626 3.65469409,1.12851258 3.66425025,1.93440301 Z" id="Combined-Shape" fill="#FFFFFF"></path>
                    <ellipse id="Oval-6" fill="#FFFFFF" cx="2.7571213" cy="2.46692533" rx="0.466895881" ry="0.474031053"></ellipse>
                </g>
            </g>
        </g>
    </g>
</svg>