<?xml version="1.0" encoding="UTF-8"?>
<svg width="600px" height="300px" viewBox="0 0 600 300" version="1.1" xmlns="http://www.w3.org/2000/svg" xmlns:xlink="http://www.w3.org/1999/xlink" style="background: #E955FF;">
    <!-- Generator: Sketch 43.1 (39012) - http://www.bohemiancoding.com/sketch -->
    <title>featured-for-partners</title>
    <desc>Created with Sketch.</desc>
    <defs>
        <path d="M76.1942756,17.5577747 C76.1942756,17.5577747 71.5020263,17.5577747 57.5081617,18.2854472 C43.514297,19.0131197 31.0577789,25.2331146 14.419678,38.3392456 C-2.22109648,51.4427014 0.131712259,64.5648841 0.131712259,64.5648841 C0.131712259,64.5648841 15.652229,69.8244582 15.652229,72.6682666 C15.652229,75.5147503 2.06475853,78.8829109 2.06475853,78.8829109 C10.8182765,90.0976285 37.9851964,100.560596 44.8511201,100.560596 C51.4363109,100.560596 56.0349826,100.742514 64.3526962,99.1855091 C64.981003,100.579323 71.4699426,114.332869 84.7125127,117.179352 C98.6716199,120.183677 106.39311,117.824092 106.39311,117.824092 C106.39311,117.824092 107.090932,111.657602 103.91464,105.501814 C116.018237,106.694982 129.752758,106.999963 143.193178,104.958734 C180.527975,99.2871692 198.949398,90.3062993 204.97847,89.1131304 C207.780451,88.5593502 216.721125,91.8312012 225.693882,95.100377 C236.022177,98.8644771 246.398598,102.628577 247.52153,100.560596 C249.617669,96.6975112 239.952437,88.246344 244.460205,76.8416825 C248.965299,65.4316705 238.931104,57.9061455 244.494962,48.7968627 C250.061494,39.68758 248.94391,25.7949205 247.52153,25.0645728 C245.978836,24.2753691 236.990037,27.9806133 227.546718,31.6858576 C218.239756,35.3375965 208.488968,38.9893354 204.97847,38.3392456 C187.503518,35.102173 190.711894,33.0101146 167.194501,27.6783082 C157.788613,25.548796 159.096026,26.8115218 157.018603,25.2331146 C154.949201,23.6573825 152.970702,24.1362552 148.912107,17.5577747 C144.850839,10.9819694 97.9711246,0.877487444 94.7734437,0.877487444 C88.3754081,0.877487444 76.1942756,17.5577747 76.1942756,17.5577747 Z" id="path-1"></path>
        <path d="M0.96780367,1.36838149 C-0.101654846,2.50804506 -0.155127772,4.41818541 0.850163233,5.62740592 C0.892941574,5.68091125 0.991866487,5.80129825 1.13356974,5.98589164 C1.38489249,6.3095989 1.66562535,6.68948676 1.97309468,7.11752941 C2.84470337,8.35082731 3.72700664,9.72591434 4.54246876,11.2053368 C6.47818867,14.699235 7.75084431,18.171731 8.06366093,21.3392466 C8.23477429,23.0701441 8.11713385,25.1755789 7.72678149,27.5619168 C7.33108184,30.0151362 6.66801756,32.6636502 5.81512439,35.3897468 C5.29643701,37.0484121 4.73764494,38.6321699 4.18152651,40.0821644 C3.98367669,40.5877898 3.80721603,41.0399099 3.64412361,41.4278235 C3.55054599,41.6552212 3.48905212,41.8103867 3.45696837,41.8799436 C2.80994596,43.3727423 3.35002251,45.1785473 4.66278284,45.9142456 C5.97821682,46.6499439 7.56903636,46.0346326 8.21605876,44.5418338 C8.38984577,44.1458944 8.67859957,43.4449745 9.04488911,42.4925796 C9.64913318,40.9221981 10.2507036,39.2100275 10.8175166,37.4068978 C11.7586401,34.4052487 12.4938928,31.4571049 12.9484127,28.6534255 C13.4243217,25.7293591 13.5767196,23.0514173 13.3360914,20.6624042 C12.9190026,16.4568851 11.3629404,12.1925101 9.03686818,7.99501686 C8.09841833,6.30692363 7.10382191,4.74189267 6.10120455,3.33470244 C5.49161319,2.47861713 5.01303051,1.85528001 4.71892942,1.50214482 C4.19756839,0.870781906 3.49172577,0.552425181 2.78588315,0.552425181 C2.13351345,0.552425181 1.47847011,0.822627107 0.96780367,1.36838149 Z" id="path-3"></path>
        <path d="M1.15839243,4.51585002 C1.19849713,4.59610802 1.27335923,4.76464981 1.38297872,5.01880014 C1.56746032,5.44416753 1.77867837,5.93909185 2.00059102,6.49019677 C2.65028707,8.07930513 3.29730947,9.81020261 3.90155353,11.6240334 C4.85604525,14.4945944 5.60733986,17.2875728 6.07522796,19.8745556 C6.24634133,20.8456773 6.38002364,21.7739948 6.46825397,22.6595081 C6.72492401,25.2197382 6.15276371,29.6473044 4.91486547,35.2359364 C4.47638748,37.2129584 3.96572104,39.2943158 3.39356073,41.4452301 C2.6984127,44.0750172 1.94979174,46.6780516 1.20117078,49.1259205 C0.936479793,49.9846811 0.69317798,50.7605084 0.476612631,51.4400261 C0.401750535,51.6781249 0.332235731,51.8867957 0.276089159,52.0633633 C0.241331757,52.1650234 0.219942587,52.2372556 0.206574356,52.2693588 C-0.306765732,53.8290392 0.385708657,55.5652872 1.7572892,56.1511706 C3.12886975,56.737054 4.66354272,55.9478504 5.17420916,54.3908452 C5.19292469,54.3453657 5.21966115,54.2677829 5.25441855,54.1554217 C5.31591242,53.9654778 5.38542722,53.746106 5.46563661,53.4973062 C5.6902229,52.7910358 5.9442193,51.9884558 6.21158392,51.1029426 C6.9842677,48.5801662 7.75427783,45.9022243 8.47883598,43.1814782 C9.06971181,40.9476305 9.60444107,38.7779893 10.0616346,36.707333 C11.449257,30.4498844 12.0909321,25.468538 11.7433581,21.9826656 C11.6364122,20.9098837 11.4786671,19.8049986 11.2727964,18.6706856 C10.746088,15.7305676 9.91725768,12.6433099 8.86384104,9.49184589 C8.50557244,8.41371345 8.13660925,7.36768421 7.75427783,6.3591087 C8.18206124,6.38051084 8.61519194,6.40458824 9.06436452,6.42599037 C13.3127885,6.6480375 17.5692334,6.87811042 21.5342508,7.10283282 C22.9165259,7.18041555 24.2480018,7.25532301 25.5099629,7.33023048 C29.0953225,7.54157654 32.1031746,7.7288452 34.413205,7.89203646 C43.1025554,8.50734778 56.4975234,10.5459009 66.7295677,12.6192325 C82.4158505,15.794774 95.2199426,20.4898669 115.547675,29.6285776 C117.09839,30.3268222 122.42162,32.7318868 122.544608,32.7880674 C123.908167,33.4033787 125.450861,32.6462783 125.993611,31.0999742 C126.531014,29.5536701 125.86795,27.8013705 124.50439,27.1887344 C124.381403,27.1325538 119.058173,24.7248139 117.502111,24.0265693 C96.8669087,14.75142 83.7740628,9.94664121 67.6626703,6.68281596 C57.2461443,4.57470588 43.6640212,2.5067248 34.7447371,1.87803715 C32.4133176,1.71484589 29.3840763,1.52222669 25.7853484,1.31088063 C24.5153664,1.23597317 23.1838906,1.1610657 21.7989418,1.08348297 C17.8232298,0.856085311 13.5667849,0.62868765 9.31033998,0.403965256 C7.81844535,0.326382525 6.43349657,0.256825593 5.19292469,0.195294462 C4.75979399,0.171217062 4.37211528,0.152490196 4.04058314,0.13376333 C3.70103006,0.11771173 3.70103006,0.11771173 3.63151525,0.112361197 C3.58873691,0.109685931 3.54863222,0.109685931 3.50852752,0.109685931 C1.53270292,0.109685931 0.235984465,2.498699 1.15839243,4.51585002 Z" id="path-5"></path>
        <path d="M0.826156704,12.1021008 C0.826156704,18.7581641 6.02907239,24.1541768 12.4484971,24.1541768 C18.8679219,24.1541768 24.0708376,18.7581641 24.0708376,12.1021008 C24.0708376,5.4460375 18.8679219,0.0473495012 12.4484971,0.0473495012 C6.02907239,0.0473495012 0.826156704,5.4460375 0.826156704,12.1021008 Z" id="path-7"></path>
        <path d="M0.826156704,12.1021008 L0.826156704,12.2358641 C0.887650569,7.15820812 4.87405719,3.05969969 9.78554542,3.05969969 C14.7344647,3.05969969 18.7449341,7.21973925 18.7449341,12.3509006 C18.7449341,17.4847372 14.7344647,21.6447767 9.78554542,21.6447767 C5.42482832,21.6447767 1.79134301,18.4130547 0.989249128,14.1353034 C1.92235168,19.8229202 6.69748396,24.1541768 12.4484971,24.1541768 C18.8679219,24.1541768 24.0708376,18.7581641 24.0708376,12.1021008 C24.0708376,5.4460375 18.8679219,0.0473495012 12.4484971,0.0473495012 C6.02907239,0.0473495012 0.826156704,5.4460375 0.826156704,12.1021008 Z" id="path-9"></path>
        <path d="M0.703872566,2.73544272 C0.703872566,4.12658136 1.78669931,5.25019333 3.1261961,5.25019333 C4.46301925,5.25019333 5.545846,4.12658136 5.545846,2.73544272 C5.545846,1.35232989 4.46301925,0.228717922 3.1261961,0.228717922 C1.78669931,0.228717922 0.703872566,1.35232989 0.703872566,2.73544272 Z" id="path-11"></path>
    </defs>
    <g id="featured-banners-and-blog-posts" stroke="none" stroke-width="1" fill="none" fill-rule="evenodd">
        <g id="featured-for-partners">
            <g id="dot-grid-bk" transform="translate(15.000000, 8.000000)">
                <g id="noun_927547_cc" fill-rule="nonzero" fill="#FFA3D5">
                    <ellipse id="Oval" cx="43.4217778" cy="81.5782222" rx="5.20276667" ry="5.20276667"></ellipse>
                    <ellipse id="Oval" cx="43.4217778" cy="119.733256" rx="5.20417778" ry="5.20417778"></ellipse>
                    <circle id="Oval" cx="43.4217778" cy="43.4217778" r="5.20417778"></circle>
                    <ellipse id="Oval" cx="43.4217778" cy="5.26674444" rx="5.20417778" ry="5.20417778"></ellipse>
                    <ellipse id="Oval" cx="5.26674444" cy="81.5782222" rx="5.20276667" ry="5.20276667"></ellipse>
                    <ellipse id="Oval" cx="5.26674444" cy="119.733256" rx="5.20417778" ry="5.20417778"></ellipse>
                    <ellipse id="Oval" cx="5.26674444" cy="43.4217778" rx="5.20417778" ry="5.20417778"></ellipse>
                    <ellipse id="Oval" cx="5.26674444" cy="5.26674444" rx="5.20417778" ry="5.20417778"></ellipse>
                    <ellipse id="Oval" cx="119.733256" cy="81.5782222" rx="5.20276667" ry="5.20276667"></ellipse>
                    <circle id="Oval" cx="119.733256" cy="119.733256" r="5.20417778"></circle>
                    <ellipse id="Oval" cx="119.733256" cy="43.4217778" rx="5.20417778" ry="5.20417778"></ellipse>
                    <ellipse id="Oval" cx="119.733256" cy="5.26674444" rx="5.20417778" ry="5.20417778"></ellipse>
                    <ellipse id="Oval" cx="81.5782222" cy="43.4217778" rx="5.20417778" ry="5.20417778"></ellipse>
                    <ellipse id="Oval" cx="81.5782222" cy="5.26674444" rx="5.20417778" ry="5.20417778"></ellipse>
                    <circle id="Oval" cx="81.5782222" cy="81.5782222" r="5.20276667"></circle>
                    <ellipse id="Oval" cx="81.5782222" cy="119.733256" rx="5.20417778" ry="5.20417778"></ellipse>
                </g>
                <ellipse id="Oval" fill="#FFA3D5" fill-rule="nonzero" cx="191.421778" cy="81.5782222" rx="5.20276667" ry="5.20276667"></ellipse>
                <ellipse id="Oval" fill="#FFA3D5" fill-rule="nonzero" cx="191.421778" cy="119.733256" rx="5.20417778" ry="5.20417778"></ellipse>
                <circle id="Oval" fill="#FFA3D5" fill-rule="nonzero" cx="191.421778" cy="43.4217778" r="5.20417778"></circle>
                <ellipse id="Oval" fill="#FFA3D5" fill-rule="nonzero" cx="191.421778" cy="5.26674444" rx="5.20417778" ry="5.20417778"></ellipse>
                <ellipse id="Oval" fill="#FFA3D5" fill-rule="nonzero" cx="153.266744" cy="81.5782222" rx="5.20276667" ry="5.20276667"></ellipse>
                <ellipse id="Oval" fill="#FFA3D5" fill-rule="nonzero" cx="153.266744" cy="119.733256" rx="5.20417778" ry="5.20417778"></ellipse>
                <ellipse id="Oval" fill="#FFA3D5" fill-rule="nonzero" cx="153.266744" cy="43.4217778" rx="5.20417778" ry="5.20417778"></ellipse>
                <ellipse id="Oval" fill="#FFA3D5" fill-rule="nonzero" cx="153.266744" cy="5.26674444" rx="5.20417778" ry="5.20417778"></ellipse>
                <ellipse id="Oval" fill="#FFA3D5" fill-rule="nonzero" cx="267.733256" cy="5.26674444" rx="5.20417778" ry="5.20417778"></ellipse>
                <ellipse id="Oval" fill="#FFA3D5" fill-rule="nonzero" cx="229.578222" cy="5.26674444" rx="5.20417778" ry="5.20417778"></ellipse>
                <circle id="Oval" fill="#FFA3D5" fill-rule="nonzero" cx="43.4217778" cy="191.421778" r="5.20417778"></circle>
                <ellipse id="Oval" fill="#FFA3D5" fill-rule="nonzero" cx="43.4217778" cy="153.266744" rx="5.20417778" ry="5.20417778"></ellipse>
                <ellipse id="Oval" fill="#FFA3D5" fill-rule="nonzero" cx="5.26674444" cy="191.421778" rx="5.20417778" ry="5.20417778"></ellipse>
                <ellipse id="Oval" fill="#FFA3D5" fill-rule="nonzero" cx="5.26674444" cy="153.266744" rx="5.20417778" ry="5.20417778"></ellipse>
                <ellipse id="Oval" fill="#FFA3D5" fill-rule="nonzero" cx="119.733256" cy="191.421778" rx="5.20417778" ry="5.20417778"></ellipse>
                <ellipse id="Oval" fill="#FFA3D5" fill-rule="nonzero" cx="119.733256" cy="153.266744" rx="5.20417778" ry="5.20417778"></ellipse>
                <ellipse id="Oval" fill="#FFA3D5" fill-rule="nonzero" cx="81.5782222" cy="191.421778" rx="5.20417778" ry="5.20417778"></ellipse>
                <ellipse id="Oval" fill="#FFA3D5" fill-rule="nonzero" cx="81.5782222" cy="153.266744" rx="5.20417778" ry="5.20417778"></ellipse>
                <circle id="Oval" fill="#FFA3D5" fill-rule="nonzero" cx="191.421778" cy="191.421778" r="5.20417778"></circle>
                <ellipse id="Oval" fill="#FFA3D5" fill-rule="nonzero" cx="191.421778" cy="153.266744" rx="5.20417778" ry="5.20417778"></ellipse>
                <ellipse id="Oval" fill="#FFA3D5" fill-rule="nonzero" cx="153.266744" cy="191.421778" rx="5.20417778" ry="5.20417778"></ellipse>
                <ellipse id="Oval" fill="#FFA3D5" fill-rule="nonzero" cx="153.266744" cy="153.266744" rx="5.20417778" ry="5.20417778"></ellipse>
                <ellipse id="Oval" fill="#FFA3D5" fill-rule="nonzero" cx="339.421778" cy="5.26674444" rx="5.20417778" ry="5.20417778"></ellipse>
                <ellipse id="Oval" fill="#FFA3D5" fill-rule="nonzero" cx="301.266744" cy="5.26674444" rx="5.20417778" ry="5.20417778"></ellipse>
                <ellipse id="Oval" fill="#FFA3D5" fill-rule="nonzero" cx="415.733256" cy="81.5782222" rx="5.20276667" ry="5.20276667"></ellipse>
                <circle id="Oval" fill="#FFA3D5" fill-rule="nonzero" cx="415.733256" cy="119.733256" r="5.20417778"></circle>
                <ellipse id="Oval" fill="#FFA3D5" fill-rule="nonzero" cx="415.733256" cy="43.4217778" rx="5.20417778" ry="5.20417778"></ellipse>
                <ellipse id="Oval" fill="#FFA3D5" fill-rule="nonzero" cx="415.733256" cy="5.26674444" rx="5.20417778" ry="5.20417778"></ellipse>
                <ellipse id="Oval" fill="#FFA3D5" fill-rule="nonzero" cx="377.578222" cy="43.4217778" rx="5.20417778" ry="5.20417778"></ellipse>
                <ellipse id="Oval" fill="#FFA3D5" fill-rule="nonzero" cx="377.578222" cy="5.26674444" rx="5.20417778" ry="5.20417778"></ellipse>
                <circle id="Oval" fill="#FFA3D5" fill-rule="nonzero" cx="377.578222" cy="81.5782222" r="5.20276667"></circle>
                <ellipse id="Oval" fill="#FFA3D5" fill-rule="nonzero" cx="377.578222" cy="119.733256" rx="5.20417778" ry="5.20417778"></ellipse>
                <ellipse id="Oval" fill="#FFA3D5" fill-rule="nonzero" cx="487.581778" cy="81.5782222" rx="5.20276667" ry="5.20276667"></ellipse>
                <ellipse id="Oval" fill="#FFA3D5" fill-rule="nonzero" cx="487.581778" cy="119.733256" rx="5.20417778" ry="5.20417778"></ellipse>
                <circle id="Oval" fill="#FFA3D5" fill-rule="nonzero" cx="487.581778" cy="43.4217778" r="5.20417778"></circle>
                <ellipse id="Oval" fill="#FFA3D5" fill-rule="nonzero" cx="487.581778" cy="5.26674444" rx="5.20417778" ry="5.20417778"></ellipse>
                <ellipse id="Oval" fill="#FFA3D5" fill-rule="nonzero" cx="449.426744" cy="81.5782222" rx="5.20276667" ry="5.20276667"></ellipse>
                <ellipse id="Oval" fill="#FFA3D5" fill-rule="nonzero" cx="449.426744" cy="119.733256" rx="5.20417778" ry="5.20417778"></ellipse>
                <ellipse id="Oval" fill="#FFA3D5" fill-rule="nonzero" cx="449.426744" cy="43.4217778" rx="5.20417778" ry="5.20417778"></ellipse>
                <ellipse id="Oval" fill="#FFA3D5" fill-rule="nonzero" cx="449.426744" cy="5.26674444" rx="5.20417778" ry="5.20417778"></ellipse>
                <ellipse id="Oval" fill="#FFA3D5" fill-rule="nonzero" cx="563.893256" cy="81.5782222" rx="5.20276667" ry="5.20276667"></ellipse>
                <circle id="Oval" fill="#FFA3D5" fill-rule="nonzero" cx="563.893256" cy="119.733256" r="5.20417778"></circle>
                <ellipse id="Oval" fill="#FFA3D5" fill-rule="nonzero" cx="563.893256" cy="43.4217778" rx="5.20417778" ry="5.20417778"></ellipse>
                <ellipse id="Oval" fill="#FFA3D5" fill-rule="nonzero" cx="563.893256" cy="5.26674444" rx="5.20417778" ry="5.20417778"></ellipse>
                <ellipse id="Oval" fill="#FFA3D5" fill-rule="nonzero" cx="525.738222" cy="43.4217778" rx="5.20417778" ry="5.20417778"></ellipse>
                <ellipse id="Oval" fill="#FFA3D5" fill-rule="nonzero" cx="525.738222" cy="5.26674444" rx="5.20417778" ry="5.20417778"></ellipse>
                <circle id="Oval" fill="#FFA3D5" fill-rule="nonzero" cx="525.738222" cy="81.5782222" r="5.20276667"></circle>
                <ellipse id="Oval" fill="#FFA3D5" fill-rule="nonzero" cx="525.738222" cy="119.733256" rx="5.20417778" ry="5.20417778"></ellipse>
                <circle id="Oval" fill="#FFA3D5" fill-rule="nonzero" cx="339.421778" cy="191.421778" r="5.20417778"></circle>
                <ellipse id="Oval" fill="#FFA3D5" fill-rule="nonzero" cx="339.421778" cy="153.266744" rx="5.20417778" ry="5.20417778"></ellipse>
                <ellipse id="Oval" fill="#FFA3D5" fill-rule="nonzero" cx="301.266744" cy="191.421778" rx="5.20417778" ry="5.20417778"></ellipse>
                <ellipse id="Oval" fill="#FFA3D5" fill-rule="nonzero" cx="415.733256" cy="191.421778" rx="5.20417778" ry="5.20417778"></ellipse>
                <ellipse id="Oval" fill="#FFA3D5" fill-rule="nonzero" cx="415.733256" cy="153.266744" rx="5.20417778" ry="5.20417778"></ellipse>
                <ellipse id="Oval" fill="#FFA3D5" fill-rule="nonzero" cx="377.578222" cy="191.421778" rx="5.20417778" ry="5.20417778"></ellipse>
                <ellipse id="Oval" fill="#FFA3D5" fill-rule="nonzero" cx="377.578222" cy="153.266744" rx="5.20417778" ry="5.20417778"></ellipse>
                <circle id="Oval" fill="#FFA3D5" fill-rule="nonzero" cx="487.581778" cy="191.421778" r="5.20417778"></circle>
                <ellipse id="Oval" fill="#FFA3D5" fill-rule="nonzero" cx="487.581778" cy="153.266744" rx="5.20417778" ry="5.20417778"></ellipse>
                <ellipse id="Oval" fill="#FFA3D5" fill-rule="nonzero" cx="449.426744" cy="191.421778" rx="5.20417778" ry="5.20417778"></ellipse>
                <ellipse id="Oval" fill="#FFA3D5" fill-rule="nonzero" cx="449.426744" cy="153.266744" rx="5.20417778" ry="5.20417778"></ellipse>
                <ellipse id="Oval" fill="#FFA3D5" fill-rule="nonzero" cx="563.893256" cy="191.421778" rx="5.20417778" ry="5.20417778"></ellipse>
                <ellipse id="Oval" fill="#FFA3D5" fill-rule="nonzero" cx="563.893256" cy="153.266744" rx="5.20417778" ry="5.20417778"></ellipse>
                <ellipse id="Oval" fill="#FFA3D5" fill-rule="nonzero" cx="525.738222" cy="191.421778" rx="5.20417778" ry="5.20417778"></ellipse>
                <ellipse id="Oval" fill="#FFA3D5" fill-rule="nonzero" cx="525.738222" cy="153.266744" rx="5.20417778" ry="5.20417778"></ellipse>
                <g id="noun_927547_cc-copy-2" transform="translate(148.000000, 0.000000)"></g>
                <g id="noun_927547_cc-copy-3" transform="translate(148.000000, 148.000000)"></g>
                <g id="noun_927547_cc-copy-5" transform="translate(296.000000, 0.000000)"></g>
                <g id="noun_927547_cc-copy-6" transform="translate(444.160000, 0.000000)"></g>
                <g id="noun_927547_cc-copy-4" transform="translate(296.000000, 148.000000)"></g>
                <g id="noun_927547_cc-copy-7" transform="translate(444.160000, 148.000000)"></g>
                <polyline id="Path-13" stroke="#FFA2D5" stroke-width="6" points="377.08513 119.39024 449.697618 119.39024 449.697618 152.757574 489.005135 152.757574 526.984204 152.757574 590.292497 152.757574"></polyline>
                <polyline id="Path-14" stroke="#FFA2D5" stroke-width="6" points="416.446896 119.616298 416.446896 81.6205387 488.12727 81.2963699 488.12727 43.6247791 525.654403 43.6247791 598.408475 43.6247791"></polyline>
            </g>
            <g id="Group" transform="translate(232.000000, 51.000000)">
                <rect id="Rectangle-8" stroke="#FFDF0F" stroke-width="10" x="5" y="5" width="55" height="55" rx="10"></rect>
                <path d="M18.68,47 L29.16,17.28 L35.36,17.28 L45.84,47 L39.24,47 L37.04,40.4 L26.96,40.4 L24.68,47 L18.68,47 Z M28.56,35.68 L35.52,35.68 L32.12,25.6 L32.04,25.6 L28.56,35.68 Z" id="A" fill="#FFDF0F"></path>
            </g>
            <g id="Group-2" transform="translate(305.000000, 51.000000)">
                <rect id="Rectangle-8-Copy" stroke="#4BDCF5" stroke-width="10" x="5" y="5" width="55" height="55" rx="10"></rect>
                <path d="M22.04,48 L22.04,18.4 L32.8,18.4 C39.12,18.4 44.88,20.08 44.88,27.88 C44.88,35.84 38.64,37.48 32.72,37.48 L28.52,37.48 L28.52,48 L22.04,48 Z M28.52,32.44 L32.96,32.44 C37,32.44 38.52,30.88 38.52,28.04 C38.52,25.28 37.04,23.72 32.96,23.72 L28.52,23.72 L28.52,32.44 Z" id="P" fill="#4BDCF5"></path>
            </g>
            <g id="Group-4" transform="translate(232.000000, 124.000000)">
                <rect id="Rectangle-8-Copy-2" stroke="#49F19C" stroke-width="10" x="5" y="5" width="55" height="54" rx="10"></rect>
                <polygon id="I" fill="#49F19C" points="29.36 47 35.84 47 35.84 17.4 29.36 17.4"></polygon>
            </g>
            <g id="Page-1" transform="translate(44.251152, 140.264350) scale(-1, 1) rotate(19.000000) translate(-44.251152, -140.264350) translate(-80.248848, 80.264350)">
                <g id="Group-3" transform="translate(-0.000000, 0.202515)">
                    <mask id="mask-2" fill="white">
                        <use xlink:href="#path-1"></use>
                    </mask>
                    <g id="Clip-2"></g>
                    <polygon id="Fill-1" fill="#373FFF" mask="url(#mask-2)" points="-3.99639761 122.719829 252.692362 122.719829 252.692362 -3.13808772 -3.99639761 -3.13808772"></polygon>
                </g>
                <g id="Group-6" transform="translate(63.844760, 30.950709)">
                    <mask id="mask-4" fill="white">
                        <use xlink:href="#path-3"></use>
                    </mask>
                    <g id="Clip-5"></g>
                    <polygon id="Fill-4" fill="#FFFFFF" mask="url(#mask-4)" points="-3.8821907 50.2401517 17.4615276 50.2401517 17.4615276 -3.46582525 -3.8821907 -3.46582525"></polygon>
                </g>
                <g id="Group-9" transform="translate(80.209389, 29.630448)">
                    <mask id="mask-6" fill="white">
                        <use xlink:href="#path-5"></use>
                    </mask>
                    <g id="Clip-8"></g>
                    <polygon id="Fill-7" fill="#FFFFFF" mask="url(#mask-6)" points="-3.97500844 60.359365 130.19391 60.359365 130.19391 -3.90321397 -3.97500844 -3.90321397"></polygon>
                </g>
                <g id="Group-12" transform="translate(22.740065, 42.651775)">
                    <mask id="mask-8" fill="white">
                        <use xlink:href="#path-7"></use>
                    </mask>
                    <g id="Clip-11"></g>
                    <polygon id="Fill-10" fill="#373FFF" mask="url(#mask-8)" points="-3.18698638 27.8219673 28.0839806 27.8219673 28.0839806 -3.61776574 -3.18698638 -3.61776574"></polygon>
                </g>
                <g id="Group-15" transform="translate(22.740065, 42.651775)">
                    <mask id="mask-10" fill="white">
                        <use xlink:href="#path-9"></use>
                    </mask>
                    <g id="Clip-14"></g>
                    <polygon id="Fill-13" fill="#FFFFFF" mask="url(#mask-10)" points="-3.18698638 27.8219673 28.0839806 27.8219673 28.0839806 -3.61776574 -3.18698638 -3.61776574"></polygon>
                </g>
                <g id="Group-18" transform="translate(26.736463, 55.028108)">
                    <mask id="mask-12" fill="white">
                        <use xlink:href="#path-11"></use>
                    </mask>
                    <g id="Clip-17"></g>
                    <polygon id="Fill-16" fill="#FFFFFF" mask="url(#mask-12)" points="-3.30927052 8.91530857 9.55898908 8.91530857 9.55898908 -3.44174785 -3.30927052 -3.44174785"></polygon>
                </g>
            </g>
        </g>
    </g>
</svg>