<?xml version="1.0" encoding="UTF-8"?>
<svg width="119px" height="75px" viewBox="0 0 119 75" version="1.1" xmlns="http://www.w3.org/2000/svg" xmlns:xlink="http://www.w3.org/1999/xlink">
    <!-- Generator: Sketch 42 (36781) - http://www.bohemiancoding.com/sketch -->
    <title>fogcreek</title>
    <desc>Created with Sketch.</desc>
    <defs></defs>
    <g id="home" stroke="none" stroke-width="1" fill="none" fill-rule="evenodd">
        <g id="fogcreek">
            <g id="fogcreek-copy" transform="translate(0.000000, -9.000000)">
                <g id="6d561a98-036e-47a6-b152-a2a66a73d13e-fc-logo" transform="translate(0.000000, 25.276389)" fill-rule="nonzero">
                    <g id="fc-logo">
                        <g id="Page-1">
                            <g id="fc-logo">
                                <path d="M3.49621505,31.6050108 C7.18139785,30.2142581 11.6823226,29.1290968 16.6740645,29.5631613 C21.7094624,30.2192473 27.1920215,32.1725376 32.576043,35.5265591 C38.8637419,39.6295914 45.8449462,41.5286237 51.7952473,41.0889462 C54.0011183,40.9193118 56.0591828,40.5052043 57.9575914,39.8990108 L57.9575914,6.38374194 C57.9575914,3.01974194 55.1654839,0.291870968 51.7210323,0.291870968 L6.53778495,0.291870968 C3.09333333,0.291870968 0.301225806,3.01974194 0.301225806,6.38374194 L0.301225806,33.1722581 C1.26477419,32.6234409 2.31376344,32.0895914 3.49621505,31.6050108" id="Fill-19" fill="#7C9095"></path>
                                <path d="M16.6740645,29.5631613 C21.7094624,30.2192473 27.1920215,32.1725376 32.576043,35.5265591 C38.8643656,39.6295914 45.8449462,41.5286237 51.7952473,41.0889462 C52.2947957,41.0509032 52.7843656,40.9953978 53.2689462,40.9330323 L53.2689462,7.91731183 C53.2689462,6.23531183 51.8725806,4.872 50.1506667,4.872 L8.10815054,4.872 C6.38623656,4.872 4.98987097,6.23531183 4.98987097,7.91731183 L4.98987097,31.0761505 C8.37195699,29.9560645 12.3377849,29.1864731 16.6740645,29.5631613" id="Fill-20" fill="#DEE4E1"></path>
                                <path d="M57.9575914,51.7634409 L57.9575914,43.4463656 C57.2965161,43.8536129 56.5949032,44.2633548 55.8914194,44.6306882 C52.4694194,46.6270108 47.8967742,47.8344086 42.6212688,47.5606237 C37.5054194,47.2806022 31.8320215,45.1770108 27.0467097,41.5236344 C22.9274624,38.5126237 18.5344301,36.5212903 14.3447097,35.5284301 C10.1612258,34.703957 6.18853763,35.0450968 2.86819355,35.6936989 C1.94019355,35.8988817 1.09202151,36.1408602 0.301225806,36.4009247 L0.301225806,51.7634409 C0.301225806,55.2078925 3.09333333,58 6.53778495,58 L51.7210323,58 C55.1654839,58 57.9575914,55.2078925 57.9575914,51.7634409" id="Fill-21" fill="#006592"></path>
                                <path d="M51.7952473,41.0677419 C45.8449462,41.5067957 38.8637419,39.6083871 32.576043,35.5047312 C27.1920215,32.1513333 21.7094624,30.198043 16.6740645,29.541957 C11.6823226,29.1078925 7.18139785,30.1930538 3.49621505,31.5831828 C2.31376344,32.0683871 1.26477419,32.6022366 0.301849462,33.1504301 L0.301849462,36.3790968 C1.09264516,36.1196559 1.9408172,35.8776774 2.86819355,35.6724946 C6.18853763,35.0238925 10.1612258,34.682129 14.3447097,35.5072258 C18.5344301,36.500086 22.9274624,38.4914194 27.0467097,41.5024301 C31.8320215,45.1558065 37.5054194,47.2593978 42.6212688,47.5394194 C47.8967742,47.8132043 52.4694194,46.6058065 55.8914194,44.6094839 C56.5949032,44.2415269 57.2958925,43.8324086 57.9569677,43.4251613 L57.9569677,39.8778065 C56.0591828,40.484 54.0011183,40.8981075 51.7952473,41.0677419" id="Fill-22" fill="#FFFFFF"></path>
                            </g>
                        </g>
                    </g>
                </g>
                <g id="happyguy" transform="translate(60.223611, 27.500000) rotate(-315.000000) translate(-60.223611, -27.500000) translate(36.223611, 13.000000)">
                    <g id="logo-default-avatar-box" transform="translate(9.641026, -0.000000)" fill="#CFA2FF">
                        <path d="M3.67564103,0.54375 L24.4641026,0.54375 C26.4525641,0.54375 28.0794872,2.175 28.0794872,4.16875 L28.0794872,25.0125 C28.0794872,27.00625 26.4525641,28.6375 24.4641026,28.6375 L3.67564103,28.6375 C1.68717949,28.6375 0.0602564103,27.00625 0.0602564103,25.0125 L0.0602564103,4.16875 C0.0602564103,2.175 1.68717949,0.54375 3.67564103,0.54375 L3.67564103,0.54375 Z" id="Shape"></path>
                    </g>
                    <g id="Oval-138" transform="translate(15.064103, 10.270833)" fill="#222222">
                        <ellipse id="Oval" cx="2.28974359" cy="2.35625" rx="2.28974359" ry="2.29583333"></ellipse>
                    </g>
                    <g id="Oval-138-Copy" transform="translate(28.320513, 10.270833)" fill="#222222">
                        <ellipse id="Oval" cx="2.28974359" cy="2.35625" rx="2.28974359" ry="2.29583333"></ellipse>
                    </g>
                    <g id="Path-1550" transform="translate(19.282051, 15.104167)" fill="#222222">
                        <path d="M4.51923077,4.22916667 C2.71153846,4.22916667 1.26538462,3.50416667 0.542307692,2.83958333 C-0.0602564103,2.29583333 -0.180769231,1.32916667 0.361538462,0.725 C0.903846154,0.120833333 1.86794872,1.94622096e-13 2.47051282,0.54375 C2.65128205,0.725 4.39871795,1.99375 6.74871795,0.422916667 C7.41153846,-0.0604166667 8.37564103,0.120833333 8.85769231,0.845833333 C9.33974359,1.57083333 9.15897436,2.47708333 8.43589744,2.96041667 C7.05,3.86666667 5.72435897,4.22916667 4.51923077,4.22916667 L4.51923077,4.22916667 Z" id="Shape"></path>
                    </g>
                    <g id="Oval-138-Copy-3" transform="translate(42.179487, 7.854167)" fill="#CFA2FF">
                        <ellipse id="Oval" cx="2.53076923" cy="2.29583333" rx="2.28974359" ry="2.29583333"></ellipse>
                    </g>
                    <g id="Oval-138-Copy-4" transform="translate(0.000000, 12.687500)" fill="#CFA2FF">
                        <ellipse id="Oval" cx="2.77179487" cy="2.77916667" rx="2.28974359" ry="2.29583333"></ellipse>
                    </g>
                    <g id="Path-6-Copy" transform="translate(36.153846, 10.875000)" fill="#CFA2FF">
                        <path d="M0.301282051,9.96875 L0.301282051,6.94791667 C5.06153846,6.94791667 6.56794872,0.54375 6.56794872,0.483333333 L9.52051282,1.14791667 C9.46025641,1.51041667 7.53205128,9.96875 0.301282051,9.96875 L0.301282051,9.96875 Z" id="Shape"></path>
                    </g>
                    <g id="Path-7-Copy" transform="translate(1.205128, 15.104167)" fill="#CFA2FF">
                        <path d="M8.55641026,6.76666667 C7.47179487,6.76666667 2.47051282,6.46458333 0.0602564103,1.26875 L2.77179487,3.23296945e-13 C4.57948718,3.92708333 8.55641026,3.74583333 8.61666667,3.74583333 L8.7974359,6.76666667 C8.73717949,6.76666667 8.61666667,6.76666667 8.55641026,6.76666667 L8.55641026,6.76666667 Z" id="Shape"></path>
                    </g>
                </g>
                <g id="happyguy-copy-2" transform="translate(100.223611, 57.500000) rotate(-45.000000) translate(-100.223611, -57.500000) translate(76.223611, 43.000000)">
                    <g id="logo-default-avatar-box" transform="translate(9.641026, 0.000000)" fill="#CFA2FF">
                        <path d="M3.67564103,0.54375 L24.4641026,0.54375 C26.4525641,0.54375 28.0794872,2.175 28.0794872,4.16875 L28.0794872,25.0125 C28.0794872,27.00625 26.4525641,28.6375 24.4641026,28.6375 L3.67564103,28.6375 C1.68717949,28.6375 0.0602564103,27.00625 0.0602564103,25.0125 L0.0602564103,4.16875 C0.0602564103,2.175 1.68717949,0.54375 3.67564103,0.54375 L3.67564103,0.54375 Z" id="Shape"></path>
                    </g>
                    <g id="Oval-138" transform="translate(15.064103, 10.270833)" fill="#222222">
                        <ellipse id="Oval" cx="2.28974359" cy="2.35625" rx="2.28974359" ry="2.29583333"></ellipse>
                    </g>
                    <g id="Oval-138-Copy" transform="translate(28.320513, 10.270833)" fill="#222222">
                        <ellipse id="Oval" cx="2.28974359" cy="2.35625" rx="2.28974359" ry="2.29583333"></ellipse>
                    </g>
                    <g id="Path-1550" transform="translate(19.282051, 15.104167)" fill="#222222">
                        <path d="M4.51923077,4.22916667 C2.71153846,4.22916667 1.26538462,3.50416667 0.542307692,2.83958333 C-0.0602564103,2.29583333 -0.180769231,1.32916667 0.361538462,0.725 C0.903846154,0.120833333 1.86794872,3.50941498e-13 2.47051282,0.54375 C2.65128205,0.725 4.39871795,1.99375 6.74871795,0.422916667 C7.41153846,-0.0604166667 8.37564103,0.120833333 8.85769231,0.845833333 C9.33974359,1.57083333 9.15897436,2.47708333 8.43589744,2.96041667 C7.05,3.86666667 5.72435897,4.22916667 4.51923077,4.22916667 L4.51923077,4.22916667 Z" id="Shape"></path>
                    </g>
                    <g id="Oval-138-Copy-3" transform="translate(42.179487, 7.854167)" fill="#CFA2FF">
                        <ellipse id="Oval" cx="2.53076923" cy="2.29583333" rx="2.28974359" ry="2.29583333"></ellipse>
                    </g>
                    <g id="Oval-138-Copy-4" transform="translate(0.000000, 12.687500)" fill="#CFA2FF">
                        <ellipse id="Oval" cx="2.77179487" cy="2.77916667" rx="2.28974359" ry="2.29583333"></ellipse>
                    </g>
                    <g id="Path-6-Copy" transform="translate(36.153846, 10.875000)" fill="#CFA2FF">
                        <path d="M0.301282051,9.96875 L0.301282051,6.94791667 C5.06153846,6.94791667 6.56794872,0.54375 6.56794872,0.483333333 L9.52051282,1.14791667 C9.46025641,1.51041667 7.53205128,9.96875 0.301282051,9.96875 L0.301282051,9.96875 Z" id="Shape"></path>
                    </g>
                    <g id="Path-7-Copy" transform="translate(1.205128, 15.104167)" fill="#CFA2FF">
                        <path d="M8.55641026,6.76666667 C7.47179487,6.76666667 2.47051282,6.46458333 0.0602564103,1.26875 L2.77179487,3.12638804e-13 C4.57948718,3.92708333 8.55641026,3.74583333 8.61666667,3.74583333 L8.7974359,6.76666667 C8.73717949,6.76666667 8.61666667,6.76666667 8.55641026,6.76666667 L8.55641026,6.76666667 Z" id="Shape"></path>
                    </g>
                </g>
            </g>
        </g>
    </g>
</svg>