<svg xmlns="http://www.w3.org/2000/svg" width="96" height="32" xmlns:xlink="http://www.w3.org/1999/xlink">
  <defs>
    <path id="path-1" d="M16.113 3.713s-.992 0-3.952.154c-2.95.154-5.59 1.47-9.11 4.24C-.47 10.88.03 13.655.03 13.655s3.282 1.112 3.282 1.713c0 .602-2.874 1.314-2.874 1.314 1.85 2.373 7.596 4.586 9.048 4.586 1.392 0 2.365.038 4.124-.29.132.294 1.504 3.202 4.304 3.804 2.952.635 4.585.136 4.585.136s.14-1.304-.53-2.605c2.56.253 5.46.317 8.3-.114 7.89-1.2 11.79-3.1 13.06-3.35.59-.12 2.48.57 4.38 1.26 2.18.79 4.38 1.59 4.61 1.15.44-.82-1.6-2.61-.65-5.02.95-2.42-1.17-4.01 0-5.93 1.18-1.93.94-4.87.64-5.02-.325-.17-2.225.61-4.22 1.4-1.97.77-4.03 1.54-4.775 1.41-3.694-.69-3.016-1.13-7.99-2.26-1.99-.45-1.71-.19-2.15-.52-.436-.34-.854-.24-1.71-1.63S20.7.17 20.02.17c-1.352 0-3.93 3.524-3.93 3.524z"/>
    <path id="path-3" d="M.205.29c-.226.24-.238.644-.025.9.01.01.03.037.06.076.053.068.112.15.177.24.185.26.37.55.544.864.41.738.68 1.473.75 2.143.04.366.01.81-.07 1.316-.08.51-.22 1.07-.4 1.65-.11.35-.22.68-.34.99l-.12.29c-.02.05-.03.08-.04.09-.13.31-.02.7.26.85.28.15.62.02.75-.29.04-.09.1-.24.18-.44.13-.33.26-.7.38-1.08.2-.64.36-1.26.45-1.85.1-.62.14-1.19.08-1.69-.08-.89-.41-1.8-.91-2.68-.2-.35-.41-.68-.62-.98C1.16.52 1.06.39 1 .32.89.185.74.12.59.12.453.12.315.176.207.29z"/>
    <path id="path-5" d="M.245.955l.047.106c.04.09.084.2.13.32.138.34.275.71.403 1.09.202.61.36 1.2.46 1.75.036.21.064.4.083.59.054.54-.067 1.48-.33 2.66-.09.42-.2.86-.32 1.32-.148.55-.306 1.1-.464 1.62L.1 10.9l-.04.13-.01.044c-.11.33.04.696.33.82.29.124.62-.043.72-.37l.02-.05c.02-.04.03-.09.05-.14l.16-.507c.17-.533.33-1.1.48-1.674.13-.472.24-.93.34-1.37.297-1.322.43-2.375.36-3.112-.02-.23-.056-.46-.1-.7-.11-.62-.286-1.27-.51-1.94-.074-.23-.15-.45-.233-.66l.278.02 2.64.14.84.05c.76.045 1.395.084 1.883.12 1.836.13 4.67.56 6.832 1 3.32.67 6.023 1.663 10.322 3.596l1.48.67c.29.13.616-.03.73-.356.115-.33-.026-.7-.314-.83l-1.48-.67c-4.39-1.982-7.155-3-10.565-3.69C12.108.966 9.236.53 7.35.396 6.854.366 6.214.323 5.453.276L4.61.23C3.77.18 2.87.132 1.97.084L1.097.04.854.03.768.024H.742C.324.024.05.527.245.954z"/>
    <path id="path-7" d="M.175 2.56c0 1.407 1.1 2.548 2.457 2.548 1.358 0 2.458-1.14 2.458-2.55C5.09 1.153 3.99.01 2.632.01 1.275.01.175 1.152.175 2.56z"/>
    <path id="path-9" d="M.175 2.56v.028C.188 1.514 1.03.648 2.07.648c1.046 0 1.894.88 1.894 1.964 0 1.086-.848 1.965-1.895 1.965-.93 0-1.69-.683-1.86-1.588.19 1.2 1.2 2.11 2.42 2.11 1.35 0 2.45-1.14 2.45-2.55C5.09 1.15 3.99.01 2.63.01 1.272.01.172 1.152.172 2.56z"/>
    <path id="path-11" d="M.15.578c0 .295.228.532.51.532.284 0 .513-.237.513-.532 0-.292-.23-.53-.512-.53-.28 0-.51.238-.51.53z"/>
  </defs>
  <g id="featured-banners-and-blog-posts" fill="none" fill-rule="evenodd">
    <g id="for-platforms-icon">
      <g id="6ce807b5-7214-49d7-aadd-f11803bc35fd%2Fplay-Copy-2" fill="#3459D0" fill-rule="nonzero" transform="translate(56.000000, 4.000000)">
        <rect id="Rectangle-path" width="40" height="24" rx="5"/>
      </g>
      <path id="API-Copy" fill="#FFF" d="M63 21l3.886-11h2.3l3.886 11h-2.448l-.816-2.443H66.07L65.225 21H63zm3.664-4.19h2.58l-1.26-3.73h-.03l-1.29 3.73zM74.45 21V10.044h3.99c2.345 0 4.48.622 4.48 3.51 0 2.945-2.313 3.552-4.508 3.552h-1.558V21H74.45zm2.404-5.76H78.5c1.5 0 2.062-.576 2.062-1.628 0-1.02-.548-1.6-2.06-1.6h-1.648v3.23zM84.597 21H87V10.044h-2.403V21z"/>
      <g id="Page-1-Copy-2">
        <g id="Group-3" transform="translate(27.500000, 15.500000) scale(-1, 1) rotate(19.000000) translate(-27.500000, -15.500000) translate(1.000000, 2.000000) translate(-0.000000, 0.042826)">
          <mask id="mask-2" fill="#fff">
            <use xlink:href="#path-1"/>
          </mask>
          <path id="Fill-1" fill="#3459D0" d="M-.845 25.952h54.282V-.664H-.845z" mask="url(#mask-2)"/>
        </g>
        <g id="Group-6" transform="translate(27.500000, 15.500000) scale(-1, 1) rotate(19.000000) translate(-27.500000, -15.500000) translate(1.000000, 2.000000) translate(13.501314, 6.545177)">
          <mask id="mask-4" fill="#fff">
            <use xlink:href="#path-3"/>
          </mask>
          <path id="Fill-4" fill="#FFF" d="M-.82 10.624h4.513V-.733H-.82z" mask="url(#mask-4)"/>
        </g>
        <g id="Group-9" transform="translate(27.500000, 15.500000) scale(-1, 1) rotate(19.000000) translate(-27.500000, -15.500000) translate(1.000000, 2.000000) translate(16.961959, 6.265980)">
          <mask id="mask-6" fill="#fff">
            <use xlink:href="#path-5"/>
          </mask>
          <path id="Fill-7" fill="#FFF" d="M-.84 12.764h28.37V-.826H-.84z" mask="url(#mask-6)"/>
        </g>
        <g id="Group-12" transform="translate(27.500000, 15.500000) scale(-1, 1) rotate(19.000000) translate(-27.500000, -15.500000) translate(1.000000, 2.000000) translate(4.808864, 9.019613)">
          <mask id="mask-8" fill="#fff">
            <use xlink:href="#path-7"/>
          </mask>
          <path id="Fill-10" fill="#3459D0" d="M-.674 5.884H5.94v-6.65H-.675z" mask="url(#mask-8)"/>
        </g>
        <g id="Group-15" transform="translate(27.500000, 15.500000) scale(-1, 1) rotate(19.000000) translate(-27.500000, -15.500000) translate(1.000000, 2.000000) translate(4.808864, 9.019613)">
          <mask id="mask-10" fill="#fff">
            <use xlink:href="#path-9"/>
          </mask>
          <path id="Fill-13" fill="#FFF" d="M-.674 5.884H5.94v-6.65H-.675z" mask="url(#mask-10)"/>
        </g>
        <g id="Group-18" transform="translate(27.500000, 15.500000) scale(-1, 1) rotate(19.000000) translate(-27.500000, -15.500000) translate(1.000000, 2.000000) translate(5.653986, 11.636848)">
          <mask id="mask-12" fill="#fff">
            <use xlink:href="#path-11"/>
          </mask>
          <path id="Fill-16" fill="#FFF" d="M-.7 1.885h2.72V-.728H-.7z" mask="url(#mask-12)"/>
        </g>
      </g>
    </g>
  </g>
</svg>
