<?xml version="1.0" encoding="UTF-8"?>
<svg width="52px" height="55px" viewBox="0 0 52 55" version="1.1" xmlns="http://www.w3.org/2000/svg" xmlns:xlink="http://www.w3.org/1999/xlink">
    <!-- Generator: Sketch 49.1 (51147) - http://www.bohemiancoding.com/sketch -->
    <title>new-stuff-doggo</title>
    <desc>Created with Sketch.</desc>
    <defs></defs>
    <g id="source-paths---vectors-to-modify" stroke="none" stroke-width="1" fill="none" fill-rule="evenodd">
        <g id="Artboard" transform="translate(-2154.000000, -2200.000000)">
            <g id="new-stuff-doggo" transform="translate(2155.000000, 2201.000000)">
                <path d="M14.6139163,0.264543483 C17.7510982,-0.374120981 22.4946412,0.264543483 25.5161828,0.903207946 C28.5377243,1.54187241 31.6375614,3.25915125 32.8941276,6.1650386 C34.1506939,9.07092595 34.9092888,13.9589254 34.5037385,16.6894912 C34.0981883,19.420057 31.0615505,23.4247229 30.3526691,24.8818712 C29.3349104,26.262983 28.3927136,27.5270476 27.6773165,28.320767 C26.9619193,29.1144863 23.647831,29.8945749 21.4118314,30.4989538 C19.1758319,31.1033326 16.0522734,30.4989538 14.6139163,30.4989538 C13.1755593,30.4989538 12.7144003,30.6497784 11.4065326,30.4989538 C10.0986649,30.3481291 7.0320449,28.1615165 6.7406116,26.783291 C6.54632274,25.8644741 6.69984035,24.6116159 7.20116445,23.0247164 C6.56986039,22.0224282 6.23350867,21.4735492 6.19210928,21.3780794 C4.80609213,18.1818294 4.090596,15.9910133 4.04562089,14.8056314 C3.99863073,13.5671396 4.05187341,12.6844793 4.20534895,12.1576505 C3.67125052,13.4401463 2.98045693,14.0813943 2.13296816,14.0813943 C0.861735008,14.0813943 0.574832147,13.2644482 0.203650626,12.1576505 C-0.167530895,11.0508527 -0.0157527739,9.30748049 0.532339408,7.50527807 C1.08043159,5.70307565 2.04252515,3.98947104 2.80264397,3.55135369 C5.40848621,2.0493981 6.7406116,1.72991899 8.31711211,2.0493981 C9.44416743,2.27779677 11.4767345,0.903207946 14.6139163,0.264543483 Z" id="Path-87-Copy" fill="#FFFFFF"></path>
                <path d="M6.70251383,30.7514181 L4.17778972,35.1261715 L2.38088871,42.3589954 L1.53837833,45.6952161 L1.53837833,49.4963497 L2.38088871,52.4454774 L5.07243068,52.4454774 L8.02663058,49.0623241 L12.3526668,49.0623241 L13.3792382,52.4454774 L16.6610587,53.0740523 L19.1015719,50.5003849 L20.5395739,51.0675865 L21.5031876,53.0740523 L31.3061428,51.9990167 L36.8367964,48.5669252 L36.8367964,45.6952161 C39.4852127,43.4564207 41.3350083,41.6035048 42.3861834,40.1364686 C43.4373584,38.6694324 43.9199774,37.2671941 43.8340404,35.9297538 L36.1263988,39.4496782 L32.7862503,33.8369309 L27.9749987,26.1524316 L6.70251383,30.7514181 Z" id="body-fill" fill="#FFFFFF"></path>
                <path d="M20.7681074,30.7632007 C23.0193274,32.9141006 24.5613751,34.5319478 25.3942505,35.6167422 C26.2271259,36.7015367 27.371151,37.5224281 28.826326,38.0794165 C28.9355558,39.8944475 29.336651,41.5627954 30.0296116,43.08446 C30.7225722,44.6061246 32.904683,46.6540068 36.5759438,49.2281065 L37.6902691,46.9003106 L35.879696,40.3821597 L34.2305136,34.6632667 L32.1732735,31.2193513 L29.2291882,27.6908099 L28.1352474,27.6908099 L24.2740652,30.1371779 L20.7681074,30.7632007 Z" id="Path-94" fill="#B97A57"></path>
                <path d="M13.0762158,1.53837833 C11.5921432,4.21941868 10.2486284,6.06937862 9.04567148,7.08825815 C7.02081943,8.80326578 8.14258302,13.2835273 5.5087472,15.3837833 C4.87747192,15.3837833 4.09430027,14.8327155 3.15923228,13.7305798 L0.734214481,13.7305798 L0,9.50439306 L1.04597435,7.08825815 L2.28784582,4.47581128 L5.5087472,2.68881836 L13.0762158,1.53837833 Z" id="Path-93" fill="#B97A57"></path>
                <path d="M14.6139163,0.264543483 C17.7510982,-0.374120981 22.4946412,0.264543483 25.5161828,0.903207946 C28.5377243,1.54187241 31.6375614,3.25915125 32.8941276,6.1650386 C34.1506939,9.07092595 34.9092888,13.9589254 34.5037385,16.6894912 C34.0981883,19.420057 31.0615505,23.4247229 30.3526691,24.8818712 C29.3349104,26.262983 28.3927136,27.5270476 27.6773165,28.320767 C26.9619193,29.1144863 23.647831,29.8945749 21.4118314,30.4989538 C19.1758319,31.1033326 16.0522734,30.4989538 14.6139163,30.4989538 C13.1755593,30.4989538 13.353761,30.240656 11.812439,29.7965242 C10.2711171,29.3523924 8.60854541,28.3483507 8.31711211,26.9701253 C8.12282324,26.0513083 7.75084069,24.736172 7.20116445,23.0247164 C6.56986039,22.0224282 6.23350867,21.4735492 6.19210928,21.3780794 C4.80609213,18.1818294 4.090596,15.9910133 4.04562089,14.8056314 C3.99863073,13.5671396 4.05187341,12.6844793 4.20534895,12.1576505 C3.67125052,13.4401463 2.98045693,14.0813943 2.13296816,14.0813943 C0.861735008,14.0813943 0.574832147,13.2644482 0.203650626,12.1576505 C-0.167530895,11.0508527 -0.0157527739,9.30748049 0.532339408,7.50527807 C1.08043159,5.70307565 2.04252515,3.98947104 2.80264397,3.55135369 C5.40848621,2.0493981 6.7406116,1.72991899 8.31711211,2.0493981 C9.44416743,2.27779677 11.4767345,0.903207946 14.6139163,0.264543483 Z" id="Path-87" stroke="#222222" stroke-width="1.5" stroke-linecap="round" stroke-linejoin="round"></path>
                <path d="M28.4369178,6.92270248 C27.5726749,10.114002 27.0852594,12.1048724 26.9746712,12.8953136 C26.8087889,14.0809753 26.9746712,14.995817 28.1058556,15.7552701 C29.23704,16.5147232 31.0537826,16.0512483 31.5516949,15.4882171 C31.8836363,15.1128629 32.6472795,14.2485617 33.8426244,12.8953136" id="Path-88" stroke="#222222" stroke-width="1.5" stroke-linecap="round" stroke-linejoin="round"></path>
                <path d="M8.42950327,28.4599991 C5.73980212,33.3211122 4.03940367,37.1906513 3.32830791,40.0686163 C2.26166427,44.3855638 0.823343957,49.7814266 1.94667535,51.4958005 C3.07000674,53.2101744 4.53054914,53.1680658 5.87829776,52.9929513 C7.09831901,52.5182803 8.47203947,49.3827788 9.99945914,43.5864468" id="Path-89" stroke="#222222" stroke-width="1.5" stroke-linecap="round" stroke-linejoin="round"></path>
                <path d="M8.46108081,48.8435119 L12.3070266,48.8435119" id="Path-90" stroke="#222222" stroke-width="1.5" stroke-linecap="round" stroke-linejoin="round"></path>
                <path d="M15.59695,43.0745932 C14.1432582,46.076958 13.3030134,48.5418338 13.0762158,50.4692207 C13.0762158,53.3910013 16.0202014,53.0630278 16.5342321,53.0630278 C17.0482629,53.0630278 19.0358349,52.0751469 19.7711113,49.5037961 C20.5063877,46.9324454 21.2685163,46.8033455 22.3064858,43.0745932" id="Path-91" stroke="#222222" stroke-width="1.5" stroke-linecap="round" stroke-linejoin="round"></path>
                <path d="M32.7018893,42.3445664 C31.7852029,44.7818146 31.2165878,46.9583572 30.9960439,48.8741944 C30.9960439,51.7784662 32.8349082,51.5303928 33.334765,51.5303928 C33.8346217,51.5303928 35.0323198,50.1576395 35.9912156,47.9316995 C36.8108112,46.029125 37.6512018,43.78978 38.3085525,40.5217415 C38.6742542,38.7036445 38.3409635,36.4639208 37.6779541,35.4376918 C36.469865,33.9123441 34.0342192,33.4879381 31.1492753,32.7383899 C28.1348269,31.9551946 25.7130046,31.6861482 24.1643528,31.5728646 C22.4831981,31.4498884 19.5563416,31.6410279 15.3837833,32.1462831" id="Path-91-Copy" stroke="#222222" stroke-width="1.5" stroke-linecap="round" stroke-linejoin="round" transform="translate(26.921621, 41.536215) rotate(-300.000000) translate(-26.921621, -41.536215) "></path>
                <path d="M38.1745871,44.6129715 C41.0931009,42.2084325 42.8957935,40.3787364 43.5826647,39.1238835 C44.2695359,37.8690305 44.6129715,35.8527807 44.6129715,33.0751341 C43.3922902,35.6416665 41.9816912,37.376742 40.3811747,38.2803607 C38.7806581,39.1839794 37.6272932,39.7922561 36.9210799,40.1051909" id="Path-92" stroke="#222222" stroke-width="1.5" stroke-linecap="round" stroke-linejoin="round"></path>
                <g id="Group-31" transform="translate(19.004129, 20.157777) rotate(14.000000) translate(-19.004129, -20.157777) translate(11.504129, 14.657777)">
                    <path d="M2.08779916,3.53526055 C3.2408588,3.42743585 4.17559832,2.63824721 4.17559832,1.77255838 C4.17559832,0.906869549 3.2408588,0.117680906 2.08779916,0.00985620913 C0.934739524,-0.0979684878 0,0.691220156 0,1.77255838 C0,2.8538966 0.934739524,3.64308525 2.08779916,3.53526055 Z" id="Oval-86" fill="#222222"></path>
                    <path d="M12.526795,3.53526055 C13.6798546,3.42743585 14.6145941,2.63824721 14.6145941,1.77255838 C14.6145941,0.906869549 13.6798546,0.117680906 12.526795,0.00985620913 C11.3737353,-0.0979684878 10.4389958,0.691220156 10.4389958,1.77255838 C10.4389958,2.8538966 11.3737353,3.64308525 12.526795,3.53526055 Z" id="Oval-86-Copy" fill="#222222"></path>
                    <g id="Group-15" transform="translate(2.087799, 3.915872)">
                        <ellipse id="Oval-85" fill="#222222" cx="5.2194979" cy="1.46845204" rx="2.08779916" ry="1.46845204"></ellipse>
                        <path d="M3.42049598,3.91117015 C4.27548709,3.60759362 4.93068983,3.448923 5.38610418,3.4351583 C5.84151854,3.42139359 6.22173572,3.54876909 6.5267557,3.81728478 L6.26339748,6.85277619 L4.17559832,6.85277619 L3.42049598,3.91117015 Z" id="Rectangle-11" fill="#FF8D90"></path>
                        <path d="M9.52609733,2.73834205 C9.03020381,3.32747601 8.45792017,3.91660998 7.44141177,3.91660998 C6.42490337,3.91660998 5.68327894,3.5902873 5.21653847,2.93764195" id="Path-95-Copy" stroke="#222222" stroke-width="1.5" stroke-linecap="round" stroke-linejoin="round"></path>
                        <path d="M4.83578831,2.77759603 C4.55154442,3.26708005 3.7371694,3.91476569 2.720661,3.91476569 C1.7041526,3.91476569 0.962528169,3.58844301 0.495787701,2.93579766" id="Path-95-Copy-2" stroke="#222222" stroke-width="1.5" stroke-linecap="round" stroke-linejoin="round" transform="translate(2.665788, 3.346181) scale(-1, 1) translate(-2.665788, -3.346181) "></path>
                        <path d="M6.74781765,4.21824553 L6.5927821,5.71881884 C6.5927821,6.34508619 5.83894956,6.85277619 4.97415483,6.85277619 C4.1093601,6.85277619 3.40830546,6.34508619 3.40830546,5.71881884 L3.54597576,4.15768717" id="Rectangle-10" stroke="#222222" stroke-width="1.5" stroke-linecap="round" stroke-linejoin="round"></path>
                    </g>
                </g>
                <path d="M41.5362149,31.5367557 C42.8022971,29.9983774 44.084279,29.2291882 45.3821607,29.2291882 C47.3289833,29.2291882 48.7430361,30.382972 49.2281065,31.5367557" id="Path-95" stroke="#222222" stroke-width="1.5" stroke-linecap="round" stroke-linejoin="round"></path>
                <path d="M45.3821607,24.6140533 C46.4301432,24.6312275 47.3331298,25.1184725 48.0911205,26.0757882 C48.8491112,27.0331039 49.2281065,28.0842373 49.2281065,29.2291882" id="Path-96" stroke="#222222" stroke-width="1.5" stroke-linecap="round" stroke-linejoin="round" transform="translate(47.305134, 26.921621) rotate(-22.000000) translate(-47.305134, -26.921621) "></path>
                <path d="M19.9989183,50.0594592 L21.2809002,50.4637962" id="Path-17" stroke="#222222" stroke-width="1.5" stroke-linecap="square" stroke-linejoin="round"></path>
            </g>
        </g>
    </g>
</svg>