<svg width="52" height="56" viewBox="0 0 52 56" xmlns="http://www.w3.org/2000/svg"><title>new-stuff-doggo</title><g fill="none" fill-rule="evenodd"><path d="M15.614 1.265c3.137-.64 7.88 0 10.902.638 3.022.639 6.122 2.356 7.378 5.262 1.257 2.906 2.015 7.794 1.61 10.524-.406 2.731-3.442 6.736-4.151 8.193-1.018 1.381-1.96 2.645-2.676 3.439-.715.793-4.03 1.574-6.265 2.178-2.236.604-5.36 0-6.798 0-1.438 0-1.9.15-3.207 0-1.308-.15-4.375-2.337-4.666-3.716-.195-.919-.041-2.171.46-3.758-.631-1.003-.967-1.551-1.009-1.647-1.386-3.196-2.101-5.387-2.146-6.572-.047-1.239.006-2.122.16-2.648C4.67 14.44 3.98 15.08 3.132 15.08c-1.271 0-1.558-.817-1.93-1.923-.37-1.107-.219-2.85.33-4.653.547-1.802 1.51-3.516 2.27-3.954C6.408 3.05 7.74 2.73 9.317 3.05c1.127.229 3.16-1.146 6.297-1.784z" fill="#FFF"/><path d="M7.703 31.751l-2.525 4.375L3.38 43.36l-.843 3.336v3.801l.843 2.95h2.691l2.955-3.384h4.326l1.026 3.383 3.282.63 2.44-2.575 1.439.568.963 2.006L32.306 53l5.53-3.432v-2.872c2.65-2.239 4.499-4.091 5.55-5.559 1.051-1.467 1.534-2.869 1.448-4.206l-7.708 3.52-3.34-5.613-4.811-7.685-21.272 4.6z" fill="#FFF"/><path d="M21.768 31.763c2.251 2.151 3.793 3.769 4.626 4.854.833 1.085 1.977 1.905 3.432 2.462.11 1.815.51 3.484 1.204 5.005.693 1.522 2.875 3.57 6.546 6.144L38.69 47.9l-1.81-6.518-1.65-5.719-2.057-3.444-2.944-3.528h-1.094l-3.86 2.446-3.507.626zM14.076 2.538c-1.484 2.681-2.827 4.531-4.03 5.55-2.025 1.715-.903 6.196-3.537 8.296-.632 0-1.415-.551-2.35-1.653H1.734L1 10.504l1.046-2.416 1.242-2.612 3.22-1.787 7.568-1.15z" fill="#B97A57"/><path d="M15.614 1.265c3.137-.64 7.88 0 10.902.638 3.022.639 6.122 2.356 7.378 5.262 1.257 2.906 2.015 7.794 1.61 10.524-.406 2.731-3.442 6.736-4.151 8.193-1.018 1.381-1.96 2.645-2.676 3.439-.715.793-4.03 1.574-6.265 2.178-2.236.604-5.36 0-6.798 0-1.438 0-1.26-.258-2.802-.702-1.54-.445-3.203-1.449-3.495-2.827-.194-.919-.566-2.234-1.116-3.945-.631-1.003-.967-1.551-1.009-1.647-1.386-3.196-2.101-5.387-2.146-6.572-.047-1.239.006-2.122.16-2.648C4.67 14.44 3.98 15.08 3.132 15.08c-1.271 0-1.558-.817-1.93-1.923-.37-1.107-.219-2.85.33-4.653.547-1.802 1.51-3.516 2.27-3.954C6.408 3.05 7.74 2.73 9.317 3.05c1.127.229 3.16-1.146 6.297-1.784z" stroke="#222" stroke-width="2" stroke-linecap="round" stroke-linejoin="round"/><path d="M29.437 7.923c-.864 3.191-1.352 5.182-1.462 5.972-.166 1.186 0 2.1 1.13 2.86 1.132.76 2.949.296 3.447-.267l2.29-2.593M9.43 29.46c-2.69 4.861-4.39 8.73-5.102 11.609-1.066 4.317-2.505 9.712-1.381 11.427 1.123 1.714 2.584 1.672 3.931 1.497 1.22-.475 2.594-3.61 4.121-9.407M9.461 49.844h3.846M16.597 44.075c-1.454 3.002-2.294 5.467-2.52 7.394 0 2.922 2.943 2.594 3.457 2.594.514 0 2.502-.988 3.237-3.56.735-2.57 1.498-2.7 2.535-6.428M30.112 47.946c-2.57.425-4.739 1.02-6.508 1.788-2.515 1.452-1.38 2.92-1.131 3.353.25.433 2.038.784 4.445.501 2.057-.241 4.417-.633 7.576-1.698 1.757-.592 3.53-2 4.087-3.088.717-1.809-.133-4.13-.926-7.003a38.846 38.846 0 0 0-2.483-6.632c-.735-1.518-2.364-3.957-4.887-7.318M39.173 45.613c2.919-2.405 4.722-4.234 5.409-5.49.686-1.254 1.03-3.27 1.03-6.048-1.22 2.567-2.631 4.302-4.232 5.205-1.6.904-2.754 1.512-3.46 1.825" stroke="#222" stroke-width="2" stroke-linecap="round" stroke-linejoin="round"/><path d="M15.228 17.942c1.145.174 2.243-.365 2.452-1.205.21-.84-.506-1.832-1.6-2.216-1.092-.383-2.19.156-2.451 1.206-.262 1.049.454 2.04 1.599 2.215zM25.357 20.467c1.145.175 2.243-.365 2.452-1.205.21-.84-.506-1.832-1.6-2.215-1.092-.384-2.19.156-2.451 1.205-.262 1.05.454 2.041 1.599 2.215z" fill="#222"/><g transform="rotate(14 -67 70.792)"><ellipse fill="#222" cx="5.219" cy="1.468" rx="2.088" ry="1.468"/><path d="M3.42 3.911c.855-.303 1.51-.462 1.966-.476.456-.014.836.114 1.14.382l-.263 3.036H4.176L3.42 3.91z" fill="#FF8D90"/><path d="M9.526 2.738c-.496.59-1.068 1.179-2.085 1.179-1.016 0-1.758-.327-2.224-.98M.496 2.778c.284.49 1.098 1.137 2.115 1.137 1.016 0 1.758-.327 2.225-.98M6.748 4.218l-.155 1.5c0 .627-.754 1.135-1.619 1.135s-1.566-.508-1.566-1.134l.138-1.561" stroke="#222" stroke-width="1.5" stroke-linecap="round" stroke-linejoin="round"/></g><path d="M42.536 32.537c1.266-1.539 2.548-2.308 3.846-2.308 1.947 0 3.361 1.154 3.846 2.308M45.658 26.502c.978-.376 1.998-.263 3.059.34 1.061.605 1.807 1.437 2.236 2.499" stroke="#222" stroke-width="1.5" stroke-linecap="round" stroke-linejoin="round"/><path d="M20.999 51.06l1.282.404" stroke="#222" stroke-width="2" stroke-linecap="square" stroke-linejoin="round"/></g></svg>