<svg width="10" height="12" viewBox="0 0 10 12" xmlns="http://www.w3.org/2000/svg" xmlns:sketch="http://www.bohemiancoding.com/sketch/ns"><title>private</title><desc>Created with Sketch.</desc><g sketch:type="MSLayerGroup" fill="none"><path d="M0 7.006c0-1.108.887-2.006 2-2.006h6.001c1.104 0 2 .887 2 2.006v2.988c0 1.108-.887 2.006-2 2.006h-6.001c-1.104 0-2-.887-2-2.006v-2.988zm5 1.994c.46 0 .833-.373.833-.833 0-.46-.373-.833-.833-.833-.46 0-.833.373-.833.833 0 .46.373.833.833.833z" fill="#AB933B" sketch:type="MSShapeGroup"/><path d="M2.235 6.632v-2.995c0-1.107.898-2.005 1.995-2.005h1.451c1.102 0 1.995.895 1.995 1.99v2.768" stroke="#AB933B" stroke-width="1.5" sketch:type="MSShapeGroup"/></g></svg>