<svg xmlns="http://www.w3.org/2000/svg" viewBox="0 0 47.4 48.1"><defs><style>.cls-1,.cls-3{fill:none;}.cls-1{stroke:#000;}.cls-2{fill:#8ef9c2;}.cls-3{stroke:#000222;}</style></defs><title>Artboard 2</title><g id="Layer_1" data-name="Layer 1"><path d="M11.5,41.8l-.3.3.4.3.7.6a2.3,2.3,0,0,1,.4,3.4,2.2,2.2,0,0,1-2,.7c-.6-.1-.8-.2-1.8-1.1L2.9,40.6A2.2,2.2,0,0,1,2.6,37l1.3-1.4a8.3,8.3,0,0,1,2-1.8,4.8,4.8,0,0,1,5.7.6,4.9,4.9,0,0,1,1.6,4.1,4.9,4.9,0,0,1-1.4,3ZM7.8,39l.2.2.2.2c.8-.8.9-1.2.5-1.7s-.8-.2-1.3.3l-.3.3Z"/><path d="M11.5,41.8l-.3.3.4.3.7.6a2.3,2.3,0,0,1,.4,3.4,2.2,2.2,0,0,1-2,.7c-.6-.1-.8-.2-1.8-1.1L2.9,40.6A2.2,2.2,0,0,1,2.6,37l1.3-1.4a8.3,8.3,0,0,1,2-1.8,4.8,4.8,0,0,1,5.7.6,4.9,4.9,0,0,1,1.6,4.1,4.9,4.9,0,0,1-1.4,3ZM7.8,39l.2.2.2.2c.8-.8.9-1.2.5-1.7s-.8-.2-1.3.3l-.3.3Z"/><path class="cls-1" d="M11.5,41.8l-.3.3.4.3.7.6a2.3,2.3,0,0,1,.4,3.4,2.2,2.2,0,0,1-2,.7c-.6-.1-.8-.2-1.8-1.1L2.9,40.6A2.2,2.2,0,0,1,2.6,37l1.3-1.4a8.3,8.3,0,0,1,2-1.8,4.8,4.8,0,0,1,5.7.6,4.9,4.9,0,0,1,1.6,4.1,4.9,4.9,0,0,1-1.4,3ZM7.8,39l.2.2.2.2c.8-.8.9-1.2.5-1.7s-.8-.2-1.3.3l-.3.3Z"/><path d="M10.5,40.8l-.3.3.4.3.7.6a2.3,2.3,0,0,1,.4,3.4,2.2,2.2,0,0,1-2,.7c-.6-.1-.8-.2-1.8-1.1L1.9,39.6A2.2,2.2,0,0,1,1.6,36l1.3-1.4a8.3,8.3,0,0,1,2-1.8,4.8,4.8,0,0,1,5.7.6,4.9,4.9,0,0,1,1.6,4.1,4.9,4.9,0,0,1-1.4,3ZM6.8,38l.2.2.2.2c.8-.8.9-1.2.5-1.7s-.8-.2-1.3.3l-.3.3Z"/><path class="cls-2" d="M10.5,40.8l-.3.3.4.3.7.6a2.3,2.3,0,0,1,.4,3.4,2.2,2.2,0,0,1-2,.7c-.6-.1-.8-.2-1.8-1.1L1.9,39.6A2.2,2.2,0,0,1,1.6,36l1.3-1.4a8.3,8.3,0,0,1,2-1.8,4.8,4.8,0,0,1,5.7.6,4.9,4.9,0,0,1,1.6,4.1,4.9,4.9,0,0,1-1.4,3ZM6.8,38l.2.2.2.2c.8-.8.9-1.2.5-1.7s-.8-.2-1.3.3l-.3.3Z"/><path class="cls-3" d="M10.5,40.8l-.3.3.4.3.7.6a2.3,2.3,0,0,1,.4,3.4,2.2,2.2,0,0,1-2,.7c-.6-.1-.8-.2-1.8-1.1L1.9,39.6A2.2,2.2,0,0,1,1.6,36l1.3-1.4a8.3,8.3,0,0,1,2-1.8,4.8,4.8,0,0,1,5.7.6,4.9,4.9,0,0,1,1.6,4.1,4.9,4.9,0,0,1-1.4,3ZM6.8,38l.2.2.2.2c.8-.8.9-1.2.5-1.7s-.8-.2-1.3.3l-.3.3Z"/><path d="M18.8,31c1.2-.2,1.3-.2,1.6-.4a.5.5,0,0,0,0-.8.7.7,0,0,0-.7-.2l-.8.3-1.2.5a3.9,3.9,0,0,1-4.8-.6c-1.9-1.9-1.7-4.6.4-6.7s4-2.2,5.2-1a1.7,1.7,0,0,1,.1,2.6,2.9,2.9,0,0,1-1.9.7c-.6.1-.8.2-1,.3a.6.6,0,0,0,0,.8c.3.3.6.2,1.6-.3a9.2,9.2,0,0,1,3.1-1,4.2,4.2,0,0,1,3.2,1.3A4.6,4.6,0,0,1,25,29.7a5,5,0,0,1-1.7,3.6c-2,2-4.7,2.5-6,1.2a2,2,0,0,1,0-2.9A2.4,2.4,0,0,1,18.8,31Z"/><path d="M18.8,31c1.2-.2,1.3-.2,1.6-.4a.5.5,0,0,0,0-.8.7.7,0,0,0-.7-.2l-.8.3-1.2.5a3.9,3.9,0,0,1-4.8-.6c-1.9-1.9-1.7-4.6.4-6.7s4-2.2,5.2-1a1.7,1.7,0,0,1,.1,2.6,2.9,2.9,0,0,1-1.9.7c-.6.1-.8.2-1,.3a.6.6,0,0,0,0,.8c.3.3.6.2,1.6-.3a9.2,9.2,0,0,1,3.1-1,4.2,4.2,0,0,1,3.2,1.3A4.6,4.6,0,0,1,25,29.7a5,5,0,0,1-1.7,3.6c-2,2-4.7,2.5-6,1.2a2,2,0,0,1,0-2.9A2.4,2.4,0,0,1,18.8,31Z"/><path class="cls-1" d="M18.8,31c1.2-.2,1.3-.2,1.6-.4a.5.5,0,0,0,0-.8.7.7,0,0,0-.7-.2l-.8.3-1.2.5a3.9,3.9,0,0,1-4.8-.6c-1.9-1.9-1.7-4.6.4-6.7s4-2.2,5.2-1a1.7,1.7,0,0,1,.1,2.6,2.9,2.9,0,0,1-1.9.7c-.6.1-.8.2-1,.3a.6.6,0,0,0,0,.8c.3.3.6.2,1.6-.3a9.2,9.2,0,0,1,3.1-1,4.2,4.2,0,0,1,3.2,1.3A4.6,4.6,0,0,1,25,29.7a5,5,0,0,1-1.7,3.6c-2,2-4.7,2.5-6,1.2a2,2,0,0,1,0-2.9A2.4,2.4,0,0,1,18.8,31Z"/><path d="M17.8,30c1.2-.2,1.3-.2,1.6-.4a.5.5,0,0,0,0-.8.7.7,0,0,0-.7-.2l-.8.3-1.2.5a3.9,3.9,0,0,1-4.8-.6c-1.9-1.9-1.7-4.6.4-6.7s4-2.2,5.2-1a1.7,1.7,0,0,1,.1,2.6,2.9,2.9,0,0,1-1.9.7c-.6.1-.8.2-1,.3a.6.6,0,0,0,0,.8c.3.3.6.2,1.6-.3a9.2,9.2,0,0,1,3.1-1,4.2,4.2,0,0,1,3.2,1.3A4.6,4.6,0,0,1,24,28.7a5,5,0,0,1-1.7,3.6c-2,2-4.7,2.5-6,1.2a2,2,0,0,1,0-2.9A2.4,2.4,0,0,1,17.8,30Z"/><path class="cls-2" d="M17.8,30c1.2-.2,1.3-.2,1.6-.4a.5.5,0,0,0,0-.8.7.7,0,0,0-.7-.2l-.8.3-1.2.5a3.9,3.9,0,0,1-4.8-.6c-1.9-1.9-1.7-4.6.4-6.7s4-2.2,5.2-1a1.7,1.7,0,0,1,.1,2.6,2.9,2.9,0,0,1-1.9.7c-.6.1-.8.2-1,.3a.6.6,0,0,0,0,.8c.3.3.6.2,1.6-.3a9.2,9.2,0,0,1,3.1-1,4.2,4.2,0,0,1,3.2,1.3A4.6,4.6,0,0,1,24,28.7a5,5,0,0,1-1.7,3.6c-2,2-4.7,2.5-6,1.2a2,2,0,0,1,0-2.9A2.4,2.4,0,0,1,17.8,30Z"/><path class="cls-3" d="M17.8,30c1.2-.2,1.3-.2,1.6-.4a.5.5,0,0,0,0-.8.7.7,0,0,0-.7-.2l-.8.3-1.2.5a3.9,3.9,0,0,1-4.8-.6c-1.9-1.9-1.7-4.6.4-6.7s4-2.2,5.2-1a1.7,1.7,0,0,1,.1,2.6,2.9,2.9,0,0,1-1.9.7c-.6.1-.8.2-1,.3a.6.6,0,0,0,0,.8c.3.3.6.2,1.6-.3a9.2,9.2,0,0,1,3.1-1,4.2,4.2,0,0,1,3.2,1.3A4.6,4.6,0,0,1,24,28.7a5,5,0,0,1-1.7,3.6c-2,2-4.7,2.5-6,1.2a2,2,0,0,1,0-2.9A2.4,2.4,0,0,1,17.8,30Z"/><path d="M28.4,21c1.2-.1,1.4-.1,1.6-.3a.5.5,0,0,0,0-.8.7.7,0,0,0-.7-.2l-.8.3-1.2.5a3.9,3.9,0,0,1-4.8-1c-1.7-2-1.4-4.7.9-6.7s4.2-1.9,5.3-.6a1.7,1.7,0,0,1-.1,2.6,2.9,2.9,0,0,1-1.9.6c-.6,0-.8.1-1,.2a.6.6,0,0,0-.1.8c.3.3.6.3,1.6-.2a9.2,9.2,0,0,1,3.1-.8,4.2,4.2,0,0,1,3.1,1.5,4.6,4.6,0,0,1,1.2,3.3,5,5,0,0,1-2,3.5c-2.2,1.9-4.8,2.2-6.1.7a2,2,0,0,1,.2-2.9A2.4,2.4,0,0,1,28.4,21Z"/><path d="M28.4,21c1.2-.1,1.4-.1,1.6-.3a.5.5,0,0,0,0-.8.7.7,0,0,0-.7-.2l-.8.3-1.2.5a3.9,3.9,0,0,1-4.8-1c-1.7-2-1.4-4.7.9-6.7s4.2-1.9,5.3-.6a1.7,1.7,0,0,1-.1,2.6,2.9,2.9,0,0,1-1.9.6c-.6,0-.8.1-1,.2a.6.6,0,0,0-.1.8c.3.3.6.3,1.6-.2a9.2,9.2,0,0,1,3.1-.8,4.2,4.2,0,0,1,3.1,1.5,4.6,4.6,0,0,1,1.2,3.3,5,5,0,0,1-2,3.5c-2.2,1.9-4.8,2.2-6.1.7a2,2,0,0,1,.2-2.9A2.4,2.4,0,0,1,28.4,21Z"/><path class="cls-1" d="M28.4,21c1.2-.1,1.4-.1,1.6-.3a.5.5,0,0,0,0-.8.7.7,0,0,0-.7-.2l-.8.3-1.2.5a3.9,3.9,0,0,1-4.8-1c-1.7-2-1.4-4.7.9-6.7s4.2-1.9,5.3-.6a1.7,1.7,0,0,1-.1,2.6,2.9,2.9,0,0,1-1.9.6c-.6,0-.8.1-1,.2a.6.6,0,0,0-.1.8c.3.3.6.3,1.6-.2a9.2,9.2,0,0,1,3.1-.8,4.2,4.2,0,0,1,3.1,1.5,4.6,4.6,0,0,1,1.2,3.3,5,5,0,0,1-2,3.5c-2.2,1.9-4.8,2.2-6.1.7a2,2,0,0,1,.2-2.9A2.4,2.4,0,0,1,28.4,21Z"/><path d="M27.4,20c1.2-.1,1.4-.1,1.6-.3a.5.5,0,0,0,0-.8.7.7,0,0,0-.7-.2l-.8.3-1.2.5a3.9,3.9,0,0,1-4.8-1c-1.7-2-1.4-4.7.9-6.7s4.2-1.9,5.3-.6a1.7,1.7,0,0,1-.1,2.6,2.9,2.9,0,0,1-1.9.6c-.6,0-.8.1-1,.2a.6.6,0,0,0-.1.8c.3.3.6.3,1.6-.2a9.2,9.2,0,0,1,3.1-.8,4.2,4.2,0,0,1,3.1,1.5,4.6,4.6,0,0,1,1.2,3.3,5,5,0,0,1-2,3.5c-2.2,1.9-4.8,2.2-6.1.7a2,2,0,0,1,.2-2.9A2.4,2.4,0,0,1,27.4,20Z"/><path class="cls-2" d="M27.4,20c1.2-.1,1.4-.1,1.6-.3a.5.5,0,0,0,0-.8.7.7,0,0,0-.7-.2l-.8.3-1.2.5a3.9,3.9,0,0,1-4.8-1c-1.7-2-1.4-4.7.9-6.7s4.2-1.9,5.3-.6a1.7,1.7,0,0,1-.1,2.6,2.9,2.9,0,0,1-1.9.6c-.6,0-.8.1-1,.2a.6.6,0,0,0-.1.8c.3.3.6.3,1.6-.2a9.2,9.2,0,0,1,3.1-.8,4.2,4.2,0,0,1,3.1,1.5,4.6,4.6,0,0,1,1.2,3.3,5,5,0,0,1-2,3.5c-2.2,1.9-4.8,2.2-6.1.7a2,2,0,0,1,.2-2.9A2.4,2.4,0,0,1,27.4,20Z"/><path class="cls-3" d="M27.4,20c1.2-.1,1.4-.1,1.6-.3a.5.5,0,0,0,0-.8.7.7,0,0,0-.7-.2l-.8.3-1.2.5a3.9,3.9,0,0,1-4.8-1c-1.7-2-1.4-4.7.9-6.7s4.2-1.9,5.3-.6a1.7,1.7,0,0,1-.1,2.6,2.9,2.9,0,0,1-1.9.6c-.6,0-.8.1-1,.2a.6.6,0,0,0-.1.8c.3.3.6.3,1.6-.2a9.2,9.2,0,0,1,3.1-.8,4.2,4.2,0,0,1,3.1,1.5,4.6,4.6,0,0,1,1.2,3.3,5,5,0,0,1-2,3.5c-2.2,1.9-4.8,2.2-6.1.7a2,2,0,0,1,.2-2.9A2.4,2.4,0,0,1,27.4,20Z"/><path d="M39.9,6.2l-.4.2.3.3L43.4,12a2.9,2.9,0,0,1,.7,1.6,2.2,2.2,0,0,1-.9,1.9,2.2,2.2,0,0,1-2,.3,2.7,2.7,0,0,1-1.4-1.2L36.1,9.4,35.9,9l-.3.3-.6.4a2.1,2.1,0,0,1-3.2-2.6c.3-.4.4-.5,1.9-1.6L37.2,3l1.2-.8a2,2,0,0,1,2.7.6,2.2,2.2,0,0,1,.3,1.8,2.5,2.5,0,0,1-1.1,1.3Z"/><path d="M39.9,6.2l-.4.2.3.3L43.4,12a2.9,2.9,0,0,1,.7,1.6,2.2,2.2,0,0,1-.9,1.9,2.2,2.2,0,0,1-2,.3,2.7,2.7,0,0,1-1.4-1.2L36.1,9.4,35.9,9l-.3.3-.6.4a2.1,2.1,0,0,1-3.2-2.6c.3-.4.4-.5,1.9-1.6L37.2,3l1.2-.8a2,2,0,0,1,2.7.6,2.2,2.2,0,0,1,.3,1.8,2.5,2.5,0,0,1-1.1,1.3Z"/><path class="cls-1" d="M39.9,6.2l-.4.2.3.3L43.4,12a2.9,2.9,0,0,1,.7,1.6,2.2,2.2,0,0,1-.9,1.9,2.2,2.2,0,0,1-2,.3,2.7,2.7,0,0,1-1.4-1.2L36.1,9.4,35.9,9l-.3.3-.6.4a2.1,2.1,0,0,1-3.2-2.6c.3-.4.4-.5,1.9-1.6L37.2,3l1.2-.8a2,2,0,0,1,2.7.6,2.2,2.2,0,0,1,.3,1.8,2.5,2.5,0,0,1-1.1,1.3Z"/><path d="M38.9,5.2l-.4.2.3.3L42.4,11a2.9,2.9,0,0,1,.7,1.6,2.2,2.2,0,0,1-.9,1.9,2.2,2.2,0,0,1-2,.3,2.7,2.7,0,0,1-1.4-1.2L35.1,8.4,34.9,8l-.3.3-.6.4a2.1,2.1,0,0,1-3.2-2.6c.3-.4.4-.5,1.9-1.6L36.2,2l1.2-.8a2,2,0,0,1,2.7.6,2.2,2.2,0,0,1,.3,1.8,2.5,2.5,0,0,1-1.1,1.3Z"/><path class="cls-2" d="M38.9,5.2l-.4.2.3.3L42.4,11a2.9,2.9,0,0,1,.7,1.6,2.2,2.2,0,0,1-.9,1.9,2.2,2.2,0,0,1-2,.3,2.7,2.7,0,0,1-1.4-1.2L35.1,8.4,34.9,8l-.3.3-.6.4a2.1,2.1,0,0,1-3.2-2.6c.3-.4.4-.5,1.9-1.6L36.2,2l1.2-.8a2,2,0,0,1,2.7.6,2.2,2.2,0,0,1,.3,1.8,2.5,2.5,0,0,1-1.1,1.3Z"/><path class="cls-3" d="M38.9,5.2l-.4.2.3.3L42.4,11a2.9,2.9,0,0,1,.7,1.6,2.2,2.2,0,0,1-.9,1.9,2.2,2.2,0,0,1-2,.3,2.7,2.7,0,0,1-1.4-1.2L35.1,8.4,34.9,8l-.3.3-.6.4a2.1,2.1,0,0,1-3.2-2.6c.3-.4.4-.5,1.9-1.6L36.2,2l1.2-.8a2,2,0,0,1,2.7.6,2.2,2.2,0,0,1,.3,1.8,2.5,2.5,0,0,1-1.1,1.3Z"/></g></svg>