<svg id="Layer_1" data-name="Layer 1" xmlns="http://www.w3.org/2000/svg" xmlns:xlink="http://www.w3.org/1999/xlink" viewBox="0 0 128.01 33"><defs><style>.cls-1,.cls-2,.cls-4{fill:none;}.cls-1{clip-rule:evenodd;}.cls-3{fill:#f1a5ff;}.cls-4{stroke:#000222;stroke-miterlimit:10;stroke-width:2px;}.cls-5{clip-path:url(#clip-path);}.cls-6{isolation:isolate;}.cls-7{fill:url(#New_Gradient_Swatch_1);}.cls-8{fill:url(#New_Gradient_Swatch_2);}.cls-22,.cls-9{fill-rule:evenodd;}.cls-9{fill:url(#linear-gradient);}.cls-10{clip-path:url(#clip-path-2);}.cls-11{clip-path:url(#clip-path-3);}.cls-12{fill:#974dff;}.cls-13{clip-path:url(#clip-path-4);}.cls-14{clip-path:url(#clip-path-5);}.cls-15{clip-path:url(#clip-path-6);}.cls-16{clip-path:url(#clip-path-8);}.cls-17{fill:url(#New_Gradient_Swatch_2-2);}.cls-18{clip-path:url(#clip-path-9);}.cls-19{fill:#373fff;}.cls-20{clip-path:url(#clip-path-11);}.cls-21{clip-path:url(#clip-path-13);}.cls-22,.cls-23{fill:#fff;}</style><clipPath id="clip-path"><path class="cls-1" d="M101.19,22.64a1.79,1.79,0,0,1,.15.86,2.27,2.27,0,0,1-.59.06,3.88,3.88,0,0,1-1.65,0,2.57,2.57,0,0,1-1.59-1.39l0,0c-.07,0-.1,0-.11,0a6.7,6.7,0,0,1-1.6.12,6.6,6.6,0,0,1-3.32-1.66s1-.26,1-.48-1.2-.62-1.2-.62-.19-1,1.11-2a7.55,7.55,0,0,1,2.25-1.32,6.67,6.67,0,0,1-3.21-1.66s1-.26,1-.47-1.2-.62-1.2-.62-.19-1,1.11-2a5.86,5.86,0,0,1,3.35-1.53c1.08-.06,1.45-.06,1.45-.06s1-1.28,1.44-1.28c.25,0,3.9.78,4.21,1.28a1.3,1.3,0,0,0,.63.59c.16.12.06,0,.79.19,1.83.41,1.58.57,2.94.81.55.11,3.07-1.13,3.31-1a2.33,2.33,0,0,1-.24,1.82c-.43.69.35,1.27,0,2.15s.4,1.52.24,1.81-2.84-1-3.31-.87a29.85,29.85,0,0,1-3.94,1.07,1.05,1.05,0,0,1,.21.12c.16.12.06,0,.79.18,1.83.41,1.58.57,2.94.82.55.1,3.07-1.14,3.31-1a2.33,2.33,0,0,1-.24,1.82c-.43.7.35,1.28,0,2.15s.4,1.53.24,1.82-2.84-1-3.31-.88a26.31,26.31,0,0,1-4.8,1.22A12.77,12.77,0,0,1,101.19,22.64Z"/></clipPath><linearGradient id="New_Gradient_Swatch_1" x1="101.76" y1="8.47" x2="101.76" y2="13.99" gradientUnits="userSpaceOnUse"><stop offset="0" stop-color="#e559ff"/><stop offset="1" stop-color="#924dff"/></linearGradient><linearGradient id="New_Gradient_Swatch_2" x1="97.04" y1="11.21" x2="105.11" y2="16.6" gradientUnits="userSpaceOnUse"><stop offset="0" stop-color="#f1a5ff"/><stop offset="1" stop-color="#ff686c"/></linearGradient><linearGradient id="linear-gradient" x1="102.08" y1="15.5" x2="102.08" y2="20.21" gradientUnits="userSpaceOnUse"><stop offset="0" stop-color="#6f3cff"/><stop offset="1" stop-color="#3633ff"/></linearGradient><clipPath id="clip-path-2"><path class="cls-2" d="M99.86,11.31l1,0,.31,0,.7,0a23.67,23.67,0,0,1,2.51.36,17.33,17.33,0,0,1,3.79,1.31l.55.24a.2.2,0,0,0,.27-.13.24.24,0,0,0-.12-.3l-.54-.24a17.53,17.53,0,0,0-3.88-1.33,23.93,23.93,0,0,0-2.56-.37l-.69,0-.31,0-1-.05-.32,0h-.12a.23.23,0,0,0-.19.34l0,0,0,.11a3.73,3.73,0,0,1,.14.4,3.3,3.3,0,0,1,.17.63.76.76,0,0,1,0,.21,3.4,3.4,0,0,1-.12,1,4.64,4.64,0,0,1-.12.47c0,.2-.11.4-.17.59s0,.13,0,.18l0,.05h0a.24.24,0,0,0,.12.3.2.2,0,0,0,.26-.14h0l0-.05a1.8,1.8,0,0,1,0-.19l.18-.6c0-.18.09-.34.12-.5a3.69,3.69,0,0,0,.13-1.13,2.13,2.13,0,0,0,0-.25,5,5,0,0,0-.19-.71l-.09-.24Z"/></clipPath><clipPath id="clip-path-3"><rect class="cls-2" x="92.36" y="8.47" width="19.35" height="15.17"/></clipPath><clipPath id="clip-path-4"><path class="cls-2" d="M99.86,14c0-.11,0-.22.07-.32a3.78,3.78,0,0,0,.13-1.14,2.3,2.3,0,0,0,0-.26,5,5,0,0,0-.19-.71l-.09-.25h.11l1,0,.31,0,.7,0a23.85,23.85,0,0,1,2.51.37,16.91,16.91,0,0,1,3.79,1.32l.55.25a.22.22,0,0,0,.27-.14.24.24,0,0,0-.12-.3l-.54-.25a17.11,17.11,0,0,0-3.88-1.34,19.74,19.74,0,0,0-2.56-.37l-.69,0-.31,0-1-.05-.32,0h-.12a.23.23,0,0,0-.19.34l0,0,0,.11c0,.13.1.26.14.4a3.39,3.39,0,0,1,.17.64.89.89,0,0,1,0,.22,3.5,3.5,0,0,1-.12,1c0,.13-.06.28-.1.43Z"/></clipPath><clipPath id="clip-path-5"><rect class="cls-2" x="92.36" y="8.44" width="19.35" height="15.37"/></clipPath><clipPath id="clip-path-6"><path class="cls-2" d="M98.17,11.38l0,0,.06.1a3.78,3.78,0,0,1,.17.35,3.58,3.58,0,0,1,.21.63,1.8,1.8,0,0,1,0,.31,2.82,2.82,0,0,1-.16.87c0,.1-.08.2-.11.29l0,.08v0a.22.22,0,0,0,.07.29.19.19,0,0,0,.26-.08l.06-.13q.06-.15.12-.33a3.05,3.05,0,0,0,.19-1,1.87,1.87,0,0,0,0-.4,3.5,3.5,0,0,0-.24-.71l-.18-.39-.09-.16a.18.18,0,0,0-.26-.05A.21.21,0,0,0,98.17,11.38Z"/></clipPath><clipPath id="clip-path-8"><path class="cls-3" d="M98.81,14a.56.56,0,0,0,0-.12,3.22,3.22,0,0,0,.19-1,2,2,0,0,0,0-.41,3.8,3.8,0,0,0-.24-.72l-.18-.39-.09-.16a.18.18,0,0,0-.26-.06.22.22,0,0,0-.06.29l0,0,.06.1a3,3,0,0,1,.17.36,3.58,3.58,0,0,1,.21.63,2,2,0,0,1,0,.32,2.83,2.83,0,0,1-.16.88l-.1.27Z"/></clipPath><linearGradient id="New_Gradient_Swatch_2-2" x1="100.3" y1="19.51" x2="103.62" y2="23.49" xlink:href="#New_Gradient_Swatch_2"/><clipPath id="clip-path-9"><path class="cls-2" d="M99.86,17.47l1,.05h.31l.7,0a21.34,21.34,0,0,1,2.51.36,16.73,16.73,0,0,1,3.79,1.3l.55.25a.21.21,0,0,0,.27-.13.24.24,0,0,0-.12-.3l-.54-.25a17.44,17.44,0,0,0-3.88-1.32,19.74,19.74,0,0,0-2.56-.37l-.69-.05h-.31l-1-.06h-.44a.23.23,0,0,0-.19.34l0,0,0,.11a3.54,3.54,0,0,1,.14.39,3.39,3.39,0,0,1,.17.64.76.76,0,0,1,0,.21,3.31,3.31,0,0,1-.12,1,4.81,4.81,0,0,1-.12.48c0,.2-.11.4-.17.59a1.21,1.21,0,0,0,0,.18l0,0v0a.24.24,0,0,0,.12.3.2.2,0,0,0,.26-.14v0l0-.05c0-.05,0-.11,0-.18s.12-.4.18-.61a5,5,0,0,0,.12-.49,3.69,3.69,0,0,0,.13-1.13,2.6,2.6,0,0,0,0-.26,5.26,5.26,0,0,0-.19-.7l-.09-.24Z"/></clipPath><clipPath id="clip-path-11"><path class="cls-2" d="M99.86,20.09c0-.11,0-.21.07-.31a3.69,3.69,0,0,0,.13-1.13,2.6,2.6,0,0,0,0-.26,5.26,5.26,0,0,0-.19-.7l-.09-.24h.11l1,.05.31,0,.7,0a23.67,23.67,0,0,1,2.51.36,16.73,16.73,0,0,1,3.79,1.3l.55.25a.21.21,0,0,0,.27-.13.24.24,0,0,0-.12-.3l-.54-.24a17,17,0,0,0-3.88-1.33,21.64,21.64,0,0,0-2.56-.37l-.69-.05h-.31l-1-.06h-.44a.23.23,0,0,0-.19.34l0,0,0,.11c0,.12.1.26.14.39a3.39,3.39,0,0,1,.17.64.76.76,0,0,1,0,.21,3.31,3.31,0,0,1-.12,1c0,.14-.06.28-.1.43Z"/></clipPath><clipPath id="clip-path-13"><path class="cls-3" d="M98.81,20.09a.56.56,0,0,0,0-.12A3.05,3.05,0,0,0,99,19a2,2,0,0,0,0-.41,4,4,0,0,0-.24-.71l-.18-.38-.09-.16a.19.19,0,0,0-.26-.06.22.22,0,0,0-.06.29l0,0,.06.1a3.78,3.78,0,0,1,.17.35,3.58,3.58,0,0,1,.21.63,1.8,1.8,0,0,1,0,.31,2.82,2.82,0,0,1-.16.87c0,.09-.07.18-.1.26Z"/></clipPath></defs><title>remix</title><rect class="cls-4" x="1" y="0.92" width="126.01" height="31.16" rx="5" ry="5"/><g class="cls-5"><g class="cls-6"><rect class="cls-7" x="91.85" y="8.47" width="19.82" height="5.55"/><polyline class="cls-8" points="109.42 16.62 111.69 16.31 111.74 15.59 111.74 13.97 111.56 13.4 104.17 13.4 104.17 13.97 92.36 13.97 92.36 15.59 93.96 16.11 100 16.62 101.31 16.62"/><polygon class="cls-9" points="100 15.59 106.87 15.59 106.87 16.33 111.81 16.31 111.81 19.52 101.56 19.52 101.56 20.09 92.36 20.09 92.36 16.31 95.23 16.11 100 16.14 100 15.59"/><g class="cls-10"><g class="cls-11"><rect class="cls-12" x="98.91" y="10.61" width="10.29" height="4.79"/></g></g><g class="cls-13"><g class="cls-14"><rect class="cls-3" x="99" y="10.56" width="10.19" height="3.65"/></g></g><g class="cls-15"><g class="cls-11"><rect class="cls-12" x="97.91" y="10.84" width="1.38" height="3.79"/></g></g><path class="cls-3" d="M98.81,14a.56.56,0,0,0,0-.12,3.22,3.22,0,0,0,.19-1,2,2,0,0,0,0-.41,3.8,3.8,0,0,0-.24-.72l-.18-.39-.09-.16a.18.18,0,0,0-.26-.06.22.22,0,0,0-.06.29l0,0,.06.1a3,3,0,0,1,.17.36,3.58,3.58,0,0,1,.21.63,2,2,0,0,1,0,.32,2.83,2.83,0,0,1-.16.88l-.1.27Z"/><g class="cls-16"><rect class="cls-3" x="92.36" y="8.44" width="19.35" height="15.38"/></g><polygon class="cls-17" points="111.7 23.65 92.35 23.65 92.35 20.09 101.55 20.09 101.55 19.51 111.7 19.51 111.7 23.65"/><g class="cls-18"><g class="cls-11"><rect class="cls-19" x="98.91" y="16.72" width="10.29" height="4.79"/></g></g><g class="cls-20"><g class="cls-11"><rect class="cls-3" x="99" y="16.72" width="10.19" height="3.6"/></g></g><path class="cls-19" d="M98.17,17.54l0,0a.44.44,0,0,1,.06.1,3.78,3.78,0,0,1,.17.35,3.58,3.58,0,0,1,.21.63,1.8,1.8,0,0,1,0,.31,2.82,2.82,0,0,1-.16.87c0,.1-.08.2-.11.29l0,.08v0a.21.21,0,0,0,.07.28.18.18,0,0,0,.26-.07l.06-.13q.06-.15.12-.33A3.05,3.05,0,0,0,99,19a2,2,0,0,0,0-.41,4,4,0,0,0-.24-.71l-.18-.38-.09-.16a.19.19,0,0,0-.26-.06A.22.22,0,0,0,98.17,17.54Z"/><path class="cls-3" d="M98.81,20.09a.56.56,0,0,0,0-.12A3.05,3.05,0,0,0,99,19a2,2,0,0,0,0-.41,4,4,0,0,0-.24-.71l-.18-.38-.09-.16a.19.19,0,0,0-.26-.06.22.22,0,0,0-.06.29l0,0,.06.1a3.78,3.78,0,0,1,.17.35,3.58,3.58,0,0,1,.21.63,1.8,1.8,0,0,1,0,.31,2.82,2.82,0,0,1-.16.87c0,.09-.07.18-.1.26Z"/><g class="cls-21"><rect class="cls-3" x="92.36" y="8.47" width="19.35" height="15.17"/></g></g></g><circle cx="95.66" cy="12.43" r="0.84"/><path class="cls-22" d="M94.82,12.36h0a.91.91,0,1,1,.9.93.83.83,0,0,1-.89-.77.67.67,0,0,0,.68.58.72.72,0,1,0-.69-.73Z"/><circle class="cls-23" cx="95.18" cy="12.62" r="0.23"/><circle cx="95.66" cy="18.56" r="0.84"/><path class="cls-22" d="M94.82,18.49h0a.91.91,0,1,1,.9.93.83.83,0,0,1-.89-.77.66.66,0,0,0,.68.58.72.72,0,1,0-.69-.73Z"/><circle class="cls-23" cx="95.18" cy="18.75" r="0.23"/><path d="M14.6,21.17V10.8h3.71c2.47,0,3.9,1,3.9,3.11a2.75,2.75,0,0,1-2.3,2.94l2.43,4.32H20.47l-2.33-4.09H16.32v4.09Zm1.72-5.62h1.92c1.46,0,2.24-.36,2.24-1.6s-.77-1.55-2.25-1.55H16.32Z"/><path d="M23.22,17.46a3.54,3.54,0,0,1,3.55-3.87c1.66,0,3.26,1,3.26,4V18H25a1.83,1.83,0,0,0,2,1.93A2.69,2.69,0,0,0,29,19.08l.91.9a4,4,0,0,1-3.12,1.34C25,21.32,23.22,20.19,23.22,17.46Zm5.23-.73c-.1-1.14-.66-1.74-1.7-1.74A1.75,1.75,0,0,0,25,16.73Z"/><path d="M31.54,21.17V13.73h1.72v1a3.4,3.4,0,0,1,2.55-1.16,1.85,1.85,0,0,1,2,1.22,3.51,3.51,0,0,1,2.61-1.22,2,2,0,0,1,2.17,2.24v5.34H40.89v-4.9c0-.83-.23-1.21-1-1.21a2.88,2.88,0,0,0-1.9,1v5.14H36.22v-4.9c0-.83-.24-1.21-1-1.21a2.94,2.94,0,0,0-1.91,1v5.14Z"/><path d="M44.53,12.44v-1.5H46.3v1.5Zm0,8.73V13.73h1.74v7.44Z"/><path d="M47.58,21.17l2.59-3.84-2.41-3.6H49.6l1.55,2.38,1.5-2.38h1.78L52,17.33l2.58,3.84H52.74L51,18.56l-1.68,2.61Z"/><path d="M61.44,21.17V12.43H58.25V10.8h8.14v1.63h-3.2v8.74Z"/><path d="M67.73,21.17V10.8h1.73v3.94a3.73,3.73,0,0,1,2.72-1.15,2,2,0,0,1,2.15,2.24v5.34H72.59v-4.9c0-.83-.35-1.21-1.11-1.21a3,3,0,0,0-2,1v5.14Z"/><path d="M76.23,12.44v-1.5H78v1.5Zm0,8.73V13.73H78v7.44Z"/><path d="M79.42,20.15l.94-1a3.68,3.68,0,0,0,2.33.88c.93,0,1.49-.24,1.49-.86s-.76-.78-1.65-1c-1.28-.3-2.8-.63-2.8-2.35,0-1.31,1.12-2.19,2.75-2.19a4.39,4.39,0,0,1,3.06,1.05l-.83,1.12a3.71,3.71,0,0,0-2.1-.81c-1,0-1.26.34-1.26.76,0,.6.74.78,1.62,1,1.28.28,2.83.6,2.83,2.34,0,1.56-1.41,2.29-3.11,2.29A4.72,4.72,0,0,1,79.42,20.15Z"/></svg>