<svg id="Layer_1" xmlns="http://www.w3.org/2000/svg" width="98.6" height="98.5" viewBox="0 0 98.6 98.5"><style>.st0{fill:#000;stroke:#000}</style><path class="st0" d="M32.2 32.3c-8 8-9.2 20.2-3.6 29.5l33.1-33.2 8.5-8.5 9.2-9.2c-5.2-4.1-11.1-7-17.3-8.7L50.9 13.4 32.2 32.3zm-8.3-8.4L47.2.6c-11.8.5-23.4 5.2-32.4 14.2-17.7 17.7-19 45.5-3.9 64.6l9.2-9.2c-10.1-14-8.9-33.7 3.8-46.3zm63.7-4.7l-9.1 9.2c10.1 14 8.8 33.7-3.8 46.3L51.4 98c11.8-.5 23.4-5.2 32.4-14.2 17.6-17.6 18.9-45.4 3.8-64.6zM69.9 36.9L19.2 87.7c5.2 4.1 11.1 7 17.3 8.7 0 0 11.1-11.2 11-11.2l18.8-18.8c8-8 9.2-20.2 3.6-29.5z"></path></svg>