<svg xmlns="http://www.w3.org/2000/svg" xmlns:xlink="http://www.w3.org/1999/xlink" viewBox="0 0 20.2 20.2"><defs><style>.cls-1{isolation:isolate;}.cls-2{fill:url(#New_Gradient_Swatch_12);}.cls-3{fill:url(#New_Gradient_Swatch_7);}.cls-4{fill:#1dcaff;}.cls-5{opacity:0.3;mix-blend-mode:multiply;}.cls-6,.cls-7{fill:none;stroke-miterlimit:10;stroke-width:2px;}.cls-6{stroke:#000;}.cls-7{stroke:#fff;}</style><linearGradient id="New_Gradient_Swatch_12" x1="14.67" y1="17.98" x2="5.54" y2="2.17" gradientUnits="userSpaceOnUse"><stop offset="0" stop-color="#1dcaff"/><stop offset="1" stop-color="#ad00ff"/></linearGradient><linearGradient id="New_Gradient_Swatch_7" x1="30.84" y1="258.73" x2="47.18" y2="275.07" gradientTransform="translate(277.7 -29.7) rotate(90)" gradientUnits="userSpaceOnUse"><stop offset="0" stop-color="#ffa9be"/><stop offset="1" stop-color="#9050ff"/></linearGradient></defs><title>verified</title><g class="cls-1"><g id="Layer_1" data-name="Layer 1"><path class="cls-2" d="M5.9,5.9c.7-7.9,7.7-7.9,8.4,0,7.9.7,7.9,7.7,0,8.4-.7,7.9-7.7,7.9-8.4,0C-2,13.6-2,6.6,5.9,5.9Z"/><path class="cls-3" d="M10.1,4.2c6.1-5.1,11-.2,5.9,5.9,5.1,6.1.2,11-5.9,5.9-6.1,5.1-11,.2-5.9-5.9C-.9,4,4.1-.9,10.1,4.2Z"/><path class="cls-4" d="M15.4,15.8a2.4,2.4,0,0,0,.4-3.1A2.4,2.4,0,0,0,16,8a2.4,2.4,0,0,0-3.2-3.4,2.4,2.4,0,0,0-4.7-.1A2.4,2.4,0,0,0,4.4,7.2a2.4,2.4,0,0,0,.1,4.6,2.4,2.4,0,0,0-.1,3.1l.2.2a2.4,2.4,0,0,0,2.9.3,2.4,2.4,0,0,0,4.7.4A2.4,2.4,0,0,0,15.4,15.8Z"/><g class="cls-5"><polyline class="cls-6" points="6.9 11.3 9 13.3 13.7 8.7"/></g><polyline class="cls-7" points="6.9 10.3 9 12.3 13.7 7.7"/></g></g></svg>