<svg id="Layer_1" data-name="Layer 1" xmlns="http://www.w3.org/2000/svg" xmlns:xlink="http://www.w3.org/1999/xlink" viewBox="0 0 130.8 30"><defs><style>.cls-1,.cls-2{fill:none;}.cls-1{clip-rule:evenodd;}.cls-3{fill:#f1a5ff;}.cls-22,.cls-23,.cls-4{fill:#fff;}.cls-4{stroke:#000222;stroke-miterlimit:10;stroke-width:2px;}.cls-5{clip-path:url(#clip-path);}.cls-6{isolation:isolate;}.cls-7{fill:url(#New_Gradient_Swatch_1);}.cls-8{fill:url(#New_Gradient_Swatch_2);}.cls-22,.cls-9{fill-rule:evenodd;}.cls-9{fill:url(#linear-gradient);}.cls-10{clip-path:url(#clip-path-2);}.cls-11{clip-path:url(#clip-path-3);}.cls-12{fill:#974dff;}.cls-13{clip-path:url(#clip-path-4);}.cls-14{clip-path:url(#clip-path-5);}.cls-15{clip-path:url(#clip-path-6);}.cls-16{clip-path:url(#clip-path-8);}.cls-17{fill:url(#New_Gradient_Swatch_2-2);}.cls-18{clip-path:url(#clip-path-9);}.cls-19{fill:#373fff;}.cls-20{clip-path:url(#clip-path-11);}.cls-21{clip-path:url(#clip-path-13);}</style><clipPath id="clip-path"><path class="cls-1" d="M108.6,21.7a1.8,1.8,0,0,1,.2.9h-.6a3.9,3.9,0,0,1-1.6-.1,2.5,2.5,0,0,1-1.6-1.4h-1.7a6.6,6.6,0,0,1-3.3-1.7s1.1-.3,1.1-.5-1.2-.6-1.2-.6-.2-1,1.1-2a7.9,7.9,0,0,1,2.3-1.3,6.8,6.8,0,0,1-3.2-1.7s1.1-.3,1.1-.5-1.2-.6-1.2-.6-.2-1,1.1-2a5.9,5.9,0,0,1,3.3-1.5h1.5s.9-1.3,1.4-1.3,3.9.8,4.2,1.3a1.3,1.3,0,0,0,.6.6l.8.2c1.8.4,1.6.6,2.9.8s3.1-1.1,3.3-1a2.4,2.4,0,0,1-.2,1.8c-.4.7.3,1.3,0,2.1s.4,1.5.2,1.8-2.8-1-3.3-.9a29.3,29.3,0,0,1-3.9,1.1h.2l.8.2c1.8.4,1.6.6,2.9.8s3.1-1.1,3.3-1a2.4,2.4,0,0,1-.2,1.8c-.4.7.3,1.3,0,2.1s.4,1.5.2,1.8-2.8-1-3.3-.9a26.8,26.8,0,0,1-4.8,1.2Z"/></clipPath><linearGradient id="New_Gradient_Swatch_1" x1="109.18" y1="7.55" x2="109.18" y2="13.07" gradientUnits="userSpaceOnUse"><stop offset="0" stop-color="#e559ff"/><stop offset="1" stop-color="#924dff"/></linearGradient><linearGradient id="New_Gradient_Swatch_2" x1="104.46" y1="10.29" x2="112.54" y2="15.68" gradientUnits="userSpaceOnUse"><stop offset="0" stop-color="#f1a5ff"/><stop offset="1" stop-color="#ff686c"/></linearGradient><linearGradient id="linear-gradient" x1="109.5" y1="14.58" x2="109.5" y2="19.29" gradientUnits="userSpaceOnUse"><stop offset="0" stop-color="#6f3cff"/><stop offset="1" stop-color="#3633ff"/></linearGradient><clipPath id="clip-path-2"><path class="cls-2" d="M107.3,10.4h2l2.5.4a17,17,0,0,1,3.8,1.3l.5.2h.3a.2.2,0,0,0-.1-.3l-.5-.2a17.3,17.3,0,0,0-3.9-1.3l-2.6-.4h-2.4a.2.2,0,0,0-.2.3h.1v.4l.2.6v.2a3.5,3.5,0,0,1-.1,1v.5l-.2.6v.2h0a.2.2,0,0,0,.1.3h.3v-.2l.2-.6v-.5a3.9,3.9,0,0,0,.1-1.1v-.3l-.2-.7v-.2Z"/></clipPath><clipPath id="clip-path-3"><rect class="cls-2" x="99.8" y="7.6" width="19.3" height="15.17"/></clipPath><clipPath id="clip-path-4"><path class="cls-2" d="M107.3,13v-.3a4,4,0,0,0,.1-1.1v-.3l-.2-.7v-.2h2.1l2.5.4a16.8,16.8,0,0,1,3.8,1.3l.5.2h.3a.2.2,0,0,0-.1-.3l-.5-.2a17.1,17.1,0,0,0-3.9-1.3l-2.6-.4h-2.4a.2.2,0,0,0-.2.3h.1v.4l.2.6v.2a3.6,3.6,0,0,1-.1,1V13Z"/></clipPath><clipPath id="clip-path-5"><rect class="cls-2" x="99.8" y="7.5" width="19.3" height="15.37"/></clipPath><clipPath id="clip-path-6"><path class="cls-2" d="M105.6,10.5h.1l.2.4.2.6v.3a2.7,2.7,0,0,1-.2.9V13h0a.2.2,0,0,0,.1.3h.3v-.3a3.1,3.1,0,0,0,.2-1,2,2,0,0,0,0-.4l-.2-.7-.2-.4v-.2h-.3A.2.2,0,0,0,105.6,10.5Z"/></clipPath><clipPath id="clip-path-8"><path class="cls-3" d="M106.2,13h0a3.2,3.2,0,0,0,.2-1,2.1,2.1,0,0,0,0-.4l-.2-.7-.2-.4v-.2h-.3a.2.2,0,0,0-.1.3h.1l.2.4.2.6v.3a2.8,2.8,0,0,1-.2.9V13Z"/></clipPath><linearGradient id="New_Gradient_Swatch_2-2" x1="107.72" y1="18.59" x2="111.04" y2="22.57" xlink:href="#New_Gradient_Swatch_2"/><clipPath id="clip-path-9"><path class="cls-2" d="M107.3,16.5h2l2.5.4a17,17,0,0,1,3.8,1.3l.5.2h.3a.2.2,0,0,0-.1-.3l-.5-.2a17.3,17.3,0,0,0-3.9-1.3l-2.6-.4h-2.4a.2.2,0,0,0-.2.3h.1v.4l.2.6v.2a3.5,3.5,0,0,1-.1,1v.5l-.2.6V20h0a.2.2,0,0,0,.1.3h.3V20l.2-.6v-.5a3.9,3.9,0,0,0,.1-1.1v-.3l-.2-.7v-.2Z"/></clipPath><clipPath id="clip-path-11"><path class="cls-2" d="M107.3,19.2v-.3a3.9,3.9,0,0,0,.1-1.1v-.3l-.2-.7v-.2h2.1l2.5.4a17,17,0,0,1,3.8,1.3l.5.2h.3a.2.2,0,0,0-.1-.3l-.5-.2a17.3,17.3,0,0,0-3.9-1.3l-2.6-.4h-2.4a.2.2,0,0,0-.2.3h.1v.4l.2.6v.2a3.5,3.5,0,0,1-.1,1v.4Z"/></clipPath><clipPath id="clip-path-13"><path class="cls-3" d="M106.2,19.2h0a3.1,3.1,0,0,0,.2-1,2,2,0,0,0,0-.4l-.2-.7-.2-.4v-.2h-.3a.2.2,0,0,0-.1.3h.1l.2.4.2.6V18a2.7,2.7,0,0,1-.2.9v.3Z"/></clipPath></defs><title>view-source-button</title><rect class="cls-4" x="1" y="1" width="128.8" height="28.02" rx="5" ry="5"/><g class="cls-5"><g class="cls-6"><rect class="cls-7" x="99.3" y="7.6" width="19.8" height="5.55"/><polyline class="cls-8" points="116.8 15.7 119.1 15.4 119.2 14.7 119.2 13.1 119 12.5 111.6 12.5 111.6 13.1 99.8 13.1 99.8 14.7 101.4 15.2 107.4 15.7 108.7 15.7"/><polygon class="cls-9" points="107.4 14.7 114.3 14.7 114.3 15.4 119.2 15.4 119.2 18.6 109 18.6 109 19.2 99.8 19.2 99.8 15.4 102.7 15.2 107.4 15.2 107.4 14.7"/><g class="cls-10"><g class="cls-11"><rect class="cls-12" x="106.3" y="9.7" width="10.3" height="4.79"/></g></g><g class="cls-13"><g class="cls-14"><rect class="cls-3" x="106.4" y="9.6" width="10.2" height="3.65"/></g></g><g class="cls-15"><g class="cls-11"><rect class="cls-12" x="105.3" y="9.9" width="1.4" height="3.79"/></g></g><path class="cls-3" d="M106.2,13h0a3.2,3.2,0,0,0,.2-1,2.1,2.1,0,0,0,0-.4l-.2-.7-.2-.4v-.2h-.3a.2.2,0,0,0-.1.3h.1l.2.4.2.6v.3a2.8,2.8,0,0,1-.2.9V13Z"/><g class="cls-16"><rect class="cls-3" x="99.8" y="7.5" width="19.3" height="15.38"/></g><polygon class="cls-17" points="119.1 22.7 99.8 22.7 99.8 19.2 109 19.2 109 18.6 119.1 18.6 119.1 22.7"/><g class="cls-18"><g class="cls-11"><rect class="cls-19" x="106.3" y="15.8" width="10.3" height="4.79"/></g></g><g class="cls-20"><g class="cls-11"><rect class="cls-3" x="106.4" y="15.8" width="10.2" height="3.6"/></g></g><path class="cls-19" d="M105.6,16.6h.1l.2.4.2.6v.3a2.7,2.7,0,0,1-.2.9v.3h0a.2.2,0,0,0,.1.3h.3v-.3a3.1,3.1,0,0,0,.2-1,2,2,0,0,0,0-.4l-.2-.7-.2-.4v-.2h-.3A.2.2,0,0,0,105.6,16.6Z"/><path class="cls-3" d="M106.2,19.2h0a3.1,3.1,0,0,0,.2-1,2,2,0,0,0,0-.4l-.2-.7-.2-.4v-.2h-.3a.2.2,0,0,0-.1.3h.1l.2.4.2.6V18a2.7,2.7,0,0,1-.2.9v.3Z"/><g class="cls-21"><rect class="cls-3" x="99.8" y="7.6" width="19.3" height="15.17"/></g></g></g><circle cx="103.1" cy="11.5" r="0.8"/><path class="cls-22" d="M102.2,11.4h0a.9.9,0,1,1,.9.9.8.8,0,0,1-.9-.8.7.7,0,0,0,.7.6.7.7,0,1,0-.7-.7Z"/><circle class="cls-23" cx="102.6" cy="11.7" r="0.2"/><circle cx="103.1" cy="17.6" r="0.8"/><path class="cls-22" d="M102.2,17.6h0a.9.9,0,1,1,.9.9.8.8,0,0,1-.9-.8.7.7,0,0,0,.7.6.7.7,0,1,0-.7-.7Z"/><circle class="cls-23" cx="102.6" cy="17.8" r="0.2"/><path d="M17.8,20.3,14.2,9.9H16L18.6,18h0l2.7-8.1H23L19.4,20.3Z"/><path d="M24.1,11.5V10h1.8v1.5Zm0,8.7V12.8h1.7v7.4Z"/><path d="M27.5,16.5A3.5,3.5,0,0,1,31,12.7c1.7,0,3.3,1,3.3,4v.4H29.2a1.8,1.8,0,0,0,2,1.9,2.7,2.7,0,0,0,2.1-.9l.9.9a4,4,0,0,1-3.1,1.3C29.2,20.4,27.5,19.3,27.5,16.5Zm5.2-.7c-.1-1.1-.7-1.7-1.7-1.7a1.7,1.7,0,0,0-1.8,1.7Z"/><path d="M37.1,20.2l-2.2-7.4h1.8l.8,3.1c.2.8.4,1.4.6,2.4h0c.2-1,.4-1.5.6-2.4l.8-3.1h1.4l.8,3.1c.2.8.4,1.4.6,2.3h0c.2-1,.3-1.5.6-2.3l.8-3.1h1.6L43,20.2H41.4l-1.3-5.2h0l-1.3,5.2Z"/><path d="M49.5,17.8l1.4-.7a3,3,0,0,0,2.9,1.8c1.3,0,2.1-.4,2.1-1.3s-.6-1.3-2.4-1.8-3.6-1.1-3.6-3.1,1.4-2.9,3.5-2.9a4.1,4.1,0,0,1,3.9,2.2l-1.3.9a2.9,2.9,0,0,0-2.6-1.5c-1.1,0-1.8.4-1.8,1.2s.7,1.3,2.4,1.8,3.5,1.2,3.5,3.2-1.4,3-3.9,3A4.3,4.3,0,0,1,49.5,17.8Z"/><path d="M58.7,16.5a3.6,3.6,0,1,1,7.3,0,3.6,3.6,0,1,1-7.3,0Zm5.5,0c0-1.4-.6-2.4-1.9-2.4s-1.9.9-1.9,2.4.6,2.4,1.9,2.4S64.3,18.1,64.3,16.5Z"/><path d="M67.4,18.1V12.8h1.7v4.9c0,.8.4,1.2,1.1,1.2a3,3,0,0,0,2-1V12.8H74v7.4H72.3v-1a3.7,3.7,0,0,1-2.7,1.1A2,2,0,0,1,67.4,18.1Z"/><path d="M75.9,20.2V12.8h1.7V14h0a2.9,2.9,0,0,1,2.7-1.4h.1v1.6H80a2.5,2.5,0,0,0-2.3,1.3v4.7Z"/><path d="M80.9,16.5a3.5,3.5,0,0,1,3.6-3.9,3,3,0,0,1,3.1,2.2l-1.5.5a1.6,1.6,0,0,0-1.7-1.2c-1,0-1.8.6-1.8,2.4s.6,2.5,1.8,2.5a1.6,1.6,0,0,0,1.7-1.3l1.4.5a3.3,3.3,0,0,1-3.2,2.2C82.7,20.4,80.9,19.3,80.9,16.5Z"/><path d="M88.5,16.5A3.5,3.5,0,0,1,92,12.7c1.7,0,3.3,1,3.3,4v.4H90.2a1.8,1.8,0,0,0,2,1.9,2.7,2.7,0,0,0,2.1-.9l.9.9A4,4,0,0,1,92,20.4C90.2,20.4,88.5,19.3,88.5,16.5Zm5.2-.7c-.1-1.1-.7-1.7-1.7-1.7a1.7,1.7,0,0,0-1.8,1.7Z"/></svg>