<svg id="Layer_1" data-name="Layer 1" xmlns="http://www.w3.org/2000/svg" xmlns:xlink="http://www.w3.org/1999/xlink" viewBox="0 0 136.3 33"><defs><style>.cls-1,.cls-2,.cls-23{fill:none;}.cls-1{clip-rule:evenodd;}.cls-3{fill:#f1a5ff;}.cls-4{clip-path:url(#clip-path);}.cls-5{isolation:isolate;}.cls-6{fill:url(#New_Gradient_Swatch_1);}.cls-7{fill:url(#New_Gradient_Swatch_2);}.cls-21,.cls-8{fill-rule:evenodd;}.cls-8{fill:url(#linear-gradient);}.cls-9{clip-path:url(#clip-path-2);}.cls-10{clip-path:url(#clip-path-3);}.cls-11{fill:#974dff;}.cls-12{clip-path:url(#clip-path-4);}.cls-13{clip-path:url(#clip-path-5);}.cls-14{clip-path:url(#clip-path-6);}.cls-15{clip-path:url(#clip-path-8);}.cls-16{fill:url(#New_Gradient_Swatch_2-2);}.cls-17{clip-path:url(#clip-path-9);}.cls-18{fill:#373fff;}.cls-19{clip-path:url(#clip-path-11);}.cls-20{clip-path:url(#clip-path-13);}.cls-21,.cls-22{fill:#fff;}.cls-23{stroke:#000222;stroke-miterlimit:10;stroke-width:2px;}</style><clipPath id="clip-path"><path class="cls-1" d="M24.3,25.2a2.6,2.6,0,0,1,.2,1.2H23.7a5.6,5.6,0,0,1-2.4-.1,3.6,3.6,0,0,1-2.3-2H18.9a9.9,9.9,0,0,1-2.3.2,9.4,9.4,0,0,1-4.7-2.4s1.5-.4,1.5-0.7-1.7-.9-1.7-0.9-0.3-1.4,1.6-2.9a11.3,11.3,0,0,1,3.2-1.9,9.6,9.6,0,0,1-4.6-2.4s1.5-.4,1.5-0.7S11.7,12,11.7,12s-0.3-1.4,1.6-2.9S16.5,7,18.1,6.9h2.1S21.5,5,22.2,5s5.6,1.1,6,1.8a1.9,1.9,0,0,0,.9.8,2.6,2.6,0,0,0,1.1.3c2.6,0.6,2.3.8,4.2,1.2s4.4-1.6,4.7-1.5a3.4,3.4,0,0,1-.3,2.6c-0.6,1,.5,1.8,0,3.1s0.6,2.2.3,2.6-4-1.4-4.7-1.3a41.8,41.8,0,0,1-5.6,1.5l0.3,0.2a2.6,2.6,0,0,0,1.1.3c2.6,0.6,2.3.8,4.2,1.2s4.4-1.6,4.7-1.5a3.4,3.4,0,0,1-.3,2.6c-0.6,1,.5,1.8,0,3.1s0.6,2.2.3,2.6-4-1.4-4.7-1.3a38.3,38.3,0,0,1-6.9,1.7A16.8,16.8,0,0,1,24.3,25.2Z"/></clipPath><linearGradient id="New_Gradient_Swatch_1" x1="25.09" y1="5.02" x2="25.09" y2="12.89" gradientUnits="userSpaceOnUse"><stop offset="0" stop-color="#e559ff"/><stop offset="1" stop-color="#924dff"/></linearGradient><linearGradient id="New_Gradient_Swatch_2" x1="18.36" y1="8.92" x2="29.88" y2="16.6" gradientUnits="userSpaceOnUse"><stop offset="0" stop-color="#f1a5ff"/><stop offset="1" stop-color="#ff686c"/></linearGradient><linearGradient id="linear-gradient" x1="25.56" y1="15.03" x2="25.56" y2="21.76" gradientUnits="userSpaceOnUse"><stop offset="0" stop-color="#6f3cff"/><stop offset="1" stop-color="#3633ff"/></linearGradient><clipPath id="clip-path-2"><path class="cls-2" d="M22.4,9.1h2.8l3.6,0.5a24.2,24.2,0,0,1,5.4,1.9L35,11.9a0.3,0.3,0,0,0,.4-0.2,0.3,0.3,0,0,0-.2-0.4L34.4,11a24.7,24.7,0,0,0-5.5-1.9l-3.6-.5H21.8a0.3,0.3,0,0,0-.3.5h0V9.1l0.2,0.6L22,10.5v0.3a5,5,0,0,1-.2,1.4l-0.2.7-0.2.8V14h0a0.3,0.3,0,0,0,.2.4,0.3,0.3,0,0,0,.4-0.2h0V13.9l0.3-.9,0.2-.7a5.5,5.5,0,0,0,.2-1.6V10.4a7.2,7.2,0,0,0-.3-1V9.1h0.1Z"/></clipPath><clipPath id="clip-path-3"><rect class="cls-2" x="11.7" y="5" width="27.6" height="21.64"/></clipPath><clipPath id="clip-path-4"><path class="cls-2" d="M22.4,12.9V12.4a5.7,5.7,0,0,0,.2-1.6V10.4a7.4,7.4,0,0,0-.3-1V9h3l3.6,0.5a24,24,0,0,1,5.4,1.9L35,12a0.3,0.3,0,0,0,.4-0.2,0.3,0.3,0,0,0-.2-0.4L34.4,11a24.5,24.5,0,0,0-5.5-1.9l-3.6-.5H21.8a0.3,0.3,0,0,0-.3.5h0V9.1l0.2,0.6L22,10.5v0.3a5.2,5.2,0,0,1-.2,1.4v0.6h0.6Z"/></clipPath><clipPath id="clip-path-5"><rect class="cls-2" x="11.7" y="5" width="27.6" height="21.92"/></clipPath><clipPath id="clip-path-6"><path class="cls-2" d="M20,9.2h0.1l0.2,0.5a4.7,4.7,0,0,1,.3.9,2.2,2.2,0,0,1,.1.5,3.9,3.9,0,0,1-.2,1.2l-0.2.4H20.2a0.3,0.3,0,0,0,.1.4,0.3,0.3,0,0,0,.4-0.1V13.1l0.2-.5a4.5,4.5,0,0,0,.3-1.4,2.9,2.9,0,0,0-.1-0.6,5.3,5.3,0,0,0-.3-1l-0.3-.6V8.8a0.3,0.3,0,0,0-.4-0.1A0.3,0.3,0,0,0,20,9.2Z"/></clipPath><clipPath id="clip-path-8"><path class="cls-3" d="M20.9,12.9V12.7a4.6,4.6,0,0,0,.3-1.5,2.9,2.9,0,0,0-.1-0.6,5.4,5.4,0,0,0-.3-1L20.6,9V8.8a0.3,0.3,0,0,0-.4-0.1,0.3,0.3,0,0,0-.1.4h0.1l0.2,0.5a4.8,4.8,0,0,1,.3.9,2.3,2.3,0,0,1,.1.5,4,4,0,0,1-.2,1.3v0.4h0.6Z"/></clipPath><linearGradient id="New_Gradient_Swatch_2-2" x1="23.01" y1="20.75" x2="27.74" y2="26.43" xlink:href="#New_Gradient_Swatch_2"/><clipPath id="clip-path-9"><path class="cls-2" d="M22.4,17.8h2.8l3.6,0.5a24.2,24.2,0,0,1,5.4,1.9L35,20.7a0.3,0.3,0,0,0,.4-0.2,0.3,0.3,0,0,0-.2-0.4l-0.8-.3a24.7,24.7,0,0,0-5.5-1.9l-3.6-.5H21.8a0.3,0.3,0,0,0-.3.5h0v0.2l0.2,0.6L22,19.3v0.3a5,5,0,0,1-.2,1.4l-0.2.7-0.2.8v0.3h0a0.3,0.3,0,0,0,.2.4,0.3,0.3,0,0,0,.4-0.2h0V22.7l0.3-.9,0.2-.7a5.5,5.5,0,0,0,.2-1.6V19.2a7.2,7.2,0,0,0-.3-1V17.8h0.1Z"/></clipPath><clipPath id="clip-path-11"><path class="cls-2" d="M22.4,21.6V21.1a5.5,5.5,0,0,0,.2-1.6V19.2a7.2,7.2,0,0,0-.3-1V17.8h3l3.6,0.5a24.2,24.2,0,0,1,5.4,1.9L35,20.7a0.3,0.3,0,0,0,.4-0.2,0.3,0.3,0,0,0-.2-0.4l-0.8-.3a24.7,24.7,0,0,0-5.5-1.9l-3.6-.5H21.8a0.3,0.3,0,0,0-.3.5h0v0.2l0.2,0.6L22,19.3v0.3a5,5,0,0,1-.2,1.4v0.6h0.6Z"/></clipPath><clipPath id="clip-path-13"><path class="cls-3" d="M20.9,21.6V21.4a4.5,4.5,0,0,0,.3-1.4,2.9,2.9,0,0,0-.1-0.6,5.3,5.3,0,0,0-.3-1l-0.3-.6V17.6a0.3,0.3,0,0,0-.4-0.1,0.3,0.3,0,0,0-.1.4h0.1l0.2,0.5a4.7,4.7,0,0,1,.3.9,2.2,2.2,0,0,1,.1.5,3.9,3.9,0,0,1-.2,1.2v0.4h0.6Z"/></clipPath></defs><title>view-source-button</title><g class="cls-4"><g class="cls-5"><rect class="cls-6" x="11" y="5" width="28.3" height="7.92"/><polyline class="cls-7" points="36 16.6 39.3 16.2 39.3 15.2 39.3 12.9 39.1 12.1 28.5 12.1 28.5 12.9 11.7 12.9 11.7 15.2 14 15.9 22.6 16.6 24.5 16.6"/><polygon class="cls-8" points="22.6 15.2 32.4 15.2 32.4 16.2 39.4 16.2 39.4 20.8 24.8 20.8 24.8 21.6 11.7 21.6 11.7 16.2 15.8 15.9 22.6 16 22.6 15.2"/><g class="cls-9"><g class="cls-10"><rect class="cls-11" x="21" y="8.1" width="14.7" height="6.83"/></g></g><g class="cls-12"><g class="cls-13"><rect class="cls-3" x="21.2" y="8" width="14.5" height="5.21"/></g></g><g class="cls-14"><g class="cls-10"><rect class="cls-11" x="19.6" y="8.4" width="2" height="5.41"/></g></g><path class="cls-3" d="M20.9,12.9V12.7a4.6,4.6,0,0,0,.3-1.5,2.9,2.9,0,0,0-.1-0.6,5.4,5.4,0,0,0-.3-1L20.6,9V8.8a0.3,0.3,0,0,0-.4-0.1,0.3,0.3,0,0,0-.1.4h0.1l0.2,0.5a4.8,4.8,0,0,1,.3.9,2.3,2.3,0,0,1,.1.5,4,4,0,0,1-.2,1.3v0.4h0.6Z"/><g class="cls-15"><rect class="cls-3" x="11.7" y="5" width="27.6" height="21.94"/></g><polygon class="cls-16" points="39.3 26.7 11.7 26.7 11.7 21.6 24.8 21.6 24.8 20.8 39.3 20.8 39.3 26.7"/><g class="cls-17"><g class="cls-10"><rect class="cls-18" x="21" y="16.8" width="14.7" height="6.83"/></g></g><g class="cls-19"><g class="cls-10"><rect class="cls-3" x="21.2" y="16.8" width="14.5" height="5.14"/></g></g><path class="cls-18" d="M20,18h0.1l0.2,0.5a4.7,4.7,0,0,1,.3.9,2.2,2.2,0,0,1,.1.5,3.9,3.9,0,0,1-.2,1.2l-0.2.4H20.2a0.3,0.3,0,0,0,.1.4,0.3,0.3,0,0,0,.4-0.1V21.9l0.2-.5a4.5,4.5,0,0,0,.3-1.4,2.9,2.9,0,0,0-.1-0.6,5.3,5.3,0,0,0-.3-1l-0.3-.6V17.6a0.3,0.3,0,0,0-.4-0.1A0.3,0.3,0,0,0,20,18Z"/><path class="cls-3" d="M20.9,21.6V21.4a4.5,4.5,0,0,0,.3-1.4,2.9,2.9,0,0,0-.1-0.6,5.3,5.3,0,0,0-.3-1l-0.3-.6V17.6a0.3,0.3,0,0,0-.4-0.1,0.3,0.3,0,0,0-.1.4h0.1l0.2,0.5a4.7,4.7,0,0,1,.3.9,2.2,2.2,0,0,1,.1.5,3.9,3.9,0,0,1-.2,1.2v0.4h0.6Z"/><g class="cls-20"><rect class="cls-3" x="11.7" y="5" width="27.6" height="21.64"/></g></g></g><circle cx="16.4" cy="10.7" r="1.2"/><path class="cls-21" d="M15.2,10.6h0a1.3,1.3,0,1,1,1.3,1.3,1.2,1.2,0,0,1-1.3-1.1,0.9,0.9,0,0,0,1,.8A1,1,0,1,0,15.2,10.6Z"/><circle class="cls-22" cx="15.7" cy="10.9" r="0.3"/><circle cx="16.4" cy="19.4" r="1.2"/><path class="cls-21" d="M15.2,19.3h0a1.3,1.3,0,1,1,1.3,1.3,1.2,1.2,0,0,1-1.3-1.1,0.9,0.9,0,0,0,1,.8A1,1,0,1,0,15.2,19.3Z"/><circle class="cls-22" cx="15.7" cy="19.7" r="0.3"/><path d="M48.1,21L44.5,10.6h1.8L49,18.7h0l2.7-8.1h1.7L49.8,21H48.1Z"/><path d="M54.5,12.3V10.8h1.8v1.5H54.5Zm0,8.7V13.6h1.7V21H54.5Z"/><path d="M57.8,17.3a3.5,3.5,0,0,1,3.5-3.9c1.7,0,3.3,1,3.3,4v0.4H59.5a1.8,1.8,0,0,0,2,1.9,2.7,2.7,0,0,0,2.1-.9l0.9,0.9a4,4,0,0,1-3.1,1.3C59.5,21.2,57.8,20,57.8,17.3Zm5.2-.7a1.6,1.6,0,0,0-1.7-1.7,1.7,1.7,0,0,0-1.8,1.7H63Z"/><path d="M67.4,21l-2.2-7.4H67l0.8,3.1c0.2,0.8.4,1.4,0.6,2.4h0c0.2-1,.4-1.5.6-2.4l0.8-3.1h1.4L72,16.7c0.2,0.8.4,1.4,0.6,2.3h0c0.2-1,.3-1.5.6-2.3L74,13.6h1.6L73.3,21H71.7l-1.3-5.2h0L69,21H67.4Z"/><path d="M79.9,18.6l1.4-.7a3,3,0,0,0,2.9,1.8c1.3,0,2.1-.4,2.1-1.3s-0.6-1.3-2.4-1.8-3.6-1.1-3.6-3.1,1.4-2.9,3.5-2.9a4.1,4.1,0,0,1,3.9,2.2l-1.3.9A2.9,2.9,0,0,0,83.8,12c-1.1,0-1.8.4-1.8,1.2s0.7,1.3,2.4,1.8,3.5,1.2,3.5,3.2-1.4,3-3.9,3A4.3,4.3,0,0,1,79.9,18.6Z"/><path d="M89.1,17.3a3.6,3.6,0,1,1,7.3,0A3.6,3.6,0,1,1,89.1,17.3Zm5.5,0c0-1.4-.6-2.4-1.9-2.4s-1.9.9-1.9,2.4,0.6,2.4,1.9,2.4S94.6,18.8,94.6,17.3Z"/><path d="M97.8,18.9V13.6h1.7v4.9a1,1,0,0,0,1.1,1.2,3,3,0,0,0,2-1V13.6h1.7V21h-1.7V20a3.7,3.7,0,0,1-2.7,1.1A2,2,0,0,1,97.8,18.9Z"/><path d="M106.3,21V13.6H108v1.2h0a2.9,2.9,0,0,1,2.7-1.4h0.1V15h-0.5a2.5,2.5,0,0,0-2.3,1.3V21h-1.7Z"/><path d="M111.3,17.3a3.5,3.5,0,0,1,3.6-3.9,3,3,0,0,1,3.1,2.2l-1.5.5a1.6,1.6,0,0,0-1.7-1.2c-1,0-1.8.6-1.8,2.4s0.6,2.5,1.8,2.5a1.6,1.6,0,0,0,1.7-1.3L118,19a3.3,3.3,0,0,1-3.2,2.2C113,21.2,111.3,20,111.3,17.3Z"/><path d="M118.8,17.3a3.5,3.5,0,0,1,3.5-3.9c1.7,0,3.3,1,3.3,4v0.4h-5.1a1.8,1.8,0,0,0,2,1.9,2.7,2.7,0,0,0,2.1-.9l0.9,0.9a4,4,0,0,1-3.1,1.3C120.5,21.2,118.8,20,118.8,17.3Zm5.2-.7a1.6,1.6,0,0,0-1.7-1.7,1.7,1.7,0,0,0-1.8,1.7H124Z"/><rect class="cls-23" x="1.1" y="0.9" width="134.2" height="30.95" rx="5" ry="5"/></svg>