<svg id="Layer_1" data-name="Layer 1" xmlns="http://www.w3.org/2000/svg" xmlns:xlink="http://www.w3.org/1999/xlink" viewBox="0 0 136 33"><defs><style>.cls-1,.cls-2,.cls-4{fill:none;}.cls-1{clip-rule:evenodd;}.cls-3{fill:#f1a5ff;}.cls-4{stroke:#000222;stroke-miterlimit:10;stroke-width:2px;}.cls-5{clip-path:url(#clip-path);}.cls-6{isolation:isolate;}.cls-7{fill:url(#New_Gradient_Swatch_1);}.cls-8{fill:url(#New_Gradient_Swatch_2);}.cls-22,.cls-9{fill-rule:evenodd;}.cls-9{fill:url(#linear-gradient);}.cls-10{clip-path:url(#clip-path-2);}.cls-11{clip-path:url(#clip-path-3);}.cls-12{fill:#974dff;}.cls-13{clip-path:url(#clip-path-4);}.cls-14{clip-path:url(#clip-path-5);}.cls-15{clip-path:url(#clip-path-6);}.cls-16{clip-path:url(#clip-path-8);}.cls-17{fill:url(#New_Gradient_Swatch_2-2);}.cls-18{clip-path:url(#clip-path-9);}.cls-19{fill:#373fff;}.cls-20{clip-path:url(#clip-path-11);}.cls-21{clip-path:url(#clip-path-13);}.cls-22,.cls-23{fill:#fff;}</style><clipPath id="clip-path"><path class="cls-1" d="M109.18,22.64a1.79,1.79,0,0,1,.15.86,2.27,2.27,0,0,1-.59.06,3.89,3.89,0,0,1-1.65,0,2.53,2.53,0,0,1-1.59-1.39l0,0c-.06,0-.09,0-.1,0a6.74,6.74,0,0,1-1.6.12,6.63,6.63,0,0,1-3.33-1.66s1.06-.26,1.06-.48-1.21-.62-1.21-.62-.18-1,1.11-2a7.8,7.8,0,0,1,2.25-1.32,6.76,6.76,0,0,1-3.21-1.66s1.06-.26,1.06-.47-1.21-.62-1.21-.62a2.28,2.28,0,0,1,1.11-2,5.91,5.91,0,0,1,3.35-1.53c1.09-.06,1.46-.06,1.46-.06s.94-1.28,1.44-1.28c.25,0,3.89.78,4.21,1.28a1.3,1.3,0,0,0,.63.59c.16.12.06,0,.79.19,1.83.41,1.58.57,2.94.81.55.11,3.07-1.13,3.31-1a2.38,2.38,0,0,1-.24,1.82c-.43.69.35,1.27,0,2.15s.4,1.52.24,1.81-2.84-1-3.31-.87a29.85,29.85,0,0,1-3.94,1.07,1.43,1.43,0,0,1,.21.12c.16.12.06,0,.79.18,1.83.41,1.58.57,2.94.82.55.1,3.07-1.14,3.31-1a2.38,2.38,0,0,1-.24,1.82c-.43.7.35,1.28,0,2.15s.4,1.53.24,1.82-2.84-1-3.31-.88a26.31,26.31,0,0,1-4.8,1.22A12.81,12.81,0,0,1,109.18,22.64Z"/></clipPath><linearGradient id="New_Gradient_Swatch_1" x1="109.75" y1="8.47" x2="109.75" y2="13.99" gradientUnits="userSpaceOnUse"><stop offset="0" stop-color="#e559ff"/><stop offset="1" stop-color="#924dff"/></linearGradient><linearGradient id="New_Gradient_Swatch_2" x1="105.03" y1="11.21" x2="113.1" y2="16.6" gradientUnits="userSpaceOnUse"><stop offset="0" stop-color="#f1a5ff"/><stop offset="1" stop-color="#ff686c"/></linearGradient><linearGradient id="linear-gradient" x1="110.07" y1="15.5" x2="110.07" y2="20.21" gradientUnits="userSpaceOnUse"><stop offset="0" stop-color="#6f3cff"/><stop offset="1" stop-color="#3633ff"/></linearGradient><clipPath id="clip-path-2"><path class="cls-2" d="M107.84,11.31l1,0,.31,0,.69,0a23.48,23.48,0,0,1,2.52.36,17.51,17.51,0,0,1,3.79,1.31l.54.24a.2.2,0,0,0,.27-.13.25.25,0,0,0-.11-.3l-.55-.24a17.3,17.3,0,0,0-3.87-1.33,24.3,24.3,0,0,0-2.56-.37l-.7,0-.31,0-1-.05-.32,0h-.12a.23.23,0,0,0-.19.34l0,0s0,.07,0,.11.1.26.15.4a4.25,4.25,0,0,1,.17.63l0,.21a3.4,3.4,0,0,1-.12,1,4.64,4.64,0,0,1-.12.47c-.05.2-.11.4-.17.59l-.06.18v.05h0a.25.25,0,0,0,.12.3.21.21,0,0,0,.27-.14h0v-.05l.06-.19c.06-.19.12-.4.18-.6s.08-.34.12-.5a3.69,3.69,0,0,0,.13-1.13,2.17,2.17,0,0,0,0-.25,4.93,4.93,0,0,0-.18-.71l-.09-.24Z"/></clipPath><clipPath id="clip-path-3"><rect class="cls-2" x="100.35" y="8.47" width="19.35" height="15.17"/></clipPath><clipPath id="clip-path-4"><path class="cls-2" d="M107.85,14c0-.11.05-.22.07-.32a3.78,3.78,0,0,0,.13-1.14,2.34,2.34,0,0,0,0-.26,4.93,4.93,0,0,0-.18-.71l-.09-.25h.1l1,0,.31,0,.69,0a23.64,23.64,0,0,1,2.52.37,17.08,17.08,0,0,1,3.79,1.32l.54.25a.21.21,0,0,0,.27-.14.25.25,0,0,0-.11-.3l-.55-.25a16.89,16.89,0,0,0-3.87-1.34,20,20,0,0,0-2.56-.37l-.7,0-.31,0-1-.05-.32,0h-.12a.23.23,0,0,0-.19.34l0,0s0,.07,0,.11l.15.4a4.36,4.36,0,0,1,.17.64l0,.22a3.5,3.5,0,0,1-.12,1c0,.13-.07.28-.1.43Z"/></clipPath><clipPath id="clip-path-5"><rect class="cls-2" x="100.35" y="8.44" width="19.35" height="15.37"/></clipPath><clipPath id="clip-path-6"><path class="cls-2" d="M106.16,11.38l0,0,.06.1.17.35a3.5,3.5,0,0,1,.2.63,1.2,1.2,0,0,1,0,.31,2.82,2.82,0,0,1-.16.87l-.12.29,0,.08,0,0a.22.22,0,0,0,.08.29.18.18,0,0,0,.25-.08.53.53,0,0,0,.06-.13,2.52,2.52,0,0,0,.13-.33,3.05,3.05,0,0,0,.19-1,1.9,1.9,0,0,0,0-.4,2.93,2.93,0,0,0-.23-.71,3.54,3.54,0,0,0-.19-.39,1.14,1.14,0,0,1-.08-.16.18.18,0,0,0-.27-.05A.22.22,0,0,0,106.16,11.38Z"/></clipPath><clipPath id="clip-path-8"><path class="cls-3" d="M106.8,14l0-.12a3.22,3.22,0,0,0,.19-1,2,2,0,0,0,0-.41,3.15,3.15,0,0,0-.23-.72,3.54,3.54,0,0,0-.19-.39c0-.08-.07-.13-.08-.16a.19.19,0,0,0-.27-.06.23.23,0,0,0,0,.29l0,0,.06.1.17.36a3.5,3.5,0,0,1,.2.63,1.33,1.33,0,0,1,0,.32,2.83,2.83,0,0,1-.16.88c0,.09-.07.18-.1.27Z"/></clipPath><linearGradient id="New_Gradient_Swatch_2-2" x1="108.28" y1="19.51" x2="111.61" y2="23.49" xlink:href="#New_Gradient_Swatch_2"/><clipPath id="clip-path-9"><path class="cls-2" d="M107.84,17.47l1,.05h.31l.69,0a21.2,21.2,0,0,1,2.52.36,16.9,16.9,0,0,1,3.79,1.3l.54.25a.2.2,0,0,0,.27-.13.24.24,0,0,0-.11-.3l-.55-.25a17.21,17.21,0,0,0-3.87-1.32,20,20,0,0,0-2.56-.37l-.7-.05h-.31l-1-.06h-.44a.23.23,0,0,0-.19.34l0,0s0,.07,0,.11.1.25.15.39a4.36,4.36,0,0,1,.17.64l0,.21a3.31,3.31,0,0,1-.12,1,4.81,4.81,0,0,1-.12.48c-.05.2-.11.4-.17.59l-.06.18V21a.25.25,0,0,0,.12.3.21.21,0,0,0,.27-.14v-.07l.06-.18c.06-.19.12-.4.18-.61l.12-.49a3.69,3.69,0,0,0,.13-1.13c0-.08,0-.17,0-.26a5.16,5.16,0,0,0-.18-.7l-.09-.24Z"/></clipPath><clipPath id="clip-path-11"><path class="cls-2" d="M107.85,20.09c0-.11.05-.21.07-.31a3.69,3.69,0,0,0,.13-1.13c0-.08,0-.17,0-.26a5.16,5.16,0,0,0-.18-.7l-.09-.24h.1l1,.05.31,0,.69,0a23.48,23.48,0,0,1,2.52.36,16.9,16.9,0,0,1,3.79,1.3c.12.06.54.24.54.25a.2.2,0,0,0,.27-.13.24.24,0,0,0-.11-.3l-.55-.24a16.81,16.81,0,0,0-3.87-1.33,21.94,21.94,0,0,0-2.56-.37l-.7-.05h-.31l-1-.06h-.44a.23.23,0,0,0-.19.34l0,0s0,.07,0,.11.1.26.15.39a4.36,4.36,0,0,1,.17.64l0,.21a3.31,3.31,0,0,1-.12,1c0,.14-.07.28-.1.43Z"/></clipPath><clipPath id="clip-path-13"><path class="cls-3" d="M106.8,20.09l0-.12a3.05,3.05,0,0,0,.19-1,2.08,2.08,0,0,0,0-.41,3.24,3.24,0,0,0-.23-.71c-.06-.13-.12-.26-.19-.38a1.14,1.14,0,0,1-.08-.16.2.2,0,0,0-.27-.06.23.23,0,0,0,0,.29l0,0,.06.1.17.35a3.5,3.5,0,0,1,.2.63,1.2,1.2,0,0,1,0,.31,2.82,2.82,0,0,1-.16.87c0,.09-.07.18-.1.26Z"/></clipPath></defs><title>view-source</title><rect class="cls-4" x="1" y="0.92" width="134" height="31.16" rx="5" ry="5"/><g class="cls-5"><g class="cls-6"><rect class="cls-7" x="99.83" y="8.47" width="19.82" height="5.55"/><polyline class="cls-8" points="117.41 16.62 119.68 16.31 119.73 15.59 119.73 13.97 119.55 13.4 112.16 13.4 112.16 13.97 100.35 13.97 100.35 15.59 101.95 16.11 107.99 16.62 109.3 16.62"/><polygon class="cls-9" points="107.99 15.59 114.86 15.59 114.86 16.33 119.79 16.31 119.79 19.52 109.55 19.52 109.55 20.09 100.35 20.09 100.35 16.31 103.22 16.11 107.99 16.14 107.99 15.59"/><g class="cls-10"><g class="cls-11"><rect class="cls-12" x="106.9" y="10.61" width="10.29" height="4.79"/></g></g><g class="cls-13"><g class="cls-14"><rect class="cls-3" x="106.99" y="10.56" width="10.19" height="3.65"/></g></g><g class="cls-15"><g class="cls-11"><rect class="cls-12" x="105.9" y="10.84" width="1.38" height="3.79"/></g></g><path class="cls-3" d="M106.8,14l0-.12a3.22,3.22,0,0,0,.19-1,2,2,0,0,0,0-.41,3.15,3.15,0,0,0-.23-.72,3.54,3.54,0,0,0-.19-.39c0-.08-.07-.13-.08-.16a.19.19,0,0,0-.27-.06.23.23,0,0,0,0,.29l0,0,.06.1.17.36a3.5,3.5,0,0,1,.2.63,1.33,1.33,0,0,1,0,.32,2.83,2.83,0,0,1-.16.88c0,.09-.07.18-.1.27Z"/><g class="cls-16"><rect class="cls-3" x="100.35" y="8.44" width="19.35" height="15.38"/></g><polygon class="cls-17" points="119.68 23.65 100.34 23.65 100.34 20.09 109.54 20.09 109.54 19.51 119.68 19.51 119.68 23.65"/><g class="cls-18"><g class="cls-11"><rect class="cls-19" x="106.9" y="16.72" width="10.29" height="4.79"/></g></g><g class="cls-20"><g class="cls-11"><rect class="cls-3" x="106.99" y="16.72" width="10.19" height="3.6"/></g></g><path class="cls-19" d="M106.16,17.54l0,0a.44.44,0,0,1,.06.1l.17.35a3.5,3.5,0,0,1,.2.63,1.2,1.2,0,0,1,0,.31,2.82,2.82,0,0,1-.16.87l-.12.29,0,.08,0,0a.21.21,0,0,0,.08.28.17.17,0,0,0,.25-.07.53.53,0,0,0,.06-.13,2.52,2.52,0,0,0,.13-.33,3.05,3.05,0,0,0,.19-1,2.08,2.08,0,0,0,0-.41,3.24,3.24,0,0,0-.23-.71c-.06-.13-.12-.26-.19-.38a1.14,1.14,0,0,1-.08-.16.2.2,0,0,0-.27-.06A.23.23,0,0,0,106.16,17.54Z"/><path class="cls-3" d="M106.8,20.09l0-.12a3.05,3.05,0,0,0,.19-1,2.08,2.08,0,0,0,0-.41,3.24,3.24,0,0,0-.23-.71c-.06-.13-.12-.26-.19-.38a1.14,1.14,0,0,1-.08-.16.2.2,0,0,0-.27-.06.23.23,0,0,0,0,.29l0,0,.06.1.17.35a3.5,3.5,0,0,1,.2.63,1.2,1.2,0,0,1,0,.31,2.82,2.82,0,0,1-.16.87c0,.09-.07.18-.1.26Z"/><g class="cls-21"><rect class="cls-3" x="100.35" y="8.47" width="19.35" height="15.17"/></g></g></g><circle cx="103.64" cy="12.43" r="0.84"/><path class="cls-22" d="M102.81,12.36h0a.9.9,0,1,1,.9.93.82.82,0,0,1-.89-.77.66.66,0,0,0,.68.58.72.72,0,1,0-.69-.73Z"/><circle class="cls-23" cx="103.17" cy="12.62" r="0.23"/><circle cx="103.64" cy="18.56" r="0.84"/><path class="cls-22" d="M102.81,18.49h0a.9.9,0,1,1,.9.93.82.82,0,0,1-.89-.77.65.65,0,0,0,.68.58.72.72,0,1,0-.69-.73Z"/><circle class="cls-23" cx="103.17" cy="18.75" r="0.23"/><path d="M17.36,21.21,13.76,10.8h1.78l2.67,8.09h0L21,10.8h1.65L19,21.21Z"/><path d="M23.7,12.44v-1.5h1.76v1.5Zm0,8.73V13.73h1.74v7.44Z"/><path d="M27,17.46a3.54,3.54,0,0,1,3.55-3.87c1.66,0,3.26,1,3.26,4V18H28.76a1.83,1.83,0,0,0,2,1.93,2.69,2.69,0,0,0,2.09-.87l.91.9a4,4,0,0,1-3.12,1.34C28.76,21.32,27,20.19,27,17.46Zm5.23-.73c-.1-1.14-.66-1.74-1.7-1.74a1.75,1.75,0,0,0-1.78,1.74Z"/><path d="M36.65,21.17l-2.21-7.44h1.75L37,16.81c.22.84.36,1.42.56,2.37h0c.22-1,.35-1.54.59-2.4L39,13.73h1.4l.83,3.11c.24.83.36,1.39.57,2.34h0c.22-1,.35-1.5.59-2.31l.84-3.14h1.57l-2.21,7.44H41L39.62,16h0l-1.34,5.17Z"/><path d="M49.09,18.73,50.48,18a3,3,0,0,0,2.86,1.81c1.26,0,2.12-.41,2.12-1.34s-.65-1.32-2.36-1.83c-2-.58-3.61-1.13-3.61-3.11,0-1.76,1.44-2.92,3.54-2.92a4.09,4.09,0,0,1,3.88,2.22l-1.27.89A2.87,2.87,0,0,0,53,12.2c-1.15,0-1.81.42-1.81,1.18,0,1,.74,1.29,2.44,1.79,2,.58,3.53,1.22,3.53,3.17,0,1.69-1.45,3-3.91,3A4.31,4.31,0,0,1,49.09,18.73Z"/><path d="M58.31,17.46a3.63,3.63,0,1,1,7.25,0,3.63,3.63,0,1,1-7.25,0Zm5.52,0c0-1.39-.59-2.4-1.9-2.4S60,16,60,17.46s.58,2.42,1.89,2.42S63.83,19,63.83,17.46Z"/><path d="M67,19.07V13.73h1.73v4.93c0,.83.35,1.21,1.11,1.21a3,3,0,0,0,2-1V13.73h1.74v7.44H71.85v-1a3.73,3.73,0,0,1-2.72,1.15A2,2,0,0,1,67,19.07Z"/><path d="M75.51,21.17V13.73h1.73V15h0a2.94,2.94,0,0,1,2.68-1.36h.11l0,1.58-.47,0a2.51,2.51,0,0,0-2.29,1.31v4.71Z"/><path d="M80.51,17.46c0-2.85,1.92-3.87,3.57-3.87a3,3,0,0,1,3.09,2.17l-1.46.52A1.64,1.64,0,0,0,84.05,15c-1,0-1.8.65-1.8,2.43,0,1.58.64,2.45,1.78,2.45a1.64,1.64,0,0,0,1.73-1.29l1.43.52A3.26,3.26,0,0,1,84,21.32C82.26,21.32,80.51,20.17,80.51,17.46Z"/><path d="M88,17.46a3.54,3.54,0,0,1,3.54-3.87c1.67,0,3.27,1,3.27,4V18H89.75a1.84,1.84,0,0,0,2,1.93,2.69,2.69,0,0,0,2.09-.87l.91.9a4,4,0,0,1-3.13,1.34C89.75,21.32,88,20.19,88,17.46Zm5.22-.73c-.09-1.14-.66-1.74-1.69-1.74a1.75,1.75,0,0,0-1.78,1.74Z"/></svg>