<svg xmlns="http://www.w3.org/2000/svg" viewBox="0 0 346.0832 533.5795"><defs><style>.cls-1{fill:#ffa5af;}.cls-1,.cls-10,.cls-11,.cls-12,.cls-13,.cls-14,.cls-15,.cls-17,.cls-19,.cls-2,.cls-20,.cls-21,.cls-22,.cls-23,.cls-25,.cls-26,.cls-27,.cls-28,.cls-3,.cls-4,.cls-5,.cls-6,.cls-7,.cls-8,.cls-9{stroke:#000;}.cls-1,.cls-10,.cls-11,.cls-12,.cls-13,.cls-14,.cls-15,.cls-16,.cls-17,.cls-19,.cls-2,.cls-20,.cls-21,.cls-22,.cls-25,.cls-27,.cls-28,.cls-3,.cls-4,.cls-6,.cls-7,.cls-8,.cls-9{stroke-miterlimit:10;}.cls-1,.cls-10,.cls-11,.cls-12,.cls-13,.cls-14,.cls-15,.cls-16,.cls-17,.cls-19,.cls-2,.cls-20,.cls-21,.cls-22,.cls-23,.cls-25,.cls-26,.cls-27,.cls-28,.cls-3,.cls-4,.cls-5,.cls-6,.cls-7,.cls-8,.cls-9{stroke-width:2.5px;}.cls-2{fill:#1cfefe;}.cls-23,.cls-24,.cls-3{fill:#fff;}.cls-28,.cls-5{fill:#ff5648;}.cls-23,.cls-5{stroke-linecap:round;}.cls-23,.cls-26,.cls-5{stroke-linejoin:round;}.cls-6{fill:#939598;}.cls-18,.cls-7{fill:#2bd451;}.cls-8{fill:#414042;}.cls-9{fill:#ff5242;}.cls-10{fill:#c6bff2;}.cls-11{fill:#c9c1f3;}.cls-12{fill:#58595b;}.cls-13{fill:#eaff00;}.cls-14{fill:none;}.cls-15,.cls-16,.cls-26{fill:#ffdf07;}.cls-16{stroke:#fde104;}.cls-17{fill:#ffc8e0;}.cls-19{fill:#ff5c30;}.cls-20{fill:#6b58ff;}.cls-21{fill:#f15a29;}.cls-22{fill:#f1f2f2;}.cls-25{fill:#538aef;}.cls-27{fill:#00d24b;}</style></defs><title>whats-glitch-narrow</title><g id="panel_1" data-name="panel 1"><rect class="cls-1" x="7.6698" y="81.69" width="63.9479" height="24.6494" rx="5" ry="5"/><rect class="cls-1" x="1.5" y="16.0672" width="76.2876" height="70.558" rx="5" ry="5"/><rect class="cls-2" x="7.6698" y="21.9348" width="63.9479" height="51.5709" rx="10" ry="10"/><circle class="cls-3" cx="50.8552" cy="40.6735" r="8.3828"/><circle class="cls-4" cx="49.8552" cy="42.052" r="2.9224"/><circle class="cls-3" cx="29.3641" cy="40.6105" r="8.3828"/><circle class="cls-4" cx="30.3641" cy="41.989" r="2.9224"/><path class="cls-5" d="M27.6438,54.39c0,6.0751,5.3726,11,12,11s12-4.9249,12-11Z"/><line class="cls-6" x1="19.8222" y1="95.6608" x2="45.7112" y2="95.6608"/><circle class="cls-7" cx="56.3401" cy="95.6608" r="3.8685"/><path d="M84.9944,19.2623c-.8584-4.0225,1.0527-6.4932,3.98-7.1182a4.43,4.43,0,0,1,5.4746,2.6445l-2.26,1.22c-.66-1.251-1.418-2.0381-2.7793-1.748-1.7539.375-2.375,2.0625-1.8643,4.458.5215,2.4414,1.82,3.7686,3.5732,3.3945,1.3613-.291,1.8516-1.2959,1.92-2.9639l2.5088.0205c-.0654,2.4531-1.0947,4.375-4.0068,4.9971C88.5207,24.8112,85.8674,23.3483,84.9944,19.2623Z"/><path d="M96.1731,14.2252l2.5205-.5381L98.99,15.08l.0156-.0029A3.2285,3.2285,0,0,1,101.49,12.91l.0781-.0166.4463,2.2451c-.0977.0039-.5107.06-.668.0928a2.85,2.85,0,0,0-1.9785,1.6172l1.1064,5.1816-2.5205.5381Z"/><path d="M103.2307,17.0875a4.19,4.19,0,0,1,3.2656-5.2471c1.7227-.3672,4.02.042,4.8281,3.83l.08.376-5.5254,1.18a1.8551,1.8551,0,0,0,2.3486,1.4951,3.9136,3.9136,0,0,0,2.2588-1.5293l1.292,1.2949a5.5122,5.5122,0,0,1-3.3652,2.0283C106.2385,20.98,103.9192,20.3121,103.2307,17.0875Zm5.6016-2.0469c-.375-1.1475-1.0283-1.5967-1.9668-1.3965-.7822.167-1.3457.8271-1.2725,2.0889Z"/><path d="M112.5988,17.2155c-.4111-1.9258.99-3.3379,4.59-4.417l-.0439-.2031c-.13-.6113-.5264-.9355-1.3408-.7617a4.5407,4.5407,0,0,0-2.5186,1.6182l-1.3721-1.2129a5.9825,5.9825,0,0,1,3.8467-2.376c2.2852-.4883,3.4648.4385,3.9229,2.583l.6855,3.209a5.813,5.813,0,0,0,.6689,1.9844l-2.5049.5352a4.0768,4.0768,0,0,1-.4482-1.1807,3.7733,3.7733,0,0,1-2.624,1.9678A2.2794,2.2794,0,0,1,112.5988,17.2155Zm5.2148-1.4893-.3311-1.5508c-1.9443.6289-2.6826,1.3105-2.52,2.0771.1143.5322.5469.7178,1.0938.6006A2.6415,2.6415,0,0,0,117.8137,15.7262Z"/><path d="M122.802,14.8082l-.89-4.1641-1.3926.2969L120.1291,9.11l1.3926-.2969L120.91,5.9479l2.5049-.5342.6113,2.8643,2.1445-.458.3916,1.8311-2.1445.458.7715,3.6162c.19.8926.501,1.12,1.4092.9268a3.179,3.179,0,0,0,.81-.2715l.3838,1.8008a12.4447,12.4447,0,0,1-1.6318.4795C123.6867,17.1881,123.136,16.3737,122.802,14.8082Z"/><path d="M127.968,11.8063a4.19,4.19,0,0,1,3.2666-5.2471c1.7217-.3682,4.0186.042,4.8271,3.83l.0811.376-5.5264,1.18a1.857,1.857,0,0,0,2.35,1.4951,3.9225,3.9225,0,0,0,2.2588-1.53l1.292,1.2959a5.5155,5.5155,0,0,1-3.3652,2.0273C130.9758,15.6979,128.6565,15.0309,127.968,11.8063Zm5.6025-2.0469c-.376-1.1475-1.0283-1.5977-1.9668-1.3975-.7832.168-1.3457.8281-1.2734,2.0889Z"/><path d="M141.5461,11.0348c-.4111-1.9248.99-3.3369,4.59-4.417l-.0439-.2031c-.13-.6113-.5264-.9355-1.3408-.7617a4.5407,4.5407,0,0,0-2.5186,1.6182l-1.3721-1.2129a5.9863,5.9863,0,0,1,3.8467-2.376c2.2852-.4883,3.4648.4385,3.9229,2.583l.6855,3.209a5.8284,5.8284,0,0,0,.6689,1.9854l-2.5049.5342a4.0768,4.0768,0,0,1-.4482-1.1807,3.7727,3.7727,0,0,1-2.624,1.9678A2.2781,2.2781,0,0,1,141.5461,11.0348Zm5.2148-1.4893L146.43,7.9948c-1.9443.6289-2.6826,1.3105-2.52,2.0771.1143.5322.5469.7178,1.0938.6006A2.638,2.638,0,0,0,146.761,9.5455Z"/><path d="M149.8117,2.7731l2.5205-.5381.28,1.3145a3.6513,3.6513,0,0,1,2.5635-2.1025,2.2339,2.2339,0,0,1,2.9434,1.9082l1.3008,6.09-2.5049.5342-1.13-5.291c-.16-.751-.5254-1.082-1.2295-.9316a2.8787,2.8787,0,0,0-1.64,1.2178l1.1973,5.6035-2.5205.5381Z"/><path d="M91.4865,31.4215l2.4258-.5186,6.585,10.7549-2.583.5518L96.5022,39.81l-3.9453.8428-.3408,2.7734-2.3477.501ZM95.5119,38.09,93.34,34.43l-.0312.0059-.52,4.2363Z"/><path d="M99.9319,33.0553l2.5205-.5381.2705,1.2676a3.1561,3.1561,0,0,1,2.26-1.9883c1.8945-.4043,3.52.7705,4.1348,3.65s-.4121,4.5889-2.3213,4.9971a3.2473,3.2473,0,0,1-2.7734-.5693l.8789,4.1162-2.52.5381Zm6.6689,2.9453c-.2979-1.3926-.97-2.165-2.0977-1.9248a2.4984,2.4984,0,0,0-1.47,1.165l.6582,3.083a2.3159,2.3159,0,0,0,1.8389.41C106.5793,38.51,106.925,37.5192,106.6008,36.0006Z"/><path d="M109.6965,30.97l2.52-.5381.2715,1.2686a3.1574,3.1574,0,0,1,2.26-1.9893c1.8936-.4043,3.52.7715,4.1348,3.6514s-.4121,4.5889-2.3213,4.9961a3.2466,3.2466,0,0,1-2.7734-.5693l.8789,4.1172-2.5205.5371Zm6.6689,2.9463c-.2979-1.3926-.9707-2.166-2.0977-1.9258a2.5006,2.5006,0,0,0-1.47,1.166l.6582,3.083a2.3122,2.3122,0,0,0,1.8389.4092C116.344,36.4254,116.69,35.4352,116.3654,33.9166Z"/><path d="M124.1076,32.2633a4.3626,4.3626,0,1,1,8.5313-1.8213,4.3623,4.3623,0,1,1-8.5312,1.8213Zm6.0137-1.2676c-.2969-1.3936-1.0234-2.417-2.2754-2.1494-1.2051.2578-1.5352,1.3916-1.2148,2.8945.2979,1.3936,1.0137,2.4512,2.2979,2.1777C130.1184,33.6637,130.4455,32.5143,130.1213,30.9957Z"/><path d="M133.1975,25.9528l2.5205-.5381.2969,1.3926.0156-.0029a3.23,3.23,0,0,1,2.4844-2.167l.0781-.0166.4463,2.2451c-.0967.0049-.5107.06-.667.0928a2.8542,2.8542,0,0,0-1.9795,1.6172l1.1064,5.1816-2.5205.5381Z"/><path d="M142.7082,20.5338l2.5674-.5479,2.3467,5.0146a25.1288,25.1288,0,0,1,1.1055,2.415l.0313-.0059a25.7992,25.7992,0,0,1-.0059-2.6338l.0439-5.542,2.3486-.501,2.3877,5.0537a26.04,26.04,0,0,1,1.08,2.373l.0313-.0068a25.67,25.67,0,0,1-.0078-2.5684l.03-5.6035,2.3477-.502-.5469,12.2285-2.1768.4648-3.5518-7.6709-.0322.0068-.2354,8.4795-2.207.4717Z"/><path d="M159.4231,24.7233a4.19,4.19,0,0,1,3.2666-5.2471c1.7217-.3682,4.0186.042,4.8281,3.83l.08.376-5.5264,1.18a1.8558,1.8558,0,0,0,2.3486,1.4951,3.9173,3.9173,0,0,0,2.26-1.53l1.291,1.2959a5.5062,5.5062,0,0,1-3.3633,2.0273C162.4309,28.6149,160.1115,27.9479,159.4231,24.7233Zm5.6025-2.0469c-.376-1.1475-1.0283-1.5977-1.9678-1.3965-.7822.167-1.3457.8271-1.2725,2.0879Z"/><path d="M172.1037,25.3385l.2109.9863-2.52.5381-2.4736-11.584,2.52-.5381.9658,4.5244a3.1364,3.1364,0,0,1,2.2568-2.0049c1.8936-.4043,3.5205.7715,4.1348,3.6514s-.4121,4.5889-2.3213,4.9961A3.2434,3.2434,0,0,1,172.1037,25.3385Zm2.5781-3.873c-.2979-1.3926-.9707-2.166-2.0977-1.9258a2.5035,2.5035,0,0,0-1.47,1.166l.6582,3.083a2.3166,2.3166,0,0,0,1.8389.41C174.66,23.9742,175.0061,22.984,174.6819,21.4655Z"/><path d="M178.7112,23.7975l.7-1.623a4.7328,4.7328,0,0,0,3.127.4619c.7832-.167,1.2744-.5508,1.1572-1.0986-.124-.5791-.6094-.7041-1.7949-.6641-1.6416.0557-3.4121.041-3.83-1.916-.3574-1.6748.8125-2.9395,2.6758-3.3369a5.4923,5.4923,0,0,1,3.9131.3926l-.6816,1.6348a4.5657,4.5657,0,0,0-2.6514-.3838c-.7207.1533-1.0674.5225-.9707.9766.1074.501.6045.6074,1.6777.5752,1.7041-.0693,3.5215-.0645,3.9258,1.8291.4316,2.02-1.1514,3.1924-3.0762,3.6035A5.8867,5.8867,0,0,1,178.7112,23.7975Z"/><path d="M185.5363,11.4723l2.5361-.542.4307,2.02-2.5361.542Zm.69,3.1582,2.5039-.5342,1.7813,8.3428-2.5039.5352Z"/><path d="M192.6858,19.52l-.8887-4.1641-1.3936.2979-.3906-1.832,1.3926-.2969-.6113-2.8652,2.5049-.5342L193.91,12.99l2.1445-.458.3906,1.832-2.1445.458.7725,3.6152c.19.8926.501,1.1211,1.4092.9277a3.1705,3.1705,0,0,0,.8086-.2715l.3848,1.8a12.3391,12.3391,0,0,1-1.6318.4795C193.5705,21.901,193.02,21.0856,192.6858,19.52Z"/><path d="M197.8518,16.5182a4.19,4.19,0,0,1,3.2666-5.2471c1.7217-.3672,4.0186.042,4.8281,3.83l.08.376-5.5264,1.18a1.8558,1.8558,0,0,0,2.3486,1.4951,3.9128,3.9128,0,0,0,2.26-1.53l1.291,1.2959a5.5118,5.5118,0,0,1-3.3633,2.0283C200.86,20.41,198.54,19.7438,197.8518,16.5182Zm5.6025-2.0469c-.376-1.1475-1.0283-1.5967-1.9668-1.3965-.7832.167-1.3457.8271-1.2734,2.0889Z"/><path d="M199.9153,124.2028c0-4.1621,2.7217-6.1465,5.5869-6.1465,2.8486,0,5.57,1.9844,5.57,6.1465s-2.7217,6.1465-5.57,6.1465C202.6369,130.3492,199.9153,128.3649,199.9153,124.2028Zm8.5635,0c0-2.48-1.1523-3.9863-2.9766-3.9863-1.8408,0-2.9775,1.5059-2.9775,3.9863s1.1367,4.05,2.9775,4.05C207.3264,128.2526,208.4787,126.6832,208.4787,124.2028Z"/><path d="M212.716,121.5934h2.5762v1.4248h.0166a3.23,3.23,0,0,1,2.8809-1.6006h.08l-.0322,2.2891c-.0957-.0156-.5117-.0488-.6719-.0488a2.8529,2.8529,0,0,0-2.2734,1.1689v5.2979H212.716Z"/><path d="M223.7873,121.5934h2.5771v1.4248h.0156a3.2327,3.2327,0,0,1,2.8818-1.6006h.08l-.0322,2.2891c-.0957-.0156-.5127-.0488-.6729-.0488a2.8509,2.8509,0,0,0-2.2725,1.1689v5.2979h-2.5771Z"/><path d="M230.091,125.8668a4.19,4.19,0,0,1,4.29-4.4492c1.7607,0,3.9219.8809,3.9219,4.7539v.3848h-5.65a1.8553,1.8553,0,0,0,1.9844,1.9521,3.9178,3.9178,0,0,0,2.5293-1.0244l.9922,1.5371a5.5125,5.5125,0,0,1-3.7129,1.28C232.22,130.3014,230.091,129.1647,230.091,125.8668Zm5.9063-.832c-.1279-1.2-.6719-1.7764-1.6318-1.7764-.8008,0-1.4893.5283-1.6807,1.7764Z"/><path d="M239.7873,121.5934h2.5762v1.3447a3.5842,3.5842,0,0,1,2.8018-1.5205c1.4248,0,2.0967.5918,2.3369,1.5205a3.6625,3.6625,0,0,1,2.8174-1.5205,2.3208,2.3208,0,0,1,2.4971,2.6094v6.0977h-2.5771v-5.41c0-.7676-.1768-1.168-.9287-1.168a2.6177,2.6177,0,0,0-1.7129.8477v5.73h-2.5771v-5.41c0-.7676-.1758-1.168-.9277-1.168a2.6912,2.6912,0,0,0-1.7295.8477v5.73h-2.5762Z"/><path d="M254.78,118.361h2.5928v2.0645H254.78Zm.0156,3.2324h2.5605v8.5313h-2.5605Z"/><path d="M261.5324,125.7233l-2.7217-4.13h2.7051l1.4727,2.3535,1.3926-2.3535h2.5928l-2.7529,4.13,2.8809,4.4014h-2.6885l-1.6328-2.5762-1.585,2.5762h-2.5928Z"/><path d="M272.01,125.8668a4.3624,4.3624,0,1,1,4.37,4.4346A4.0769,4.0769,0,0,1,272.01,125.8668Zm6.1465.0166c0-1.4248-.4961-2.5771-1.7764-2.5771-1.2324,0-1.793,1.041-1.793,2.5771,0,1.4248.48,2.6084,1.793,2.6084C277.5969,128.4918,278.1565,127.4362,278.1565,125.8834Z"/><path d="M282.2346,121.5934h2.5771v1.3447a3.6462,3.6462,0,0,1,2.9453-1.5205,2.2343,2.2343,0,0,1,2.48,2.48v6.2266H287.677v-5.41c0-.7676-.2881-1.168-1.0088-1.168a2.8777,2.8777,0,0,0-1.8564.8477v5.73h-2.5771Z"/><path d="M291.6418,125.8668a4.19,4.19,0,0,1,4.29-4.4492c1.7607,0,3.9219.8809,3.9219,4.7539v.3848h-5.65a1.8553,1.8553,0,0,0,1.9844,1.9521,3.9178,3.9178,0,0,0,2.5293-1.0244l.9922,1.5371a5.5125,5.5125,0,0,1-3.7129,1.28C293.7707,130.3014,291.6418,129.1647,291.6418,125.8668Zm5.9063-.832c-.1279-1.2-.6719-1.7764-1.6318-1.7764-.8008,0-1.4893.5283-1.6807,1.7764Z"/><path d="M310.3006,4.3936a3.95,3.95,0,0,0-2.7024-1.9222l-6.87-1.812C300.01.47,299.2931.2525,298.5684.09a3.6869,3.6869,0,0,0-1.97.0977,2.5874,2.5874,0,0,0-2.1741,1.9738c-.7849,2.8782-1.5219,5.77-2.2827,8.6551l-.4594,1.7418a6.5219,6.5219,0,0,0-5.5009.1308,4.02,4.02,0,0,0-1.8846,4.9676,6.159,6.159,0,0,0,5.0362,3.6165c2.3694.2975,4.9422-.7583,5.6638-3.1866a4.8517,4.8517,0,0,0,.089-.5243,4.33,4.33,0,0,0,.2044-.5881l1.0133-3.8422,1.6379-6.21c.67.1819,1.3471.3262,1.9518.4857l5.345,1.41q-.6917,2.6321-1.3809,5.2645L303.4,15.8155a6.5432,6.5432,0,0,0-5.5978.0891,4.02,4.02,0,0,0-1.8846,4.9676,6.1591,6.1591,0,0,0,5.0362,3.6166c2.3694.2975,4.9422-.7583,5.6637-3.1866.0119-.0512.0181-.1008.0282-.1516a4.0565,4.0565,0,0,0,.36-.9109l1.0134-3.8422,2.46-9.328A3.1981,3.1981,0,0,0,310.3006,4.3936Z"/><path d="M277.3918,18.979a1.7515,1.7515,0,0,0-2.1191-1.2032,9.939,9.939,0,0,1-2.6256.3063c-.1879-.0056-.3767-.0173-.564-.0367-.0433-.01-.3339-.0536-.3319-.0532-.2884-.0586-.5628-.148-.8447-.2294-.04-.0115-.0707-.0218-.0979-.031-.0853-.0389-.17-.0781-.2535-.1216-.1558-.0817-.2985-.1838-.4515-.2688l-.0162-.0081c-.0144-.0165-.0226-.0275-.0455-.0513a1.6812,1.6812,0,0,0-1.6761-.443l-3.6221,1.4869a1.7338,1.7338,0,0,0-1.2031,2.1191,1.5148,1.5148,0,0,0,.1289.3139l.324.7893c.0187.0567.0269.1151.0493.171,1.119,2.7851,2.28,5.5541,3.42,8.3308l.6515,1.587a6.8618,6.8618,0,0,0-2.21.93c-1.863,1.2188-3.201,3.51-2.3637,5.7378a.5529.5529,0,0,0,.0419.0672.5679.5679,0,0,0,.016.07c1.9715,4.3981,8.8319,2.5843,10.3315-1.25a4.14,4.14,0,0,0,.0311-2.9578,3.9678,3.9678,0,0,0-.289-1.1879L272.16,29.3625l-2.32-5.6515,6.3485-2.6129A1.7788,1.7788,0,0,0,277.3918,18.979Zm-6.63-1.2637c-.0246-.0094-.0326-.0132,0,0Z"/><path class="cls-8" d="M233.7091,33.69H200.7533a8.339,8.339,0,0,0-8.3145,8.3145V59.5533a8.3412,8.3412,0,0,0,7.5989,8.2814,3.059,3.059,0,0,1-2.6027-3.0149V43.6255a3.0569,3.0569,0,0,1,3.048-3.048H233.98a3.0569,3.0569,0,0,1,3.048,3.048V64.82a3.059,3.059,0,0,1-2.6027,3.0149,8.3412,8.3412,0,0,0,7.5989-8.2814V42.0046A8.339,8.339,0,0,0,233.7091,33.69Z"/><path class="cls-8" d="M233.98,67.8679a3.0384,3.0384,0,0,0,.4452-.0331c-.2362.02-.4744.0331-.7156.0331Z"/><path class="cls-8" d="M200.7533,67.8679c-.2412,0-.4795-.0127-.7156-.0331a3.0384,3.0384,0,0,0,.4452.0331Z"/><rect class="cls-8" x="161.7937" y="53.3193" width="120.3571" height="55.4943" rx="5" ry="5"/><rect class="cls-8" x="195.6735" y="48.3777" width="11.5857" height="6.2595" rx="3.1298" ry="3.1298"/><rect class="cls-8" x="220.0494" y="48.3777" width="11.5857" height="6.2595" rx="3.1298" ry="3.1298"/><rect class="cls-9" x="207.2592" y="48.3777" width="11.5857" height="6.2595" rx="3.1298" ry="3.1298"/><path class="cls-10" d="M230.7,33.7066H197.7442a8.339,8.339,0,0,0-8.3145,8.3145V59.57a8.3412,8.3412,0,0,0,7.5989,8.2814,3.059,3.059,0,0,1-2.6027-3.0149V43.642a3.0569,3.0569,0,0,1,3.048-3.048H230.97a3.0569,3.0569,0,0,1,3.048,3.048V64.8364a3.059,3.059,0,0,1-2.6027,3.0149,8.3412,8.3412,0,0,0,7.5989-8.2814V42.0211A8.339,8.339,0,0,0,230.7,33.7066Z"/><path class="cls-10" d="M230.97,67.8844a3.0384,3.0384,0,0,0,.4452-.0331c-.2362.02-.4744.0331-.7156.0331Z"/><path class="cls-10" d="M197.7442,67.8844c-.2412,0-.4795-.0127-.7156-.0331a3.0385,3.0385,0,0,0,.4452.0331Z"/><rect class="cls-11" x="154.383" y="53.3193" width="120.3571" height="55.4943" rx="5" ry="5"/><circle class="cls-12" cx="173.4519" cy="80.7517" r="15.3158"/><line class="cls-13" x1="165.8802" y1="67.4361" x2="165.8802" y2="93.7525"/><line class="cls-13" x1="173.4519" y1="65.4359" x2="173.4519" y2="96.0674"/><rect class="cls-2" x="191.4738" y="65.5767" width="45.4966" height="32.5562"/><line class="cls-13" x1="181.945" y1="68.0052" x2="181.945" y2="93.4979"/><line class="cls-13" x1="159.9249" y1="74.013" x2="187.1029" y2="74.013"/><line class="cls-13" x1="158.4476" y1="82.0835" x2="188.0314" y2="82.0835"/><line class="cls-13" x1="161.3618" y1="90.1539" x2="185.5421" y2="90.1539"/><circle class="cls-12" cx="256.2175" cy="81.0664" r="15.3158"/><line class="cls-13" x1="248.6458" y1="67.7508" x2="248.6458" y2="94.0672"/><line class="cls-13" x1="256.2175" y1="65.7506" x2="256.2175" y2="96.3822"/><line class="cls-13" x1="264.7105" y1="68.32" x2="264.7105" y2="93.8126"/><line class="cls-13" x1="242.6904" y1="74.3277" x2="269.8685" y2="74.3277"/><line class="cls-13" x1="241.2132" y1="82.3982" x2="270.7969" y2="82.3982"/><line class="cls-13" x1="244.1274" y1="90.4687" x2="268.3076" y2="90.4687"/><circle class="cls-3" cx="202.7045" cy="81.2336" r="5.6759"/><circle class="cls-3" cx="225.4649" cy="81.2336" r="5.6759"/><line class="cls-14" x1="202.7045" y1="75.5576" x2="225.4649" y2="75.5576"/><line class="cls-14" x1="202.7045" y1="86.9095" x2="225.4649" y2="86.9095"/><polygon class="cls-15" points="170.787 76.008 139.744 45.993 129.482 56.724 170.787 76.008"/><polygon class="cls-15" points="174.899 84.126 156.596 94.793 163.628 101.641 143.374 112.742 157.382 120.5 174.606 106.411 168.291 95.455 174.899 84.126"/><polygon class="cls-15" points="255.752 80.15 272.919 57.437 280.023 64.601 294.817 41.255 308.681 65.756 282.797 78.47 270.546 71.074 255.752 80.15"/><polygon class="cls-15" points="255.621 85.913 287.876 87.071 289.465 100.313 255.621 85.913"/><polygon class="cls-16" points="18.487 176.806 20.049 177.198 18.553 178.053 18.744 179.775 17.35 178.681 15.752 179.137 16.573 177.631 15.496 176.315 17.069 176.581 18.093 175.102 18.487 176.806"/><circle class="cls-17" cx="52.0964" cy="215.7889" r="6.6697"/><circle class="cls-3" cx="34.3628" cy="161.0504" r="6.6697"/><path class="cls-18" d="M43.6611,266.3549l.1011-3.7174S54.025,262.2,58.463,267.6783C58.463,267.6783,52.68,263.0316,43.6611,266.3549Z"/><path class="cls-18" d="M57.463,266.6783s7.65,4.8281,13.1.7873L69.4266,270.78S61.4522,273.134,57.463,266.6783Z"/><polygon class="cls-2" points="46.766 268.385 50.411 261.011 54.055 268.385 50.411 274.976 46.766 268.385"/><circle class="cls-15" cx="61.0104" cy="267.0166" r="2.5475"/><polygon class="cls-2" points="71.795 185.101 77.832 188.976 71.083 191.41 69.263 198.35 64.863 192.684 57.701 193.097 61.729 187.161 59.123 180.477 66.013 182.474 71.565 177.93 71.795 185.101"/><polygon class="cls-19" points="25.959 203.115 30 205.709 25.483 207.339 24.265 211.984 21.319 208.191 16.524 208.468 19.221 204.494 17.476 200.02 22.089 201.356 25.805 198.315 25.959 203.115"/><path class="cls-20" d="M129.7608,227.5572h0C128.7763,226.44,89.677,164.356,89.677,164.356l5.9244,73.364"/><ellipse class="cls-20" cx="111.6993" cy="231.4818" rx="54.5994" ry="11.7771" transform="translate(-69.6673 49.3645) rotate(-19.1225)"/><path class="cls-19" d="M141.1981,237.72c2.91,17.7153,22.51,33.2969,22.51,33.2969l-33.2663,10.0356-37.6551,11.36s5.5446-28.0707-3.11-47.4933c0,0-.0785-12.6229,24.99-22.2947,24.3077-9.3783,26.5312,15.096,26.5312,15.096"/><path class="cls-3" d="M133.0913,225.7889l6.9862,24.2032a18.8246,18.8246,0,0,1-11.2411,24.0462h0A18.8246,18.8246,0,0,1,104.79,262.7972l-1.6752-4.6163a3.8,3.8,0,0,1-.7445.577c-2.2579,1.3377-5.4646.0989-7.1624-2.7669s-1.2436-6.2733,1.0143-7.611a4.1728,4.1728,0,0,1,3.29-.3591"/><path class="cls-21" d="M98.6839,240.2326a12.2847,12.2847,0,0,0,.2372,6.9667c10.955-4.1738,17.3557,3.6532,17.3557,3.6532a18.2633,18.2633,0,0,0,5.8956-18.6218c8.3789,1.292,7.97,9.5824,7.97,9.5824l13.7442-5.1945c.1307-7.4248-4.9123-14.7848-14.906-16.8294-4.1694-.853-17.2817,0-23.4276,10.042"/><path class="cls-3" d="M114.7645,256.5809a5.9311,5.9311,0,1,1,11.6691-2.1314"/><path class="cls-3" d="M135.4931,258.9995a7.528,7.528,0,1,1-14.3914,4.424Z"/><ellipse class="cls-4" cx="116.3261" cy="256.1654" rx="1.6109" ry="2.8374" transform="translate(-44.1349 25.0707) rotate(-10.3512)"/><path class="cls-3" d="M138.9746,250.6484a5.9311,5.9311,0,1,0-11.6691,2.1314"/><ellipse class="cls-4" cx="128.8672" cy="252.3643" rx="1.6109" ry="2.8374" transform="translate(-43.2478 27.2623) rotate(-10.3512)"/><polygon class="cls-15" points="56.191 244.638 60.495 235.93 64.798 244.638 60.495 252.42 56.191 244.638"/><circle class="cls-2" cx="56.1914" cy="246.8617" r="2.9152"/><path class="cls-18" d="M6.5611,235.8152l1.378-5.7648s16.15,2.6859,21.274,12.6876C29.2131,242.7381,21.7185,233.5924,6.5611,235.8152Z"/><path class="cls-18" d="M25.2759,238.3124s10.3466,10.0414,20.1739,5.5282l-2.861,4.7971S29.3787,249.6909,25.2759,238.3124Z"/><polygon class="cls-1" points="26.299 247.06 29.944 239.685 33.588 247.06 29.944 253.65 26.299 247.06"/><polygon class="cls-15" points="51.632 148.971 55.276 141.596 58.921 148.971 55.276 155.561 51.632 148.971"/><path d="M64.4055,313.8883h2.4814L71.08,325.7809H68.44l-.8809-2.6416H63.5256l-.9131,2.6416h-2.4Zm2.5449,7.3623-1.36-4.0332h-.0322l-1.3926,4.0332Z"/><path d="M71.6994,324.6442l1.0244-1.44a4.7319,4.7319,0,0,0,2.9619,1.1045c.8,0,1.36-.2725,1.36-.833,0-.5918-.4482-.8154-1.6172-1.0244-1.6162-.2881-3.3447-.6719-3.3447-2.6729,0-1.7129,1.4082-2.7051,3.3135-2.7051a5.493,5.493,0,0,1,3.7451,1.2012L78.134,319.73a4.5635,4.5635,0,0,0-2.5127-.9287c-.7363,0-1.1523.2881-1.1523.7529,0,.5117.4639.72,1.5205.9121,1.6807.2881,3.457.6719,3.457,2.6094,0,2.0645-1.792,2.8809-3.7607,2.8809A5.8838,5.8838,0,0,1,71.6994,324.6442Z"/><path d="M88.4211,320.7545,84.34,313.9362h2.6885l2.7051,4.6094,2.7217-4.6094h2.6572l-4.0977,6.8184v5.0264H88.4211Z"/><path d="M95.7639,321.5231a4.3624,4.3624,0,1,1,4.37,4.4336A4.0772,4.0772,0,0,1,95.7639,321.5231Zm6.1465.0156c0-1.4248-.4961-2.5771-1.7764-2.5771-1.2324,0-1.793,1.041-1.793,2.5771,0,1.4248.48,2.6094,1.793,2.6094C101.3508,324.1481,101.91,323.0914,101.91,321.5387Z"/><path d="M105.8918,323.4752V317.25h2.5771v5.4736c0,.7686.2881,1.1846,1.0088,1.1846a2.9029,2.9029,0,0,0,1.8564-.8643V317.25h2.5771v8.5313h-2.5771v-1.3291a3.686,3.686,0,0,1-2.9453,1.5049A2.24,2.24,0,0,1,105.8918,323.4752Z"/><path d="M123.0608,316.1129h-3.5215v-2.1768h9.668v2.1768H125.67v9.668h-2.6094Z"/><path d="M129.4436,328.7418l.5439-1.9844a6.23,6.23,0,0,0,1.6172.2236,1.0254,1.0254,0,0,0,1.0879-.7363l.16-.416-3.2646-8.5791h2.6563l1.873,5.5381h.0322l1.8887-5.5381h2.4971l-3.5859,9.4277c-.5762,1.4727-1.36,2.3682-3.0732,2.3682A8.3181,8.3181,0,0,1,129.4436,328.7418Z"/><path d="M139.4924,317.25h2.5762v1.2959a3.1586,3.1586,0,0,1,2.626-1.4727c1.9365,0,3.2813,1.4893,3.2813,4.4336s-1.3613,4.4023-3.3135,4.4023a3.2447,3.2447,0,0,1-2.5937-1.1367v4.21h-2.5762Zm5.9063,4.2734c0-1.4248-.4961-2.3213-1.6494-2.3213a2.5,2.5,0,0,0-1.6807.833v3.1523a2.3146,2.3146,0,0,0,1.7129.7852C144.8537,323.9723,145.3987,323.0758,145.3987,321.5231Z"/><path d="M149.011,321.5231a4.1908,4.1908,0,0,1,4.29-4.45c1.7607,0,3.9219.8809,3.9219,4.7539v.3848h-5.65a1.8553,1.8553,0,0,0,1.9844,1.9521,3.9178,3.9178,0,0,0,2.5293-1.0244l.9922,1.5371a5.5125,5.5125,0,0,1-3.7129,1.28C151.14,325.9567,149.011,324.82,149.011,321.5231Zm5.9063-.832c-.1279-1.2012-.6719-1.7773-1.6318-1.7773-.8008,0-1.4893.5283-1.6807,1.7773Z"/><path class="cls-22" d="M94.8155,286.402a11.1939,11.1939,0,0,0-15.2218,4.1755h0a11.1939,11.1939,0,0,0,4.1755,15.2218l1.6246.9252a11.1939,11.1939,0,0,0,15.2218-4.1755h0a11.144,11.144,0,0,0,.8333-9.1773"/><path class="cls-22" d="M93.6652,288.2607s-6.4681-13.0231-9.4391-17.7712a2.5168,2.5168,0,0,0-4.6219.952,4.57,4.57,0,0,0,.217,2.238l8.4977,18.5174"/><path class="cls-22" d="M90.6214,293.9778a6.0753,6.0753,0,0,1,4.1848-6.46l-.904-2.38a4.62,4.62,0,0,1,1.4785-5.3007c1.501-.57,3.41,1.7269,3.98,3.2279l2.6255,6.9136a2.8956,2.8956,0,0,1,.1757.7572,6.0732,6.0732,0,0,1-4.8288,8.6037"/><path class="cls-22" d="M91.02,296.5633s-5.8731-.8626-6.8992-2.3187l-3.6545-5.1862a3.2481,3.2481,0,0,1,.7818-4.5128h0a3.2481,3.2481,0,0,1,4.5128.7818l3.6545,5.1862C90.4411,291.97,92.4756,295.5372,91.02,296.5633Z"/><path class="cls-22" d="M88.0619,301.2257s-5.4925-.7762-6.5185-2.2322l-3.6545-5.1862a3.2481,3.2481,0,0,1,.7818-4.5128h0a3.2481,3.2481,0,0,1,4.5128.7818l3.6545,5.1862C87.8641,296.7185,89.518,300.2,88.0619,301.2257Z"/><path class="cls-22" d="M85.3937,306.7245s-4.4748-1.3063-5.5009-2.7624L77.21,300.1553a3.2481,3.2481,0,0,1,.7818-4.5128h0a3.2481,3.2481,0,0,1,4.5128.7818l2.6826,3.8068C86.2135,301.6872,86.85,305.6985,85.3937,306.7245Z"/><path d="M15.632,310.2262l-5.1729-5.1621L12.3,303.2184l5.1279,5.1172c1.2109,1.209,2.3535,1.4219,3.4492.3242,1.085-1.0869.8691-2.207-.3545-3.4258l-5.127-5.1172,1.8066-1.8105,5.1621,5.15c2.06,2.0547,2.3115,4.3848-.0156,6.7168S17.6809,312.27,15.632,310.2262Z"/><path d="M21.6809,298.8395l2.0508-1.5586.7842,1.0313a3.1573,3.1573,0,0,1,1.1992-2.76c1.541-1.1719,3.5117-.8008,5.2939,1.543s1.58,4.3271.0254,5.5088a3.2435,3.2435,0,0,1-2.751.665l2.5469,3.35-2.0508,1.56Zm7.2871-.1719c-.8623-1.1338-1.8-1.5469-2.7168-.85a2.4985,2.4985,0,0,0-.834,1.68l1.9072,2.51a2.3155,2.3155,0,0,0,1.8379-.4121C30.0158,300.9469,29.9065,299.9039,28.968,298.6676Z"/><path d="M32.0862,296.4752c-1.4707-2.5518-1.0752-4.5889.6162-5.5635a2.98,2.98,0,0,1,2.8691-.2139L33.382,286.9l2.2324-1.2871,4.875,8.457a5.4064,5.4064,0,0,0,1.2607,1.6738l-2.2881,1.3184a3.8483,3.8483,0,0,1-.8057-1.0127,3.104,3.104,0,0,1-1.57,2.53C35.4084,299.5465,33.5569,299.026,32.0862,296.4752Zm5.8916-1.6045-1.5752-2.73a2.303,2.303,0,0,0-1.86.168c-.93.5352-1.0068,1.5215-.2314,2.8662.7109,1.2344,1.6416,1.8232,2.64,1.249A2.4334,2.4334,0,0,0,37.9778,294.8707Z"/><path d="M41.6389,293.3746c-.7686-1.8125.34-3.4648,3.6719-5.2051l-.0811-.1924c-.2441-.5752-.6943-.8193-1.4609-.4941a4.543,4.543,0,0,0-2.168,2.0654l-1.5771-.9316a5.9867,5.9867,0,0,1,3.3281-3.0605c2.1523-.9121,3.4873-.2246,4.3418,1.7949l1.2793,3.0225a5.816,5.816,0,0,0,1.0332,1.8232l-2.3584.998a4.0842,4.0842,0,0,1-.6641-1.0742,3.7733,3.7733,0,0,1-2.2061,2.4277A2.2764,2.2764,0,0,1,41.6389,293.3746Zm4.8389-2.4492-.6182-1.459c-1.791.9844-2.3877,1.793-2.082,2.5156a.8141.8141,0,0,0,1.1885.3838A2.6387,2.6387,0,0,0,46.4778,290.9254Z"/><path d="M51.2375,289.318l-1.248-4.07-1.3623.418-.5488-1.791,1.3623-.418-.8594-2.8,2.4482-.751.8594,2.8008,2.0967-.6436.5488,1.791-2.0967.6426,1.085,3.5352c.2676.8721.5967,1.0732,1.4834.8a3.1794,3.1794,0,0,0,.7832-.34l.54,1.76a12.581,12.581,0,0,1-1.585.62C52.3264,291.6129,51.7072,290.8492,51.2375,289.318Z"/><path d="M56.2922,285.83a4.1879,4.1879,0,0,1,3.3486-5.19c1.7266-.3389,4.0146.1074,4.7617,3.9053l.0742.377-5.54,1.09a1.8538,1.8538,0,0,0,2.3223,1.5313,3.9077,3.9077,0,0,0,2.2822-1.4922l1.27,1.3164a5.5093,5.5093,0,0,1-3.3945,1.9707C59.2346,289.7672,56.9279,289.0621,56.2922,285.83Zm5.6309-1.9551c-.3574-1.1523-1.002-1.6133-1.9434-1.4277-.7842.1543-1.3574.8047-1.3047,2.0664Z"/><path d="M65.6262,287.22l.9043-1.52a4.7286,4.7286,0,0,0,3.04.8613c.7969-.0654,1.333-.3818,1.2881-.9395-.0488-.59-.5127-.7773-1.6943-.8906-1.6338-.1562-3.3867-.3984-3.55-2.3916-.1377-1.7061,1.1846-2.81,3.082-2.9639a5.4941,5.4941,0,0,1,3.8291.8926l-.8867,1.5332a4.5578,4.5578,0,0,0-2.5791-.7207c-.7334.0586-1.125.3789-1.0869.8418.042.5107.5205.68,1.5889.7852,1.6982.1514,3.499.3906,3.6563,2.32.167,2.0566-1.5527,3.0156-3.5146,3.1748A5.8907,5.8907,0,0,1,65.6262,287.22Z"/><polygon class="cls-23" points="261.228 196.481 276.277 171.937 275.668 200.721 301.597 188.209 285.523 212.095 314.101 215.588 287.664 226.991 309.817 245.38 281.413 240.68 290.107 268.126 268.753 248.816 261.228 276.606 253.703 248.816 232.349 268.126 241.043 240.68 212.639 245.38 234.792 226.991 208.355 215.588 236.933 212.095 220.858 188.209 246.788 200.721 246.179 171.937 261.228 196.481"/><rect class="cls-2" x="208.5381" y="272.6502" width="12.0656" height="33.4124" rx="6.0328" ry="6.0328" transform="translate(429.1418 578.7127) rotate(180)"/><rect class="cls-2" x="222.7" y="239.7688" width="45.0139" height="11.6015" rx="5.8008" ry="5.8008" transform="translate(-98.4421 293.9041) rotate(-53.0485)"/><rect class="cls-2" x="222.0928" y="272.6502" width="12.0656" height="33.4124" rx="6.0328" ry="6.0328" transform="translate(456.2512 578.7127) rotate(180)"/><path class="cls-2" d="M181.2637,281.1792,197.95,267.092a25.2981,25.2981,0,1,1,8.32,9.2435l-17.1789,14.487a6.2285,6.2285,0,0,1-8.7356-.9077h0A6.2285,6.2285,0,0,1,181.2637,281.1792Z"/><rect class="cls-15" x="302.4846" y="272.6502" width="12.0656" height="33.4124" rx="6.0328" ry="6.0328"/><rect class="cls-15" x="255.3744" y="239.7688" width="45.0139" height="11.6015" rx="5.8008" ry="5.8008" transform="translate(248.6809 615.2584) rotate(-126.9515)"/><rect class="cls-15" x="288.9299" y="272.6502" width="12.0656" height="33.4124" rx="6.0328" ry="6.0328"/><path class="cls-15" d="M342.2523,281.1792,325.566,267.092a25.2981,25.2981,0,1,0-8.32,9.2435l17.1789,14.487a6.2285,6.2285,0,0,0,8.7356-.9077h0A6.2285,6.2285,0,0,0,342.2523,281.1792Z"/><path class="cls-4" d="M296.0843,257.9176a3.24,3.24,0,0,0,6.463,0Z"/><path class="cls-4" d="M227.004,254.7975a3.24,3.24,0,0,1-6.463,0Z"/><ellipse class="cls-24" cx="216.1553" cy="247.0492" rx="7.6172" ry="3.6811"/><path d="M216.1555,251.98c-5.0547,0-8.8672-2.12-8.8672-4.9307s3.8125-4.9316,8.8672-4.9316,8.8672,2.12,8.8672,4.9316S221.21,251.98,216.1555,251.98Zm0-7.3623c-3.8281,0-6.3672,1.4639-6.3672,2.4316s2.5391,2.4307,6.3672,2.4307,6.3672-1.4629,6.3672-2.4307S219.9836,244.6178,216.1555,244.6178Z"/><ellipse cx="218.0037" cy="247.0492" rx="2.7804" ry="3.3633"/><path d="M218.0041,251.6627a4.6554,4.6554,0,1,1,4.03-4.6133A4.3568,4.3568,0,0,1,218.0041,251.6627Zm0-6.7266c-.83,0-1.5312.9678-1.5312,2.1133s.7012,2.1133,1.5313,2.1133,1.53-.9678,1.53-2.1133S218.8332,244.9362,218.0041,244.9362Z"/><ellipse class="cls-24" cx="231.3755" cy="247.0492" rx="7.6172" ry="3.6811"/><path d="M231.3752,251.98c-5.0547,0-8.8672-2.12-8.8672-4.9307s3.8125-4.9316,8.8672-4.9316,8.8672,2.12,8.8672,4.9316S236.43,251.98,231.3752,251.98Zm0-7.3623c-3.8281,0-6.3672,1.4639-6.3672,2.4316s2.5391,2.4307,6.3672,2.4307,6.3672-1.4629,6.3672-2.4307S235.2033,244.6178,231.3752,244.6178Z"/><ellipse cx="233.2239" cy="247.0492" rx="2.7804" ry="3.3633"/><path d="M233.2238,251.6627a4.6554,4.6554,0,1,1,4.03-4.6133A4.3561,4.3561,0,0,1,233.2238,251.6627Zm0-6.7266c-.8291,0-1.53.9678-1.53,2.1133s.7012,2.1133,1.53,2.1133,1.53-.9678,1.53-2.1133S234.0529,244.9362,233.2238,244.9362Z"/><path class="cls-17" d="M240.0984,236.5192H214.3742a6.1246,6.1246,0,0,1-6.1246-6.1246h0a6.1246,6.1246,0,0,1,6.1246-6.1246h25.7242a6.1246,6.1246,0,0,1,5.9855,7.4224h0A6.1246,6.1246,0,0,1,240.0984,236.5192Z"/><path class="cls-1" d="M226.5436,236.5192H200.8195a6.1246,6.1246,0,0,1-6.1246-6.1246h0a6.1246,6.1246,0,0,1,6.1246-6.1246h25.7242a6.1246,6.1246,0,0,1,5.9855,7.4224h0A6.1246,6.1246,0,0,1,226.5436,236.5192Z"/><path class="cls-17" d="M240.2419,224.08H214.5177a6.1246,6.1246,0,0,1-6.1246-6.1246h0a6.1246,6.1246,0,0,1,6.1246-6.1246h25.7242a6.1246,6.1246,0,0,1,5.9855,7.4224h0A6.1246,6.1246,0,0,1,240.2419,224.08Z"/><path class="cls-1" d="M226.6872,224.08H200.963a6.1246,6.1246,0,0,1-6.1246-6.1246h0a6.1246,6.1246,0,0,1,6.1246-6.1246h25.7242a6.1246,6.1246,0,0,1,5.9855,7.4224h0A6.1246,6.1246,0,0,1,226.6872,224.08Z"/><polygon class="cls-17" points="265.095 201.655 269.88 191.972 274.665 201.655 269.88 210.309 265.095 201.655"/><polygon class="cls-15" points="250.457 214.68 252.961 209.614 255.465 214.68 252.961 219.208 250.457 214.68"/><path class="cls-25" d="M327.9676,238.8325a20.8767,20.8767,0,1,0-41.7534,0Z"/><path class="cls-11" d="M321.4181,238.8325a20.8767,20.8767,0,0,0-41.7534,0Z"/><circle class="cls-3" cx="290.9697" cy="248.7524" r="7.2224"/><path class="cls-4" d="M290.97,255.9748a7.2224,7.2224,0,1,1,0-14.4449"/><circle class="cls-3" cx="307.4273" cy="248.7524" r="7.2224"/><path class="cls-4" d="M307.4273,255.9748a7.2224,7.2224,0,1,1,0-14.4449"/><polygon class="cls-2" points="248.485 183.295 256.79 166.49 265.095 183.295 256.79 198.313 248.485 183.295"/><line class="cls-14" x1="300.8622" y1="238.8325" x2="341.974" y2="238.8325"/><path d="M232.97,314.1617h7.8281v2.1768h-5.2187V319.22h3.7139v2.0645h-3.7139v4.7217H232.97Z"/><path d="M242.1067,317.4752h2.5762V318.9h.0166a3.2288,3.2288,0,0,1,2.8818-1.6016h.08l-.0332,2.2891c-.0957-.0156-.5117-.0479-.6719-.0479a2.85,2.85,0,0,0-2.2734,1.1689v5.2979h-2.5762Z"/><path d="M248.9543,314.2418h2.5938v2.0645h-2.5937Zm.0156,3.2334h2.5615v8.5313H248.97Z"/><path d="M253.1145,321.7487a4.19,4.19,0,0,1,4.2891-4.45c1.7607,0,3.9219.8809,3.9219,4.7539v.3848h-5.65a1.8561,1.8561,0,0,0,1.9844,1.9531,3.9135,3.9135,0,0,0,2.5293-1.0254l.9922,1.5371a5.5132,5.5132,0,0,1-3.7129,1.2813C255.2434,326.1832,253.1145,325.0465,253.1145,321.7487Zm5.9063-.832c-.1289-1.2-.6729-1.7764-1.6328-1.7764-.8008,0-1.4883.5273-1.6807,1.7764Z"/><path d="M262.8254,317.4752h2.5781V318.82a3.6468,3.6468,0,0,1,2.9453-1.5215,2.235,2.235,0,0,1,2.48,2.4814v6.2266h-2.5605v-5.41c0-.7686-.2891-1.1689-1.0088-1.1689a2.8791,2.8791,0,0,0-1.8564.8486v5.73h-2.5781Z"/><path d="M272.2336,321.8121c0-2.9443,1.36-4.5137,3.3135-4.5137a2.98,2.98,0,0,1,2.5928,1.249v-4.3857h2.5771v9.7637a5.3717,5.3717,0,0,0,.2568,2.0811h-2.6416a3.8456,3.8456,0,0,1-.1924-1.28,3.1092,3.1092,0,0,1-2.625,1.4082C273.5783,326.1344,272.2336,324.7574,272.2336,321.8121Zm5.9063,1.5527v-3.1523a2.304,2.304,0,0,0-1.6973-.7852c-1.0723,0-1.6318.8164-1.6318,2.3691,0,1.4248.5127,2.4014,1.665,2.4014A2.4274,2.4274,0,0,0,278.14,323.3649Z"/><path d="M282.0578,324.8707l1.0244-1.4414a4.7319,4.7319,0,0,0,2.9619,1.1045c.8,0,1.3594-.2725,1.3594-.833,0-.5918-.4473-.8154-1.6162-1.0234-1.6162-.2891-3.3447-.6719-3.3447-2.6738,0-1.7129,1.4082-2.7051,3.3125-2.7051a5.5006,5.5006,0,0,1,3.7461,1.2012l-1.0088,1.457a4.5578,4.5578,0,0,0-2.5127-.93c-.7363,0-1.1523.2891-1.1523.7529,0,.5127.4639.72,1.5205.9131,1.6807.2871,3.457.6719,3.457,2.6084,0,2.0654-1.792,2.8818-3.7607,2.8818A5.8888,5.8888,0,0,1,282.0578,324.8707Z"/><path d="M195.1369,193.4918c-2.9453-2.8711-2.7246-5.9863-.6367-8.1289a4.4289,4.4289,0,0,1,6.0215-.835l-1.2041,2.2666c-1.2422-.6738-2.31-.9092-3.2812.0879-1.251,1.2832-.832,3.0322.9209,4.7412,1.7881,1.7422,3.6035,2.126,4.8545.8428.9717-.9961.8213-2.1035-.0459-3.5293l2.0986-1.374c1.3057,2.0771,1.5146,4.2471-.5635,6.3779C201.1457,196.153,198.1272,196.4069,195.1369,193.4918Z"/><path d="M204.6281,186.3756a4.3614,4.3614,0,1,1,6.1709.8086A4.0767,4.0767,0,0,1,204.6281,186.3756Zm4.8555-3.7666c-.876-1.123-1.9756-1.7266-2.9854-.9395-.9717.7578-.7734,1.9219.1709,3.1338.876,1.123,1.9834,1.7617,3.0176.9541C210.6467,185.0094,210.4387,183.8326,209.4836,182.609Z"/><path d="M212.5188,180.3824c-1.5068-2.5293-1.1416-4.5732.5352-5.5732a2.9816,2.9816,0,0,1,2.8672-.2549l-2.2451-3.7676,2.2129-1.3184,4.998,8.3867a5.4052,5.4052,0,0,0,1.2852,1.6553l-2.2676,1.3525a3.8547,3.8547,0,0,1-.8213-1.002,3.1068,3.1068,0,0,1-1.5332,2.5537C215.886,183.4059,214.0266,182.9117,212.5188,180.3824Zm5.8682-1.6895-1.6143-2.709a2.3024,2.3024,0,0,0-1.8584.1953c-.9209.5488-.9844,1.5371-.1895,2.87.7285,1.2236,1.6689,1.8,2.6582,1.21A2.4245,2.4245,0,0,0,218.3869,178.693Z"/><path d="M221.2717,175.2008a4.1915,4.1915,0,0,1,2.1309-5.8027c1.6113-.709,3.9443-.7754,5.5059,2.77l.1553.3516-5.1709,2.2793a1.856,1.856,0,0,0,2.6035.9863,3.9209,3.9209,0,0,0,1.9014-1.957l1.5283,1.0059a5.5172,5.5172,0,0,1-2.8828,2.6689C225.007,178.4,222.6008,178.2184,221.2717,175.2008Zm5.0693-3.1436c-.6016-1.0469-1.332-1.3545-2.2109-.9678-.7324.3232-1.1494,1.084-.8213,2.3047Z"/><path d="M293.5529,166.6969l2.292,1.2793-1.5371,5.3184a25.1942,25.1942,0,0,1-.7607,2.5449l.0283.0156a26.129,26.129,0,0,1,1.73-1.9863l3.6836-4.1387,2.0967,1.17-1.5322,5.375c-.2646.9336-.376,1.4951-.751,2.4961l.0283.0156a25.5573,25.5573,0,0,1,1.6846-1.9375l3.7158-4.1953,2.0957,1.17-8.4668,8.8379-1.9434-1.084,2.3809-8.11-.0283-.0156-5.7627,6.2236-1.9707-1.1Z"/><path d="M306.2854,178.1862l2.0605,1.5205-5.0664,6.8643L301.219,185.05Zm1.9072-2.6113,2.0869,1.54-1.2266,1.6621-2.0859-1.541Z"/><path d="M306.8449,186.3209l2.7715-3.2314-1.0811-.9277,1.22-1.42,1.0811.9268,1.9072-2.2227,1.9434,1.667-1.9072,2.2227,1.6641,1.4277-1.22,1.4219-1.6641-1.4277-2.4072,2.8057c-.5937.6924-.5869,1.0771.1172,1.6826a3.1618,3.1618,0,0,0,.7061.4785l-1.1982,1.3975a12.6527,12.6527,0,0,1-1.3711-1.0078C305.4875,188.4674,305.802,187.5348,306.8449,186.3209Z"/><path d="M318.341,183.8473l1.7666,1.873-3.3877,3.1934a3.6483,3.6483,0,0,1,3.124,1.1,2.2388,2.2388,0,0,1-.0928,3.5176l-4.5293,4.2676-1.7656-1.875,3.9346-3.708c.56-.5264.6523-1.0107.17-1.5225a2.8787,2.8787,0,0,0-1.9-.7812l-4.168,3.9277-1.7666-1.875Z"/><polygon class="cls-26" points="190.976 402.264 220.988 365.96 213.393 412.446 258.267 398.131 226.745 433.131 272.235 445.35 226.795 457.752 258.458 492.624 213.526 478.491 221.309 524.945 191.151 488.764 172.584 532.052 166.774 485.309 127.751 511.687 148.135 469.224 101.045 470.317 141.151 445.615 100.946 421.075 148.039 421.978 127.484 379.597 166.614 405.817 172.234 359.051 190.976 402.264"/><path class="cls-27" d="M92.43,435.1573c-5.2117,6.6366-24.6038,6.1141-24.6038,6.1141s8.0489,14.4595,28.4227,9.2537"/><path class="cls-27" d="M142.2814,409.0788c1.6967,5.0878,10.363,6.7808,19.3567,3.7815s14.9091-9.5551,13.2124-14.6429c0,0-10.363-6.7808-19.3567-3.7815S140.5847,403.991,142.2814,409.0788Z"/><path class="cls-7" d="M130.0461,395.3217l8.6727-7.7066s6.0921-20.8425,18.9416-15.4358,3.9875,17.9733-1.674,22.7759c-5.9931,5.0839-14.9734,13.7831-14.9734,13.7831"/><path class="cls-27" d="M84.85,431.6654c-8.2372-16.0466,2.7081-38.2789,18.6551-45.698,17.6437-8.2084,38.0156-3.0784,46.2527,12.9682,0,0-12.74,13.2133-28.6818,21.2612C101.1757,430.2433,84.85,431.6654,84.85,431.6654Z"/><path class="cls-27" d="M142.5414,411.5888c-2.1967,6.5872-13.4171,8.7792-25.0613,4.896s-19.303-12.3711-17.1062-18.9583c0,0,13.4171-8.7792,25.0613-4.896S144.7382,405.0016,142.5414,411.5888Z"/><path class="cls-27" d="M109.6479,432.7681c-.3506,4.8754-7.6213,8.3252-16.24,7.7054s-15.3205-5.0745-14.97-9.95c0,0,7.6213-8.3252,16.24-7.7054S109.9985,427.8927,109.6479,432.7681Z"/><path class="cls-27" d="M144.0293,388.7375a12.45,12.45,0,0,1-16.6249-5.6415h0a12.45,12.45,0,0,1,5.6415-16.6249l13.3261-6.5734a12.45,12.45,0,0,1,16.6249,5.6415h0a12.45,12.45,0,0,1-5.6415,16.6249"/><rect class="cls-28" x="106.4011" y="393.9276" width="34.5658" height="84.9574" rx="17.2829" ry="17.2829" transform="translate(344.812 40.3627) rotate(45)"/><rect class="cls-28" x="111.7767" y="397.9594" width="34.5658" height="84.9574" rx="17.2829" ry="17.2829" transform="translate(349.2375 37.7424) rotate(45)"/><ellipse class="cls-15" cx="155.2267" cy="438.7463" rx="6.9106" ry="5.068" transform="translate(-264.7757 238.2677) rotate(-45)"/><ellipse class="cls-15" cx="127.3959" cy="466.5435" rx="6.9106" ry="5.068" transform="translate(-292.5827 226.73) rotate(-45)"/><rect class="cls-1" x="101.328" y="452.2723" width="29.8159" height="6.2225" rx="3.1112" ry="3.1112" transform="translate(356.0495 51.1875) rotate(45)"/><rect class="cls-1" x="128.3462" y="423.6626" width="29.8159" height="6.2225" rx="3.1112" ry="3.1112" transform="translate(343.7329 23.7031) rotate(45)"/><path class="cls-15" d="M136.1493,409.7177l1.7554,1.9913a6.1847,6.1847,0,0,1-.0567,8.2737q-.1806.1957-.3711.3871c-.4031.4045-.8.7689-1.1874,1.0971a6.2019,6.2019,0,0,1-8.6467-.6281l-.6048-.6822"/><ellipse class="cls-15" cx="131.0676" cy="414.6322" rx="6.8788" ry="3.1936" transform="translate(-254.8004 214.1217) rotate(-45)"/><path class="cls-15" d="M108.7351,436.8558l1.5478,1.7a6.47,6.47,0,0,1-.1519,8.8826l-.0683.069q-.4348.4363-.8588.8119a6.4783,6.4783,0,0,1-9.1523-.5427l-.4277-.4824"/><ellipse class="cls-15" cx="103.6533" cy="441.7703" rx="6.8788" ry="3.1936" transform="translate(-282.0194 202.6855) rotate(-45)"/><circle class="cls-3" cx="139.4637" cy="370.9893" r="5.9254"/><circle class="cls-3" cx="151.3146" cy="365.0639" r="5.9254"/><circle class="cls-4" cx="139.4637" cy="372.1502" r="1.4879"/><circle class="cls-4" cx="151.3146" cy="366.5518" r="1.4879"/><path class="cls-28" d="M149.6263,377.4538c.5033-1.9289,5.541-3.5439,5.541-3.5439a6.4943,6.4943,0,1,1-11.9128,5.1755Z"/><path d="M165.1985,466.2936l-7.9082.7383,1.16-2.4248,5.3232-.45-2.9834-4.4414,1.1475-2.3965,4.38,6.6367,4.5313,2.168-1.1182,2.3379Z"/><path d="M169.2834,459.858a4.3621,4.3621,0,1,1,6.1162-1.1514A4.0773,4.0773,0,0,1,169.2834,459.858Zm3.4424-5.0908c-1.1816-.7959-2.415-1.0264-3.1289.0361-.6885,1.0225-.1387,2.0684,1.1367,2.9258,1.1826.7949,2.4336,1.0576,3.166-.0322C174.5783,456.6881,174.0149,455.6334,172.7258,454.7672Z"/><path d="M176.62,452.6559l-4.6445-4.1416,1.7158-1.9219,4.0811,3.6416c.5732.5107,1.0742.5732,1.5547.0361a2.897,2.897,0,0,0,.59-1.96l-4.32-3.8545,1.7139-1.9209,6.3613,5.6748-1.7139,1.9219-.99-.8838a3.6831,3.6831,0,0,1-.8369,3.1963A2.2373,2.2373,0,0,1,176.62,452.6559Z"/><path d="M184.0237,439.68c-2.1855-3-1.9229-6.1426.7686-8.1035,1.81-1.3184,3.7842-1.65,6.0986.2471l-1.54,1.9346c-1.3711-1.04-2.3555-1.1143-3.3-.4268-.7764.5654-1.8945,2.0742.0654,4.7637,1.9512,2.6768,3.7334,2.4063,4.7559,1.6621a2.3866,2.3866,0,0,0,.7129-3.1523l-1.67,1.2158-1.1406-1.5645,3.6729-2.6768,3.4961,4.7969-1.6934,1.2354-.9609-1.3193-.0264.0186a3.26,3.26,0,0,1-1.4023,3.3193C188.9651,443.7408,186.1262,442.5631,184.0237,439.68Z"/><path d="M195.0627,433.9869a4.3624,4.3624,0,1,1,5.918,1.93A4.0768,4.0768,0,0,1,195.0627,433.9869Zm5.4658-2.8105c-.6553-1.2656-1.625-2.0605-2.7627-1.4717-1.0937.5654-1.1143,1.7471-.4072,3.1123.6543,1.2646,1.625,2.0967,2.791,1.4932C201.23,433.7506,201.2414,432.5553,200.5285,431.1764Z"/><path d="M205.6731,430.8951l-1.5068-3.9785-1.332.5039-.6621-1.75,1.3311-.5049-1.0361-2.7373,2.3926-.9062,1.0371,2.7373,2.05-.7764.6621,1.75-2.05.7764,1.31,3.4551c.3223.8525.6641,1.0322,1.5322.7031a3.2821,3.2821,0,0,0,.7588-.39l.6514,1.72a12.1806,12.1806,0,0,1-1.541.72C206.9065,433.1129,206.2395,432.3912,205.6731,430.8951Z"/><path d="M183.7932,465.5143l-2.28,2.6807-1.6572-1.41,6.2617-7.3564,1.6563,1.41-2.291,2.6914,7.3564,6.2607L191.15,471.776Z"/><path d="M187.99,457.5924l1.9287-1.708,3.0889,3.4863a3.6563,3.6563,0,0,1,1.1963-3.0918,2.24,2.24,0,0,1,3.5146.2021l4.1279,4.6611-1.9287,1.708-3.5889-4.05c-.5078-.5752-.99-.6836-1.5156-.2168a2.885,2.885,0,0,0-.84,1.877l3.8,4.29-1.9287,1.708Z"/><path d="M196.3557,450.6647l2.1025-1.5166,1.208,1.6748-2.1035,1.5166Zm1.9023,2.6133,2.0781-1.4971,4.9873,6.92-2.0771,1.4971Z"/><path d="M205.6623,456.9821l.1514-1.7607a4.7327,4.7327,0,0,0,3.1123-.5508c.6895-.4062,1.0332-.9248.749-1.4082-.3008-.51-.8-.4756-1.9111-.0615-1.54.5713-3.2246,1.1172-4.2383-.6055-.87-1.4766-.1592-3.0459,1.48-4.0117a5.5023,5.5023,0,0,1,3.8369-.8672l-.13,1.7666a4.5652,4.5652,0,0,0-2.6367.4756c-.6348.374-.8467.833-.61,1.2334.26.4414.7656.3848,1.7725.0137,1.5938-.6035,3.3193-1.1748,4.3018.4941,1.0488,1.7783-.082,3.3916-1.7773,4.3906A5.8876,5.8876,0,0,1,205.6623,456.9821Z"/></g></svg>