<svg width="125" height="91" viewBox="0 0 125 91" xmlns="http://www.w3.org/2000/svg"><title>panel_2 copy</title><g transform="translate(0 2)" fill-rule="nonzero" fill="none"><circle stroke="#000" stroke-width="1.5" fill="#FFC8E0" cx="48" cy="34" r="5"/><g transform="rotate(15 -229.458 149.138)"><path d="M0 4.952l.082-2.945S8.402 1.66 12 6c0 0-4.688-3.681-12-1.048z" fill="#2BD451"/><path d="M11 5s5.84 4.272 10 .697l-.868 2.933S14.045 10.712 11 5z" fill="#2BD451"/><path stroke="#000" stroke-width="1.5" fill="#1CFEFE" d="M3 5.809L6 0l3 5.809L6 11z"/><circle stroke="#000" stroke-width="1.5" fill="#FFDF07" cx="14" cy="5" r="2"/></g><path stroke="#000" stroke-width="1.5" fill="#1CFEFE" d="M40.202 11.618L45 14.655l-5.363 1.908L38.19 22l-3.498-4.44-5.692.325 3.202-4.652-2.071-5.237 5.476 1.565L40.02 6z"/><path fill="#FDE104" d="M15.701 20.863L19 22.95l-3.687 1.312L14.318 28l-2.405-3.052L8 25.171l2.201-3.199-1.424-3.6 3.766 1.076L15.576 17z"/><path d="M97 42.827C96.214 41.928 67.573.773 67.573.773L69.73 51" stroke="#000" stroke-width="1.5" fill="#6B58FF"/><ellipse stroke="#000" stroke-width="1.5" fill="#6B58FF" transform="rotate(-19.123 82.5 45.5)" cx="82.5" cy="45.5" rx="43.5" ry="9.5"/><path d="M118.295 70.311c-8.364 4.72-14.63 7.891-18.8 9.516-4.17 1.624-13.4 3.695-27.69 6.213 0 0-.908-15.285-7.805-30.676 0 0 2.734-7.614 14.493-12.443 16.12-6.62 26.567 2.738 26.567 2.738 1.546 9.359 5.958 17.576 13.235 24.652z" stroke="#000" stroke-width="1.5" fill="#FF5C30"/><path d="M101.173 41.195l3.925 13.926c2.832 7.698-1.227 16.185-9.086 18.998-7.875 2.768-16.559-1.2-19.437-8.881l-1.354-3.647c-.18.176-.382.329-.601.456-1.825 1.057-4.417.078-5.79-2.186-1.372-2.264-1.005-4.956.82-6.013a3.442 3.442 0 0 1 2.66-.284" stroke="#000" stroke-width="1.5" fill="#FFF"/><path d="M74.475 49.573c-1.277 1.207-1.96 1.694-2.977 3.51C80.147 49.751 85.2 56 85.2 56c4.262-3.63 8.304-7.32 6.885-12.769 4.994 1.075 5.754 4.906 5.754 4.906l9.159-3.5c-.964-4.654-2.296-7.975-9.159-8.668-5.654-.57-10.75 1.897-16.93 8.313" stroke="#000" stroke-width="1.5" fill="#FF5C30"/><path d="M84.072 61c-.442-2.765 1.19-5.411 3.651-5.916 2.46-.505 4.82 1.322 5.277 4.084M100.729 63a6.218 6.218 0 0 1-1.371 6.027 6.106 6.106 0 0 1-5.864 1.817A6.155 6.155 0 0 1 89 66.634L100.729 63z" stroke="#000" stroke-width="1.5" fill="#FFF"/><ellipse stroke="#000" stroke-width="1.5" fill="#000" transform="rotate(-10.351 85.5 60.5)" cx="85.5" cy="60.5" rx="1.5" ry="2.5"/><path d="M103 56.176c-.287-1.787-1.407-3.267-2.935-3.879-1.528-.612-3.233-.264-4.469.913-1.236 1.178-1.816 3.004-1.52 4.79" stroke="#000" stroke-width="1.5" fill="#FFF"/><ellipse stroke="#000" stroke-width="1.5" fill="#000" transform="rotate(-10.351 95.5 57.5)" cx="95.5" cy="57.5" rx="1.5" ry="2.5"/><path d="M0 47.544L1.095 43S13.928 45.117 18 53c0 0-5.956-7.208-18-5.456z" fill="#2BD451"/><path d="M15 49s8.206 7.76 16 4.273l-2.27 3.707S18.255 57.794 15 49z" fill="#2BD451"/><path stroke="#000" stroke-width="1.5" fill="#FFA5AF" d="M16 53.808L19 48l3 5.808L19 59z"/><g fill="#F1F2F2" stroke="#000" stroke-width="1.5"><path d="M69.857 72.337c-3.72-1.343-7.622.8-8.735 4.798-1.091 4.005 1.027 8.344 4.74 9.712l1.129.411c3.72 1.344 7.622-.799 8.735-4.797a8.354 8.354 0 0 0-.804-6.292"/><path d="M68.94 75.007s-5.36-7.586-7.655-10.279c-.43-.506-1.076-.671-1.619-.414-.542.258-.867.884-.814 1.569.039.496.185.98.426 1.409l7.234 10.868"/><path d="M67.636 78.373a4.032 4.032 0 0 1 1.805-4.766l-.911-1.421a3.08 3.08 0 0 1 .22-3.643c.89-.575 2.436.654 3.01 1.55l2.645 4.128c.093.145.166.302.218.467a4.057 4.057 0 0 1 .63 3.625 3.998 3.998 0 0 1-2.554 2.62"/><path d="M69.593 79.55s-3.565.198-4.36-.578L62.4 76.209c-.795-.78-.856-2.076-.136-2.9.725-.818 1.956-.853 2.756-.078l2.832 2.763c.795.776 2.462 2.736 1.741 3.555z"/><path d="M68.42 83.888s-3.42.22-4.234-.558l-2.896-2.773c-.814-.783-.87-2.088-.128-2.921.748-.828 2.012-.869 2.83-.09l2.897 2.772c.813.778 2.275 2.742 1.532 3.57z"/><path d="M66.706 86.297s-2.891-.186-3.698-.908l-2.111-1.886c-.807-.725-.846-1.954-.086-2.749.764-.79 2.037-.847 2.85-.126l2.11 1.886c.807.721 1.695 2.992.935 3.783z"/></g></g></svg>